M48
; DRILL file {KiCad 5.1.5+dfsg1-2build2} date Wed 21 Oct 2020 01:18:34 PM CEST
; FORMAT={-:-/ absolute / inch / decimal}
; #@! TF.CreationDate,2020-10-21T13:18:34+02:00
; #@! TF.GenerationSoftware,Kicad,Pcbnew,5.1.5+dfsg1-2build2
; #@! TF.FileFunction,Plated,1,4,PTH
FMAT,2
INCH
T1C0.0157
T2C0.0217
T3C0.0236
T4C0.0335
T5C0.0394
T6C0.0512
T7C0.1693
%
G90
G05
T1
X1.2283Y-3.8898
X1.23Y-4.07
X1.46Y-4.48
X1.5Y-4.16
X1.51Y-4.5
X1.54Y-4.47
X1.56Y-3.46
X1.56Y-3.49
X1.59Y-4.46
X1.62Y-4.43
X1.63Y-4.16
X1.64Y-3.79
X1.69Y-4.16
X1.71Y-3.76
X1.78Y-4.07
X1.82Y-4.73
X1.83Y-4.23
X1.8307Y-3.937
X1.86Y-4.73
X1.98Y-4.26
X2.1102Y-3.937
X2.14Y-3.88
X2.16Y-4.74
X2.18Y-4.6
X2.22Y-4.2
X2.22Y-4.72
X2.25Y-4.72
X2.26Y-4.75
X2.26Y-4.8
X2.26Y-4.86
X2.26Y-4.9
X2.28Y-4.69
X2.31Y-4.11
X2.35Y-4.15
X2.37Y-4.78
X2.37Y-4.88
X2.42Y-4.71
X2.44Y-5.2
X2.44Y-5.23
X2.46Y-4.78
X2.46Y-4.86
X2.57Y-4.58
X2.57Y-4.7
X2.61Y-5.05
X2.61Y-5.32
X2.63Y-4.58
X2.63Y-4.7
X2.65Y-4.99
X2.65Y-5.05
X2.65Y-5.28
X2.8Y-4.34
X2.8Y-4.5
X2.86Y-3.79
X2.97Y-4.72
X2.97Y-4.75
X3.02Y-4.9
X3.02Y-4.94
X3.04Y-4.72
X3.04Y-4.75
X3.09Y-3.82
X3.15Y-4.61
X3.15Y-4.68
X3.3Y-4.16
T3
X3.113Y-3.46
X3.1502Y-3.3702
X3.1502Y-3.5498
X3.24Y-3.333
X3.24Y-3.587
X3.3298Y-3.3702
X3.3298Y-3.5498
X3.367Y-3.46
X3.113Y-5.16
X3.1502Y-5.0702
X3.1502Y-5.2498
X3.24Y-5.033
X3.24Y-5.287
X3.3298Y-5.0702
X3.3298Y-5.2498
X3.367Y-5.16
X1.12Y-5.16
X1.1572Y-5.0702
X1.1572Y-5.2498
X1.247Y-5.033
X1.247Y-5.287
X1.3367Y-5.0702
X1.3367Y-5.2498
X1.3739Y-5.16
X1.12Y-3.46
X1.1572Y-3.3702
X1.1572Y-3.5498
X1.247Y-3.333
X1.247Y-3.587
X1.3367Y-3.3702
X1.3367Y-3.5498
X1.3739Y-3.46
T5
X2.02Y-3.34
X2.12Y-3.34
X2.22Y-3.34
X2.32Y-3.34
X2.5Y-3.34
X2.5Y-3.44
X2.6Y-3.34
X2.6Y-3.44
X2.7Y-3.34
X2.7Y-3.44
X2.8Y-3.34
X2.8Y-3.44
X2.9Y-3.34
X2.9Y-3.44
X1.86Y-5.3
X1.96Y-5.3
X2.06Y-5.3
X2.16Y-5.3
X1.1Y-4.44
X1.1Y-4.54
X1.1Y-4.64
X1.1Y-4.74
X3.36Y-4.14
X3.36Y-4.24
X3.36Y-4.34
X3.36Y-4.44
X1.52Y-3.34
X1.62Y-3.34
X1.72Y-3.34
X1.82Y-3.34
T6
X3.22Y-4.6431
X3.22Y-4.84
T7
X3.24Y-5.16
X1.247Y-5.16
X1.247Y-3.46
X3.24Y-3.46
T2
G00X3.304Y-3.7134
M15
G01X3.3296Y-3.7134
M16
G05
G00X3.304Y-4.0186
M15
G01X3.3296Y-4.0186
M16
G05
T4
G00X3.1563Y-3.7193
M15
G01X3.178Y-3.7193
M16
G05
G00X3.1563Y-4.0127
M15
G01X3.178Y-4.0127
M16
G05
T0
M30
