G04 #@! TF.GenerationSoftware,KiCad,Pcbnew,5.1.5+dfsg1-2build2*
G04 #@! TF.CreationDate,2020-10-21T13:18:50+02:00*
G04 #@! TF.ProjectId,test_board,74657374-5f62-46f6-9172-642e6b696361,rev?*
G04 #@! TF.SameCoordinates,Original*
G04 #@! TF.FileFunction,Soldermask,Top*
G04 #@! TF.FilePolarity,Negative*
%FSLAX46Y46*%
G04 Gerber Fmt 4.6, Leading zero omitted, Abs format (unit mm)*
G04 Created by KiCad (PCBNEW 5.1.5+dfsg1-2build2) date 2020-10-21 13:18:50*
%MOMM*%
%LPD*%
G04 APERTURE LIST*
%ADD10C,0.100000*%
G04 APERTURE END LIST*
D10*
G36*
X55765000Y-135521000D02*
G01*
X53963000Y-135521000D01*
X53963000Y-133719000D01*
X55765000Y-133719000D01*
X55765000Y-135521000D01*
G37*
G36*
X52437512Y-133723927D02*
G01*
X52586812Y-133753624D01*
X52750784Y-133821544D01*
X52898354Y-133920147D01*
X53023853Y-134045646D01*
X53122456Y-134193216D01*
X53190376Y-134357188D01*
X53225000Y-134531259D01*
X53225000Y-134708741D01*
X53190376Y-134882812D01*
X53122456Y-135046784D01*
X53023853Y-135194354D01*
X52898354Y-135319853D01*
X52750784Y-135418456D01*
X52586812Y-135486376D01*
X52437512Y-135516073D01*
X52412742Y-135521000D01*
X52235258Y-135521000D01*
X52210488Y-135516073D01*
X52061188Y-135486376D01*
X51897216Y-135418456D01*
X51749646Y-135319853D01*
X51624147Y-135194354D01*
X51525544Y-135046784D01*
X51457624Y-134882812D01*
X51423000Y-134708741D01*
X51423000Y-134531259D01*
X51457624Y-134357188D01*
X51525544Y-134193216D01*
X51624147Y-134045646D01*
X51749646Y-133920147D01*
X51897216Y-133821544D01*
X52061188Y-133753624D01*
X52210488Y-133723927D01*
X52235258Y-133719000D01*
X52412742Y-133719000D01*
X52437512Y-133723927D01*
G37*
G36*
X47357512Y-133723927D02*
G01*
X47506812Y-133753624D01*
X47670784Y-133821544D01*
X47818354Y-133920147D01*
X47943853Y-134045646D01*
X48042456Y-134193216D01*
X48110376Y-134357188D01*
X48145000Y-134531259D01*
X48145000Y-134708741D01*
X48110376Y-134882812D01*
X48042456Y-135046784D01*
X47943853Y-135194354D01*
X47818354Y-135319853D01*
X47670784Y-135418456D01*
X47506812Y-135486376D01*
X47357512Y-135516073D01*
X47332742Y-135521000D01*
X47155258Y-135521000D01*
X47130488Y-135516073D01*
X46981188Y-135486376D01*
X46817216Y-135418456D01*
X46669646Y-135319853D01*
X46544147Y-135194354D01*
X46445544Y-135046784D01*
X46377624Y-134882812D01*
X46343000Y-134708741D01*
X46343000Y-134531259D01*
X46377624Y-134357188D01*
X46445544Y-134193216D01*
X46544147Y-134045646D01*
X46669646Y-133920147D01*
X46817216Y-133821544D01*
X46981188Y-133753624D01*
X47130488Y-133723927D01*
X47155258Y-133719000D01*
X47332742Y-133719000D01*
X47357512Y-133723927D01*
G37*
G36*
X49897512Y-133723927D02*
G01*
X50046812Y-133753624D01*
X50210784Y-133821544D01*
X50358354Y-133920147D01*
X50483853Y-134045646D01*
X50582456Y-134193216D01*
X50650376Y-134357188D01*
X50685000Y-134531259D01*
X50685000Y-134708741D01*
X50650376Y-134882812D01*
X50582456Y-135046784D01*
X50483853Y-135194354D01*
X50358354Y-135319853D01*
X50210784Y-135418456D01*
X50046812Y-135486376D01*
X49897512Y-135516073D01*
X49872742Y-135521000D01*
X49695258Y-135521000D01*
X49670488Y-135516073D01*
X49521188Y-135486376D01*
X49357216Y-135418456D01*
X49209646Y-135319853D01*
X49084147Y-135194354D01*
X48985544Y-135046784D01*
X48917624Y-134882812D01*
X48883000Y-134708741D01*
X48883000Y-134531259D01*
X48917624Y-134357188D01*
X48985544Y-134193216D01*
X49084147Y-134045646D01*
X49209646Y-133920147D01*
X49357216Y-133821544D01*
X49521188Y-133753624D01*
X49670488Y-133723927D01*
X49695258Y-133719000D01*
X49872742Y-133719000D01*
X49897512Y-133723927D01*
G37*
G36*
X82791606Y-126726341D02*
G01*
X83565140Y-126880206D01*
X84356972Y-127208193D01*
X85069601Y-127684357D01*
X85675643Y-128290399D01*
X86151807Y-129003028D01*
X86479794Y-129794860D01*
X86647000Y-130635464D01*
X86647000Y-131492536D01*
X86479794Y-132333140D01*
X86151807Y-133124972D01*
X85675643Y-133837601D01*
X85069601Y-134443643D01*
X84356972Y-134919807D01*
X83565140Y-135247794D01*
X82844156Y-135391206D01*
X82724537Y-135415000D01*
X81867463Y-135415000D01*
X81747844Y-135391206D01*
X81026860Y-135247794D01*
X80235028Y-134919807D01*
X79522399Y-134443643D01*
X78916357Y-133837601D01*
X78440193Y-133124972D01*
X78112206Y-132333140D01*
X77945000Y-131492536D01*
X77945000Y-130635464D01*
X78112206Y-129794860D01*
X78440193Y-129003028D01*
X78916357Y-128290399D01*
X79522399Y-127684357D01*
X80235028Y-127208193D01*
X81026860Y-126880206D01*
X81800394Y-126726341D01*
X81867463Y-126713000D01*
X82724537Y-126713000D01*
X82791606Y-126726341D01*
G37*
G36*
X32168606Y-126726341D02*
G01*
X32942140Y-126880206D01*
X33733972Y-127208193D01*
X34446601Y-127684357D01*
X35052643Y-128290399D01*
X35528807Y-129003028D01*
X35856794Y-129794860D01*
X36024000Y-130635464D01*
X36024000Y-131492536D01*
X35856794Y-132333140D01*
X35528807Y-133124972D01*
X35052643Y-133837601D01*
X34446601Y-134443643D01*
X33733972Y-134919807D01*
X32942140Y-135247794D01*
X32221156Y-135391206D01*
X32101537Y-135415000D01*
X31244463Y-135415000D01*
X31124844Y-135391206D01*
X30403860Y-135247794D01*
X29612028Y-134919807D01*
X28899399Y-134443643D01*
X28293357Y-133837601D01*
X27817193Y-133124972D01*
X27489206Y-132333140D01*
X27322000Y-131492536D01*
X27322000Y-130635464D01*
X27489206Y-129794860D01*
X27817193Y-129003028D01*
X28293357Y-128290399D01*
X28899399Y-127684357D01*
X29612028Y-127208193D01*
X30403860Y-126880206D01*
X31177394Y-126726341D01*
X31244463Y-126713000D01*
X32101537Y-126713000D01*
X32168606Y-126726341D01*
G37*
G36*
X64895591Y-133653085D02*
G01*
X64929569Y-133663393D01*
X64960890Y-133680134D01*
X64988339Y-133702661D01*
X65010866Y-133730110D01*
X65027607Y-133761431D01*
X65037915Y-133795409D01*
X65042000Y-133836890D01*
X65042000Y-134438110D01*
X65037915Y-134479591D01*
X65027607Y-134513569D01*
X65010866Y-134544890D01*
X64988339Y-134572339D01*
X64960890Y-134594866D01*
X64929569Y-134611607D01*
X64895591Y-134621915D01*
X64854110Y-134626000D01*
X64177890Y-134626000D01*
X64136409Y-134621915D01*
X64102431Y-134611607D01*
X64071110Y-134594866D01*
X64043661Y-134572339D01*
X64021134Y-134544890D01*
X64004393Y-134513569D01*
X63994085Y-134479591D01*
X63990000Y-134438110D01*
X63990000Y-133836890D01*
X63994085Y-133795409D01*
X64004393Y-133761431D01*
X64021134Y-133730110D01*
X64043661Y-133702661D01*
X64071110Y-133680134D01*
X64102431Y-133663393D01*
X64136409Y-133653085D01*
X64177890Y-133649000D01*
X64854110Y-133649000D01*
X64895591Y-133653085D01*
G37*
G36*
X66546591Y-133653085D02*
G01*
X66580569Y-133663393D01*
X66611890Y-133680134D01*
X66639339Y-133702661D01*
X66661866Y-133730110D01*
X66678607Y-133761431D01*
X66688915Y-133795409D01*
X66693000Y-133836890D01*
X66693000Y-134438110D01*
X66688915Y-134479591D01*
X66678607Y-134513569D01*
X66661866Y-134544890D01*
X66639339Y-134572339D01*
X66611890Y-134594866D01*
X66580569Y-134611607D01*
X66546591Y-134621915D01*
X66505110Y-134626000D01*
X65828890Y-134626000D01*
X65787409Y-134621915D01*
X65753431Y-134611607D01*
X65722110Y-134594866D01*
X65694661Y-134572339D01*
X65672134Y-134544890D01*
X65655393Y-134513569D01*
X65645085Y-134479591D01*
X65641000Y-134438110D01*
X65641000Y-133836890D01*
X65645085Y-133795409D01*
X65655393Y-133761431D01*
X65672134Y-133730110D01*
X65694661Y-133702661D01*
X65722110Y-133680134D01*
X65753431Y-133663393D01*
X65787409Y-133653085D01*
X65828890Y-133649000D01*
X66505110Y-133649000D01*
X66546591Y-133653085D01*
G37*
G36*
X63371591Y-133653085D02*
G01*
X63405569Y-133663393D01*
X63436890Y-133680134D01*
X63464339Y-133702661D01*
X63486866Y-133730110D01*
X63503607Y-133761431D01*
X63513915Y-133795409D01*
X63518000Y-133836890D01*
X63518000Y-134438110D01*
X63513915Y-134479591D01*
X63503607Y-134513569D01*
X63486866Y-134544890D01*
X63464339Y-134572339D01*
X63436890Y-134594866D01*
X63405569Y-134611607D01*
X63371591Y-134621915D01*
X63330110Y-134626000D01*
X62653890Y-134626000D01*
X62612409Y-134621915D01*
X62578431Y-134611607D01*
X62547110Y-134594866D01*
X62519661Y-134572339D01*
X62497134Y-134544890D01*
X62480393Y-134513569D01*
X62470085Y-134479591D01*
X62466000Y-134438110D01*
X62466000Y-133836890D01*
X62470085Y-133795409D01*
X62480393Y-133761431D01*
X62497134Y-133730110D01*
X62519661Y-133702661D01*
X62547110Y-133680134D01*
X62578431Y-133663393D01*
X62612409Y-133653085D01*
X62653890Y-133649000D01*
X63330110Y-133649000D01*
X63371591Y-133653085D01*
G37*
G36*
X63371591Y-132078085D02*
G01*
X63405569Y-132088393D01*
X63436890Y-132105134D01*
X63464339Y-132127661D01*
X63486866Y-132155110D01*
X63503607Y-132186431D01*
X63513915Y-132220409D01*
X63518000Y-132261890D01*
X63518000Y-132863110D01*
X63513915Y-132904591D01*
X63503607Y-132938569D01*
X63486866Y-132969890D01*
X63464339Y-132997339D01*
X63436890Y-133019866D01*
X63405569Y-133036607D01*
X63371591Y-133046915D01*
X63330110Y-133051000D01*
X62653890Y-133051000D01*
X62612409Y-133046915D01*
X62578431Y-133036607D01*
X62547110Y-133019866D01*
X62519661Y-132997339D01*
X62497134Y-132969890D01*
X62480393Y-132938569D01*
X62470085Y-132904591D01*
X62466000Y-132863110D01*
X62466000Y-132261890D01*
X62470085Y-132220409D01*
X62480393Y-132186431D01*
X62497134Y-132155110D01*
X62519661Y-132127661D01*
X62547110Y-132105134D01*
X62578431Y-132088393D01*
X62612409Y-132078085D01*
X62653890Y-132074000D01*
X63330110Y-132074000D01*
X63371591Y-132078085D01*
G37*
G36*
X66546591Y-132078085D02*
G01*
X66580569Y-132088393D01*
X66611890Y-132105134D01*
X66639339Y-132127661D01*
X66661866Y-132155110D01*
X66678607Y-132186431D01*
X66688915Y-132220409D01*
X66693000Y-132261890D01*
X66693000Y-132863110D01*
X66688915Y-132904591D01*
X66678607Y-132938569D01*
X66661866Y-132969890D01*
X66639339Y-132997339D01*
X66611890Y-133019866D01*
X66580569Y-133036607D01*
X66546591Y-133046915D01*
X66505110Y-133051000D01*
X65828890Y-133051000D01*
X65787409Y-133046915D01*
X65753431Y-133036607D01*
X65722110Y-133019866D01*
X65694661Y-132997339D01*
X65672134Y-132969890D01*
X65655393Y-132938569D01*
X65645085Y-132904591D01*
X65641000Y-132863110D01*
X65641000Y-132261890D01*
X65645085Y-132220409D01*
X65655393Y-132186431D01*
X65672134Y-132155110D01*
X65694661Y-132127661D01*
X65722110Y-132105134D01*
X65753431Y-132088393D01*
X65787409Y-132078085D01*
X65828890Y-132074000D01*
X66505110Y-132074000D01*
X66546591Y-132078085D01*
G37*
G36*
X64895591Y-132078085D02*
G01*
X64929569Y-132088393D01*
X64960890Y-132105134D01*
X64988339Y-132127661D01*
X65010866Y-132155110D01*
X65027607Y-132186431D01*
X65037915Y-132220409D01*
X65042000Y-132261890D01*
X65042000Y-132863110D01*
X65037915Y-132904591D01*
X65027607Y-132938569D01*
X65010866Y-132969890D01*
X64988339Y-132997339D01*
X64960890Y-133019866D01*
X64929569Y-133036607D01*
X64895591Y-133046915D01*
X64854110Y-133051000D01*
X64177890Y-133051000D01*
X64136409Y-133046915D01*
X64102431Y-133036607D01*
X64071110Y-133019866D01*
X64043661Y-132997339D01*
X64021134Y-132969890D01*
X64004393Y-132938569D01*
X63994085Y-132904591D01*
X63990000Y-132863110D01*
X63990000Y-132261890D01*
X63994085Y-132220409D01*
X64004393Y-132186431D01*
X64021134Y-132155110D01*
X64043661Y-132127661D01*
X64071110Y-132105134D01*
X64102431Y-132088393D01*
X64136409Y-132078085D01*
X64177890Y-132074000D01*
X64854110Y-132074000D01*
X64895591Y-132078085D01*
G37*
G36*
X70991591Y-130859085D02*
G01*
X71025569Y-130869393D01*
X71056890Y-130886134D01*
X71084339Y-130908661D01*
X71106866Y-130936110D01*
X71123607Y-130967431D01*
X71133915Y-131001409D01*
X71138000Y-131042890D01*
X71138000Y-131644110D01*
X71133915Y-131685591D01*
X71123607Y-131719569D01*
X71106866Y-131750890D01*
X71084339Y-131778339D01*
X71056890Y-131800866D01*
X71025569Y-131817607D01*
X70991591Y-131827915D01*
X70950110Y-131832000D01*
X70273890Y-131832000D01*
X70232409Y-131827915D01*
X70198431Y-131817607D01*
X70167110Y-131800866D01*
X70139661Y-131778339D01*
X70117134Y-131750890D01*
X70100393Y-131719569D01*
X70090085Y-131685591D01*
X70086000Y-131644110D01*
X70086000Y-131042890D01*
X70090085Y-131001409D01*
X70100393Y-130967431D01*
X70117134Y-130936110D01*
X70139661Y-130908661D01*
X70167110Y-130886134D01*
X70198431Y-130869393D01*
X70232409Y-130859085D01*
X70273890Y-130855000D01*
X70950110Y-130855000D01*
X70991591Y-130859085D01*
G37*
G36*
X69467591Y-130859085D02*
G01*
X69501569Y-130869393D01*
X69532890Y-130886134D01*
X69560339Y-130908661D01*
X69582866Y-130936110D01*
X69599607Y-130967431D01*
X69609915Y-131001409D01*
X69614000Y-131042890D01*
X69614000Y-131644110D01*
X69609915Y-131685591D01*
X69599607Y-131719569D01*
X69582866Y-131750890D01*
X69560339Y-131778339D01*
X69532890Y-131800866D01*
X69501569Y-131817607D01*
X69467591Y-131827915D01*
X69426110Y-131832000D01*
X68749890Y-131832000D01*
X68708409Y-131827915D01*
X68674431Y-131817607D01*
X68643110Y-131800866D01*
X68615661Y-131778339D01*
X68593134Y-131750890D01*
X68576393Y-131719569D01*
X68566085Y-131685591D01*
X68562000Y-131644110D01*
X68562000Y-131042890D01*
X68566085Y-131001409D01*
X68576393Y-130967431D01*
X68593134Y-130936110D01*
X68615661Y-130908661D01*
X68643110Y-130886134D01*
X68674431Y-130869393D01*
X68708409Y-130859085D01*
X68749890Y-130855000D01*
X69426110Y-130855000D01*
X69467591Y-130859085D01*
G37*
G36*
X63724000Y-131014000D02*
G01*
X63022000Y-131014000D01*
X63022000Y-128942000D01*
X63724000Y-128942000D01*
X63724000Y-131014000D01*
G37*
G36*
X67534000Y-131014000D02*
G01*
X66832000Y-131014000D01*
X66832000Y-128942000D01*
X67534000Y-128942000D01*
X67534000Y-131014000D01*
G37*
G36*
X66264000Y-131014000D02*
G01*
X65562000Y-131014000D01*
X65562000Y-128942000D01*
X66264000Y-128942000D01*
X66264000Y-131014000D01*
G37*
G36*
X64994000Y-131014000D02*
G01*
X64292000Y-131014000D01*
X64292000Y-128942000D01*
X64994000Y-128942000D01*
X64994000Y-131014000D01*
G37*
G36*
X70991591Y-129284085D02*
G01*
X71025569Y-129294393D01*
X71056890Y-129311134D01*
X71084339Y-129333661D01*
X71106866Y-129361110D01*
X71123607Y-129392431D01*
X71133915Y-129426409D01*
X71138000Y-129467890D01*
X71138000Y-130069110D01*
X71133915Y-130110591D01*
X71123607Y-130144569D01*
X71106866Y-130175890D01*
X71084339Y-130203339D01*
X71056890Y-130225866D01*
X71025569Y-130242607D01*
X70991591Y-130252915D01*
X70950110Y-130257000D01*
X70273890Y-130257000D01*
X70232409Y-130252915D01*
X70198431Y-130242607D01*
X70167110Y-130225866D01*
X70139661Y-130203339D01*
X70117134Y-130175890D01*
X70100393Y-130144569D01*
X70090085Y-130110591D01*
X70086000Y-130069110D01*
X70086000Y-129467890D01*
X70090085Y-129426409D01*
X70100393Y-129392431D01*
X70117134Y-129361110D01*
X70139661Y-129333661D01*
X70167110Y-129311134D01*
X70198431Y-129294393D01*
X70232409Y-129284085D01*
X70273890Y-129280000D01*
X70950110Y-129280000D01*
X70991591Y-129284085D01*
G37*
G36*
X69467591Y-129284085D02*
G01*
X69501569Y-129294393D01*
X69532890Y-129311134D01*
X69560339Y-129333661D01*
X69582866Y-129361110D01*
X69599607Y-129392431D01*
X69609915Y-129426409D01*
X69614000Y-129467890D01*
X69614000Y-130069110D01*
X69609915Y-130110591D01*
X69599607Y-130144569D01*
X69582866Y-130175890D01*
X69560339Y-130203339D01*
X69532890Y-130225866D01*
X69501569Y-130242607D01*
X69467591Y-130252915D01*
X69426110Y-130257000D01*
X68749890Y-130257000D01*
X68708409Y-130252915D01*
X68674431Y-130242607D01*
X68643110Y-130225866D01*
X68615661Y-130203339D01*
X68593134Y-130175890D01*
X68576393Y-130144569D01*
X68566085Y-130110591D01*
X68562000Y-130069110D01*
X68562000Y-129467890D01*
X68566085Y-129426409D01*
X68576393Y-129392431D01*
X68593134Y-129361110D01*
X68615661Y-129333661D01*
X68643110Y-129311134D01*
X68674431Y-129294393D01*
X68708409Y-129284085D01*
X68749890Y-129280000D01*
X69426110Y-129280000D01*
X69467591Y-129284085D01*
G37*
G36*
X61728604Y-128236347D02*
G01*
X61765144Y-128247432D01*
X61798821Y-128265433D01*
X61828341Y-128289659D01*
X61852567Y-128319179D01*
X61870568Y-128352856D01*
X61881653Y-128389396D01*
X61886000Y-128433538D01*
X61886000Y-129382462D01*
X61881653Y-129426604D01*
X61870568Y-129463144D01*
X61852567Y-129496821D01*
X61828341Y-129526341D01*
X61798821Y-129550567D01*
X61765144Y-129568568D01*
X61728604Y-129579653D01*
X61684462Y-129584000D01*
X60235538Y-129584000D01*
X60191396Y-129579653D01*
X60154856Y-129568568D01*
X60121179Y-129550567D01*
X60091659Y-129526341D01*
X60067433Y-129496821D01*
X60049432Y-129463144D01*
X60038347Y-129426604D01*
X60034000Y-129382462D01*
X60034000Y-128433538D01*
X60038347Y-128389396D01*
X60049432Y-128352856D01*
X60067433Y-128319179D01*
X60091659Y-128289659D01*
X60121179Y-128265433D01*
X60154856Y-128247432D01*
X60191396Y-128236347D01*
X60235538Y-128232000D01*
X61684462Y-128232000D01*
X61728604Y-128236347D01*
G37*
G36*
X69730604Y-126586347D02*
G01*
X69767144Y-126597432D01*
X69800821Y-126615433D01*
X69830341Y-126639659D01*
X69854567Y-126669179D01*
X69872568Y-126702856D01*
X69883653Y-126739396D01*
X69888000Y-126783538D01*
X69888000Y-128232462D01*
X69883653Y-128276604D01*
X69872568Y-128313144D01*
X69854567Y-128346821D01*
X69830341Y-128376341D01*
X69800821Y-128400567D01*
X69767144Y-128418568D01*
X69730604Y-128429653D01*
X69686462Y-128434000D01*
X68737538Y-128434000D01*
X68693396Y-128429653D01*
X68656856Y-128418568D01*
X68623179Y-128400567D01*
X68593659Y-128376341D01*
X68569433Y-128346821D01*
X68551432Y-128313144D01*
X68540347Y-128276604D01*
X68536000Y-128232462D01*
X68536000Y-126783538D01*
X68540347Y-126739396D01*
X68551432Y-126702856D01*
X68569433Y-126669179D01*
X68593659Y-126639659D01*
X68623179Y-126615433D01*
X68656856Y-126597432D01*
X68693396Y-126586347D01*
X68737538Y-126582000D01*
X69686462Y-126582000D01*
X69730604Y-126586347D01*
G37*
G36*
X72530604Y-126586347D02*
G01*
X72567144Y-126597432D01*
X72600821Y-126615433D01*
X72630341Y-126639659D01*
X72654567Y-126669179D01*
X72672568Y-126702856D01*
X72683653Y-126739396D01*
X72688000Y-126783538D01*
X72688000Y-128232462D01*
X72683653Y-128276604D01*
X72672568Y-128313144D01*
X72654567Y-128346821D01*
X72630341Y-128376341D01*
X72600821Y-128400567D01*
X72567144Y-128418568D01*
X72530604Y-128429653D01*
X72486462Y-128434000D01*
X71537538Y-128434000D01*
X71493396Y-128429653D01*
X71456856Y-128418568D01*
X71423179Y-128400567D01*
X71393659Y-128376341D01*
X71369433Y-128346821D01*
X71351432Y-128313144D01*
X71340347Y-128276604D01*
X71336000Y-128232462D01*
X71336000Y-126783538D01*
X71340347Y-126739396D01*
X71351432Y-126702856D01*
X71369433Y-126669179D01*
X71393659Y-126639659D01*
X71423179Y-126615433D01*
X71456856Y-126597432D01*
X71493396Y-126586347D01*
X71537538Y-126582000D01*
X72486462Y-126582000D01*
X72530604Y-126586347D01*
G37*
G36*
X75127000Y-127485000D02*
G01*
X74225000Y-127485000D01*
X74225000Y-126483000D01*
X75127000Y-126483000D01*
X75127000Y-127485000D01*
G37*
G36*
X61728604Y-125436347D02*
G01*
X61765144Y-125447432D01*
X61798821Y-125465433D01*
X61828341Y-125489659D01*
X61852567Y-125519179D01*
X61870568Y-125552856D01*
X61881653Y-125589396D01*
X61886000Y-125633538D01*
X61886000Y-126582462D01*
X61881653Y-126626604D01*
X61870568Y-126663144D01*
X61852567Y-126696821D01*
X61828341Y-126726341D01*
X61798821Y-126750567D01*
X61765144Y-126768568D01*
X61728604Y-126779653D01*
X61684462Y-126784000D01*
X60235538Y-126784000D01*
X60191396Y-126779653D01*
X60154856Y-126768568D01*
X60121179Y-126750567D01*
X60091659Y-126726341D01*
X60067433Y-126696821D01*
X60049432Y-126663144D01*
X60038347Y-126626604D01*
X60034000Y-126582462D01*
X60034000Y-125633538D01*
X60038347Y-125589396D01*
X60049432Y-125552856D01*
X60067433Y-125519179D01*
X60091659Y-125489659D01*
X60121179Y-125465433D01*
X60154856Y-125447432D01*
X60191396Y-125436347D01*
X60235538Y-125432000D01*
X61684462Y-125432000D01*
X61728604Y-125436347D01*
G37*
G36*
X64994000Y-126074000D02*
G01*
X64292000Y-126074000D01*
X64292000Y-124002000D01*
X64994000Y-124002000D01*
X64994000Y-126074000D01*
G37*
G36*
X63724000Y-126074000D02*
G01*
X63022000Y-126074000D01*
X63022000Y-124002000D01*
X63724000Y-124002000D01*
X63724000Y-126074000D01*
G37*
G36*
X67534000Y-126074000D02*
G01*
X66832000Y-126074000D01*
X66832000Y-124002000D01*
X67534000Y-124002000D01*
X67534000Y-126074000D01*
G37*
G36*
X66264000Y-126074000D02*
G01*
X65562000Y-126074000D01*
X65562000Y-124002000D01*
X66264000Y-124002000D01*
X66264000Y-126074000D01*
G37*
G36*
X71413468Y-124221565D02*
G01*
X71452138Y-124233296D01*
X71487777Y-124252346D01*
X71519017Y-124277983D01*
X71544654Y-124309223D01*
X71563704Y-124344862D01*
X71575435Y-124383532D01*
X71580000Y-124429888D01*
X71580000Y-125506112D01*
X71575435Y-125552468D01*
X71563704Y-125591138D01*
X71544654Y-125626777D01*
X71519017Y-125658017D01*
X71487777Y-125683654D01*
X71452138Y-125702704D01*
X71413468Y-125714435D01*
X71367112Y-125719000D01*
X70715888Y-125719000D01*
X70669532Y-125714435D01*
X70630862Y-125702704D01*
X70595223Y-125683654D01*
X70563983Y-125658017D01*
X70538346Y-125626777D01*
X70519296Y-125591138D01*
X70507565Y-125552468D01*
X70503000Y-125506112D01*
X70503000Y-124429888D01*
X70507565Y-124383532D01*
X70519296Y-124344862D01*
X70538346Y-124309223D01*
X70563983Y-124277983D01*
X70595223Y-124252346D01*
X70630862Y-124233296D01*
X70669532Y-124221565D01*
X70715888Y-124217000D01*
X71367112Y-124217000D01*
X71413468Y-124221565D01*
G37*
G36*
X69538468Y-124221565D02*
G01*
X69577138Y-124233296D01*
X69612777Y-124252346D01*
X69644017Y-124277983D01*
X69669654Y-124309223D01*
X69688704Y-124344862D01*
X69700435Y-124383532D01*
X69705000Y-124429888D01*
X69705000Y-125506112D01*
X69700435Y-125552468D01*
X69688704Y-125591138D01*
X69669654Y-125626777D01*
X69644017Y-125658017D01*
X69612777Y-125683654D01*
X69577138Y-125702704D01*
X69538468Y-125714435D01*
X69492112Y-125719000D01*
X68840888Y-125719000D01*
X68794532Y-125714435D01*
X68755862Y-125702704D01*
X68720223Y-125683654D01*
X68688983Y-125658017D01*
X68663346Y-125626777D01*
X68644296Y-125591138D01*
X68632565Y-125552468D01*
X68628000Y-125506112D01*
X68628000Y-124429888D01*
X68632565Y-124383532D01*
X68644296Y-124344862D01*
X68663346Y-124309223D01*
X68688983Y-124277983D01*
X68720223Y-124252346D01*
X68755862Y-124233296D01*
X68794532Y-124221565D01*
X68840888Y-124217000D01*
X69492112Y-124217000D01*
X69538468Y-124221565D01*
G37*
G36*
X74177000Y-125485000D02*
G01*
X73275000Y-125485000D01*
X73275000Y-124483000D01*
X74177000Y-124483000D01*
X74177000Y-125485000D01*
G37*
G36*
X76077000Y-125485000D02*
G01*
X75175000Y-125485000D01*
X75175000Y-124483000D01*
X76077000Y-124483000D01*
X76077000Y-125485000D01*
G37*
G36*
X59062604Y-123030347D02*
G01*
X59099144Y-123041432D01*
X59132821Y-123059433D01*
X59162341Y-123083659D01*
X59186567Y-123113179D01*
X59204568Y-123146856D01*
X59215653Y-123183396D01*
X59220000Y-123227538D01*
X59220000Y-124676462D01*
X59215653Y-124720604D01*
X59204568Y-124757144D01*
X59186567Y-124790821D01*
X59162341Y-124820341D01*
X59132821Y-124844567D01*
X59099144Y-124862568D01*
X59062604Y-124873653D01*
X59018462Y-124878000D01*
X58069538Y-124878000D01*
X58025396Y-124873653D01*
X57988856Y-124862568D01*
X57955179Y-124844567D01*
X57925659Y-124820341D01*
X57901433Y-124790821D01*
X57883432Y-124757144D01*
X57872347Y-124720604D01*
X57868000Y-124676462D01*
X57868000Y-123227538D01*
X57872347Y-123183396D01*
X57883432Y-123146856D01*
X57901433Y-123113179D01*
X57925659Y-123083659D01*
X57955179Y-123059433D01*
X57988856Y-123041432D01*
X58025396Y-123030347D01*
X58069538Y-123026000D01*
X59018462Y-123026000D01*
X59062604Y-123030347D01*
G37*
G36*
X61862604Y-123030347D02*
G01*
X61899144Y-123041432D01*
X61932821Y-123059433D01*
X61962341Y-123083659D01*
X61986567Y-123113179D01*
X62004568Y-123146856D01*
X62015653Y-123183396D01*
X62020000Y-123227538D01*
X62020000Y-124676462D01*
X62015653Y-124720604D01*
X62004568Y-124757144D01*
X61986567Y-124790821D01*
X61962341Y-124820341D01*
X61932821Y-124844567D01*
X61899144Y-124862568D01*
X61862604Y-124873653D01*
X61818462Y-124878000D01*
X60869538Y-124878000D01*
X60825396Y-124873653D01*
X60788856Y-124862568D01*
X60755179Y-124844567D01*
X60725659Y-124820341D01*
X60701433Y-124790821D01*
X60683432Y-124757144D01*
X60672347Y-124720604D01*
X60668000Y-124676462D01*
X60668000Y-123227538D01*
X60672347Y-123183396D01*
X60683432Y-123146856D01*
X60701433Y-123113179D01*
X60725659Y-123083659D01*
X60755179Y-123059433D01*
X60788856Y-123041432D01*
X60825396Y-123030347D01*
X60869538Y-123026000D01*
X61818462Y-123026000D01*
X61862604Y-123030347D01*
G37*
G36*
X83139000Y-124287000D02*
G01*
X80437000Y-124287000D01*
X80437000Y-121585000D01*
X83139000Y-121585000D01*
X83139000Y-124287000D01*
G37*
G36*
X73670604Y-122014347D02*
G01*
X73707144Y-122025432D01*
X73740821Y-122043433D01*
X73770341Y-122067659D01*
X73794567Y-122097179D01*
X73812568Y-122130856D01*
X73823653Y-122167396D01*
X73828000Y-122211538D01*
X73828000Y-123660462D01*
X73823653Y-123704604D01*
X73812568Y-123741144D01*
X73794567Y-123774821D01*
X73770341Y-123804341D01*
X73740821Y-123828567D01*
X73707144Y-123846568D01*
X73670604Y-123857653D01*
X73626462Y-123862000D01*
X72677538Y-123862000D01*
X72633396Y-123857653D01*
X72596856Y-123846568D01*
X72563179Y-123828567D01*
X72533659Y-123804341D01*
X72509433Y-123774821D01*
X72491432Y-123741144D01*
X72480347Y-123704604D01*
X72476000Y-123660462D01*
X72476000Y-122211538D01*
X72480347Y-122167396D01*
X72491432Y-122130856D01*
X72509433Y-122097179D01*
X72533659Y-122067659D01*
X72563179Y-122043433D01*
X72596856Y-122025432D01*
X72633396Y-122014347D01*
X72677538Y-122010000D01*
X73626462Y-122010000D01*
X73670604Y-122014347D01*
G37*
G36*
X76470604Y-122014347D02*
G01*
X76507144Y-122025432D01*
X76540821Y-122043433D01*
X76570341Y-122067659D01*
X76594567Y-122097179D01*
X76612568Y-122130856D01*
X76623653Y-122167396D01*
X76628000Y-122211538D01*
X76628000Y-123660462D01*
X76623653Y-123704604D01*
X76612568Y-123741144D01*
X76594567Y-123774821D01*
X76570341Y-123804341D01*
X76540821Y-123828567D01*
X76507144Y-123846568D01*
X76470604Y-123857653D01*
X76426462Y-123862000D01*
X75477538Y-123862000D01*
X75433396Y-123857653D01*
X75396856Y-123846568D01*
X75363179Y-123828567D01*
X75333659Y-123804341D01*
X75309433Y-123774821D01*
X75291432Y-123741144D01*
X75280347Y-123704604D01*
X75276000Y-123660462D01*
X75276000Y-122211538D01*
X75280347Y-122167396D01*
X75291432Y-122130856D01*
X75309433Y-122097179D01*
X75333659Y-122067659D01*
X75363179Y-122043433D01*
X75396856Y-122025432D01*
X75433396Y-122014347D01*
X75477538Y-122010000D01*
X76426462Y-122010000D01*
X76470604Y-122014347D01*
G37*
G36*
X71771000Y-123055000D02*
G01*
X70469000Y-123055000D01*
X70469000Y-122053000D01*
X71771000Y-122053000D01*
X71771000Y-123055000D01*
G37*
G36*
X67341000Y-122939000D02*
G01*
X64739000Y-122939000D01*
X64739000Y-120937000D01*
X67341000Y-120937000D01*
X67341000Y-122939000D01*
G37*
G36*
X61862604Y-120490347D02*
G01*
X61899144Y-120501432D01*
X61932821Y-120519433D01*
X61962341Y-120543659D01*
X61986567Y-120573179D01*
X62004568Y-120606856D01*
X62015653Y-120643396D01*
X62020000Y-120687538D01*
X62020000Y-122136462D01*
X62015653Y-122180604D01*
X62004568Y-122217144D01*
X61986567Y-122250821D01*
X61962341Y-122280341D01*
X61932821Y-122304567D01*
X61899144Y-122322568D01*
X61862604Y-122333653D01*
X61818462Y-122338000D01*
X60869538Y-122338000D01*
X60825396Y-122333653D01*
X60788856Y-122322568D01*
X60755179Y-122304567D01*
X60725659Y-122280341D01*
X60701433Y-122250821D01*
X60683432Y-122217144D01*
X60672347Y-122180604D01*
X60668000Y-122136462D01*
X60668000Y-120687538D01*
X60672347Y-120643396D01*
X60683432Y-120606856D01*
X60701433Y-120573179D01*
X60725659Y-120543659D01*
X60755179Y-120519433D01*
X60788856Y-120501432D01*
X60825396Y-120490347D01*
X60869538Y-120486000D01*
X61818462Y-120486000D01*
X61862604Y-120490347D01*
G37*
G36*
X59062604Y-120490347D02*
G01*
X59099144Y-120501432D01*
X59132821Y-120519433D01*
X59162341Y-120543659D01*
X59186567Y-120573179D01*
X59204568Y-120606856D01*
X59215653Y-120643396D01*
X59220000Y-120687538D01*
X59220000Y-122136462D01*
X59215653Y-122180604D01*
X59204568Y-122217144D01*
X59186567Y-122250821D01*
X59162341Y-122280341D01*
X59132821Y-122304567D01*
X59099144Y-122322568D01*
X59062604Y-122333653D01*
X59018462Y-122338000D01*
X58069538Y-122338000D01*
X58025396Y-122333653D01*
X57988856Y-122322568D01*
X57955179Y-122304567D01*
X57925659Y-122280341D01*
X57901433Y-122250821D01*
X57883432Y-122217144D01*
X57872347Y-122180604D01*
X57868000Y-122136462D01*
X57868000Y-120687538D01*
X57872347Y-120643396D01*
X57883432Y-120606856D01*
X57901433Y-120573179D01*
X57925659Y-120543659D01*
X57955179Y-120519433D01*
X57988856Y-120501432D01*
X58025396Y-120490347D01*
X58069538Y-120486000D01*
X59018462Y-120486000D01*
X59062604Y-120490347D01*
G37*
G36*
X28053512Y-119499927D02*
G01*
X28202812Y-119529624D01*
X28366784Y-119597544D01*
X28514354Y-119696147D01*
X28639853Y-119821646D01*
X28738456Y-119969216D01*
X28806376Y-120133188D01*
X28841000Y-120307259D01*
X28841000Y-120484741D01*
X28806376Y-120658812D01*
X28738456Y-120822784D01*
X28639853Y-120970354D01*
X28514354Y-121095853D01*
X28366784Y-121194456D01*
X28202812Y-121262376D01*
X28053512Y-121292073D01*
X28028742Y-121297000D01*
X27851258Y-121297000D01*
X27826488Y-121292073D01*
X27677188Y-121262376D01*
X27513216Y-121194456D01*
X27365646Y-121095853D01*
X27240147Y-120970354D01*
X27141544Y-120822784D01*
X27073624Y-120658812D01*
X27039000Y-120484741D01*
X27039000Y-120307259D01*
X27073624Y-120133188D01*
X27141544Y-119969216D01*
X27240147Y-119821646D01*
X27365646Y-119696147D01*
X27513216Y-119597544D01*
X27677188Y-119529624D01*
X27826488Y-119499927D01*
X27851258Y-119495000D01*
X28028742Y-119495000D01*
X28053512Y-119499927D01*
G37*
G36*
X76827000Y-121047000D02*
G01*
X75825000Y-121047000D01*
X75825000Y-119745000D01*
X76827000Y-119745000D01*
X76827000Y-121047000D01*
G37*
G36*
X73527000Y-121047000D02*
G01*
X72525000Y-121047000D01*
X72525000Y-119745000D01*
X73527000Y-119745000D01*
X73527000Y-121047000D01*
G37*
G36*
X55257091Y-118858085D02*
G01*
X55291069Y-118868393D01*
X55322390Y-118885134D01*
X55349839Y-118907661D01*
X55372366Y-118935110D01*
X55389107Y-118966431D01*
X55399415Y-119000409D01*
X55403500Y-119041890D01*
X55403500Y-119718110D01*
X55399415Y-119759591D01*
X55389107Y-119793569D01*
X55372366Y-119824890D01*
X55349839Y-119852339D01*
X55322390Y-119874866D01*
X55291069Y-119891607D01*
X55257091Y-119901915D01*
X55215610Y-119906000D01*
X54614390Y-119906000D01*
X54572909Y-119901915D01*
X54538931Y-119891607D01*
X54507610Y-119874866D01*
X54480161Y-119852339D01*
X54457634Y-119824890D01*
X54440893Y-119793569D01*
X54430585Y-119759591D01*
X54426500Y-119718110D01*
X54426500Y-119041890D01*
X54430585Y-119000409D01*
X54440893Y-118966431D01*
X54457634Y-118935110D01*
X54480161Y-118907661D01*
X54507610Y-118885134D01*
X54538931Y-118868393D01*
X54572909Y-118858085D01*
X54614390Y-118854000D01*
X55215610Y-118854000D01*
X55257091Y-118858085D01*
G37*
G36*
X53682091Y-118858085D02*
G01*
X53716069Y-118868393D01*
X53747390Y-118885134D01*
X53774839Y-118907661D01*
X53797366Y-118935110D01*
X53814107Y-118966431D01*
X53824415Y-119000409D01*
X53828500Y-119041890D01*
X53828500Y-119718110D01*
X53824415Y-119759591D01*
X53814107Y-119793569D01*
X53797366Y-119824890D01*
X53774839Y-119852339D01*
X53747390Y-119874866D01*
X53716069Y-119891607D01*
X53682091Y-119901915D01*
X53640610Y-119906000D01*
X53039390Y-119906000D01*
X52997909Y-119901915D01*
X52963931Y-119891607D01*
X52932610Y-119874866D01*
X52905161Y-119852339D01*
X52882634Y-119824890D01*
X52865893Y-119793569D01*
X52855585Y-119759591D01*
X52851500Y-119718110D01*
X52851500Y-119041890D01*
X52855585Y-119000409D01*
X52865893Y-118966431D01*
X52882634Y-118935110D01*
X52905161Y-118907661D01*
X52932610Y-118885134D01*
X52963931Y-118868393D01*
X52997909Y-118858085D01*
X53039390Y-118854000D01*
X53640610Y-118854000D01*
X53682091Y-118858085D01*
G37*
G36*
X71771000Y-119755000D02*
G01*
X70469000Y-119755000D01*
X70469000Y-118753000D01*
X71771000Y-118753000D01*
X71771000Y-119755000D01*
G37*
G36*
X47477938Y-119011716D02*
G01*
X47498557Y-119017971D01*
X47517553Y-119028124D01*
X47534208Y-119041792D01*
X47547876Y-119058447D01*
X47558029Y-119077443D01*
X47564284Y-119098062D01*
X47567000Y-119125640D01*
X47567000Y-119634360D01*
X47564284Y-119661938D01*
X47558029Y-119682557D01*
X47547876Y-119701553D01*
X47534208Y-119718208D01*
X47517553Y-119731876D01*
X47498557Y-119742029D01*
X47477938Y-119748284D01*
X47450360Y-119751000D01*
X46991640Y-119751000D01*
X46964062Y-119748284D01*
X46943443Y-119742029D01*
X46924447Y-119731876D01*
X46907792Y-119718208D01*
X46894124Y-119701553D01*
X46883971Y-119682557D01*
X46877716Y-119661938D01*
X46875000Y-119634360D01*
X46875000Y-119125640D01*
X46877716Y-119098062D01*
X46883971Y-119077443D01*
X46894124Y-119058447D01*
X46907792Y-119041792D01*
X46924447Y-119028124D01*
X46943443Y-119017971D01*
X46964062Y-119011716D01*
X46991640Y-119009000D01*
X47450360Y-119009000D01*
X47477938Y-119011716D01*
G37*
G36*
X46507938Y-119011716D02*
G01*
X46528557Y-119017971D01*
X46547553Y-119028124D01*
X46564208Y-119041792D01*
X46577876Y-119058447D01*
X46588029Y-119077443D01*
X46594284Y-119098062D01*
X46597000Y-119125640D01*
X46597000Y-119634360D01*
X46594284Y-119661938D01*
X46588029Y-119682557D01*
X46577876Y-119701553D01*
X46564208Y-119718208D01*
X46547553Y-119731876D01*
X46528557Y-119742029D01*
X46507938Y-119748284D01*
X46480360Y-119751000D01*
X46021640Y-119751000D01*
X45994062Y-119748284D01*
X45973443Y-119742029D01*
X45954447Y-119731876D01*
X45937792Y-119718208D01*
X45924124Y-119701553D01*
X45913971Y-119682557D01*
X45907716Y-119661938D01*
X45905000Y-119634360D01*
X45905000Y-119125640D01*
X45907716Y-119098062D01*
X45913971Y-119077443D01*
X45924124Y-119058447D01*
X45937792Y-119041792D01*
X45954447Y-119028124D01*
X45973443Y-119017971D01*
X45994062Y-119011716D01*
X46021640Y-119009000D01*
X46480360Y-119009000D01*
X46507938Y-119011716D01*
G37*
G36*
X60831591Y-118667085D02*
G01*
X60865569Y-118677393D01*
X60896890Y-118694134D01*
X60924339Y-118716661D01*
X60946866Y-118744110D01*
X60963607Y-118775431D01*
X60973915Y-118809409D01*
X60978000Y-118850890D01*
X60978000Y-119452110D01*
X60973915Y-119493591D01*
X60963607Y-119527569D01*
X60946866Y-119558890D01*
X60924339Y-119586339D01*
X60896890Y-119608866D01*
X60865569Y-119625607D01*
X60831591Y-119635915D01*
X60790110Y-119640000D01*
X60113890Y-119640000D01*
X60072409Y-119635915D01*
X60038431Y-119625607D01*
X60007110Y-119608866D01*
X59979661Y-119586339D01*
X59957134Y-119558890D01*
X59940393Y-119527569D01*
X59930085Y-119493591D01*
X59926000Y-119452110D01*
X59926000Y-118850890D01*
X59930085Y-118809409D01*
X59940393Y-118775431D01*
X59957134Y-118744110D01*
X59979661Y-118716661D01*
X60007110Y-118694134D01*
X60038431Y-118677393D01*
X60072409Y-118667085D01*
X60113890Y-118663000D01*
X60790110Y-118663000D01*
X60831591Y-118667085D01*
G37*
G36*
X59307591Y-118667085D02*
G01*
X59341569Y-118677393D01*
X59372890Y-118694134D01*
X59400339Y-118716661D01*
X59422866Y-118744110D01*
X59439607Y-118775431D01*
X59449915Y-118809409D01*
X59454000Y-118850890D01*
X59454000Y-119452110D01*
X59449915Y-119493591D01*
X59439607Y-119527569D01*
X59422866Y-119558890D01*
X59400339Y-119586339D01*
X59372890Y-119608866D01*
X59341569Y-119625607D01*
X59307591Y-119635915D01*
X59266110Y-119640000D01*
X58589890Y-119640000D01*
X58548409Y-119635915D01*
X58514431Y-119625607D01*
X58483110Y-119608866D01*
X58455661Y-119586339D01*
X58433134Y-119558890D01*
X58416393Y-119527569D01*
X58406085Y-119493591D01*
X58402000Y-119452110D01*
X58402000Y-118850890D01*
X58406085Y-118809409D01*
X58416393Y-118775431D01*
X58433134Y-118744110D01*
X58455661Y-118716661D01*
X58483110Y-118694134D01*
X58514431Y-118677393D01*
X58548409Y-118667085D01*
X58589890Y-118663000D01*
X59266110Y-118663000D01*
X59307591Y-118667085D01*
G37*
G36*
X57275591Y-118438585D02*
G01*
X57309569Y-118448893D01*
X57340890Y-118465634D01*
X57368339Y-118488161D01*
X57390866Y-118515610D01*
X57407607Y-118546931D01*
X57417915Y-118580909D01*
X57422000Y-118622390D01*
X57422000Y-119223610D01*
X57417915Y-119265091D01*
X57407607Y-119299069D01*
X57390866Y-119330390D01*
X57368339Y-119357839D01*
X57340890Y-119380366D01*
X57309569Y-119397107D01*
X57275591Y-119407415D01*
X57234110Y-119411500D01*
X56557890Y-119411500D01*
X56516409Y-119407415D01*
X56482431Y-119397107D01*
X56451110Y-119380366D01*
X56423661Y-119357839D01*
X56401134Y-119330390D01*
X56384393Y-119299069D01*
X56374085Y-119265091D01*
X56370000Y-119223610D01*
X56370000Y-118622390D01*
X56374085Y-118580909D01*
X56384393Y-118546931D01*
X56401134Y-118515610D01*
X56423661Y-118488161D01*
X56451110Y-118465634D01*
X56482431Y-118448893D01*
X56516409Y-118438585D01*
X56557890Y-118434500D01*
X57234110Y-118434500D01*
X57275591Y-118438585D01*
G37*
G36*
X82182072Y-116636918D02*
G01*
X82357302Y-116709500D01*
X82427939Y-116738759D01*
X82539328Y-116813187D01*
X82649211Y-116886609D01*
X82837391Y-117074789D01*
X82985242Y-117296063D01*
X83087082Y-117541928D01*
X83139000Y-117802937D01*
X83139000Y-118069063D01*
X83087082Y-118330072D01*
X82985242Y-118575937D01*
X82837391Y-118797211D01*
X82649211Y-118985391D01*
X82551621Y-119050599D01*
X82427939Y-119133241D01*
X82427938Y-119133242D01*
X82427937Y-119133242D01*
X82182072Y-119235082D01*
X81921063Y-119287000D01*
X81654937Y-119287000D01*
X81393928Y-119235082D01*
X81148063Y-119133242D01*
X81148062Y-119133242D01*
X81148061Y-119133241D01*
X81024379Y-119050599D01*
X80926789Y-118985391D01*
X80738609Y-118797211D01*
X80590758Y-118575937D01*
X80488918Y-118330072D01*
X80437000Y-118069063D01*
X80437000Y-117802937D01*
X80488918Y-117541928D01*
X80590758Y-117296063D01*
X80738609Y-117074789D01*
X80926789Y-116886609D01*
X81036672Y-116813187D01*
X81148061Y-116738759D01*
X81218699Y-116709500D01*
X81393928Y-116636918D01*
X81654937Y-116585000D01*
X81921063Y-116585000D01*
X82182072Y-116636918D01*
G37*
G36*
X67341000Y-118839000D02*
G01*
X64739000Y-118839000D01*
X64739000Y-116837000D01*
X67341000Y-116837000D01*
X67341000Y-118839000D01*
G37*
G36*
X28053512Y-116959927D02*
G01*
X28202812Y-116989624D01*
X28366784Y-117057544D01*
X28514354Y-117156147D01*
X28639853Y-117281646D01*
X28738456Y-117429216D01*
X28806376Y-117593188D01*
X28841000Y-117767259D01*
X28841000Y-117944741D01*
X28806376Y-118118812D01*
X28738456Y-118282784D01*
X28639853Y-118430354D01*
X28514354Y-118555853D01*
X28366784Y-118654456D01*
X28202812Y-118722376D01*
X28053512Y-118752073D01*
X28028742Y-118757000D01*
X27851258Y-118757000D01*
X27826488Y-118752073D01*
X27677188Y-118722376D01*
X27513216Y-118654456D01*
X27365646Y-118555853D01*
X27240147Y-118430354D01*
X27141544Y-118282784D01*
X27073624Y-118118812D01*
X27039000Y-117944741D01*
X27039000Y-117767259D01*
X27073624Y-117593188D01*
X27141544Y-117429216D01*
X27240147Y-117281646D01*
X27365646Y-117156147D01*
X27513216Y-117057544D01*
X27677188Y-116989624D01*
X27826488Y-116959927D01*
X27851258Y-116955000D01*
X28028742Y-116955000D01*
X28053512Y-116959927D01*
G37*
G36*
X45950295Y-116610323D02*
G01*
X45957309Y-116612451D01*
X45971077Y-116619810D01*
X45993716Y-116629187D01*
X46017749Y-116633967D01*
X46042253Y-116633967D01*
X46066286Y-116629186D01*
X46088923Y-116619810D01*
X46102691Y-116612451D01*
X46109705Y-116610323D01*
X46123140Y-116609000D01*
X46436860Y-116609000D01*
X46450295Y-116610323D01*
X46457309Y-116612451D01*
X46471077Y-116619810D01*
X46493716Y-116629187D01*
X46517749Y-116633967D01*
X46542253Y-116633967D01*
X46566286Y-116629186D01*
X46588923Y-116619810D01*
X46602691Y-116612451D01*
X46609705Y-116610323D01*
X46623140Y-116609000D01*
X46936860Y-116609000D01*
X46950295Y-116610323D01*
X46957309Y-116612451D01*
X46971077Y-116619810D01*
X46993716Y-116629187D01*
X47017749Y-116633967D01*
X47042253Y-116633967D01*
X47066286Y-116629186D01*
X47088923Y-116619810D01*
X47102691Y-116612451D01*
X47109705Y-116610323D01*
X47123140Y-116609000D01*
X47436860Y-116609000D01*
X47450295Y-116610323D01*
X47457309Y-116612451D01*
X47471077Y-116619810D01*
X47493716Y-116629187D01*
X47517749Y-116633967D01*
X47542253Y-116633967D01*
X47566286Y-116629186D01*
X47588923Y-116619810D01*
X47602691Y-116612451D01*
X47609705Y-116610323D01*
X47623140Y-116609000D01*
X47936860Y-116609000D01*
X47950295Y-116610323D01*
X47957309Y-116612451D01*
X47971077Y-116619810D01*
X47993716Y-116629187D01*
X48017749Y-116633967D01*
X48042253Y-116633967D01*
X48066286Y-116629186D01*
X48088923Y-116619810D01*
X48102691Y-116612451D01*
X48109705Y-116610323D01*
X48123140Y-116609000D01*
X48436860Y-116609000D01*
X48450295Y-116610323D01*
X48457309Y-116612451D01*
X48471077Y-116619810D01*
X48493716Y-116629187D01*
X48517749Y-116633967D01*
X48542253Y-116633967D01*
X48566286Y-116629186D01*
X48588923Y-116619810D01*
X48602691Y-116612451D01*
X48609705Y-116610323D01*
X48623140Y-116609000D01*
X48936860Y-116609000D01*
X48950295Y-116610323D01*
X48957309Y-116612451D01*
X48971077Y-116619810D01*
X48993716Y-116629187D01*
X49017749Y-116633967D01*
X49042253Y-116633967D01*
X49066286Y-116629186D01*
X49088923Y-116619810D01*
X49102691Y-116612451D01*
X49109705Y-116610323D01*
X49123140Y-116609000D01*
X49436860Y-116609000D01*
X49450295Y-116610323D01*
X49457309Y-116612451D01*
X49471077Y-116619810D01*
X49493716Y-116629187D01*
X49517749Y-116633967D01*
X49542253Y-116633967D01*
X49566286Y-116629186D01*
X49588923Y-116619810D01*
X49602691Y-116612451D01*
X49609705Y-116610323D01*
X49623140Y-116609000D01*
X49936860Y-116609000D01*
X49950295Y-116610323D01*
X49957309Y-116612451D01*
X49971077Y-116619810D01*
X49993716Y-116629187D01*
X50017749Y-116633967D01*
X50042253Y-116633967D01*
X50066286Y-116629186D01*
X50088923Y-116619810D01*
X50102691Y-116612451D01*
X50109705Y-116610323D01*
X50123140Y-116609000D01*
X50436860Y-116609000D01*
X50450295Y-116610323D01*
X50457309Y-116612451D01*
X50471077Y-116619810D01*
X50493716Y-116629187D01*
X50517749Y-116633967D01*
X50542253Y-116633967D01*
X50566286Y-116629186D01*
X50588923Y-116619810D01*
X50602691Y-116612451D01*
X50609705Y-116610323D01*
X50623140Y-116609000D01*
X50936860Y-116609000D01*
X50950295Y-116610323D01*
X50957309Y-116612451D01*
X50971077Y-116619810D01*
X50993716Y-116629187D01*
X51017749Y-116633967D01*
X51042253Y-116633967D01*
X51066286Y-116629186D01*
X51088923Y-116619810D01*
X51102691Y-116612451D01*
X51109705Y-116610323D01*
X51123140Y-116609000D01*
X51436860Y-116609000D01*
X51450295Y-116610323D01*
X51457309Y-116612451D01*
X51471077Y-116619810D01*
X51493716Y-116629187D01*
X51517749Y-116633967D01*
X51542253Y-116633967D01*
X51566286Y-116629186D01*
X51588923Y-116619810D01*
X51602691Y-116612451D01*
X51609705Y-116610323D01*
X51623140Y-116609000D01*
X51936860Y-116609000D01*
X51950295Y-116610323D01*
X51957309Y-116612451D01*
X51971077Y-116619810D01*
X51993716Y-116629187D01*
X52017749Y-116633967D01*
X52042253Y-116633967D01*
X52066286Y-116629186D01*
X52088923Y-116619810D01*
X52102691Y-116612451D01*
X52109705Y-116610323D01*
X52123140Y-116609000D01*
X52436860Y-116609000D01*
X52450295Y-116610323D01*
X52457309Y-116612451D01*
X52471077Y-116619810D01*
X52493716Y-116629187D01*
X52517749Y-116633967D01*
X52542253Y-116633967D01*
X52566286Y-116629186D01*
X52588923Y-116619810D01*
X52602691Y-116612451D01*
X52609705Y-116610323D01*
X52623140Y-116609000D01*
X52936860Y-116609000D01*
X52950295Y-116610323D01*
X52957309Y-116612451D01*
X52971077Y-116619810D01*
X52993716Y-116629187D01*
X53017749Y-116633967D01*
X53042253Y-116633967D01*
X53066286Y-116629186D01*
X53088923Y-116619810D01*
X53102691Y-116612451D01*
X53109705Y-116610323D01*
X53123140Y-116609000D01*
X53436860Y-116609000D01*
X53450295Y-116610323D01*
X53457310Y-116612451D01*
X53463776Y-116615908D01*
X53469442Y-116620558D01*
X53474092Y-116626224D01*
X53477549Y-116632690D01*
X53479677Y-116639705D01*
X53481000Y-116653140D01*
X53481000Y-118216860D01*
X53479677Y-118230295D01*
X53477549Y-118237310D01*
X53474092Y-118243776D01*
X53469442Y-118249442D01*
X53463776Y-118254092D01*
X53457310Y-118257549D01*
X53450295Y-118259677D01*
X53436860Y-118261000D01*
X53123140Y-118261000D01*
X53109705Y-118259677D01*
X53102691Y-118257549D01*
X53088923Y-118250190D01*
X53066284Y-118240813D01*
X53042251Y-118236033D01*
X53017747Y-118236033D01*
X52993714Y-118240814D01*
X52971077Y-118250190D01*
X52957309Y-118257549D01*
X52950295Y-118259677D01*
X52936860Y-118261000D01*
X52623140Y-118261000D01*
X52609705Y-118259677D01*
X52602691Y-118257549D01*
X52588923Y-118250190D01*
X52566284Y-118240813D01*
X52542251Y-118236033D01*
X52517747Y-118236033D01*
X52493714Y-118240814D01*
X52471077Y-118250190D01*
X52457309Y-118257549D01*
X52450295Y-118259677D01*
X52436860Y-118261000D01*
X52123140Y-118261000D01*
X52109705Y-118259677D01*
X52102691Y-118257549D01*
X52088923Y-118250190D01*
X52066284Y-118240813D01*
X52042251Y-118236033D01*
X52017747Y-118236033D01*
X51993714Y-118240814D01*
X51971077Y-118250190D01*
X51957309Y-118257549D01*
X51950295Y-118259677D01*
X51936860Y-118261000D01*
X51623140Y-118261000D01*
X51609705Y-118259677D01*
X51602691Y-118257549D01*
X51588923Y-118250190D01*
X51566284Y-118240813D01*
X51542251Y-118236033D01*
X51517747Y-118236033D01*
X51493714Y-118240814D01*
X51471077Y-118250190D01*
X51457309Y-118257549D01*
X51450295Y-118259677D01*
X51436860Y-118261000D01*
X51123140Y-118261000D01*
X51109705Y-118259677D01*
X51102691Y-118257549D01*
X51088923Y-118250190D01*
X51066284Y-118240813D01*
X51042251Y-118236033D01*
X51017747Y-118236033D01*
X50993714Y-118240814D01*
X50971077Y-118250190D01*
X50957309Y-118257549D01*
X50950295Y-118259677D01*
X50936860Y-118261000D01*
X50623140Y-118261000D01*
X50609705Y-118259677D01*
X50602691Y-118257549D01*
X50588923Y-118250190D01*
X50566284Y-118240813D01*
X50542251Y-118236033D01*
X50517747Y-118236033D01*
X50493714Y-118240814D01*
X50471077Y-118250190D01*
X50457309Y-118257549D01*
X50450295Y-118259677D01*
X50436860Y-118261000D01*
X50123140Y-118261000D01*
X50109705Y-118259677D01*
X50102691Y-118257549D01*
X50088923Y-118250190D01*
X50066284Y-118240813D01*
X50042251Y-118236033D01*
X50017747Y-118236033D01*
X49993714Y-118240814D01*
X49971077Y-118250190D01*
X49957309Y-118257549D01*
X49950295Y-118259677D01*
X49936860Y-118261000D01*
X49623140Y-118261000D01*
X49609705Y-118259677D01*
X49602691Y-118257549D01*
X49588923Y-118250190D01*
X49566284Y-118240813D01*
X49542251Y-118236033D01*
X49517747Y-118236033D01*
X49493714Y-118240814D01*
X49471077Y-118250190D01*
X49457309Y-118257549D01*
X49450295Y-118259677D01*
X49436860Y-118261000D01*
X49123140Y-118261000D01*
X49109705Y-118259677D01*
X49102691Y-118257549D01*
X49088923Y-118250190D01*
X49066284Y-118240813D01*
X49042251Y-118236033D01*
X49017747Y-118236033D01*
X48993714Y-118240814D01*
X48971077Y-118250190D01*
X48957309Y-118257549D01*
X48950295Y-118259677D01*
X48936860Y-118261000D01*
X48623140Y-118261000D01*
X48609705Y-118259677D01*
X48602691Y-118257549D01*
X48588923Y-118250190D01*
X48566284Y-118240813D01*
X48542251Y-118236033D01*
X48517747Y-118236033D01*
X48493714Y-118240814D01*
X48471077Y-118250190D01*
X48457309Y-118257549D01*
X48450295Y-118259677D01*
X48436860Y-118261000D01*
X48123140Y-118261000D01*
X48109705Y-118259677D01*
X48102691Y-118257549D01*
X48088923Y-118250190D01*
X48066284Y-118240813D01*
X48042251Y-118236033D01*
X48017747Y-118236033D01*
X47993714Y-118240814D01*
X47971077Y-118250190D01*
X47957309Y-118257549D01*
X47950295Y-118259677D01*
X47936860Y-118261000D01*
X47623140Y-118261000D01*
X47609705Y-118259677D01*
X47602691Y-118257549D01*
X47588923Y-118250190D01*
X47566284Y-118240813D01*
X47542251Y-118236033D01*
X47517747Y-118236033D01*
X47493714Y-118240814D01*
X47471077Y-118250190D01*
X47457309Y-118257549D01*
X47450295Y-118259677D01*
X47436860Y-118261000D01*
X47123140Y-118261000D01*
X47109705Y-118259677D01*
X47102691Y-118257549D01*
X47088923Y-118250190D01*
X47066284Y-118240813D01*
X47042251Y-118236033D01*
X47017747Y-118236033D01*
X46993714Y-118240814D01*
X46971077Y-118250190D01*
X46957309Y-118257549D01*
X46950295Y-118259677D01*
X46936860Y-118261000D01*
X46623140Y-118261000D01*
X46609705Y-118259677D01*
X46602691Y-118257549D01*
X46588923Y-118250190D01*
X46566284Y-118240813D01*
X46542251Y-118236033D01*
X46517747Y-118236033D01*
X46493714Y-118240814D01*
X46471077Y-118250190D01*
X46457309Y-118257549D01*
X46450295Y-118259677D01*
X46436860Y-118261000D01*
X46123140Y-118261000D01*
X46109705Y-118259677D01*
X46102691Y-118257549D01*
X46088923Y-118250190D01*
X46066284Y-118240813D01*
X46042251Y-118236033D01*
X46017747Y-118236033D01*
X45993714Y-118240814D01*
X45971077Y-118250190D01*
X45957309Y-118257549D01*
X45950295Y-118259677D01*
X45936860Y-118261000D01*
X45623140Y-118261000D01*
X45609705Y-118259677D01*
X45602690Y-118257549D01*
X45596224Y-118254092D01*
X45590558Y-118249442D01*
X45585908Y-118243776D01*
X45582451Y-118237310D01*
X45580323Y-118230295D01*
X45579000Y-118216860D01*
X45579000Y-116653140D01*
X45580323Y-116639705D01*
X45582451Y-116632690D01*
X45585908Y-116626224D01*
X45590558Y-116620558D01*
X45596224Y-116615908D01*
X45602690Y-116612451D01*
X45609705Y-116610323D01*
X45623140Y-116609000D01*
X45936860Y-116609000D01*
X45950295Y-116610323D01*
G37*
G36*
X55605938Y-117487716D02*
G01*
X55626557Y-117493971D01*
X55645553Y-117504124D01*
X55662208Y-117517792D01*
X55675876Y-117534447D01*
X55686029Y-117553443D01*
X55692284Y-117574062D01*
X55695000Y-117601640D01*
X55695000Y-118110360D01*
X55692284Y-118137938D01*
X55686029Y-118158557D01*
X55675876Y-118177553D01*
X55662208Y-118194208D01*
X55645553Y-118207876D01*
X55626557Y-118218029D01*
X55605938Y-118224284D01*
X55578360Y-118227000D01*
X55119640Y-118227000D01*
X55092062Y-118224284D01*
X55071443Y-118218029D01*
X55052447Y-118207876D01*
X55035792Y-118194208D01*
X55022124Y-118177553D01*
X55011971Y-118158557D01*
X55005716Y-118137938D01*
X55003000Y-118110360D01*
X55003000Y-117601640D01*
X55005716Y-117574062D01*
X55011971Y-117553443D01*
X55022124Y-117534447D01*
X55035792Y-117517792D01*
X55052447Y-117504124D01*
X55071443Y-117493971D01*
X55092062Y-117487716D01*
X55119640Y-117485000D01*
X55578360Y-117485000D01*
X55605938Y-117487716D01*
G37*
G36*
X54635938Y-117487716D02*
G01*
X54656557Y-117493971D01*
X54675553Y-117504124D01*
X54692208Y-117517792D01*
X54705876Y-117534447D01*
X54716029Y-117553443D01*
X54722284Y-117574062D01*
X54725000Y-117601640D01*
X54725000Y-118110360D01*
X54722284Y-118137938D01*
X54716029Y-118158557D01*
X54705876Y-118177553D01*
X54692208Y-118194208D01*
X54675553Y-118207876D01*
X54656557Y-118218029D01*
X54635938Y-118224284D01*
X54608360Y-118227000D01*
X54149640Y-118227000D01*
X54122062Y-118224284D01*
X54101443Y-118218029D01*
X54082447Y-118207876D01*
X54065792Y-118194208D01*
X54052124Y-118177553D01*
X54041971Y-118158557D01*
X54035716Y-118137938D01*
X54033000Y-118110360D01*
X54033000Y-117601640D01*
X54035716Y-117574062D01*
X54041971Y-117553443D01*
X54052124Y-117534447D01*
X54065792Y-117517792D01*
X54082447Y-117504124D01*
X54101443Y-117493971D01*
X54122062Y-117487716D01*
X54149640Y-117485000D01*
X54608360Y-117485000D01*
X54635938Y-117487716D01*
G37*
G36*
X60831591Y-117092085D02*
G01*
X60865569Y-117102393D01*
X60896890Y-117119134D01*
X60924339Y-117141661D01*
X60946866Y-117169110D01*
X60963607Y-117200431D01*
X60973915Y-117234409D01*
X60978000Y-117275890D01*
X60978000Y-117877110D01*
X60973915Y-117918591D01*
X60963607Y-117952569D01*
X60946866Y-117983890D01*
X60924339Y-118011339D01*
X60896890Y-118033866D01*
X60865569Y-118050607D01*
X60831591Y-118060915D01*
X60790110Y-118065000D01*
X60113890Y-118065000D01*
X60072409Y-118060915D01*
X60038431Y-118050607D01*
X60007110Y-118033866D01*
X59979661Y-118011339D01*
X59957134Y-117983890D01*
X59940393Y-117952569D01*
X59930085Y-117918591D01*
X59926000Y-117877110D01*
X59926000Y-117275890D01*
X59930085Y-117234409D01*
X59940393Y-117200431D01*
X59957134Y-117169110D01*
X59979661Y-117141661D01*
X60007110Y-117119134D01*
X60038431Y-117102393D01*
X60072409Y-117092085D01*
X60113890Y-117088000D01*
X60790110Y-117088000D01*
X60831591Y-117092085D01*
G37*
G36*
X59307591Y-117092085D02*
G01*
X59341569Y-117102393D01*
X59372890Y-117119134D01*
X59400339Y-117141661D01*
X59422866Y-117169110D01*
X59439607Y-117200431D01*
X59449915Y-117234409D01*
X59454000Y-117275890D01*
X59454000Y-117877110D01*
X59449915Y-117918591D01*
X59439607Y-117952569D01*
X59422866Y-117983890D01*
X59400339Y-118011339D01*
X59372890Y-118033866D01*
X59341569Y-118050607D01*
X59307591Y-118060915D01*
X59266110Y-118065000D01*
X58589890Y-118065000D01*
X58548409Y-118060915D01*
X58514431Y-118050607D01*
X58483110Y-118033866D01*
X58455661Y-118011339D01*
X58433134Y-117983890D01*
X58416393Y-117952569D01*
X58406085Y-117918591D01*
X58402000Y-117877110D01*
X58402000Y-117275890D01*
X58406085Y-117234409D01*
X58416393Y-117200431D01*
X58433134Y-117169110D01*
X58455661Y-117141661D01*
X58483110Y-117119134D01*
X58514431Y-117102393D01*
X58548409Y-117092085D01*
X58589890Y-117088000D01*
X59266110Y-117088000D01*
X59307591Y-117092085D01*
G37*
G36*
X57275591Y-116863585D02*
G01*
X57309569Y-116873893D01*
X57340890Y-116890634D01*
X57368339Y-116913161D01*
X57390866Y-116940610D01*
X57407607Y-116971931D01*
X57417915Y-117005909D01*
X57422000Y-117047390D01*
X57422000Y-117648610D01*
X57417915Y-117690091D01*
X57407607Y-117724069D01*
X57390866Y-117755390D01*
X57368339Y-117782839D01*
X57340890Y-117805366D01*
X57309569Y-117822107D01*
X57275591Y-117832415D01*
X57234110Y-117836500D01*
X56557890Y-117836500D01*
X56516409Y-117832415D01*
X56482431Y-117822107D01*
X56451110Y-117805366D01*
X56423661Y-117782839D01*
X56401134Y-117755390D01*
X56384393Y-117724069D01*
X56374085Y-117690091D01*
X56370000Y-117648610D01*
X56370000Y-117047390D01*
X56374085Y-117005909D01*
X56384393Y-116971931D01*
X56401134Y-116940610D01*
X56423661Y-116913161D01*
X56451110Y-116890634D01*
X56482431Y-116873893D01*
X56516409Y-116863585D01*
X56557890Y-116859500D01*
X57234110Y-116859500D01*
X57275591Y-116863585D01*
G37*
G36*
X28053512Y-114419927D02*
G01*
X28202812Y-114449624D01*
X28366784Y-114517544D01*
X28514354Y-114616147D01*
X28639853Y-114741646D01*
X28738456Y-114889216D01*
X28806376Y-115053188D01*
X28831911Y-115181564D01*
X28841000Y-115227258D01*
X28841000Y-115404742D01*
X28836073Y-115429512D01*
X28806376Y-115578812D01*
X28738456Y-115742784D01*
X28639853Y-115890354D01*
X28514354Y-116015853D01*
X28366784Y-116114456D01*
X28202812Y-116182376D01*
X28053512Y-116212073D01*
X28028742Y-116217000D01*
X27851258Y-116217000D01*
X27826488Y-116212073D01*
X27677188Y-116182376D01*
X27513216Y-116114456D01*
X27365646Y-116015853D01*
X27240147Y-115890354D01*
X27141544Y-115742784D01*
X27073624Y-115578812D01*
X27043927Y-115429512D01*
X27039000Y-115404742D01*
X27039000Y-115227258D01*
X27048089Y-115181564D01*
X27073624Y-115053188D01*
X27141544Y-114889216D01*
X27240147Y-114741646D01*
X27365646Y-114616147D01*
X27513216Y-114517544D01*
X27677188Y-114449624D01*
X27826488Y-114419927D01*
X27851258Y-114415000D01*
X28028742Y-114415000D01*
X28053512Y-114419927D01*
G37*
G36*
X59041591Y-115048085D02*
G01*
X59075569Y-115058393D01*
X59106890Y-115075134D01*
X59134339Y-115097661D01*
X59156866Y-115125110D01*
X59173607Y-115156431D01*
X59183915Y-115190409D01*
X59188000Y-115231890D01*
X59188000Y-115908110D01*
X59183915Y-115949591D01*
X59173607Y-115983569D01*
X59156866Y-116014890D01*
X59134339Y-116042339D01*
X59106890Y-116064866D01*
X59075569Y-116081607D01*
X59041591Y-116091915D01*
X59000110Y-116096000D01*
X58398890Y-116096000D01*
X58357409Y-116091915D01*
X58323431Y-116081607D01*
X58292110Y-116064866D01*
X58264661Y-116042339D01*
X58242134Y-116014890D01*
X58225393Y-115983569D01*
X58215085Y-115949591D01*
X58211000Y-115908110D01*
X58211000Y-115231890D01*
X58215085Y-115190409D01*
X58225393Y-115156431D01*
X58242134Y-115125110D01*
X58264661Y-115097661D01*
X58292110Y-115075134D01*
X58323431Y-115058393D01*
X58357409Y-115048085D01*
X58398890Y-115044000D01*
X59000110Y-115044000D01*
X59041591Y-115048085D01*
G37*
G36*
X57466591Y-115048085D02*
G01*
X57500569Y-115058393D01*
X57531890Y-115075134D01*
X57559339Y-115097661D01*
X57581866Y-115125110D01*
X57598607Y-115156431D01*
X57608915Y-115190409D01*
X57613000Y-115231890D01*
X57613000Y-115908110D01*
X57608915Y-115949591D01*
X57598607Y-115983569D01*
X57581866Y-116014890D01*
X57559339Y-116042339D01*
X57531890Y-116064866D01*
X57500569Y-116081607D01*
X57466591Y-116091915D01*
X57425110Y-116096000D01*
X56823890Y-116096000D01*
X56782409Y-116091915D01*
X56748431Y-116081607D01*
X56717110Y-116064866D01*
X56689661Y-116042339D01*
X56667134Y-116014890D01*
X56650393Y-115983569D01*
X56640085Y-115949591D01*
X56636000Y-115908110D01*
X56636000Y-115231890D01*
X56640085Y-115190409D01*
X56650393Y-115156431D01*
X56667134Y-115125110D01*
X56689661Y-115097661D01*
X56717110Y-115075134D01*
X56748431Y-115058393D01*
X56782409Y-115048085D01*
X56823890Y-115044000D01*
X57425110Y-115044000D01*
X57466591Y-115048085D01*
G37*
G36*
X44650295Y-107810323D02*
G01*
X44657310Y-107812451D01*
X44663776Y-107815908D01*
X44669442Y-107820558D01*
X44674092Y-107826224D01*
X44677549Y-107832690D01*
X44679677Y-107839705D01*
X44681000Y-107853140D01*
X44681000Y-108166860D01*
X44679677Y-108180295D01*
X44677549Y-108187309D01*
X44670190Y-108201077D01*
X44660813Y-108223716D01*
X44656033Y-108247749D01*
X44656033Y-108272253D01*
X44660814Y-108296286D01*
X44670190Y-108318923D01*
X44677549Y-108332691D01*
X44679677Y-108339705D01*
X44681000Y-108353140D01*
X44681000Y-108666860D01*
X44679677Y-108680295D01*
X44677549Y-108687309D01*
X44670190Y-108701077D01*
X44660813Y-108723716D01*
X44656033Y-108747749D01*
X44656033Y-108772253D01*
X44660814Y-108796286D01*
X44670190Y-108818923D01*
X44677549Y-108832691D01*
X44679677Y-108839705D01*
X44681000Y-108853140D01*
X44681000Y-109166860D01*
X44679677Y-109180295D01*
X44677549Y-109187309D01*
X44670190Y-109201077D01*
X44660813Y-109223716D01*
X44656033Y-109247749D01*
X44656033Y-109272253D01*
X44660814Y-109296286D01*
X44670190Y-109318923D01*
X44677549Y-109332691D01*
X44679677Y-109339705D01*
X44681000Y-109353140D01*
X44681000Y-109666860D01*
X44679677Y-109680295D01*
X44677549Y-109687309D01*
X44670190Y-109701077D01*
X44660813Y-109723716D01*
X44656033Y-109747749D01*
X44656033Y-109772253D01*
X44660814Y-109796286D01*
X44670190Y-109818923D01*
X44677549Y-109832691D01*
X44679677Y-109839705D01*
X44681000Y-109853140D01*
X44681000Y-110166860D01*
X44679677Y-110180295D01*
X44677549Y-110187309D01*
X44670190Y-110201077D01*
X44660813Y-110223716D01*
X44656033Y-110247749D01*
X44656033Y-110272253D01*
X44660814Y-110296286D01*
X44670190Y-110318923D01*
X44677549Y-110332691D01*
X44679677Y-110339705D01*
X44681000Y-110353140D01*
X44681000Y-110666860D01*
X44679677Y-110680295D01*
X44677549Y-110687309D01*
X44670190Y-110701077D01*
X44660813Y-110723716D01*
X44656033Y-110747749D01*
X44656033Y-110772253D01*
X44660814Y-110796286D01*
X44670190Y-110818923D01*
X44677549Y-110832691D01*
X44679677Y-110839705D01*
X44681000Y-110853140D01*
X44681000Y-111166860D01*
X44679677Y-111180295D01*
X44677549Y-111187309D01*
X44670190Y-111201077D01*
X44660813Y-111223716D01*
X44656033Y-111247749D01*
X44656033Y-111272253D01*
X44660814Y-111296286D01*
X44670190Y-111318923D01*
X44677549Y-111332691D01*
X44679677Y-111339705D01*
X44681000Y-111353140D01*
X44681000Y-111666860D01*
X44679677Y-111680295D01*
X44677549Y-111687309D01*
X44670190Y-111701077D01*
X44660813Y-111723716D01*
X44656033Y-111747749D01*
X44656033Y-111772253D01*
X44660814Y-111796286D01*
X44670190Y-111818923D01*
X44677549Y-111832691D01*
X44679677Y-111839705D01*
X44681000Y-111853140D01*
X44681000Y-112166860D01*
X44679677Y-112180295D01*
X44677549Y-112187309D01*
X44670190Y-112201077D01*
X44660813Y-112223716D01*
X44656033Y-112247749D01*
X44656033Y-112272253D01*
X44660814Y-112296286D01*
X44670190Y-112318923D01*
X44677549Y-112332691D01*
X44679677Y-112339705D01*
X44681000Y-112353140D01*
X44681000Y-112666860D01*
X44679677Y-112680295D01*
X44677549Y-112687309D01*
X44670190Y-112701077D01*
X44660813Y-112723716D01*
X44656033Y-112747749D01*
X44656033Y-112772253D01*
X44660814Y-112796286D01*
X44670190Y-112818923D01*
X44677549Y-112832691D01*
X44679677Y-112839705D01*
X44681000Y-112853140D01*
X44681000Y-113166860D01*
X44679677Y-113180295D01*
X44677549Y-113187309D01*
X44670190Y-113201077D01*
X44660813Y-113223716D01*
X44656033Y-113247749D01*
X44656033Y-113272253D01*
X44660814Y-113296286D01*
X44670190Y-113318923D01*
X44677549Y-113332691D01*
X44679677Y-113339705D01*
X44681000Y-113353140D01*
X44681000Y-113666860D01*
X44679677Y-113680295D01*
X44677549Y-113687309D01*
X44670190Y-113701077D01*
X44660813Y-113723716D01*
X44656033Y-113747749D01*
X44656033Y-113772253D01*
X44660814Y-113796286D01*
X44670190Y-113818923D01*
X44677549Y-113832691D01*
X44679677Y-113839705D01*
X44681000Y-113853140D01*
X44681000Y-114166860D01*
X44679677Y-114180295D01*
X44677549Y-114187309D01*
X44670190Y-114201077D01*
X44660813Y-114223716D01*
X44656033Y-114247749D01*
X44656033Y-114272253D01*
X44660814Y-114296286D01*
X44670190Y-114318923D01*
X44677549Y-114332691D01*
X44679677Y-114339705D01*
X44681000Y-114353140D01*
X44681000Y-114666860D01*
X44679677Y-114680295D01*
X44677549Y-114687309D01*
X44670190Y-114701077D01*
X44660813Y-114723716D01*
X44656033Y-114747749D01*
X44656033Y-114772253D01*
X44660814Y-114796286D01*
X44670190Y-114818923D01*
X44677549Y-114832691D01*
X44679677Y-114839705D01*
X44681000Y-114853140D01*
X44681000Y-115166860D01*
X44679677Y-115180295D01*
X44677549Y-115187309D01*
X44670190Y-115201077D01*
X44660813Y-115223716D01*
X44656033Y-115247749D01*
X44656033Y-115272253D01*
X44660814Y-115296286D01*
X44670190Y-115318923D01*
X44677549Y-115332691D01*
X44679677Y-115339705D01*
X44681000Y-115353140D01*
X44681000Y-115666860D01*
X44679677Y-115680295D01*
X44677549Y-115687310D01*
X44674092Y-115693776D01*
X44669442Y-115699442D01*
X44663776Y-115704092D01*
X44657310Y-115707549D01*
X44650295Y-115709677D01*
X44636860Y-115711000D01*
X43073140Y-115711000D01*
X43059705Y-115709677D01*
X43052690Y-115707549D01*
X43046224Y-115704092D01*
X43040558Y-115699442D01*
X43035908Y-115693776D01*
X43032451Y-115687310D01*
X43030323Y-115680295D01*
X43029000Y-115666860D01*
X43029000Y-115353140D01*
X43030323Y-115339705D01*
X43032451Y-115332691D01*
X43039810Y-115318923D01*
X43049187Y-115296284D01*
X43053967Y-115272251D01*
X43053967Y-115247747D01*
X43049186Y-115223714D01*
X43039810Y-115201077D01*
X43032451Y-115187309D01*
X43030323Y-115180295D01*
X43029000Y-115166860D01*
X43029000Y-114853140D01*
X43030323Y-114839705D01*
X43032451Y-114832691D01*
X43039810Y-114818923D01*
X43049187Y-114796284D01*
X43053967Y-114772251D01*
X43053967Y-114747747D01*
X43049186Y-114723714D01*
X43039810Y-114701077D01*
X43032451Y-114687309D01*
X43030323Y-114680295D01*
X43029000Y-114666860D01*
X43029000Y-114353140D01*
X43030323Y-114339705D01*
X43032451Y-114332691D01*
X43039810Y-114318923D01*
X43049187Y-114296284D01*
X43053967Y-114272251D01*
X43053967Y-114247747D01*
X43049186Y-114223714D01*
X43039810Y-114201077D01*
X43032451Y-114187309D01*
X43030323Y-114180295D01*
X43029000Y-114166860D01*
X43029000Y-113853140D01*
X43030323Y-113839705D01*
X43032451Y-113832691D01*
X43039810Y-113818923D01*
X43049187Y-113796284D01*
X43053967Y-113772251D01*
X43053967Y-113747747D01*
X43049186Y-113723714D01*
X43039810Y-113701077D01*
X43032451Y-113687309D01*
X43030323Y-113680295D01*
X43029000Y-113666860D01*
X43029000Y-113353140D01*
X43030323Y-113339705D01*
X43032451Y-113332691D01*
X43039810Y-113318923D01*
X43049187Y-113296284D01*
X43053967Y-113272251D01*
X43053967Y-113247747D01*
X43049186Y-113223714D01*
X43039810Y-113201077D01*
X43032451Y-113187309D01*
X43030323Y-113180295D01*
X43029000Y-113166860D01*
X43029000Y-112853140D01*
X43030323Y-112839705D01*
X43032451Y-112832691D01*
X43039810Y-112818923D01*
X43049187Y-112796284D01*
X43053967Y-112772251D01*
X43053967Y-112747747D01*
X43049186Y-112723714D01*
X43039810Y-112701077D01*
X43032451Y-112687309D01*
X43030323Y-112680295D01*
X43029000Y-112666860D01*
X43029000Y-112353140D01*
X43030323Y-112339705D01*
X43032451Y-112332691D01*
X43039810Y-112318923D01*
X43049187Y-112296284D01*
X43053967Y-112272251D01*
X43053967Y-112247747D01*
X43049186Y-112223714D01*
X43039810Y-112201077D01*
X43032451Y-112187309D01*
X43030323Y-112180295D01*
X43029000Y-112166860D01*
X43029000Y-111853140D01*
X43030323Y-111839705D01*
X43032451Y-111832691D01*
X43039810Y-111818923D01*
X43049187Y-111796284D01*
X43053967Y-111772251D01*
X43053967Y-111747747D01*
X43049186Y-111723714D01*
X43039810Y-111701077D01*
X43032451Y-111687309D01*
X43030323Y-111680295D01*
X43029000Y-111666860D01*
X43029000Y-111353140D01*
X43030323Y-111339705D01*
X43032451Y-111332691D01*
X43039810Y-111318923D01*
X43049187Y-111296284D01*
X43053967Y-111272251D01*
X43053967Y-111247747D01*
X43049186Y-111223714D01*
X43039810Y-111201077D01*
X43032451Y-111187309D01*
X43030323Y-111180295D01*
X43029000Y-111166860D01*
X43029000Y-110853140D01*
X43030323Y-110839705D01*
X43032451Y-110832691D01*
X43039810Y-110818923D01*
X43049187Y-110796284D01*
X43053967Y-110772251D01*
X43053967Y-110747747D01*
X43049186Y-110723714D01*
X43039810Y-110701077D01*
X43032451Y-110687309D01*
X43030323Y-110680295D01*
X43029000Y-110666860D01*
X43029000Y-110353140D01*
X43030323Y-110339705D01*
X43032451Y-110332691D01*
X43039810Y-110318923D01*
X43049187Y-110296284D01*
X43053967Y-110272251D01*
X43053967Y-110247747D01*
X43049186Y-110223714D01*
X43039810Y-110201077D01*
X43032451Y-110187309D01*
X43030323Y-110180295D01*
X43029000Y-110166860D01*
X43029000Y-109853140D01*
X43030323Y-109839705D01*
X43032451Y-109832691D01*
X43039810Y-109818923D01*
X43049187Y-109796284D01*
X43053967Y-109772251D01*
X43053967Y-109747747D01*
X43049186Y-109723714D01*
X43039810Y-109701077D01*
X43032451Y-109687309D01*
X43030323Y-109680295D01*
X43029000Y-109666860D01*
X43029000Y-109353140D01*
X43030323Y-109339705D01*
X43032451Y-109332691D01*
X43039810Y-109318923D01*
X43049187Y-109296284D01*
X43053967Y-109272251D01*
X43053967Y-109247747D01*
X43049186Y-109223714D01*
X43039810Y-109201077D01*
X43032451Y-109187309D01*
X43030323Y-109180295D01*
X43029000Y-109166860D01*
X43029000Y-108853140D01*
X43030323Y-108839705D01*
X43032451Y-108832691D01*
X43039810Y-108818923D01*
X43049187Y-108796284D01*
X43053967Y-108772251D01*
X43053967Y-108747747D01*
X43049186Y-108723714D01*
X43039810Y-108701077D01*
X43032451Y-108687309D01*
X43030323Y-108680295D01*
X43029000Y-108666860D01*
X43029000Y-108353140D01*
X43030323Y-108339705D01*
X43032451Y-108332691D01*
X43039810Y-108318923D01*
X43049187Y-108296284D01*
X43053967Y-108272251D01*
X43053967Y-108247747D01*
X43049186Y-108223714D01*
X43039810Y-108201077D01*
X43032451Y-108187309D01*
X43030323Y-108180295D01*
X43029000Y-108166860D01*
X43029000Y-107853140D01*
X43030323Y-107839705D01*
X43032451Y-107832690D01*
X43035908Y-107826224D01*
X43040558Y-107820558D01*
X43046224Y-107815908D01*
X43052690Y-107812451D01*
X43059705Y-107810323D01*
X43073140Y-107809000D01*
X44636860Y-107809000D01*
X44650295Y-107810323D01*
G37*
G36*
X56000295Y-107810323D02*
G01*
X56007310Y-107812451D01*
X56013776Y-107815908D01*
X56019442Y-107820558D01*
X56024092Y-107826224D01*
X56027549Y-107832690D01*
X56029677Y-107839705D01*
X56031000Y-107853140D01*
X56031000Y-108166860D01*
X56029677Y-108180295D01*
X56027549Y-108187309D01*
X56020190Y-108201077D01*
X56010813Y-108223716D01*
X56006033Y-108247749D01*
X56006033Y-108272253D01*
X56010814Y-108296286D01*
X56020190Y-108318923D01*
X56027549Y-108332691D01*
X56029677Y-108339705D01*
X56031000Y-108353140D01*
X56031000Y-108666860D01*
X56029677Y-108680295D01*
X56027549Y-108687309D01*
X56020190Y-108701077D01*
X56010813Y-108723716D01*
X56006033Y-108747749D01*
X56006033Y-108772253D01*
X56010814Y-108796286D01*
X56020190Y-108818923D01*
X56027549Y-108832691D01*
X56029677Y-108839705D01*
X56031000Y-108853140D01*
X56031000Y-109166860D01*
X56029677Y-109180295D01*
X56027549Y-109187309D01*
X56020190Y-109201077D01*
X56010813Y-109223716D01*
X56006033Y-109247749D01*
X56006033Y-109272253D01*
X56010814Y-109296286D01*
X56020190Y-109318923D01*
X56027549Y-109332691D01*
X56029677Y-109339705D01*
X56031000Y-109353140D01*
X56031000Y-109666860D01*
X56029677Y-109680295D01*
X56027549Y-109687309D01*
X56020190Y-109701077D01*
X56010813Y-109723716D01*
X56006033Y-109747749D01*
X56006033Y-109772253D01*
X56010814Y-109796286D01*
X56020190Y-109818923D01*
X56027549Y-109832691D01*
X56029677Y-109839705D01*
X56031000Y-109853140D01*
X56031000Y-110166860D01*
X56029677Y-110180295D01*
X56027549Y-110187309D01*
X56020190Y-110201077D01*
X56010813Y-110223716D01*
X56006033Y-110247749D01*
X56006033Y-110272253D01*
X56010814Y-110296286D01*
X56020190Y-110318923D01*
X56027549Y-110332691D01*
X56029677Y-110339705D01*
X56031000Y-110353140D01*
X56031000Y-110666860D01*
X56029677Y-110680295D01*
X56027549Y-110687309D01*
X56020190Y-110701077D01*
X56010813Y-110723716D01*
X56006033Y-110747749D01*
X56006033Y-110772253D01*
X56010814Y-110796286D01*
X56020190Y-110818923D01*
X56027549Y-110832691D01*
X56029677Y-110839705D01*
X56031000Y-110853140D01*
X56031000Y-111166860D01*
X56029677Y-111180295D01*
X56027549Y-111187309D01*
X56020190Y-111201077D01*
X56010813Y-111223716D01*
X56006033Y-111247749D01*
X56006033Y-111272253D01*
X56010814Y-111296286D01*
X56020190Y-111318923D01*
X56027549Y-111332691D01*
X56029677Y-111339705D01*
X56031000Y-111353140D01*
X56031000Y-111666860D01*
X56029677Y-111680295D01*
X56027549Y-111687309D01*
X56020190Y-111701077D01*
X56010813Y-111723716D01*
X56006033Y-111747749D01*
X56006033Y-111772253D01*
X56010814Y-111796286D01*
X56020190Y-111818923D01*
X56027549Y-111832691D01*
X56029677Y-111839705D01*
X56031000Y-111853140D01*
X56031000Y-112166860D01*
X56029677Y-112180295D01*
X56027549Y-112187309D01*
X56020190Y-112201077D01*
X56010813Y-112223716D01*
X56006033Y-112247749D01*
X56006033Y-112272253D01*
X56010814Y-112296286D01*
X56020190Y-112318923D01*
X56027549Y-112332691D01*
X56029677Y-112339705D01*
X56031000Y-112353140D01*
X56031000Y-112666860D01*
X56029677Y-112680295D01*
X56027549Y-112687309D01*
X56020190Y-112701077D01*
X56010813Y-112723716D01*
X56006033Y-112747749D01*
X56006033Y-112772253D01*
X56010814Y-112796286D01*
X56020190Y-112818923D01*
X56027549Y-112832691D01*
X56029677Y-112839705D01*
X56031000Y-112853140D01*
X56031000Y-113166860D01*
X56029677Y-113180295D01*
X56027549Y-113187309D01*
X56020190Y-113201077D01*
X56010813Y-113223716D01*
X56006033Y-113247749D01*
X56006033Y-113272253D01*
X56010814Y-113296286D01*
X56020190Y-113318923D01*
X56027549Y-113332691D01*
X56029677Y-113339705D01*
X56031000Y-113353140D01*
X56031000Y-113666860D01*
X56029677Y-113680295D01*
X56027549Y-113687309D01*
X56020190Y-113701077D01*
X56010813Y-113723716D01*
X56006033Y-113747749D01*
X56006033Y-113772253D01*
X56010814Y-113796286D01*
X56020190Y-113818923D01*
X56027549Y-113832691D01*
X56029677Y-113839705D01*
X56031000Y-113853140D01*
X56031000Y-114166860D01*
X56029677Y-114180295D01*
X56027549Y-114187309D01*
X56020190Y-114201077D01*
X56010813Y-114223716D01*
X56006033Y-114247749D01*
X56006033Y-114272253D01*
X56010814Y-114296286D01*
X56020190Y-114318923D01*
X56027549Y-114332691D01*
X56029677Y-114339705D01*
X56031000Y-114353140D01*
X56031000Y-114666860D01*
X56029677Y-114680295D01*
X56027549Y-114687309D01*
X56020190Y-114701077D01*
X56010813Y-114723716D01*
X56006033Y-114747749D01*
X56006033Y-114772253D01*
X56010814Y-114796286D01*
X56020190Y-114818923D01*
X56027549Y-114832691D01*
X56029677Y-114839705D01*
X56031000Y-114853140D01*
X56031000Y-115166860D01*
X56029677Y-115180295D01*
X56027549Y-115187309D01*
X56020190Y-115201077D01*
X56010813Y-115223716D01*
X56006033Y-115247749D01*
X56006033Y-115272253D01*
X56010814Y-115296286D01*
X56020190Y-115318923D01*
X56027549Y-115332691D01*
X56029677Y-115339705D01*
X56031000Y-115353140D01*
X56031000Y-115666860D01*
X56029677Y-115680295D01*
X56027549Y-115687310D01*
X56024092Y-115693776D01*
X56019442Y-115699442D01*
X56013776Y-115704092D01*
X56007310Y-115707549D01*
X56000295Y-115709677D01*
X55986860Y-115711000D01*
X54423140Y-115711000D01*
X54409705Y-115709677D01*
X54402690Y-115707549D01*
X54396224Y-115704092D01*
X54390558Y-115699442D01*
X54385908Y-115693776D01*
X54382451Y-115687310D01*
X54380323Y-115680295D01*
X54379000Y-115666860D01*
X54379000Y-115353140D01*
X54380323Y-115339705D01*
X54382451Y-115332691D01*
X54389810Y-115318923D01*
X54399187Y-115296284D01*
X54403967Y-115272251D01*
X54403967Y-115247747D01*
X54399186Y-115223714D01*
X54389810Y-115201077D01*
X54382451Y-115187309D01*
X54380323Y-115180295D01*
X54379000Y-115166860D01*
X54379000Y-114853140D01*
X54380323Y-114839705D01*
X54382451Y-114832691D01*
X54389810Y-114818923D01*
X54399187Y-114796284D01*
X54403967Y-114772251D01*
X54403967Y-114747747D01*
X54399186Y-114723714D01*
X54389810Y-114701077D01*
X54382451Y-114687309D01*
X54380323Y-114680295D01*
X54379000Y-114666860D01*
X54379000Y-114353140D01*
X54380323Y-114339705D01*
X54382451Y-114332691D01*
X54389810Y-114318923D01*
X54399187Y-114296284D01*
X54403967Y-114272251D01*
X54403967Y-114247747D01*
X54399186Y-114223714D01*
X54389810Y-114201077D01*
X54382451Y-114187309D01*
X54380323Y-114180295D01*
X54379000Y-114166860D01*
X54379000Y-113853140D01*
X54380323Y-113839705D01*
X54382451Y-113832691D01*
X54389810Y-113818923D01*
X54399187Y-113796284D01*
X54403967Y-113772251D01*
X54403967Y-113747747D01*
X54399186Y-113723714D01*
X54389810Y-113701077D01*
X54382451Y-113687309D01*
X54380323Y-113680295D01*
X54379000Y-113666860D01*
X54379000Y-113353140D01*
X54380323Y-113339705D01*
X54382451Y-113332691D01*
X54389810Y-113318923D01*
X54399187Y-113296284D01*
X54403967Y-113272251D01*
X54403967Y-113247747D01*
X54399186Y-113223714D01*
X54389810Y-113201077D01*
X54382451Y-113187309D01*
X54380323Y-113180295D01*
X54379000Y-113166860D01*
X54379000Y-112853140D01*
X54380323Y-112839705D01*
X54382451Y-112832691D01*
X54389810Y-112818923D01*
X54399187Y-112796284D01*
X54403967Y-112772251D01*
X54403967Y-112747747D01*
X54399186Y-112723714D01*
X54389810Y-112701077D01*
X54382451Y-112687309D01*
X54380323Y-112680295D01*
X54379000Y-112666860D01*
X54379000Y-112353140D01*
X54380323Y-112339705D01*
X54382451Y-112332691D01*
X54389810Y-112318923D01*
X54399187Y-112296284D01*
X54403967Y-112272251D01*
X54403967Y-112247747D01*
X54399186Y-112223714D01*
X54389810Y-112201077D01*
X54382451Y-112187309D01*
X54380323Y-112180295D01*
X54379000Y-112166860D01*
X54379000Y-111853140D01*
X54380323Y-111839705D01*
X54382451Y-111832691D01*
X54389810Y-111818923D01*
X54399187Y-111796284D01*
X54403967Y-111772251D01*
X54403967Y-111747747D01*
X54399186Y-111723714D01*
X54389810Y-111701077D01*
X54382451Y-111687309D01*
X54380323Y-111680295D01*
X54379000Y-111666860D01*
X54379000Y-111353140D01*
X54380323Y-111339705D01*
X54382451Y-111332691D01*
X54389810Y-111318923D01*
X54399187Y-111296284D01*
X54403967Y-111272251D01*
X54403967Y-111247747D01*
X54399186Y-111223714D01*
X54389810Y-111201077D01*
X54382451Y-111187309D01*
X54380323Y-111180295D01*
X54379000Y-111166860D01*
X54379000Y-110853140D01*
X54380323Y-110839705D01*
X54382451Y-110832691D01*
X54389810Y-110818923D01*
X54399187Y-110796284D01*
X54403967Y-110772251D01*
X54403967Y-110747747D01*
X54399186Y-110723714D01*
X54389810Y-110701077D01*
X54382451Y-110687309D01*
X54380323Y-110680295D01*
X54379000Y-110666860D01*
X54379000Y-110353140D01*
X54380323Y-110339705D01*
X54382451Y-110332691D01*
X54389810Y-110318923D01*
X54399187Y-110296284D01*
X54403967Y-110272251D01*
X54403967Y-110247747D01*
X54399186Y-110223714D01*
X54389810Y-110201077D01*
X54382451Y-110187309D01*
X54380323Y-110180295D01*
X54379000Y-110166860D01*
X54379000Y-109853140D01*
X54380323Y-109839705D01*
X54382451Y-109832691D01*
X54389810Y-109818923D01*
X54399187Y-109796284D01*
X54403967Y-109772251D01*
X54403967Y-109747747D01*
X54399186Y-109723714D01*
X54389810Y-109701077D01*
X54382451Y-109687309D01*
X54380323Y-109680295D01*
X54379000Y-109666860D01*
X54379000Y-109353140D01*
X54380323Y-109339705D01*
X54382451Y-109332691D01*
X54389810Y-109318923D01*
X54399187Y-109296284D01*
X54403967Y-109272251D01*
X54403967Y-109247747D01*
X54399186Y-109223714D01*
X54389810Y-109201077D01*
X54382451Y-109187309D01*
X54380323Y-109180295D01*
X54379000Y-109166860D01*
X54379000Y-108853140D01*
X54380323Y-108839705D01*
X54382451Y-108832691D01*
X54389810Y-108818923D01*
X54399187Y-108796284D01*
X54403967Y-108772251D01*
X54403967Y-108747747D01*
X54399186Y-108723714D01*
X54389810Y-108701077D01*
X54382451Y-108687309D01*
X54380323Y-108680295D01*
X54379000Y-108666860D01*
X54379000Y-108353140D01*
X54380323Y-108339705D01*
X54382451Y-108332691D01*
X54389810Y-108318923D01*
X54399187Y-108296284D01*
X54403967Y-108272251D01*
X54403967Y-108247747D01*
X54399186Y-108223714D01*
X54389810Y-108201077D01*
X54382451Y-108187309D01*
X54380323Y-108180295D01*
X54379000Y-108166860D01*
X54379000Y-107853140D01*
X54380323Y-107839705D01*
X54382451Y-107832690D01*
X54385908Y-107826224D01*
X54390558Y-107820558D01*
X54396224Y-107815908D01*
X54402690Y-107812451D01*
X54409705Y-107810323D01*
X54423140Y-107809000D01*
X55986860Y-107809000D01*
X56000295Y-107810323D01*
G37*
G36*
X39381938Y-113911716D02*
G01*
X39402557Y-113917971D01*
X39421553Y-113928124D01*
X39438208Y-113941792D01*
X39451876Y-113958447D01*
X39462029Y-113977443D01*
X39468284Y-113998062D01*
X39471000Y-114025640D01*
X39471000Y-114534360D01*
X39468284Y-114561938D01*
X39462029Y-114582557D01*
X39451876Y-114601553D01*
X39438208Y-114618208D01*
X39421553Y-114631876D01*
X39402557Y-114642029D01*
X39381938Y-114648284D01*
X39354360Y-114651000D01*
X38895640Y-114651000D01*
X38868062Y-114648284D01*
X38847443Y-114642029D01*
X38828447Y-114631876D01*
X38811792Y-114618208D01*
X38798124Y-114601553D01*
X38787971Y-114582557D01*
X38781716Y-114561938D01*
X38779000Y-114534360D01*
X38779000Y-114025640D01*
X38781716Y-113998062D01*
X38787971Y-113977443D01*
X38798124Y-113958447D01*
X38811792Y-113941792D01*
X38828447Y-113928124D01*
X38847443Y-113917971D01*
X38868062Y-113911716D01*
X38895640Y-113909000D01*
X39354360Y-113909000D01*
X39381938Y-113911716D01*
G37*
G36*
X40351938Y-113911716D02*
G01*
X40372557Y-113917971D01*
X40391553Y-113928124D01*
X40408208Y-113941792D01*
X40421876Y-113958447D01*
X40432029Y-113977443D01*
X40438284Y-113998062D01*
X40441000Y-114025640D01*
X40441000Y-114534360D01*
X40438284Y-114561938D01*
X40432029Y-114582557D01*
X40421876Y-114601553D01*
X40408208Y-114618208D01*
X40391553Y-114631876D01*
X40372557Y-114642029D01*
X40351938Y-114648284D01*
X40324360Y-114651000D01*
X39865640Y-114651000D01*
X39838062Y-114648284D01*
X39817443Y-114642029D01*
X39798447Y-114631876D01*
X39781792Y-114618208D01*
X39768124Y-114601553D01*
X39757971Y-114582557D01*
X39751716Y-114561938D01*
X39749000Y-114534360D01*
X39749000Y-114025640D01*
X39751716Y-113998062D01*
X39757971Y-113977443D01*
X39768124Y-113958447D01*
X39781792Y-113941792D01*
X39798447Y-113928124D01*
X39817443Y-113917971D01*
X39838062Y-113911716D01*
X39865640Y-113909000D01*
X40324360Y-113909000D01*
X40351938Y-113911716D01*
G37*
G36*
X42445938Y-113933716D02*
G01*
X42466557Y-113939971D01*
X42485553Y-113950124D01*
X42502208Y-113963792D01*
X42515876Y-113980447D01*
X42526029Y-113999443D01*
X42532284Y-114020062D01*
X42535000Y-114047640D01*
X42535000Y-114506360D01*
X42532284Y-114533938D01*
X42526029Y-114554557D01*
X42515876Y-114573553D01*
X42502208Y-114590208D01*
X42485553Y-114603876D01*
X42466557Y-114614029D01*
X42445938Y-114620284D01*
X42418360Y-114623000D01*
X41909640Y-114623000D01*
X41882062Y-114620284D01*
X41861443Y-114614029D01*
X41842447Y-114603876D01*
X41825792Y-114590208D01*
X41812124Y-114573553D01*
X41801971Y-114554557D01*
X41795716Y-114533938D01*
X41793000Y-114506360D01*
X41793000Y-114047640D01*
X41795716Y-114020062D01*
X41801971Y-113999443D01*
X41812124Y-113980447D01*
X41825792Y-113963792D01*
X41842447Y-113950124D01*
X41861443Y-113939971D01*
X41882062Y-113933716D01*
X41909640Y-113931000D01*
X42418360Y-113931000D01*
X42445938Y-113933716D01*
G37*
G36*
X41429938Y-113933716D02*
G01*
X41450557Y-113939971D01*
X41469553Y-113950124D01*
X41486208Y-113963792D01*
X41499876Y-113980447D01*
X41510029Y-113999443D01*
X41516284Y-114020062D01*
X41519000Y-114047640D01*
X41519000Y-114506360D01*
X41516284Y-114533938D01*
X41510029Y-114554557D01*
X41499876Y-114573553D01*
X41486208Y-114590208D01*
X41469553Y-114603876D01*
X41450557Y-114614029D01*
X41429938Y-114620284D01*
X41402360Y-114623000D01*
X40893640Y-114623000D01*
X40866062Y-114620284D01*
X40845443Y-114614029D01*
X40826447Y-114603876D01*
X40809792Y-114590208D01*
X40796124Y-114573553D01*
X40785971Y-114554557D01*
X40779716Y-114533938D01*
X40777000Y-114506360D01*
X40777000Y-114047640D01*
X40779716Y-114020062D01*
X40785971Y-113999443D01*
X40796124Y-113980447D01*
X40809792Y-113963792D01*
X40826447Y-113950124D01*
X40845443Y-113939971D01*
X40866062Y-113933716D01*
X40893640Y-113931000D01*
X41402360Y-113931000D01*
X41429938Y-113933716D01*
G37*
G36*
X85457512Y-111879927D02*
G01*
X85606812Y-111909624D01*
X85770784Y-111977544D01*
X85918354Y-112076147D01*
X86043853Y-112201646D01*
X86142456Y-112349216D01*
X86210376Y-112513188D01*
X86229732Y-112610500D01*
X86240943Y-112666860D01*
X86245000Y-112687259D01*
X86245000Y-112864741D01*
X86210376Y-113038812D01*
X86142456Y-113202784D01*
X86043853Y-113350354D01*
X85918354Y-113475853D01*
X85770784Y-113574456D01*
X85606812Y-113642376D01*
X85457512Y-113672073D01*
X85432742Y-113677000D01*
X85255258Y-113677000D01*
X85230488Y-113672073D01*
X85081188Y-113642376D01*
X84917216Y-113574456D01*
X84769646Y-113475853D01*
X84644147Y-113350354D01*
X84545544Y-113202784D01*
X84477624Y-113038812D01*
X84443000Y-112864741D01*
X84443000Y-112687259D01*
X84447058Y-112666860D01*
X84458268Y-112610500D01*
X84477624Y-112513188D01*
X84545544Y-112349216D01*
X84644147Y-112201646D01*
X84769646Y-112076147D01*
X84917216Y-111977544D01*
X85081188Y-111909624D01*
X85230488Y-111879927D01*
X85255258Y-111875000D01*
X85432742Y-111875000D01*
X85457512Y-111879927D01*
G37*
G36*
X28841000Y-113677000D02*
G01*
X27039000Y-113677000D01*
X27039000Y-111875000D01*
X28841000Y-111875000D01*
X28841000Y-113677000D01*
G37*
G36*
X41429938Y-112963716D02*
G01*
X41450557Y-112969971D01*
X41469553Y-112980124D01*
X41486208Y-112993792D01*
X41499876Y-113010447D01*
X41510029Y-113029443D01*
X41516284Y-113050062D01*
X41519000Y-113077640D01*
X41519000Y-113536360D01*
X41516284Y-113563938D01*
X41510029Y-113584557D01*
X41499876Y-113603553D01*
X41486208Y-113620208D01*
X41469553Y-113633876D01*
X41450557Y-113644029D01*
X41429938Y-113650284D01*
X41402360Y-113653000D01*
X40893640Y-113653000D01*
X40866062Y-113650284D01*
X40845443Y-113644029D01*
X40826447Y-113633876D01*
X40809792Y-113620208D01*
X40796124Y-113603553D01*
X40785971Y-113584557D01*
X40779716Y-113563938D01*
X40777000Y-113536360D01*
X40777000Y-113077640D01*
X40779716Y-113050062D01*
X40785971Y-113029443D01*
X40796124Y-113010447D01*
X40809792Y-112993792D01*
X40826447Y-112980124D01*
X40845443Y-112969971D01*
X40866062Y-112963716D01*
X40893640Y-112961000D01*
X41402360Y-112961000D01*
X41429938Y-112963716D01*
G37*
G36*
X42445938Y-112963716D02*
G01*
X42466557Y-112969971D01*
X42485553Y-112980124D01*
X42502208Y-112993792D01*
X42515876Y-113010447D01*
X42526029Y-113029443D01*
X42532284Y-113050062D01*
X42535000Y-113077640D01*
X42535000Y-113536360D01*
X42532284Y-113563938D01*
X42526029Y-113584557D01*
X42515876Y-113603553D01*
X42502208Y-113620208D01*
X42485553Y-113633876D01*
X42466557Y-113644029D01*
X42445938Y-113650284D01*
X42418360Y-113653000D01*
X41909640Y-113653000D01*
X41882062Y-113650284D01*
X41861443Y-113644029D01*
X41842447Y-113633876D01*
X41825792Y-113620208D01*
X41812124Y-113603553D01*
X41801971Y-113584557D01*
X41795716Y-113563938D01*
X41793000Y-113536360D01*
X41793000Y-113077640D01*
X41795716Y-113050062D01*
X41801971Y-113029443D01*
X41812124Y-113010447D01*
X41825792Y-112993792D01*
X41842447Y-112980124D01*
X41861443Y-112969971D01*
X41882062Y-112963716D01*
X41909640Y-112961000D01*
X42418360Y-112961000D01*
X42445938Y-112963716D01*
G37*
G36*
X38333938Y-112407716D02*
G01*
X38354557Y-112413971D01*
X38373553Y-112424124D01*
X38390208Y-112437792D01*
X38403876Y-112454447D01*
X38414029Y-112473443D01*
X38420284Y-112494062D01*
X38423000Y-112521640D01*
X38423000Y-113030360D01*
X38420284Y-113057938D01*
X38414029Y-113078557D01*
X38403876Y-113097553D01*
X38390208Y-113114208D01*
X38373553Y-113127876D01*
X38354557Y-113138029D01*
X38333938Y-113144284D01*
X38306360Y-113147000D01*
X37847640Y-113147000D01*
X37820062Y-113144284D01*
X37799443Y-113138029D01*
X37780447Y-113127876D01*
X37763792Y-113114208D01*
X37750124Y-113097553D01*
X37739971Y-113078557D01*
X37733716Y-113057938D01*
X37731000Y-113030360D01*
X37731000Y-112521640D01*
X37733716Y-112494062D01*
X37739971Y-112473443D01*
X37750124Y-112454447D01*
X37763792Y-112437792D01*
X37780447Y-112424124D01*
X37799443Y-112413971D01*
X37820062Y-112407716D01*
X37847640Y-112405000D01*
X38306360Y-112405000D01*
X38333938Y-112407716D01*
G37*
G36*
X37363938Y-112407716D02*
G01*
X37384557Y-112413971D01*
X37403553Y-112424124D01*
X37420208Y-112437792D01*
X37433876Y-112454447D01*
X37444029Y-112473443D01*
X37450284Y-112494062D01*
X37453000Y-112521640D01*
X37453000Y-113030360D01*
X37450284Y-113057938D01*
X37444029Y-113078557D01*
X37433876Y-113097553D01*
X37420208Y-113114208D01*
X37403553Y-113127876D01*
X37384557Y-113138029D01*
X37363938Y-113144284D01*
X37336360Y-113147000D01*
X36877640Y-113147000D01*
X36850062Y-113144284D01*
X36829443Y-113138029D01*
X36810447Y-113127876D01*
X36793792Y-113114208D01*
X36780124Y-113097553D01*
X36769971Y-113078557D01*
X36763716Y-113057938D01*
X36761000Y-113030360D01*
X36761000Y-112521640D01*
X36763716Y-112494062D01*
X36769971Y-112473443D01*
X36780124Y-112454447D01*
X36793792Y-112437792D01*
X36810447Y-112424124D01*
X36829443Y-112413971D01*
X36850062Y-112407716D01*
X36877640Y-112405000D01*
X37336360Y-112405000D01*
X37363938Y-112407716D01*
G37*
G36*
X39093000Y-111579000D02*
G01*
X37791000Y-111579000D01*
X37791000Y-110077000D01*
X39093000Y-110077000D01*
X39093000Y-111579000D01*
G37*
G36*
X37393000Y-111579000D02*
G01*
X36091000Y-111579000D01*
X36091000Y-110077000D01*
X37393000Y-110077000D01*
X37393000Y-111579000D01*
G37*
G36*
X85456395Y-109339705D02*
G01*
X85606812Y-109369624D01*
X85770784Y-109437544D01*
X85918354Y-109536147D01*
X86043853Y-109661646D01*
X86142456Y-109809216D01*
X86210376Y-109973188D01*
X86245000Y-110147259D01*
X86245000Y-110324741D01*
X86210376Y-110498812D01*
X86142456Y-110662784D01*
X86043853Y-110810354D01*
X85918354Y-110935853D01*
X85770784Y-111034456D01*
X85606812Y-111102376D01*
X85467395Y-111130107D01*
X85432742Y-111137000D01*
X85255258Y-111137000D01*
X85220605Y-111130107D01*
X85081188Y-111102376D01*
X84917216Y-111034456D01*
X84769646Y-110935853D01*
X84644147Y-110810354D01*
X84545544Y-110662784D01*
X84477624Y-110498812D01*
X84443000Y-110324741D01*
X84443000Y-110147259D01*
X84477624Y-109973188D01*
X84545544Y-109809216D01*
X84644147Y-109661646D01*
X84769646Y-109536147D01*
X84917216Y-109437544D01*
X85081188Y-109369624D01*
X85231605Y-109339705D01*
X85255258Y-109335000D01*
X85432742Y-109335000D01*
X85456395Y-109339705D01*
G37*
G36*
X41381938Y-110375716D02*
G01*
X41402557Y-110381971D01*
X41421553Y-110392124D01*
X41438208Y-110405792D01*
X41451876Y-110422447D01*
X41462029Y-110441443D01*
X41468284Y-110462062D01*
X41471000Y-110489640D01*
X41471000Y-110998360D01*
X41468284Y-111025938D01*
X41462029Y-111046557D01*
X41451876Y-111065553D01*
X41438208Y-111082208D01*
X41421553Y-111095876D01*
X41402557Y-111106029D01*
X41381938Y-111112284D01*
X41354360Y-111115000D01*
X40895640Y-111115000D01*
X40868062Y-111112284D01*
X40847443Y-111106029D01*
X40828447Y-111095876D01*
X40811792Y-111082208D01*
X40798124Y-111065553D01*
X40787971Y-111046557D01*
X40781716Y-111025938D01*
X40779000Y-110998360D01*
X40779000Y-110489640D01*
X40781716Y-110462062D01*
X40787971Y-110441443D01*
X40798124Y-110422447D01*
X40811792Y-110405792D01*
X40828447Y-110392124D01*
X40847443Y-110381971D01*
X40868062Y-110375716D01*
X40895640Y-110373000D01*
X41354360Y-110373000D01*
X41381938Y-110375716D01*
G37*
G36*
X40411938Y-110375716D02*
G01*
X40432557Y-110381971D01*
X40451553Y-110392124D01*
X40468208Y-110405792D01*
X40481876Y-110422447D01*
X40492029Y-110441443D01*
X40498284Y-110462062D01*
X40501000Y-110489640D01*
X40501000Y-110998360D01*
X40498284Y-111025938D01*
X40492029Y-111046557D01*
X40481876Y-111065553D01*
X40468208Y-111082208D01*
X40451553Y-111095876D01*
X40432557Y-111106029D01*
X40411938Y-111112284D01*
X40384360Y-111115000D01*
X39925640Y-111115000D01*
X39898062Y-111112284D01*
X39877443Y-111106029D01*
X39858447Y-111095876D01*
X39841792Y-111082208D01*
X39828124Y-111065553D01*
X39817971Y-111046557D01*
X39811716Y-111025938D01*
X39809000Y-110998360D01*
X39809000Y-110489640D01*
X39811716Y-110462062D01*
X39817971Y-110441443D01*
X39828124Y-110422447D01*
X39841792Y-110405792D01*
X39858447Y-110392124D01*
X39877443Y-110381971D01*
X39898062Y-110375716D01*
X39925640Y-110373000D01*
X40384360Y-110373000D01*
X40411938Y-110375716D01*
G37*
G36*
X37393000Y-109379000D02*
G01*
X36091000Y-109379000D01*
X36091000Y-107877000D01*
X37393000Y-107877000D01*
X37393000Y-109379000D01*
G37*
G36*
X39093000Y-109379000D02*
G01*
X37791000Y-109379000D01*
X37791000Y-107877000D01*
X39093000Y-107877000D01*
X39093000Y-109379000D01*
G37*
G36*
X85457512Y-106799927D02*
G01*
X85606812Y-106829624D01*
X85770784Y-106897544D01*
X85918354Y-106996147D01*
X86043853Y-107121646D01*
X86142456Y-107269216D01*
X86210376Y-107433188D01*
X86245000Y-107607259D01*
X86245000Y-107784741D01*
X86210376Y-107958812D01*
X86142456Y-108122784D01*
X86043853Y-108270354D01*
X85918354Y-108395853D01*
X85770784Y-108494456D01*
X85606812Y-108562376D01*
X85457512Y-108592073D01*
X85432742Y-108597000D01*
X85255258Y-108597000D01*
X85230488Y-108592073D01*
X85081188Y-108562376D01*
X84917216Y-108494456D01*
X84769646Y-108395853D01*
X84644147Y-108270354D01*
X84545544Y-108122784D01*
X84477624Y-107958812D01*
X84443000Y-107784741D01*
X84443000Y-107607259D01*
X84477624Y-107433188D01*
X84545544Y-107269216D01*
X84644147Y-107121646D01*
X84769646Y-106996147D01*
X84917216Y-106897544D01*
X85081188Y-106829624D01*
X85230488Y-106799927D01*
X85255258Y-106795000D01*
X85432742Y-106795000D01*
X85457512Y-106799927D01*
G37*
G36*
X59053591Y-106475085D02*
G01*
X59087569Y-106485393D01*
X59118890Y-106502134D01*
X59146339Y-106524661D01*
X59168866Y-106552110D01*
X59185607Y-106583431D01*
X59195915Y-106617409D01*
X59200000Y-106658890D01*
X59200000Y-107260110D01*
X59195915Y-107301591D01*
X59185607Y-107335569D01*
X59168866Y-107366890D01*
X59146339Y-107394339D01*
X59118890Y-107416866D01*
X59087569Y-107433607D01*
X59053591Y-107443915D01*
X59012110Y-107448000D01*
X58335890Y-107448000D01*
X58294409Y-107443915D01*
X58260431Y-107433607D01*
X58229110Y-107416866D01*
X58201661Y-107394339D01*
X58179134Y-107366890D01*
X58162393Y-107335569D01*
X58152085Y-107301591D01*
X58148000Y-107260110D01*
X58148000Y-106658890D01*
X58152085Y-106617409D01*
X58162393Y-106583431D01*
X58179134Y-106552110D01*
X58201661Y-106524661D01*
X58229110Y-106502134D01*
X58260431Y-106485393D01*
X58294409Y-106475085D01*
X58335890Y-106471000D01*
X59012110Y-106471000D01*
X59053591Y-106475085D01*
G37*
G36*
X41718591Y-106158085D02*
G01*
X41752569Y-106168393D01*
X41783890Y-106185134D01*
X41811339Y-106207661D01*
X41833866Y-106235110D01*
X41850607Y-106266431D01*
X41860915Y-106300409D01*
X41865000Y-106341890D01*
X41865000Y-107018110D01*
X41860915Y-107059591D01*
X41850607Y-107093569D01*
X41833866Y-107124890D01*
X41811339Y-107152339D01*
X41783890Y-107174866D01*
X41752569Y-107191607D01*
X41718591Y-107201915D01*
X41677110Y-107206000D01*
X41075890Y-107206000D01*
X41034409Y-107201915D01*
X41000431Y-107191607D01*
X40969110Y-107174866D01*
X40941661Y-107152339D01*
X40919134Y-107124890D01*
X40902393Y-107093569D01*
X40892085Y-107059591D01*
X40888000Y-107018110D01*
X40888000Y-106341890D01*
X40892085Y-106300409D01*
X40902393Y-106266431D01*
X40919134Y-106235110D01*
X40941661Y-106207661D01*
X40969110Y-106185134D01*
X41000431Y-106168393D01*
X41034409Y-106158085D01*
X41075890Y-106154000D01*
X41677110Y-106154000D01*
X41718591Y-106158085D01*
G37*
G36*
X43293591Y-106158085D02*
G01*
X43327569Y-106168393D01*
X43358890Y-106185134D01*
X43386339Y-106207661D01*
X43408866Y-106235110D01*
X43425607Y-106266431D01*
X43435915Y-106300409D01*
X43440000Y-106341890D01*
X43440000Y-107018110D01*
X43435915Y-107059591D01*
X43425607Y-107093569D01*
X43408866Y-107124890D01*
X43386339Y-107152339D01*
X43358890Y-107174866D01*
X43327569Y-107191607D01*
X43293591Y-107201915D01*
X43252110Y-107206000D01*
X42650890Y-107206000D01*
X42609409Y-107201915D01*
X42575431Y-107191607D01*
X42544110Y-107174866D01*
X42516661Y-107152339D01*
X42494134Y-107124890D01*
X42477393Y-107093569D01*
X42467085Y-107059591D01*
X42463000Y-107018110D01*
X42463000Y-106341890D01*
X42467085Y-106300409D01*
X42477393Y-106266431D01*
X42494134Y-106235110D01*
X42516661Y-106207661D01*
X42544110Y-106185134D01*
X42575431Y-106168393D01*
X42609409Y-106158085D01*
X42650890Y-106154000D01*
X43252110Y-106154000D01*
X43293591Y-106158085D01*
G37*
G36*
X38333938Y-106311716D02*
G01*
X38354557Y-106317971D01*
X38373553Y-106328124D01*
X38390208Y-106341792D01*
X38403876Y-106358447D01*
X38414029Y-106377443D01*
X38420284Y-106398062D01*
X38423000Y-106425640D01*
X38423000Y-106934360D01*
X38420284Y-106961938D01*
X38414029Y-106982557D01*
X38403876Y-107001553D01*
X38390208Y-107018208D01*
X38373553Y-107031876D01*
X38354557Y-107042029D01*
X38333938Y-107048284D01*
X38306360Y-107051000D01*
X37847640Y-107051000D01*
X37820062Y-107048284D01*
X37799443Y-107042029D01*
X37780447Y-107031876D01*
X37763792Y-107018208D01*
X37750124Y-107001553D01*
X37739971Y-106982557D01*
X37733716Y-106961938D01*
X37731000Y-106934360D01*
X37731000Y-106425640D01*
X37733716Y-106398062D01*
X37739971Y-106377443D01*
X37750124Y-106358447D01*
X37763792Y-106341792D01*
X37780447Y-106328124D01*
X37799443Y-106317971D01*
X37820062Y-106311716D01*
X37847640Y-106309000D01*
X38306360Y-106309000D01*
X38333938Y-106311716D01*
G37*
G36*
X37363938Y-106311716D02*
G01*
X37384557Y-106317971D01*
X37403553Y-106328124D01*
X37420208Y-106341792D01*
X37433876Y-106358447D01*
X37444029Y-106377443D01*
X37450284Y-106398062D01*
X37453000Y-106425640D01*
X37453000Y-106934360D01*
X37450284Y-106961938D01*
X37444029Y-106982557D01*
X37433876Y-107001553D01*
X37420208Y-107018208D01*
X37403553Y-107031876D01*
X37384557Y-107042029D01*
X37363938Y-107048284D01*
X37336360Y-107051000D01*
X36877640Y-107051000D01*
X36850062Y-107048284D01*
X36829443Y-107042029D01*
X36810447Y-107031876D01*
X36793792Y-107018208D01*
X36780124Y-107001553D01*
X36769971Y-106982557D01*
X36763716Y-106961938D01*
X36761000Y-106934360D01*
X36761000Y-106425640D01*
X36763716Y-106398062D01*
X36769971Y-106377443D01*
X36780124Y-106358447D01*
X36793792Y-106341792D01*
X36810447Y-106328124D01*
X36829443Y-106317971D01*
X36850062Y-106311716D01*
X36877640Y-106309000D01*
X37336360Y-106309000D01*
X37363938Y-106311716D01*
G37*
G36*
X55907938Y-106313716D02*
G01*
X55928557Y-106319971D01*
X55947553Y-106330124D01*
X55964208Y-106343792D01*
X55977876Y-106360447D01*
X55988029Y-106379443D01*
X55994284Y-106400062D01*
X55997000Y-106427640D01*
X55997000Y-106886360D01*
X55994284Y-106913938D01*
X55988029Y-106934557D01*
X55977876Y-106953553D01*
X55964208Y-106970208D01*
X55947553Y-106983876D01*
X55928557Y-106994029D01*
X55907938Y-107000284D01*
X55880360Y-107003000D01*
X55371640Y-107003000D01*
X55344062Y-107000284D01*
X55323443Y-106994029D01*
X55304447Y-106983876D01*
X55287792Y-106970208D01*
X55274124Y-106953553D01*
X55263971Y-106934557D01*
X55257716Y-106913938D01*
X55255000Y-106886360D01*
X55255000Y-106427640D01*
X55257716Y-106400062D01*
X55263971Y-106379443D01*
X55274124Y-106360447D01*
X55287792Y-106343792D01*
X55304447Y-106330124D01*
X55323443Y-106319971D01*
X55344062Y-106313716D01*
X55371640Y-106311000D01*
X55880360Y-106311000D01*
X55907938Y-106313716D01*
G37*
G36*
X45950295Y-105260323D02*
G01*
X45957309Y-105262451D01*
X45971077Y-105269810D01*
X45993716Y-105279187D01*
X46017749Y-105283967D01*
X46042253Y-105283967D01*
X46066286Y-105279186D01*
X46088923Y-105269810D01*
X46102691Y-105262451D01*
X46109705Y-105260323D01*
X46123140Y-105259000D01*
X46436860Y-105259000D01*
X46450295Y-105260323D01*
X46457309Y-105262451D01*
X46471077Y-105269810D01*
X46493716Y-105279187D01*
X46517749Y-105283967D01*
X46542253Y-105283967D01*
X46566286Y-105279186D01*
X46588923Y-105269810D01*
X46602691Y-105262451D01*
X46609705Y-105260323D01*
X46623140Y-105259000D01*
X46936860Y-105259000D01*
X46950295Y-105260323D01*
X46957309Y-105262451D01*
X46971077Y-105269810D01*
X46993716Y-105279187D01*
X47017749Y-105283967D01*
X47042253Y-105283967D01*
X47066286Y-105279186D01*
X47088923Y-105269810D01*
X47102691Y-105262451D01*
X47109705Y-105260323D01*
X47123140Y-105259000D01*
X47436860Y-105259000D01*
X47450295Y-105260323D01*
X47457309Y-105262451D01*
X47471077Y-105269810D01*
X47493716Y-105279187D01*
X47517749Y-105283967D01*
X47542253Y-105283967D01*
X47566286Y-105279186D01*
X47588923Y-105269810D01*
X47602691Y-105262451D01*
X47609705Y-105260323D01*
X47623140Y-105259000D01*
X47936860Y-105259000D01*
X47950295Y-105260323D01*
X47957309Y-105262451D01*
X47971077Y-105269810D01*
X47993716Y-105279187D01*
X48017749Y-105283967D01*
X48042253Y-105283967D01*
X48066286Y-105279186D01*
X48088923Y-105269810D01*
X48102691Y-105262451D01*
X48109705Y-105260323D01*
X48123140Y-105259000D01*
X48436860Y-105259000D01*
X48450295Y-105260323D01*
X48457309Y-105262451D01*
X48471077Y-105269810D01*
X48493716Y-105279187D01*
X48517749Y-105283967D01*
X48542253Y-105283967D01*
X48566286Y-105279186D01*
X48588923Y-105269810D01*
X48602691Y-105262451D01*
X48609705Y-105260323D01*
X48623140Y-105259000D01*
X48936860Y-105259000D01*
X48950295Y-105260323D01*
X48957309Y-105262451D01*
X48971077Y-105269810D01*
X48993716Y-105279187D01*
X49017749Y-105283967D01*
X49042253Y-105283967D01*
X49066286Y-105279186D01*
X49088923Y-105269810D01*
X49102691Y-105262451D01*
X49109705Y-105260323D01*
X49123140Y-105259000D01*
X49436860Y-105259000D01*
X49450295Y-105260323D01*
X49457309Y-105262451D01*
X49471077Y-105269810D01*
X49493716Y-105279187D01*
X49517749Y-105283967D01*
X49542253Y-105283967D01*
X49566286Y-105279186D01*
X49588923Y-105269810D01*
X49602691Y-105262451D01*
X49609705Y-105260323D01*
X49623140Y-105259000D01*
X49936860Y-105259000D01*
X49950295Y-105260323D01*
X49957309Y-105262451D01*
X49971077Y-105269810D01*
X49993716Y-105279187D01*
X50017749Y-105283967D01*
X50042253Y-105283967D01*
X50066286Y-105279186D01*
X50088923Y-105269810D01*
X50102691Y-105262451D01*
X50109705Y-105260323D01*
X50123140Y-105259000D01*
X50436860Y-105259000D01*
X50450295Y-105260323D01*
X50457309Y-105262451D01*
X50471077Y-105269810D01*
X50493716Y-105279187D01*
X50517749Y-105283967D01*
X50542253Y-105283967D01*
X50566286Y-105279186D01*
X50588923Y-105269810D01*
X50602691Y-105262451D01*
X50609705Y-105260323D01*
X50623140Y-105259000D01*
X50936860Y-105259000D01*
X50950295Y-105260323D01*
X50957309Y-105262451D01*
X50971077Y-105269810D01*
X50993716Y-105279187D01*
X51017749Y-105283967D01*
X51042253Y-105283967D01*
X51066286Y-105279186D01*
X51088923Y-105269810D01*
X51102691Y-105262451D01*
X51109705Y-105260323D01*
X51123140Y-105259000D01*
X51436860Y-105259000D01*
X51450295Y-105260323D01*
X51457309Y-105262451D01*
X51471077Y-105269810D01*
X51493716Y-105279187D01*
X51517749Y-105283967D01*
X51542253Y-105283967D01*
X51566286Y-105279186D01*
X51588923Y-105269810D01*
X51602691Y-105262451D01*
X51609705Y-105260323D01*
X51623140Y-105259000D01*
X51936860Y-105259000D01*
X51950295Y-105260323D01*
X51957309Y-105262451D01*
X51971077Y-105269810D01*
X51993716Y-105279187D01*
X52017749Y-105283967D01*
X52042253Y-105283967D01*
X52066286Y-105279186D01*
X52088923Y-105269810D01*
X52102691Y-105262451D01*
X52109705Y-105260323D01*
X52123140Y-105259000D01*
X52436860Y-105259000D01*
X52450295Y-105260323D01*
X52457309Y-105262451D01*
X52471077Y-105269810D01*
X52493716Y-105279187D01*
X52517749Y-105283967D01*
X52542253Y-105283967D01*
X52566286Y-105279186D01*
X52588923Y-105269810D01*
X52602691Y-105262451D01*
X52609705Y-105260323D01*
X52623140Y-105259000D01*
X52936860Y-105259000D01*
X52950295Y-105260323D01*
X52957309Y-105262451D01*
X52971077Y-105269810D01*
X52993716Y-105279187D01*
X53017749Y-105283967D01*
X53042253Y-105283967D01*
X53066286Y-105279186D01*
X53088923Y-105269810D01*
X53102691Y-105262451D01*
X53109705Y-105260323D01*
X53123140Y-105259000D01*
X53436860Y-105259000D01*
X53450295Y-105260323D01*
X53457310Y-105262451D01*
X53463776Y-105265908D01*
X53469442Y-105270558D01*
X53474092Y-105276224D01*
X53477549Y-105282690D01*
X53479677Y-105289705D01*
X53481000Y-105303140D01*
X53481000Y-106866860D01*
X53479677Y-106880295D01*
X53477549Y-106887310D01*
X53474092Y-106893776D01*
X53469442Y-106899442D01*
X53463776Y-106904092D01*
X53457310Y-106907549D01*
X53450295Y-106909677D01*
X53436860Y-106911000D01*
X53123140Y-106911000D01*
X53109705Y-106909677D01*
X53102691Y-106907549D01*
X53088923Y-106900190D01*
X53066284Y-106890813D01*
X53042251Y-106886033D01*
X53017747Y-106886033D01*
X52993714Y-106890814D01*
X52971077Y-106900190D01*
X52957309Y-106907549D01*
X52950295Y-106909677D01*
X52936860Y-106911000D01*
X52623140Y-106911000D01*
X52609705Y-106909677D01*
X52602691Y-106907549D01*
X52588923Y-106900190D01*
X52566284Y-106890813D01*
X52542251Y-106886033D01*
X52517747Y-106886033D01*
X52493714Y-106890814D01*
X52471077Y-106900190D01*
X52457309Y-106907549D01*
X52450295Y-106909677D01*
X52436860Y-106911000D01*
X52123140Y-106911000D01*
X52109705Y-106909677D01*
X52102691Y-106907549D01*
X52088923Y-106900190D01*
X52066284Y-106890813D01*
X52042251Y-106886033D01*
X52017747Y-106886033D01*
X51993714Y-106890814D01*
X51971077Y-106900190D01*
X51957309Y-106907549D01*
X51950295Y-106909677D01*
X51936860Y-106911000D01*
X51623140Y-106911000D01*
X51609705Y-106909677D01*
X51602691Y-106907549D01*
X51588923Y-106900190D01*
X51566284Y-106890813D01*
X51542251Y-106886033D01*
X51517747Y-106886033D01*
X51493714Y-106890814D01*
X51471077Y-106900190D01*
X51457309Y-106907549D01*
X51450295Y-106909677D01*
X51436860Y-106911000D01*
X51123140Y-106911000D01*
X51109705Y-106909677D01*
X51102691Y-106907549D01*
X51088923Y-106900190D01*
X51066284Y-106890813D01*
X51042251Y-106886033D01*
X51017747Y-106886033D01*
X50993714Y-106890814D01*
X50971077Y-106900190D01*
X50957309Y-106907549D01*
X50950295Y-106909677D01*
X50936860Y-106911000D01*
X50623140Y-106911000D01*
X50609705Y-106909677D01*
X50602691Y-106907549D01*
X50588923Y-106900190D01*
X50566284Y-106890813D01*
X50542251Y-106886033D01*
X50517747Y-106886033D01*
X50493714Y-106890814D01*
X50471077Y-106900190D01*
X50457309Y-106907549D01*
X50450295Y-106909677D01*
X50436860Y-106911000D01*
X50123140Y-106911000D01*
X50109705Y-106909677D01*
X50102691Y-106907549D01*
X50088923Y-106900190D01*
X50066284Y-106890813D01*
X50042251Y-106886033D01*
X50017747Y-106886033D01*
X49993714Y-106890814D01*
X49971077Y-106900190D01*
X49957309Y-106907549D01*
X49950295Y-106909677D01*
X49936860Y-106911000D01*
X49623140Y-106911000D01*
X49609705Y-106909677D01*
X49602691Y-106907549D01*
X49588923Y-106900190D01*
X49566284Y-106890813D01*
X49542251Y-106886033D01*
X49517747Y-106886033D01*
X49493714Y-106890814D01*
X49471077Y-106900190D01*
X49457309Y-106907549D01*
X49450295Y-106909677D01*
X49436860Y-106911000D01*
X49123140Y-106911000D01*
X49109705Y-106909677D01*
X49102691Y-106907549D01*
X49088923Y-106900190D01*
X49066284Y-106890813D01*
X49042251Y-106886033D01*
X49017747Y-106886033D01*
X48993714Y-106890814D01*
X48971077Y-106900190D01*
X48957309Y-106907549D01*
X48950295Y-106909677D01*
X48936860Y-106911000D01*
X48623140Y-106911000D01*
X48609705Y-106909677D01*
X48602691Y-106907549D01*
X48588923Y-106900190D01*
X48566284Y-106890813D01*
X48542251Y-106886033D01*
X48517747Y-106886033D01*
X48493714Y-106890814D01*
X48471077Y-106900190D01*
X48457309Y-106907549D01*
X48450295Y-106909677D01*
X48436860Y-106911000D01*
X48123140Y-106911000D01*
X48109705Y-106909677D01*
X48102691Y-106907549D01*
X48088923Y-106900190D01*
X48066284Y-106890813D01*
X48042251Y-106886033D01*
X48017747Y-106886033D01*
X47993714Y-106890814D01*
X47971077Y-106900190D01*
X47957309Y-106907549D01*
X47950295Y-106909677D01*
X47936860Y-106911000D01*
X47623140Y-106911000D01*
X47609705Y-106909677D01*
X47602691Y-106907549D01*
X47588923Y-106900190D01*
X47566284Y-106890813D01*
X47542251Y-106886033D01*
X47517747Y-106886033D01*
X47493714Y-106890814D01*
X47471077Y-106900190D01*
X47457309Y-106907549D01*
X47450295Y-106909677D01*
X47436860Y-106911000D01*
X47123140Y-106911000D01*
X47109705Y-106909677D01*
X47102691Y-106907549D01*
X47088923Y-106900190D01*
X47066284Y-106890813D01*
X47042251Y-106886033D01*
X47017747Y-106886033D01*
X46993714Y-106890814D01*
X46971077Y-106900190D01*
X46957309Y-106907549D01*
X46950295Y-106909677D01*
X46936860Y-106911000D01*
X46623140Y-106911000D01*
X46609705Y-106909677D01*
X46602691Y-106907549D01*
X46588923Y-106900190D01*
X46566284Y-106890813D01*
X46542251Y-106886033D01*
X46517747Y-106886033D01*
X46493714Y-106890814D01*
X46471077Y-106900190D01*
X46457309Y-106907549D01*
X46450295Y-106909677D01*
X46436860Y-106911000D01*
X46123140Y-106911000D01*
X46109705Y-106909677D01*
X46102691Y-106907549D01*
X46088923Y-106900190D01*
X46066284Y-106890813D01*
X46042251Y-106886033D01*
X46017747Y-106886033D01*
X45993714Y-106890814D01*
X45971077Y-106900190D01*
X45957309Y-106907549D01*
X45950295Y-106909677D01*
X45936860Y-106911000D01*
X45623140Y-106911000D01*
X45609705Y-106909677D01*
X45602690Y-106907549D01*
X45596224Y-106904092D01*
X45590558Y-106899442D01*
X45585908Y-106893776D01*
X45582451Y-106887310D01*
X45580323Y-106880295D01*
X45579000Y-106866860D01*
X45579000Y-105303140D01*
X45580323Y-105289705D01*
X45582451Y-105282690D01*
X45585908Y-105276224D01*
X45590558Y-105270558D01*
X45596224Y-105265908D01*
X45602690Y-105262451D01*
X45609705Y-105260323D01*
X45623140Y-105259000D01*
X45936860Y-105259000D01*
X45950295Y-105260323D01*
G37*
G36*
X86245000Y-106057000D02*
G01*
X84443000Y-106057000D01*
X84443000Y-104255000D01*
X86245000Y-104255000D01*
X86245000Y-106057000D01*
G37*
G36*
X55907938Y-105343716D02*
G01*
X55928557Y-105349971D01*
X55947553Y-105360124D01*
X55964208Y-105373792D01*
X55977876Y-105390447D01*
X55988029Y-105409443D01*
X55994284Y-105430062D01*
X55997000Y-105457640D01*
X55997000Y-105916360D01*
X55994284Y-105943938D01*
X55988029Y-105964557D01*
X55977876Y-105983553D01*
X55964208Y-106000208D01*
X55947553Y-106013876D01*
X55928557Y-106024029D01*
X55907938Y-106030284D01*
X55880360Y-106033000D01*
X55371640Y-106033000D01*
X55344062Y-106030284D01*
X55323443Y-106024029D01*
X55304447Y-106013876D01*
X55287792Y-106000208D01*
X55274124Y-105983553D01*
X55263971Y-105964557D01*
X55257716Y-105943938D01*
X55255000Y-105916360D01*
X55255000Y-105457640D01*
X55257716Y-105430062D01*
X55263971Y-105409443D01*
X55274124Y-105390447D01*
X55287792Y-105373792D01*
X55304447Y-105360124D01*
X55323443Y-105349971D01*
X55344062Y-105343716D01*
X55371640Y-105341000D01*
X55880360Y-105341000D01*
X55907938Y-105343716D01*
G37*
G36*
X59053591Y-104900085D02*
G01*
X59087569Y-104910393D01*
X59118890Y-104927134D01*
X59146339Y-104949661D01*
X59168866Y-104977110D01*
X59185607Y-105008431D01*
X59195915Y-105042409D01*
X59200000Y-105083890D01*
X59200000Y-105685110D01*
X59195915Y-105726591D01*
X59185607Y-105760569D01*
X59168866Y-105791890D01*
X59146339Y-105819339D01*
X59118890Y-105841866D01*
X59087569Y-105858607D01*
X59053591Y-105868915D01*
X59012110Y-105873000D01*
X58335890Y-105873000D01*
X58294409Y-105868915D01*
X58260431Y-105858607D01*
X58229110Y-105841866D01*
X58201661Y-105819339D01*
X58179134Y-105791890D01*
X58162393Y-105760569D01*
X58152085Y-105726591D01*
X58148000Y-105685110D01*
X58148000Y-105083890D01*
X58152085Y-105042409D01*
X58162393Y-105008431D01*
X58179134Y-104977110D01*
X58201661Y-104949661D01*
X58229110Y-104927134D01*
X58260431Y-104910393D01*
X58294409Y-104900085D01*
X58335890Y-104896000D01*
X59012110Y-104896000D01*
X59053591Y-104900085D01*
G37*
G36*
X27469000Y-105293000D02*
G01*
X26567000Y-105293000D01*
X26567000Y-104191000D01*
X27469000Y-104191000D01*
X27469000Y-105293000D01*
G37*
G36*
X29679000Y-105293000D02*
G01*
X28777000Y-105293000D01*
X28777000Y-104191000D01*
X29679000Y-104191000D01*
X29679000Y-105293000D01*
G37*
G36*
X46461938Y-103771716D02*
G01*
X46482557Y-103777971D01*
X46501553Y-103788124D01*
X46518208Y-103801792D01*
X46531876Y-103818447D01*
X46542029Y-103837443D01*
X46548284Y-103858062D01*
X46551000Y-103885640D01*
X46551000Y-104394360D01*
X46548284Y-104421938D01*
X46542029Y-104442557D01*
X46531876Y-104461553D01*
X46518208Y-104478208D01*
X46501553Y-104491876D01*
X46482557Y-104502029D01*
X46461938Y-104508284D01*
X46434360Y-104511000D01*
X45975640Y-104511000D01*
X45948062Y-104508284D01*
X45927443Y-104502029D01*
X45908447Y-104491876D01*
X45891792Y-104478208D01*
X45878124Y-104461553D01*
X45867971Y-104442557D01*
X45861716Y-104421938D01*
X45859000Y-104394360D01*
X45859000Y-103885640D01*
X45861716Y-103858062D01*
X45867971Y-103837443D01*
X45878124Y-103818447D01*
X45891792Y-103801792D01*
X45908447Y-103788124D01*
X45927443Y-103777971D01*
X45948062Y-103771716D01*
X45975640Y-103769000D01*
X46434360Y-103769000D01*
X46461938Y-103771716D01*
G37*
G36*
X45491938Y-103771716D02*
G01*
X45512557Y-103777971D01*
X45531553Y-103788124D01*
X45548208Y-103801792D01*
X45561876Y-103818447D01*
X45572029Y-103837443D01*
X45578284Y-103858062D01*
X45581000Y-103885640D01*
X45581000Y-104394360D01*
X45578284Y-104421938D01*
X45572029Y-104442557D01*
X45561876Y-104461553D01*
X45548208Y-104478208D01*
X45531553Y-104491876D01*
X45512557Y-104502029D01*
X45491938Y-104508284D01*
X45464360Y-104511000D01*
X45005640Y-104511000D01*
X44978062Y-104508284D01*
X44957443Y-104502029D01*
X44938447Y-104491876D01*
X44921792Y-104478208D01*
X44908124Y-104461553D01*
X44897971Y-104442557D01*
X44891716Y-104421938D01*
X44889000Y-104394360D01*
X44889000Y-103885640D01*
X44891716Y-103858062D01*
X44897971Y-103837443D01*
X44908124Y-103818447D01*
X44921792Y-103801792D01*
X44938447Y-103788124D01*
X44957443Y-103777971D01*
X44978062Y-103771716D01*
X45005640Y-103769000D01*
X45464360Y-103769000D01*
X45491938Y-103771716D01*
G37*
G36*
X30679000Y-103743000D02*
G01*
X29077000Y-103743000D01*
X29077000Y-102941000D01*
X30679000Y-102941000D01*
X30679000Y-103743000D01*
G37*
G36*
X28215740Y-102100626D02*
G01*
X28264136Y-102110253D01*
X28288461Y-102120329D01*
X28355311Y-102148019D01*
X28396062Y-102175248D01*
X28437369Y-102202848D01*
X28507152Y-102272631D01*
X28507153Y-102272633D01*
X28561981Y-102354689D01*
X28584104Y-102408098D01*
X28589394Y-102420869D01*
X28599747Y-102445865D01*
X28619000Y-102542655D01*
X28619000Y-102641345D01*
X28599747Y-102738135D01*
X28561981Y-102829311D01*
X28561980Y-102829312D01*
X28507152Y-102911369D01*
X28437369Y-102981152D01*
X28396062Y-103008752D01*
X28355311Y-103035981D01*
X28301902Y-103058104D01*
X28264136Y-103073747D01*
X28215740Y-103083373D01*
X28167345Y-103093000D01*
X28068655Y-103093000D01*
X28020260Y-103083373D01*
X27971864Y-103073747D01*
X27934098Y-103058104D01*
X27880689Y-103035981D01*
X27839938Y-103008752D01*
X27798631Y-102981152D01*
X27728848Y-102911369D01*
X27674020Y-102829312D01*
X27674019Y-102829311D01*
X27636253Y-102738135D01*
X27617000Y-102641345D01*
X27617000Y-102542655D01*
X27636253Y-102445865D01*
X27646607Y-102420869D01*
X27651896Y-102408098D01*
X27674019Y-102354689D01*
X27728847Y-102272633D01*
X27728848Y-102272631D01*
X27798631Y-102202848D01*
X27839938Y-102175248D01*
X27880689Y-102148019D01*
X27947539Y-102120329D01*
X27971864Y-102110253D01*
X28020260Y-102100627D01*
X28068655Y-102091000D01*
X28167345Y-102091000D01*
X28215740Y-102100626D01*
G37*
G36*
X84693715Y-101454458D02*
G01*
X84772796Y-101478447D01*
X84804935Y-101488196D01*
X84811722Y-101490255D01*
X84920468Y-101548381D01*
X85015790Y-101626610D01*
X85094019Y-101721932D01*
X85152145Y-101830678D01*
X85187942Y-101948685D01*
X85200028Y-102071400D01*
X85187942Y-102194115D01*
X85152145Y-102312122D01*
X85094019Y-102420868D01*
X85015790Y-102516190D01*
X84920468Y-102594419D01*
X84811722Y-102652545D01*
X84693715Y-102688342D01*
X84601746Y-102697400D01*
X83890254Y-102697400D01*
X83798285Y-102688342D01*
X83680278Y-102652545D01*
X83571532Y-102594419D01*
X83476210Y-102516190D01*
X83397981Y-102420868D01*
X83339855Y-102312122D01*
X83304058Y-102194115D01*
X83291972Y-102071400D01*
X83304058Y-101948685D01*
X83339855Y-101830678D01*
X83397981Y-101721932D01*
X83476210Y-101626610D01*
X83571532Y-101548381D01*
X83680278Y-101490255D01*
X83687066Y-101488196D01*
X83719204Y-101478447D01*
X83798285Y-101454458D01*
X83890254Y-101445400D01*
X84601746Y-101445400D01*
X84693715Y-101454458D01*
G37*
G36*
X81627552Y-100262731D02*
G01*
X81709627Y-100296728D01*
X81709629Y-100296729D01*
X81746813Y-100321575D01*
X81783495Y-100346085D01*
X81846315Y-100408905D01*
X81895672Y-100482773D01*
X81929669Y-100564848D01*
X81947000Y-100651979D01*
X81947000Y-100740821D01*
X81929669Y-100827952D01*
X81895672Y-100910027D01*
X81895671Y-100910029D01*
X81846314Y-100983896D01*
X81783496Y-101046714D01*
X81709629Y-101096071D01*
X81709628Y-101096072D01*
X81709627Y-101096072D01*
X81627552Y-101130069D01*
X81540421Y-101147400D01*
X81451579Y-101147400D01*
X81362054Y-101129593D01*
X81343257Y-101123890D01*
X81318871Y-101121488D01*
X81294485Y-101123889D01*
X81271036Y-101131002D01*
X81249425Y-101142553D01*
X81230483Y-101158098D01*
X81214937Y-101177039D01*
X81203386Y-101198650D01*
X81196272Y-101222099D01*
X81193870Y-101246485D01*
X81196271Y-101270871D01*
X81203384Y-101294320D01*
X81214935Y-101315931D01*
X81230480Y-101334873D01*
X81239570Y-101343112D01*
X81272367Y-101370028D01*
X81369345Y-101488196D01*
X81441398Y-101622998D01*
X81485772Y-101769279D01*
X81500754Y-101921400D01*
X81485772Y-102073521D01*
X81441398Y-102219802D01*
X81369345Y-102354604D01*
X81369343Y-102354607D01*
X81369342Y-102354608D01*
X81294449Y-102445865D01*
X81272369Y-102472769D01*
X81154204Y-102569745D01*
X81019402Y-102641798D01*
X80873121Y-102686172D01*
X80759118Y-102697400D01*
X80132882Y-102697400D01*
X80018879Y-102686172D01*
X79872598Y-102641798D01*
X79737796Y-102569745D01*
X79619631Y-102472769D01*
X79597551Y-102445865D01*
X79522658Y-102354608D01*
X79522657Y-102354607D01*
X79522655Y-102354604D01*
X79450602Y-102219802D01*
X79406228Y-102073521D01*
X79391246Y-101921400D01*
X79406228Y-101769279D01*
X79450602Y-101622998D01*
X79522655Y-101488196D01*
X79560429Y-101442169D01*
X79619631Y-101370031D01*
X79737792Y-101273058D01*
X79737793Y-101273057D01*
X79737796Y-101273055D01*
X79872598Y-101201002D01*
X80018879Y-101156628D01*
X80132882Y-101145400D01*
X80759118Y-101145400D01*
X80873121Y-101156628D01*
X81025336Y-101202802D01*
X81036561Y-101207452D01*
X81060595Y-101212233D01*
X81085099Y-101212233D01*
X81109132Y-101207454D01*
X81131771Y-101198077D01*
X81152146Y-101184464D01*
X81169473Y-101167137D01*
X81183088Y-101146763D01*
X81192466Y-101124125D01*
X81197247Y-101100091D01*
X81197247Y-101075587D01*
X81192468Y-101051554D01*
X81183091Y-101028915D01*
X81169478Y-101008540D01*
X81161238Y-100999448D01*
X81145685Y-100983895D01*
X81096328Y-100910027D01*
X81062331Y-100827952D01*
X81045000Y-100740821D01*
X81045000Y-100651979D01*
X81062331Y-100564848D01*
X81096328Y-100482773D01*
X81145685Y-100408905D01*
X81208505Y-100346085D01*
X81245187Y-100321575D01*
X81282371Y-100296729D01*
X81282373Y-100296728D01*
X81364448Y-100262731D01*
X81451579Y-100245400D01*
X81540421Y-100245400D01*
X81627552Y-100262731D01*
G37*
G36*
X30679000Y-102243000D02*
G01*
X29077000Y-102243000D01*
X29077000Y-101441000D01*
X30679000Y-101441000D01*
X30679000Y-102243000D01*
G37*
G36*
X32941938Y-101431716D02*
G01*
X32962557Y-101437971D01*
X32981553Y-101448124D01*
X32998208Y-101461792D01*
X33011876Y-101478447D01*
X33022029Y-101497443D01*
X33028284Y-101518062D01*
X33031000Y-101545640D01*
X33031000Y-102054360D01*
X33028284Y-102081938D01*
X33022029Y-102102557D01*
X33011876Y-102121553D01*
X32998208Y-102138208D01*
X32981553Y-102151876D01*
X32962557Y-102162029D01*
X32941938Y-102168284D01*
X32914360Y-102171000D01*
X32455640Y-102171000D01*
X32428062Y-102168284D01*
X32407443Y-102162029D01*
X32388447Y-102151876D01*
X32371792Y-102138208D01*
X32358124Y-102121553D01*
X32347971Y-102102557D01*
X32341716Y-102081938D01*
X32339000Y-102054360D01*
X32339000Y-101545640D01*
X32341716Y-101518062D01*
X32347971Y-101497443D01*
X32358124Y-101478447D01*
X32371792Y-101461792D01*
X32388447Y-101448124D01*
X32407443Y-101437971D01*
X32428062Y-101431716D01*
X32455640Y-101429000D01*
X32914360Y-101429000D01*
X32941938Y-101431716D01*
G37*
G36*
X31971938Y-101431716D02*
G01*
X31992557Y-101437971D01*
X32011553Y-101448124D01*
X32028208Y-101461792D01*
X32041876Y-101478447D01*
X32052029Y-101497443D01*
X32058284Y-101518062D01*
X32061000Y-101545640D01*
X32061000Y-102054360D01*
X32058284Y-102081938D01*
X32052029Y-102102557D01*
X32041876Y-102121553D01*
X32028208Y-102138208D01*
X32011553Y-102151876D01*
X31992557Y-102162029D01*
X31971938Y-102168284D01*
X31944360Y-102171000D01*
X31485640Y-102171000D01*
X31458062Y-102168284D01*
X31437443Y-102162029D01*
X31418447Y-102151876D01*
X31401792Y-102138208D01*
X31388124Y-102121553D01*
X31377971Y-102102557D01*
X31371716Y-102081938D01*
X31369000Y-102054360D01*
X31369000Y-101545640D01*
X31371716Y-101518062D01*
X31377971Y-101497443D01*
X31388124Y-101478447D01*
X31401792Y-101461792D01*
X31418447Y-101448124D01*
X31437443Y-101437971D01*
X31458062Y-101431716D01*
X31485640Y-101429000D01*
X31944360Y-101429000D01*
X31971938Y-101431716D01*
G37*
G36*
X52945591Y-99554085D02*
G01*
X52979569Y-99564393D01*
X53010890Y-99581134D01*
X53038339Y-99603661D01*
X53060866Y-99631110D01*
X53077607Y-99662431D01*
X53087915Y-99696409D01*
X53092000Y-99737890D01*
X53092000Y-100414110D01*
X53087915Y-100455591D01*
X53077607Y-100489569D01*
X53060866Y-100520890D01*
X53038339Y-100548339D01*
X53010890Y-100570866D01*
X52979569Y-100587607D01*
X52945591Y-100597915D01*
X52904110Y-100602000D01*
X52302890Y-100602000D01*
X52261409Y-100597915D01*
X52227431Y-100587607D01*
X52196110Y-100570866D01*
X52168661Y-100548339D01*
X52146134Y-100520890D01*
X52129393Y-100489569D01*
X52119085Y-100455591D01*
X52115000Y-100414110D01*
X52115000Y-99737890D01*
X52119085Y-99696409D01*
X52129393Y-99662431D01*
X52146134Y-99631110D01*
X52168661Y-99603661D01*
X52196110Y-99581134D01*
X52227431Y-99564393D01*
X52261409Y-99554085D01*
X52302890Y-99550000D01*
X52904110Y-99550000D01*
X52945591Y-99554085D01*
G37*
G36*
X49389591Y-99554085D02*
G01*
X49423569Y-99564393D01*
X49454890Y-99581134D01*
X49482339Y-99603661D01*
X49504866Y-99631110D01*
X49521607Y-99662431D01*
X49531915Y-99696409D01*
X49536000Y-99737890D01*
X49536000Y-100414110D01*
X49531915Y-100455591D01*
X49521607Y-100489569D01*
X49504866Y-100520890D01*
X49482339Y-100548339D01*
X49454890Y-100570866D01*
X49423569Y-100587607D01*
X49389591Y-100597915D01*
X49348110Y-100602000D01*
X48746890Y-100602000D01*
X48705409Y-100597915D01*
X48671431Y-100587607D01*
X48640110Y-100570866D01*
X48612661Y-100548339D01*
X48590134Y-100520890D01*
X48573393Y-100489569D01*
X48563085Y-100455591D01*
X48559000Y-100414110D01*
X48559000Y-99737890D01*
X48563085Y-99696409D01*
X48573393Y-99662431D01*
X48590134Y-99631110D01*
X48612661Y-99603661D01*
X48640110Y-99581134D01*
X48671431Y-99564393D01*
X48705409Y-99554085D01*
X48746890Y-99550000D01*
X49348110Y-99550000D01*
X49389591Y-99554085D01*
G37*
G36*
X47814591Y-99554085D02*
G01*
X47848569Y-99564393D01*
X47879890Y-99581134D01*
X47907339Y-99603661D01*
X47929866Y-99631110D01*
X47946607Y-99662431D01*
X47956915Y-99696409D01*
X47961000Y-99737890D01*
X47961000Y-100414110D01*
X47956915Y-100455591D01*
X47946607Y-100489569D01*
X47929866Y-100520890D01*
X47907339Y-100548339D01*
X47879890Y-100570866D01*
X47848569Y-100587607D01*
X47814591Y-100597915D01*
X47773110Y-100602000D01*
X47171890Y-100602000D01*
X47130409Y-100597915D01*
X47096431Y-100587607D01*
X47065110Y-100570866D01*
X47037661Y-100548339D01*
X47015134Y-100520890D01*
X46998393Y-100489569D01*
X46988085Y-100455591D01*
X46984000Y-100414110D01*
X46984000Y-99737890D01*
X46988085Y-99696409D01*
X46998393Y-99662431D01*
X47015134Y-99631110D01*
X47037661Y-99603661D01*
X47065110Y-99581134D01*
X47096431Y-99564393D01*
X47130409Y-99554085D01*
X47171890Y-99550000D01*
X47773110Y-99550000D01*
X47814591Y-99554085D01*
G37*
G36*
X51370591Y-99554085D02*
G01*
X51404569Y-99564393D01*
X51435890Y-99581134D01*
X51463339Y-99603661D01*
X51485866Y-99631110D01*
X51502607Y-99662431D01*
X51512915Y-99696409D01*
X51517000Y-99737890D01*
X51517000Y-100414110D01*
X51512915Y-100455591D01*
X51502607Y-100489569D01*
X51485866Y-100520890D01*
X51463339Y-100548339D01*
X51435890Y-100570866D01*
X51404569Y-100587607D01*
X51370591Y-100597915D01*
X51329110Y-100602000D01*
X50727890Y-100602000D01*
X50686409Y-100597915D01*
X50652431Y-100587607D01*
X50621110Y-100570866D01*
X50593661Y-100548339D01*
X50571134Y-100520890D01*
X50554393Y-100489569D01*
X50544085Y-100455591D01*
X50540000Y-100414110D01*
X50540000Y-99737890D01*
X50544085Y-99696409D01*
X50554393Y-99662431D01*
X50571134Y-99631110D01*
X50593661Y-99603661D01*
X50621110Y-99581134D01*
X50652431Y-99564393D01*
X50686409Y-99554085D01*
X50727890Y-99550000D01*
X51329110Y-99550000D01*
X51370591Y-99554085D01*
G37*
G36*
X28215740Y-99100627D02*
G01*
X28264136Y-99110253D01*
X28293461Y-99122400D01*
X28355311Y-99148019D01*
X28355312Y-99148020D01*
X28437369Y-99202848D01*
X28507152Y-99272631D01*
X28507153Y-99272633D01*
X28561981Y-99354689D01*
X28584104Y-99408098D01*
X28599747Y-99445864D01*
X28619000Y-99542656D01*
X28619000Y-99641344D01*
X28607178Y-99700780D01*
X28599747Y-99738135D01*
X28561981Y-99829311D01*
X28561980Y-99829312D01*
X28507152Y-99911369D01*
X28437369Y-99981152D01*
X28396062Y-100008752D01*
X28355311Y-100035981D01*
X28301902Y-100058104D01*
X28264136Y-100073747D01*
X28215740Y-100083374D01*
X28167345Y-100093000D01*
X28068655Y-100093000D01*
X28020260Y-100083374D01*
X27971864Y-100073747D01*
X27934098Y-100058104D01*
X27880689Y-100035981D01*
X27839938Y-100008752D01*
X27798631Y-99981152D01*
X27728848Y-99911369D01*
X27674020Y-99829312D01*
X27674019Y-99829311D01*
X27636253Y-99738135D01*
X27628823Y-99700780D01*
X27617000Y-99641344D01*
X27617000Y-99542656D01*
X27636253Y-99445864D01*
X27651896Y-99408098D01*
X27674019Y-99354689D01*
X27728847Y-99272633D01*
X27728848Y-99272631D01*
X27798631Y-99202848D01*
X27880688Y-99148020D01*
X27880689Y-99148019D01*
X27942539Y-99122400D01*
X27971864Y-99110253D01*
X28020260Y-99100627D01*
X28068655Y-99091000D01*
X28167345Y-99091000D01*
X28215740Y-99100627D01*
G37*
G36*
X74325000Y-99878000D02*
G01*
X73163000Y-99878000D01*
X73163000Y-97226000D01*
X74325000Y-97226000D01*
X74325000Y-99878000D01*
G37*
G36*
X72125000Y-99878000D02*
G01*
X70963000Y-99878000D01*
X70963000Y-97226000D01*
X72125000Y-97226000D01*
X72125000Y-99878000D01*
G37*
G36*
X81097000Y-99772400D02*
G01*
X79695000Y-99772400D01*
X79695000Y-96620400D01*
X81097000Y-96620400D01*
X81097000Y-99772400D01*
G37*
G36*
X30679000Y-99243000D02*
G01*
X29077000Y-99243000D01*
X29077000Y-98441000D01*
X30679000Y-98441000D01*
X30679000Y-99243000D01*
G37*
G36*
X27469000Y-97993000D02*
G01*
X26567000Y-97993000D01*
X26567000Y-96891000D01*
X27469000Y-96891000D01*
X27469000Y-97993000D01*
G37*
G36*
X29679000Y-97993000D02*
G01*
X28777000Y-97993000D01*
X28777000Y-96891000D01*
X29679000Y-96891000D01*
X29679000Y-97993000D01*
G37*
G36*
X80873121Y-93706628D02*
G01*
X81019402Y-93751002D01*
X81154204Y-93823055D01*
X81154207Y-93823057D01*
X81154208Y-93823058D01*
X81272369Y-93920031D01*
X81314963Y-93971931D01*
X81369345Y-94038196D01*
X81441398Y-94172998D01*
X81485772Y-94319279D01*
X81500754Y-94471400D01*
X81485772Y-94623521D01*
X81441398Y-94769802D01*
X81369345Y-94904604D01*
X81272367Y-95022772D01*
X81239570Y-95049688D01*
X81222243Y-95067015D01*
X81208630Y-95087389D01*
X81199252Y-95110028D01*
X81194472Y-95134061D01*
X81194472Y-95158565D01*
X81199252Y-95182599D01*
X81208630Y-95205237D01*
X81222244Y-95225612D01*
X81239571Y-95242939D01*
X81259945Y-95256552D01*
X81282584Y-95265930D01*
X81306617Y-95270710D01*
X81331121Y-95270710D01*
X81355155Y-95265930D01*
X81363649Y-95262890D01*
X81451579Y-95245400D01*
X81540421Y-95245400D01*
X81627552Y-95262731D01*
X81709627Y-95296728D01*
X81709629Y-95296729D01*
X81721953Y-95304964D01*
X81783495Y-95346085D01*
X81846315Y-95408905D01*
X81895672Y-95482773D01*
X81929669Y-95564848D01*
X81947000Y-95651979D01*
X81947000Y-95740821D01*
X81929669Y-95827952D01*
X81895672Y-95910027D01*
X81895671Y-95910029D01*
X81846314Y-95983896D01*
X81783496Y-96046714D01*
X81709629Y-96096071D01*
X81709628Y-96096072D01*
X81709627Y-96096072D01*
X81627552Y-96130069D01*
X81540421Y-96147400D01*
X81451579Y-96147400D01*
X81364448Y-96130069D01*
X81282373Y-96096072D01*
X81282372Y-96096072D01*
X81282371Y-96096071D01*
X81208504Y-96046714D01*
X81145686Y-95983896D01*
X81096329Y-95910029D01*
X81096328Y-95910027D01*
X81062331Y-95827952D01*
X81045000Y-95740821D01*
X81045000Y-95651979D01*
X81062331Y-95564848D01*
X81096328Y-95482773D01*
X81145685Y-95408905D01*
X81161238Y-95393352D01*
X81176783Y-95374410D01*
X81188334Y-95352799D01*
X81195447Y-95329350D01*
X81197849Y-95304964D01*
X81195447Y-95280578D01*
X81188334Y-95257129D01*
X81176783Y-95235518D01*
X81161238Y-95216576D01*
X81142296Y-95201031D01*
X81120685Y-95189480D01*
X81097236Y-95182367D01*
X81072850Y-95179965D01*
X81048464Y-95182367D01*
X81025015Y-95189480D01*
X81021386Y-95191196D01*
X81019400Y-95191798D01*
X81019399Y-95191799D01*
X80981218Y-95203381D01*
X80873121Y-95236172D01*
X80759118Y-95247400D01*
X80132882Y-95247400D01*
X80018879Y-95236172D01*
X79872598Y-95191798D01*
X79737796Y-95119745D01*
X79673545Y-95067015D01*
X79619631Y-95022769D01*
X79522658Y-94904608D01*
X79522657Y-94904607D01*
X79522655Y-94904604D01*
X79450602Y-94769802D01*
X79406228Y-94623521D01*
X79391246Y-94471400D01*
X79406228Y-94319279D01*
X79450602Y-94172998D01*
X79522655Y-94038196D01*
X79577038Y-93971931D01*
X79619631Y-93920031D01*
X79737792Y-93823058D01*
X79737793Y-93823057D01*
X79737796Y-93823055D01*
X79872598Y-93751002D01*
X80018879Y-93706628D01*
X80132882Y-93695400D01*
X80759118Y-93695400D01*
X80873121Y-93706628D01*
G37*
G36*
X41935938Y-95135716D02*
G01*
X41956557Y-95141971D01*
X41975553Y-95152124D01*
X41992208Y-95165792D01*
X42005876Y-95182447D01*
X42016029Y-95201443D01*
X42022284Y-95222062D01*
X42025000Y-95249640D01*
X42025000Y-95758360D01*
X42022284Y-95785938D01*
X42016029Y-95806557D01*
X42005876Y-95825553D01*
X41992208Y-95842208D01*
X41975553Y-95855876D01*
X41956557Y-95866029D01*
X41935938Y-95872284D01*
X41908360Y-95875000D01*
X41449640Y-95875000D01*
X41422062Y-95872284D01*
X41401443Y-95866029D01*
X41382447Y-95855876D01*
X41365792Y-95842208D01*
X41352124Y-95825553D01*
X41341971Y-95806557D01*
X41335716Y-95785938D01*
X41333000Y-95758360D01*
X41333000Y-95249640D01*
X41335716Y-95222062D01*
X41341971Y-95201443D01*
X41352124Y-95182447D01*
X41365792Y-95165792D01*
X41382447Y-95152124D01*
X41401443Y-95141971D01*
X41422062Y-95135716D01*
X41449640Y-95133000D01*
X41908360Y-95133000D01*
X41935938Y-95135716D01*
G37*
G36*
X42905938Y-95135716D02*
G01*
X42926557Y-95141971D01*
X42945553Y-95152124D01*
X42962208Y-95165792D01*
X42975876Y-95182447D01*
X42986029Y-95201443D01*
X42992284Y-95222062D01*
X42995000Y-95249640D01*
X42995000Y-95758360D01*
X42992284Y-95785938D01*
X42986029Y-95806557D01*
X42975876Y-95825553D01*
X42962208Y-95842208D01*
X42945553Y-95855876D01*
X42926557Y-95866029D01*
X42905938Y-95872284D01*
X42878360Y-95875000D01*
X42419640Y-95875000D01*
X42392062Y-95872284D01*
X42371443Y-95866029D01*
X42352447Y-95855876D01*
X42335792Y-95842208D01*
X42322124Y-95825553D01*
X42311971Y-95806557D01*
X42305716Y-95785938D01*
X42303000Y-95758360D01*
X42303000Y-95249640D01*
X42305716Y-95222062D01*
X42311971Y-95201443D01*
X42322124Y-95182447D01*
X42335792Y-95165792D01*
X42352447Y-95152124D01*
X42371443Y-95141971D01*
X42392062Y-95135716D01*
X42419640Y-95133000D01*
X42878360Y-95133000D01*
X42905938Y-95135716D01*
G37*
G36*
X84693715Y-93704458D02*
G01*
X84811722Y-93740255D01*
X84920468Y-93798381D01*
X85015790Y-93876610D01*
X85094019Y-93971932D01*
X85152145Y-94080678D01*
X85187942Y-94198685D01*
X85200028Y-94321400D01*
X85187942Y-94444115D01*
X85152145Y-94562122D01*
X85094019Y-94670868D01*
X85015790Y-94766190D01*
X84920468Y-94844419D01*
X84811722Y-94902545D01*
X84811719Y-94902546D01*
X84804921Y-94904608D01*
X84693715Y-94938342D01*
X84601746Y-94947400D01*
X83890254Y-94947400D01*
X83798285Y-94938342D01*
X83687079Y-94904608D01*
X83680281Y-94902546D01*
X83680278Y-94902545D01*
X83571532Y-94844419D01*
X83476210Y-94766190D01*
X83397981Y-94670868D01*
X83339855Y-94562122D01*
X83304058Y-94444115D01*
X83291972Y-94321400D01*
X83304058Y-94198685D01*
X83339855Y-94080678D01*
X83397981Y-93971932D01*
X83476210Y-93876610D01*
X83571532Y-93798381D01*
X83680278Y-93740255D01*
X83798285Y-93704458D01*
X83890254Y-93695400D01*
X84601746Y-93695400D01*
X84693715Y-93704458D01*
G37*
G36*
X42042928Y-92637764D02*
G01*
X42064009Y-92644160D01*
X42083445Y-92654548D01*
X42100476Y-92668524D01*
X42114452Y-92685555D01*
X42124840Y-92704991D01*
X42131236Y-92726072D01*
X42134000Y-92754140D01*
X42134000Y-94567860D01*
X42131236Y-94595928D01*
X42124840Y-94617009D01*
X42114452Y-94636445D01*
X42100476Y-94653476D01*
X42083445Y-94667452D01*
X42064009Y-94677840D01*
X42042928Y-94684236D01*
X42014860Y-94687000D01*
X41551140Y-94687000D01*
X41523072Y-94684236D01*
X41501991Y-94677840D01*
X41482555Y-94667452D01*
X41465524Y-94653476D01*
X41451548Y-94636445D01*
X41441160Y-94617009D01*
X41434764Y-94595928D01*
X41432000Y-94567860D01*
X41432000Y-92754140D01*
X41434764Y-92726072D01*
X41441160Y-92704991D01*
X41451548Y-92685555D01*
X41465524Y-92668524D01*
X41482555Y-92654548D01*
X41501991Y-92644160D01*
X41523072Y-92637764D01*
X41551140Y-92635000D01*
X42014860Y-92635000D01*
X42042928Y-92637764D01*
G37*
G36*
X40772928Y-92637764D02*
G01*
X40794009Y-92644160D01*
X40813445Y-92654548D01*
X40830476Y-92668524D01*
X40844452Y-92685555D01*
X40854840Y-92704991D01*
X40861236Y-92726072D01*
X40864000Y-92754140D01*
X40864000Y-94567860D01*
X40861236Y-94595928D01*
X40854840Y-94617009D01*
X40844452Y-94636445D01*
X40830476Y-94653476D01*
X40813445Y-94667452D01*
X40794009Y-94677840D01*
X40772928Y-94684236D01*
X40744860Y-94687000D01*
X40281140Y-94687000D01*
X40253072Y-94684236D01*
X40231991Y-94677840D01*
X40212555Y-94667452D01*
X40195524Y-94653476D01*
X40181548Y-94636445D01*
X40171160Y-94617009D01*
X40164764Y-94595928D01*
X40162000Y-94567860D01*
X40162000Y-92754140D01*
X40164764Y-92726072D01*
X40171160Y-92704991D01*
X40181548Y-92685555D01*
X40195524Y-92668524D01*
X40212555Y-92654548D01*
X40231991Y-92644160D01*
X40253072Y-92637764D01*
X40281140Y-92635000D01*
X40744860Y-92635000D01*
X40772928Y-92637764D01*
G37*
G36*
X44582928Y-92637764D02*
G01*
X44604009Y-92644160D01*
X44623445Y-92654548D01*
X44640476Y-92668524D01*
X44654452Y-92685555D01*
X44664840Y-92704991D01*
X44671236Y-92726072D01*
X44674000Y-92754140D01*
X44674000Y-94567860D01*
X44671236Y-94595928D01*
X44664840Y-94617009D01*
X44654452Y-94636445D01*
X44640476Y-94653476D01*
X44623445Y-94667452D01*
X44604009Y-94677840D01*
X44582928Y-94684236D01*
X44554860Y-94687000D01*
X44091140Y-94687000D01*
X44063072Y-94684236D01*
X44041991Y-94677840D01*
X44022555Y-94667452D01*
X44005524Y-94653476D01*
X43991548Y-94636445D01*
X43981160Y-94617009D01*
X43974764Y-94595928D01*
X43972000Y-94567860D01*
X43972000Y-92754140D01*
X43974764Y-92726072D01*
X43981160Y-92704991D01*
X43991548Y-92685555D01*
X44005524Y-92668524D01*
X44022555Y-92654548D01*
X44041991Y-92644160D01*
X44063072Y-92637764D01*
X44091140Y-92635000D01*
X44554860Y-92635000D01*
X44582928Y-92637764D01*
G37*
G36*
X43312928Y-92637764D02*
G01*
X43334009Y-92644160D01*
X43353445Y-92654548D01*
X43370476Y-92668524D01*
X43384452Y-92685555D01*
X43394840Y-92704991D01*
X43401236Y-92726072D01*
X43404000Y-92754140D01*
X43404000Y-94567860D01*
X43401236Y-94595928D01*
X43394840Y-94617009D01*
X43384452Y-94636445D01*
X43370476Y-94653476D01*
X43353445Y-94667452D01*
X43334009Y-94677840D01*
X43312928Y-94684236D01*
X43284860Y-94687000D01*
X42821140Y-94687000D01*
X42793072Y-94684236D01*
X42771991Y-94677840D01*
X42752555Y-94667452D01*
X42735524Y-94653476D01*
X42721548Y-94636445D01*
X42711160Y-94617009D01*
X42704764Y-94595928D01*
X42702000Y-94567860D01*
X42702000Y-92754140D01*
X42704764Y-92726072D01*
X42711160Y-92704991D01*
X42721548Y-92685555D01*
X42735524Y-92668524D01*
X42752555Y-92654548D01*
X42771991Y-92644160D01*
X42793072Y-92637764D01*
X42821140Y-92635000D01*
X43284860Y-92635000D01*
X43312928Y-92637764D01*
G37*
G36*
X82844156Y-83556794D02*
G01*
X83565140Y-83700206D01*
X84356972Y-84028193D01*
X85069601Y-84504357D01*
X85675643Y-85110399D01*
X86151807Y-85823028D01*
X86479794Y-86614860D01*
X86647000Y-87455464D01*
X86647000Y-88312536D01*
X86479794Y-89153140D01*
X86151807Y-89944972D01*
X85675643Y-90657601D01*
X85069601Y-91263643D01*
X84356972Y-91739807D01*
X83565140Y-92067794D01*
X82844156Y-92211206D01*
X82724537Y-92235000D01*
X81867463Y-92235000D01*
X81747844Y-92211206D01*
X81026860Y-92067794D01*
X80235028Y-91739807D01*
X79522399Y-91263643D01*
X78916357Y-90657601D01*
X78440193Y-89944972D01*
X78112206Y-89153140D01*
X77945000Y-88312536D01*
X77945000Y-87455464D01*
X78112206Y-86614860D01*
X78440193Y-85823028D01*
X78916357Y-85110399D01*
X79522399Y-84504357D01*
X80235028Y-84028193D01*
X81026860Y-83700206D01*
X81747844Y-83556794D01*
X81867463Y-83533000D01*
X82724537Y-83533000D01*
X82844156Y-83556794D01*
G37*
G36*
X32221156Y-83556794D02*
G01*
X32942140Y-83700206D01*
X33733972Y-84028193D01*
X34446601Y-84504357D01*
X35052643Y-85110399D01*
X35528807Y-85823028D01*
X35856794Y-86614860D01*
X36024000Y-87455464D01*
X36024000Y-88312536D01*
X35856794Y-89153140D01*
X35528807Y-89944972D01*
X35052643Y-90657601D01*
X34446601Y-91263643D01*
X33733972Y-91739807D01*
X32942140Y-92067794D01*
X32221156Y-92211206D01*
X32101537Y-92235000D01*
X31244463Y-92235000D01*
X31124844Y-92211206D01*
X30403860Y-92067794D01*
X29612028Y-91739807D01*
X28899399Y-91263643D01*
X28293357Y-90657601D01*
X27817193Y-89944972D01*
X27489206Y-89153140D01*
X27322000Y-88312536D01*
X27322000Y-87455464D01*
X27489206Y-86614860D01*
X27817193Y-85823028D01*
X28293357Y-85110399D01*
X28899399Y-84504357D01*
X29612028Y-84028193D01*
X30403860Y-83700206D01*
X31124844Y-83556794D01*
X31244463Y-83533000D01*
X32101537Y-83533000D01*
X32221156Y-83556794D01*
G37*
G36*
X68861938Y-90565716D02*
G01*
X68882557Y-90571971D01*
X68901553Y-90582124D01*
X68918208Y-90595792D01*
X68931876Y-90612447D01*
X68942029Y-90631443D01*
X68948284Y-90652062D01*
X68951000Y-90679640D01*
X68951000Y-91138360D01*
X68948284Y-91165938D01*
X68942029Y-91186557D01*
X68931876Y-91205553D01*
X68918208Y-91222208D01*
X68901553Y-91235876D01*
X68882557Y-91246029D01*
X68861938Y-91252284D01*
X68834360Y-91255000D01*
X68325640Y-91255000D01*
X68298062Y-91252284D01*
X68277443Y-91246029D01*
X68258447Y-91235876D01*
X68241792Y-91222208D01*
X68228124Y-91205553D01*
X68217971Y-91186557D01*
X68211716Y-91165938D01*
X68209000Y-91138360D01*
X68209000Y-90679640D01*
X68211716Y-90652062D01*
X68217971Y-90631443D01*
X68228124Y-90612447D01*
X68241792Y-90595792D01*
X68258447Y-90582124D01*
X68277443Y-90571971D01*
X68298062Y-90565716D01*
X68325640Y-90563000D01*
X68834360Y-90563000D01*
X68861938Y-90565716D01*
G37*
G36*
X71401938Y-90565716D02*
G01*
X71422557Y-90571971D01*
X71441553Y-90582124D01*
X71458208Y-90595792D01*
X71471876Y-90612447D01*
X71482029Y-90631443D01*
X71488284Y-90652062D01*
X71491000Y-90679640D01*
X71491000Y-91138360D01*
X71488284Y-91165938D01*
X71482029Y-91186557D01*
X71471876Y-91205553D01*
X71458208Y-91222208D01*
X71441553Y-91235876D01*
X71422557Y-91246029D01*
X71401938Y-91252284D01*
X71374360Y-91255000D01*
X70865640Y-91255000D01*
X70838062Y-91252284D01*
X70817443Y-91246029D01*
X70798447Y-91235876D01*
X70781792Y-91222208D01*
X70768124Y-91205553D01*
X70757971Y-91186557D01*
X70751716Y-91165938D01*
X70749000Y-91138360D01*
X70749000Y-90679640D01*
X70751716Y-90652062D01*
X70757971Y-90631443D01*
X70768124Y-90612447D01*
X70781792Y-90595792D01*
X70798447Y-90582124D01*
X70817443Y-90571971D01*
X70838062Y-90565716D01*
X70865640Y-90563000D01*
X71374360Y-90563000D01*
X71401938Y-90565716D01*
G37*
G36*
X73941938Y-90415716D02*
G01*
X73962557Y-90421971D01*
X73981553Y-90432124D01*
X73998208Y-90445792D01*
X74011876Y-90462447D01*
X74022029Y-90481443D01*
X74028284Y-90502062D01*
X74031000Y-90529640D01*
X74031000Y-90988360D01*
X74028284Y-91015938D01*
X74022029Y-91036557D01*
X74011876Y-91055553D01*
X73998208Y-91072208D01*
X73981553Y-91085876D01*
X73962557Y-91096029D01*
X73941938Y-91102284D01*
X73914360Y-91105000D01*
X73405640Y-91105000D01*
X73378062Y-91102284D01*
X73357443Y-91096029D01*
X73338447Y-91085876D01*
X73321792Y-91072208D01*
X73308124Y-91055553D01*
X73297971Y-91036557D01*
X73291716Y-91015938D01*
X73289000Y-90988360D01*
X73289000Y-90529640D01*
X73291716Y-90502062D01*
X73297971Y-90481443D01*
X73308124Y-90462447D01*
X73321792Y-90445792D01*
X73338447Y-90432124D01*
X73357443Y-90421971D01*
X73378062Y-90415716D01*
X73405640Y-90413000D01*
X73914360Y-90413000D01*
X73941938Y-90415716D01*
G37*
G36*
X68861938Y-89595716D02*
G01*
X68882557Y-89601971D01*
X68901553Y-89612124D01*
X68918208Y-89625792D01*
X68931876Y-89642447D01*
X68942029Y-89661443D01*
X68948284Y-89682062D01*
X68951000Y-89709640D01*
X68951000Y-90168360D01*
X68948284Y-90195938D01*
X68942029Y-90216557D01*
X68931876Y-90235553D01*
X68918208Y-90252208D01*
X68901553Y-90265876D01*
X68882557Y-90276029D01*
X68861938Y-90282284D01*
X68834360Y-90285000D01*
X68325640Y-90285000D01*
X68298062Y-90282284D01*
X68277443Y-90276029D01*
X68258447Y-90265876D01*
X68241792Y-90252208D01*
X68228124Y-90235553D01*
X68217971Y-90216557D01*
X68211716Y-90195938D01*
X68209000Y-90168360D01*
X68209000Y-89709640D01*
X68211716Y-89682062D01*
X68217971Y-89661443D01*
X68228124Y-89642447D01*
X68241792Y-89625792D01*
X68258447Y-89612124D01*
X68277443Y-89601971D01*
X68298062Y-89595716D01*
X68325640Y-89593000D01*
X68834360Y-89593000D01*
X68861938Y-89595716D01*
G37*
G36*
X71401938Y-89595716D02*
G01*
X71422557Y-89601971D01*
X71441553Y-89612124D01*
X71458208Y-89625792D01*
X71471876Y-89642447D01*
X71482029Y-89661443D01*
X71488284Y-89682062D01*
X71491000Y-89709640D01*
X71491000Y-90168360D01*
X71488284Y-90195938D01*
X71482029Y-90216557D01*
X71471876Y-90235553D01*
X71458208Y-90252208D01*
X71441553Y-90265876D01*
X71422557Y-90276029D01*
X71401938Y-90282284D01*
X71374360Y-90285000D01*
X70865640Y-90285000D01*
X70838062Y-90282284D01*
X70817443Y-90276029D01*
X70798447Y-90265876D01*
X70781792Y-90252208D01*
X70768124Y-90235553D01*
X70757971Y-90216557D01*
X70751716Y-90195938D01*
X70749000Y-90168360D01*
X70749000Y-89709640D01*
X70751716Y-89682062D01*
X70757971Y-89661443D01*
X70768124Y-89642447D01*
X70781792Y-89625792D01*
X70798447Y-89612124D01*
X70817443Y-89601971D01*
X70838062Y-89595716D01*
X70865640Y-89593000D01*
X71374360Y-89593000D01*
X71401938Y-89595716D01*
G37*
G36*
X73941938Y-89445716D02*
G01*
X73962557Y-89451971D01*
X73981553Y-89462124D01*
X73998208Y-89475792D01*
X74011876Y-89492447D01*
X74022029Y-89511443D01*
X74028284Y-89532062D01*
X74031000Y-89559640D01*
X74031000Y-90018360D01*
X74028284Y-90045938D01*
X74022029Y-90066557D01*
X74011876Y-90085553D01*
X73998208Y-90102208D01*
X73981553Y-90115876D01*
X73962557Y-90126029D01*
X73941938Y-90132284D01*
X73914360Y-90135000D01*
X73405640Y-90135000D01*
X73378062Y-90132284D01*
X73357443Y-90126029D01*
X73338447Y-90115876D01*
X73321792Y-90102208D01*
X73308124Y-90085553D01*
X73297971Y-90066557D01*
X73291716Y-90045938D01*
X73289000Y-90018360D01*
X73289000Y-89559640D01*
X73291716Y-89532062D01*
X73297971Y-89511443D01*
X73308124Y-89492447D01*
X73321792Y-89475792D01*
X73338447Y-89462124D01*
X73357443Y-89451971D01*
X73378062Y-89445716D01*
X73405640Y-89443000D01*
X73914360Y-89443000D01*
X73941938Y-89445716D01*
G37*
G36*
X42042928Y-87687764D02*
G01*
X42064009Y-87694160D01*
X42083445Y-87704548D01*
X42100476Y-87718524D01*
X42114452Y-87735555D01*
X42124840Y-87754991D01*
X42131236Y-87776072D01*
X42134000Y-87804140D01*
X42134000Y-89617860D01*
X42131236Y-89645928D01*
X42124840Y-89667009D01*
X42114452Y-89686445D01*
X42100476Y-89703476D01*
X42083445Y-89717452D01*
X42064009Y-89727840D01*
X42042928Y-89734236D01*
X42014860Y-89737000D01*
X41551140Y-89737000D01*
X41523072Y-89734236D01*
X41501991Y-89727840D01*
X41482555Y-89717452D01*
X41465524Y-89703476D01*
X41451548Y-89686445D01*
X41441160Y-89667009D01*
X41434764Y-89645928D01*
X41432000Y-89617860D01*
X41432000Y-87804140D01*
X41434764Y-87776072D01*
X41441160Y-87754991D01*
X41451548Y-87735555D01*
X41465524Y-87718524D01*
X41482555Y-87704548D01*
X41501991Y-87694160D01*
X41523072Y-87687764D01*
X41551140Y-87685000D01*
X42014860Y-87685000D01*
X42042928Y-87687764D01*
G37*
G36*
X43312928Y-87687764D02*
G01*
X43334009Y-87694160D01*
X43353445Y-87704548D01*
X43370476Y-87718524D01*
X43384452Y-87735555D01*
X43394840Y-87754991D01*
X43401236Y-87776072D01*
X43404000Y-87804140D01*
X43404000Y-89617860D01*
X43401236Y-89645928D01*
X43394840Y-89667009D01*
X43384452Y-89686445D01*
X43370476Y-89703476D01*
X43353445Y-89717452D01*
X43334009Y-89727840D01*
X43312928Y-89734236D01*
X43284860Y-89737000D01*
X42821140Y-89737000D01*
X42793072Y-89734236D01*
X42771991Y-89727840D01*
X42752555Y-89717452D01*
X42735524Y-89703476D01*
X42721548Y-89686445D01*
X42711160Y-89667009D01*
X42704764Y-89645928D01*
X42702000Y-89617860D01*
X42702000Y-87804140D01*
X42704764Y-87776072D01*
X42711160Y-87754991D01*
X42721548Y-87735555D01*
X42735524Y-87718524D01*
X42752555Y-87704548D01*
X42771991Y-87694160D01*
X42793072Y-87687764D01*
X42821140Y-87685000D01*
X43284860Y-87685000D01*
X43312928Y-87687764D01*
G37*
G36*
X44582928Y-87687764D02*
G01*
X44604009Y-87694160D01*
X44623445Y-87704548D01*
X44640476Y-87718524D01*
X44654452Y-87735555D01*
X44664840Y-87754991D01*
X44671236Y-87776072D01*
X44674000Y-87804140D01*
X44674000Y-89617860D01*
X44671236Y-89645928D01*
X44664840Y-89667009D01*
X44654452Y-89686445D01*
X44640476Y-89703476D01*
X44623445Y-89717452D01*
X44604009Y-89727840D01*
X44582928Y-89734236D01*
X44554860Y-89737000D01*
X44091140Y-89737000D01*
X44063072Y-89734236D01*
X44041991Y-89727840D01*
X44022555Y-89717452D01*
X44005524Y-89703476D01*
X43991548Y-89686445D01*
X43981160Y-89667009D01*
X43974764Y-89645928D01*
X43972000Y-89617860D01*
X43972000Y-87804140D01*
X43974764Y-87776072D01*
X43981160Y-87754991D01*
X43991548Y-87735555D01*
X44005524Y-87718524D01*
X44022555Y-87704548D01*
X44041991Y-87694160D01*
X44063072Y-87687764D01*
X44091140Y-87685000D01*
X44554860Y-87685000D01*
X44582928Y-87687764D01*
G37*
G36*
X40772928Y-87687764D02*
G01*
X40794009Y-87694160D01*
X40813445Y-87704548D01*
X40830476Y-87718524D01*
X40844452Y-87735555D01*
X40854840Y-87754991D01*
X40861236Y-87776072D01*
X40864000Y-87804140D01*
X40864000Y-89617860D01*
X40861236Y-89645928D01*
X40854840Y-89667009D01*
X40844452Y-89686445D01*
X40830476Y-89703476D01*
X40813445Y-89717452D01*
X40794009Y-89727840D01*
X40772928Y-89734236D01*
X40744860Y-89737000D01*
X40281140Y-89737000D01*
X40253072Y-89734236D01*
X40231991Y-89727840D01*
X40212555Y-89717452D01*
X40195524Y-89703476D01*
X40181548Y-89686445D01*
X40171160Y-89667009D01*
X40164764Y-89645928D01*
X40162000Y-89617860D01*
X40162000Y-87804140D01*
X40164764Y-87776072D01*
X40171160Y-87754991D01*
X40181548Y-87735555D01*
X40195524Y-87718524D01*
X40212555Y-87704548D01*
X40231991Y-87694160D01*
X40253072Y-87687764D01*
X40281140Y-87685000D01*
X40744860Y-87685000D01*
X40772928Y-87687764D01*
G37*
G36*
X66153512Y-86479927D02*
G01*
X66302812Y-86509624D01*
X66466784Y-86577544D01*
X66614354Y-86676147D01*
X66739853Y-86801646D01*
X66838456Y-86949216D01*
X66906376Y-87113188D01*
X66941000Y-87287259D01*
X66941000Y-87464741D01*
X66906376Y-87638812D01*
X66838456Y-87802784D01*
X66739853Y-87950354D01*
X66614354Y-88075853D01*
X66466784Y-88174456D01*
X66302812Y-88242376D01*
X66153512Y-88272073D01*
X66128742Y-88277000D01*
X65951258Y-88277000D01*
X65926488Y-88272073D01*
X65777188Y-88242376D01*
X65613216Y-88174456D01*
X65465646Y-88075853D01*
X65340147Y-87950354D01*
X65241544Y-87802784D01*
X65173624Y-87638812D01*
X65139000Y-87464741D01*
X65139000Y-87287259D01*
X65173624Y-87113188D01*
X65241544Y-86949216D01*
X65340147Y-86801646D01*
X65465646Y-86676147D01*
X65613216Y-86577544D01*
X65777188Y-86509624D01*
X65926488Y-86479927D01*
X65951258Y-86475000D01*
X66128742Y-86475000D01*
X66153512Y-86479927D01*
G37*
G36*
X63613512Y-86479927D02*
G01*
X63762812Y-86509624D01*
X63926784Y-86577544D01*
X64074354Y-86676147D01*
X64199853Y-86801646D01*
X64298456Y-86949216D01*
X64366376Y-87113188D01*
X64401000Y-87287259D01*
X64401000Y-87464741D01*
X64366376Y-87638812D01*
X64298456Y-87802784D01*
X64199853Y-87950354D01*
X64074354Y-88075853D01*
X63926784Y-88174456D01*
X63762812Y-88242376D01*
X63613512Y-88272073D01*
X63588742Y-88277000D01*
X63411258Y-88277000D01*
X63386488Y-88272073D01*
X63237188Y-88242376D01*
X63073216Y-88174456D01*
X62925646Y-88075853D01*
X62800147Y-87950354D01*
X62701544Y-87802784D01*
X62633624Y-87638812D01*
X62599000Y-87464741D01*
X62599000Y-87287259D01*
X62633624Y-87113188D01*
X62701544Y-86949216D01*
X62800147Y-86801646D01*
X62925646Y-86676147D01*
X63073216Y-86577544D01*
X63237188Y-86509624D01*
X63386488Y-86479927D01*
X63411258Y-86475000D01*
X63588742Y-86475000D01*
X63613512Y-86479927D01*
G37*
G36*
X68693512Y-86479927D02*
G01*
X68842812Y-86509624D01*
X69006784Y-86577544D01*
X69154354Y-86676147D01*
X69279853Y-86801646D01*
X69378456Y-86949216D01*
X69446376Y-87113188D01*
X69481000Y-87287259D01*
X69481000Y-87464741D01*
X69446376Y-87638812D01*
X69378456Y-87802784D01*
X69279853Y-87950354D01*
X69154354Y-88075853D01*
X69006784Y-88174456D01*
X68842812Y-88242376D01*
X68693512Y-88272073D01*
X68668742Y-88277000D01*
X68491258Y-88277000D01*
X68466488Y-88272073D01*
X68317188Y-88242376D01*
X68153216Y-88174456D01*
X68005646Y-88075853D01*
X67880147Y-87950354D01*
X67781544Y-87802784D01*
X67713624Y-87638812D01*
X67679000Y-87464741D01*
X67679000Y-87287259D01*
X67713624Y-87113188D01*
X67781544Y-86949216D01*
X67880147Y-86801646D01*
X68005646Y-86676147D01*
X68153216Y-86577544D01*
X68317188Y-86509624D01*
X68466488Y-86479927D01*
X68491258Y-86475000D01*
X68668742Y-86475000D01*
X68693512Y-86479927D01*
G37*
G36*
X71233512Y-86479927D02*
G01*
X71382812Y-86509624D01*
X71546784Y-86577544D01*
X71694354Y-86676147D01*
X71819853Y-86801646D01*
X71918456Y-86949216D01*
X71986376Y-87113188D01*
X72021000Y-87287259D01*
X72021000Y-87464741D01*
X71986376Y-87638812D01*
X71918456Y-87802784D01*
X71819853Y-87950354D01*
X71694354Y-88075853D01*
X71546784Y-88174456D01*
X71382812Y-88242376D01*
X71233512Y-88272073D01*
X71208742Y-88277000D01*
X71031258Y-88277000D01*
X71006488Y-88272073D01*
X70857188Y-88242376D01*
X70693216Y-88174456D01*
X70545646Y-88075853D01*
X70420147Y-87950354D01*
X70321544Y-87802784D01*
X70253624Y-87638812D01*
X70219000Y-87464741D01*
X70219000Y-87287259D01*
X70253624Y-87113188D01*
X70321544Y-86949216D01*
X70420147Y-86801646D01*
X70545646Y-86676147D01*
X70693216Y-86577544D01*
X70857188Y-86509624D01*
X71006488Y-86479927D01*
X71031258Y-86475000D01*
X71208742Y-86475000D01*
X71233512Y-86479927D01*
G37*
G36*
X73773512Y-86479927D02*
G01*
X73922812Y-86509624D01*
X74086784Y-86577544D01*
X74234354Y-86676147D01*
X74359853Y-86801646D01*
X74458456Y-86949216D01*
X74526376Y-87113188D01*
X74561000Y-87287259D01*
X74561000Y-87464741D01*
X74526376Y-87638812D01*
X74458456Y-87802784D01*
X74359853Y-87950354D01*
X74234354Y-88075853D01*
X74086784Y-88174456D01*
X73922812Y-88242376D01*
X73773512Y-88272073D01*
X73748742Y-88277000D01*
X73571258Y-88277000D01*
X73546488Y-88272073D01*
X73397188Y-88242376D01*
X73233216Y-88174456D01*
X73085646Y-88075853D01*
X72960147Y-87950354D01*
X72861544Y-87802784D01*
X72793624Y-87638812D01*
X72759000Y-87464741D01*
X72759000Y-87287259D01*
X72793624Y-87113188D01*
X72861544Y-86949216D01*
X72960147Y-86801646D01*
X73085646Y-86676147D01*
X73233216Y-86577544D01*
X73397188Y-86509624D01*
X73546488Y-86479927D01*
X73571258Y-86475000D01*
X73748742Y-86475000D01*
X73773512Y-86479927D01*
G37*
G36*
X74561000Y-85737000D02*
G01*
X72759000Y-85737000D01*
X72759000Y-83935000D01*
X74561000Y-83935000D01*
X74561000Y-85737000D01*
G37*
G36*
X71233512Y-83939927D02*
G01*
X71382812Y-83969624D01*
X71546784Y-84037544D01*
X71694354Y-84136147D01*
X71819853Y-84261646D01*
X71918456Y-84409216D01*
X71986376Y-84573188D01*
X72021000Y-84747259D01*
X72021000Y-84924741D01*
X71986376Y-85098812D01*
X71918456Y-85262784D01*
X71819853Y-85410354D01*
X71694354Y-85535853D01*
X71546784Y-85634456D01*
X71382812Y-85702376D01*
X71233512Y-85732073D01*
X71208742Y-85737000D01*
X71031258Y-85737000D01*
X71006488Y-85732073D01*
X70857188Y-85702376D01*
X70693216Y-85634456D01*
X70545646Y-85535853D01*
X70420147Y-85410354D01*
X70321544Y-85262784D01*
X70253624Y-85098812D01*
X70219000Y-84924741D01*
X70219000Y-84747259D01*
X70253624Y-84573188D01*
X70321544Y-84409216D01*
X70420147Y-84261646D01*
X70545646Y-84136147D01*
X70693216Y-84037544D01*
X70857188Y-83969624D01*
X71006488Y-83939927D01*
X71031258Y-83935000D01*
X71208742Y-83935000D01*
X71233512Y-83939927D01*
G37*
G36*
X68693512Y-83939927D02*
G01*
X68842812Y-83969624D01*
X69006784Y-84037544D01*
X69154354Y-84136147D01*
X69279853Y-84261646D01*
X69378456Y-84409216D01*
X69446376Y-84573188D01*
X69481000Y-84747259D01*
X69481000Y-84924741D01*
X69446376Y-85098812D01*
X69378456Y-85262784D01*
X69279853Y-85410354D01*
X69154354Y-85535853D01*
X69006784Y-85634456D01*
X68842812Y-85702376D01*
X68693512Y-85732073D01*
X68668742Y-85737000D01*
X68491258Y-85737000D01*
X68466488Y-85732073D01*
X68317188Y-85702376D01*
X68153216Y-85634456D01*
X68005646Y-85535853D01*
X67880147Y-85410354D01*
X67781544Y-85262784D01*
X67713624Y-85098812D01*
X67679000Y-84924741D01*
X67679000Y-84747259D01*
X67713624Y-84573188D01*
X67781544Y-84409216D01*
X67880147Y-84261646D01*
X68005646Y-84136147D01*
X68153216Y-84037544D01*
X68317188Y-83969624D01*
X68466488Y-83939927D01*
X68491258Y-83935000D01*
X68668742Y-83935000D01*
X68693512Y-83939927D01*
G37*
G36*
X59829000Y-85737000D02*
G01*
X58027000Y-85737000D01*
X58027000Y-83935000D01*
X59829000Y-83935000D01*
X59829000Y-85737000D01*
G37*
G36*
X56501512Y-83939927D02*
G01*
X56650812Y-83969624D01*
X56814784Y-84037544D01*
X56962354Y-84136147D01*
X57087853Y-84261646D01*
X57186456Y-84409216D01*
X57254376Y-84573188D01*
X57289000Y-84747259D01*
X57289000Y-84924741D01*
X57254376Y-85098812D01*
X57186456Y-85262784D01*
X57087853Y-85410354D01*
X56962354Y-85535853D01*
X56814784Y-85634456D01*
X56650812Y-85702376D01*
X56501512Y-85732073D01*
X56476742Y-85737000D01*
X56299258Y-85737000D01*
X56274488Y-85732073D01*
X56125188Y-85702376D01*
X55961216Y-85634456D01*
X55813646Y-85535853D01*
X55688147Y-85410354D01*
X55589544Y-85262784D01*
X55521624Y-85098812D01*
X55487000Y-84924741D01*
X55487000Y-84747259D01*
X55521624Y-84573188D01*
X55589544Y-84409216D01*
X55688147Y-84261646D01*
X55813646Y-84136147D01*
X55961216Y-84037544D01*
X56125188Y-83969624D01*
X56274488Y-83939927D01*
X56299258Y-83935000D01*
X56476742Y-83935000D01*
X56501512Y-83939927D01*
G37*
G36*
X66153512Y-83939927D02*
G01*
X66302812Y-83969624D01*
X66466784Y-84037544D01*
X66614354Y-84136147D01*
X66739853Y-84261646D01*
X66838456Y-84409216D01*
X66906376Y-84573188D01*
X66941000Y-84747259D01*
X66941000Y-84924741D01*
X66906376Y-85098812D01*
X66838456Y-85262784D01*
X66739853Y-85410354D01*
X66614354Y-85535853D01*
X66466784Y-85634456D01*
X66302812Y-85702376D01*
X66153512Y-85732073D01*
X66128742Y-85737000D01*
X65951258Y-85737000D01*
X65926488Y-85732073D01*
X65777188Y-85702376D01*
X65613216Y-85634456D01*
X65465646Y-85535853D01*
X65340147Y-85410354D01*
X65241544Y-85262784D01*
X65173624Y-85098812D01*
X65139000Y-84924741D01*
X65139000Y-84747259D01*
X65173624Y-84573188D01*
X65241544Y-84409216D01*
X65340147Y-84261646D01*
X65465646Y-84136147D01*
X65613216Y-84037544D01*
X65777188Y-83969624D01*
X65926488Y-83939927D01*
X65951258Y-83935000D01*
X66128742Y-83935000D01*
X66153512Y-83939927D01*
G37*
G36*
X39509000Y-85737000D02*
G01*
X37707000Y-85737000D01*
X37707000Y-83935000D01*
X39509000Y-83935000D01*
X39509000Y-85737000D01*
G37*
G36*
X41261512Y-83939927D02*
G01*
X41410812Y-83969624D01*
X41574784Y-84037544D01*
X41722354Y-84136147D01*
X41847853Y-84261646D01*
X41946456Y-84409216D01*
X42014376Y-84573188D01*
X42049000Y-84747259D01*
X42049000Y-84924741D01*
X42014376Y-85098812D01*
X41946456Y-85262784D01*
X41847853Y-85410354D01*
X41722354Y-85535853D01*
X41574784Y-85634456D01*
X41410812Y-85702376D01*
X41261512Y-85732073D01*
X41236742Y-85737000D01*
X41059258Y-85737000D01*
X41034488Y-85732073D01*
X40885188Y-85702376D01*
X40721216Y-85634456D01*
X40573646Y-85535853D01*
X40448147Y-85410354D01*
X40349544Y-85262784D01*
X40281624Y-85098812D01*
X40247000Y-84924741D01*
X40247000Y-84747259D01*
X40281624Y-84573188D01*
X40349544Y-84409216D01*
X40448147Y-84261646D01*
X40573646Y-84136147D01*
X40721216Y-84037544D01*
X40885188Y-83969624D01*
X41034488Y-83939927D01*
X41059258Y-83935000D01*
X41236742Y-83935000D01*
X41261512Y-83939927D01*
G37*
G36*
X53961512Y-83939927D02*
G01*
X54110812Y-83969624D01*
X54274784Y-84037544D01*
X54422354Y-84136147D01*
X54547853Y-84261646D01*
X54646456Y-84409216D01*
X54714376Y-84573188D01*
X54749000Y-84747259D01*
X54749000Y-84924741D01*
X54714376Y-85098812D01*
X54646456Y-85262784D01*
X54547853Y-85410354D01*
X54422354Y-85535853D01*
X54274784Y-85634456D01*
X54110812Y-85702376D01*
X53961512Y-85732073D01*
X53936742Y-85737000D01*
X53759258Y-85737000D01*
X53734488Y-85732073D01*
X53585188Y-85702376D01*
X53421216Y-85634456D01*
X53273646Y-85535853D01*
X53148147Y-85410354D01*
X53049544Y-85262784D01*
X52981624Y-85098812D01*
X52947000Y-84924741D01*
X52947000Y-84747259D01*
X52981624Y-84573188D01*
X53049544Y-84409216D01*
X53148147Y-84261646D01*
X53273646Y-84136147D01*
X53421216Y-84037544D01*
X53585188Y-83969624D01*
X53734488Y-83939927D01*
X53759258Y-83935000D01*
X53936742Y-83935000D01*
X53961512Y-83939927D01*
G37*
G36*
X51421512Y-83939927D02*
G01*
X51570812Y-83969624D01*
X51734784Y-84037544D01*
X51882354Y-84136147D01*
X52007853Y-84261646D01*
X52106456Y-84409216D01*
X52174376Y-84573188D01*
X52209000Y-84747259D01*
X52209000Y-84924741D01*
X52174376Y-85098812D01*
X52106456Y-85262784D01*
X52007853Y-85410354D01*
X51882354Y-85535853D01*
X51734784Y-85634456D01*
X51570812Y-85702376D01*
X51421512Y-85732073D01*
X51396742Y-85737000D01*
X51219258Y-85737000D01*
X51194488Y-85732073D01*
X51045188Y-85702376D01*
X50881216Y-85634456D01*
X50733646Y-85535853D01*
X50608147Y-85410354D01*
X50509544Y-85262784D01*
X50441624Y-85098812D01*
X50407000Y-84924741D01*
X50407000Y-84747259D01*
X50441624Y-84573188D01*
X50509544Y-84409216D01*
X50608147Y-84261646D01*
X50733646Y-84136147D01*
X50881216Y-84037544D01*
X51045188Y-83969624D01*
X51194488Y-83939927D01*
X51219258Y-83935000D01*
X51396742Y-83935000D01*
X51421512Y-83939927D01*
G37*
G36*
X46341512Y-83939927D02*
G01*
X46490812Y-83969624D01*
X46654784Y-84037544D01*
X46802354Y-84136147D01*
X46927853Y-84261646D01*
X47026456Y-84409216D01*
X47094376Y-84573188D01*
X47129000Y-84747259D01*
X47129000Y-84924741D01*
X47094376Y-85098812D01*
X47026456Y-85262784D01*
X46927853Y-85410354D01*
X46802354Y-85535853D01*
X46654784Y-85634456D01*
X46490812Y-85702376D01*
X46341512Y-85732073D01*
X46316742Y-85737000D01*
X46139258Y-85737000D01*
X46114488Y-85732073D01*
X45965188Y-85702376D01*
X45801216Y-85634456D01*
X45653646Y-85535853D01*
X45528147Y-85410354D01*
X45429544Y-85262784D01*
X45361624Y-85098812D01*
X45327000Y-84924741D01*
X45327000Y-84747259D01*
X45361624Y-84573188D01*
X45429544Y-84409216D01*
X45528147Y-84261646D01*
X45653646Y-84136147D01*
X45801216Y-84037544D01*
X45965188Y-83969624D01*
X46114488Y-83939927D01*
X46139258Y-83935000D01*
X46316742Y-83935000D01*
X46341512Y-83939927D01*
G37*
G36*
X43801512Y-83939927D02*
G01*
X43950812Y-83969624D01*
X44114784Y-84037544D01*
X44262354Y-84136147D01*
X44387853Y-84261646D01*
X44486456Y-84409216D01*
X44554376Y-84573188D01*
X44589000Y-84747259D01*
X44589000Y-84924741D01*
X44554376Y-85098812D01*
X44486456Y-85262784D01*
X44387853Y-85410354D01*
X44262354Y-85535853D01*
X44114784Y-85634456D01*
X43950812Y-85702376D01*
X43801512Y-85732073D01*
X43776742Y-85737000D01*
X43599258Y-85737000D01*
X43574488Y-85732073D01*
X43425188Y-85702376D01*
X43261216Y-85634456D01*
X43113646Y-85535853D01*
X42988147Y-85410354D01*
X42889544Y-85262784D01*
X42821624Y-85098812D01*
X42787000Y-84924741D01*
X42787000Y-84747259D01*
X42821624Y-84573188D01*
X42889544Y-84409216D01*
X42988147Y-84261646D01*
X43113646Y-84136147D01*
X43261216Y-84037544D01*
X43425188Y-83969624D01*
X43574488Y-83939927D01*
X43599258Y-83935000D01*
X43776742Y-83935000D01*
X43801512Y-83939927D01*
G37*
G36*
X63613512Y-83939927D02*
G01*
X63762812Y-83969624D01*
X63926784Y-84037544D01*
X64074354Y-84136147D01*
X64199853Y-84261646D01*
X64298456Y-84409216D01*
X64366376Y-84573188D01*
X64401000Y-84747259D01*
X64401000Y-84924741D01*
X64366376Y-85098812D01*
X64298456Y-85262784D01*
X64199853Y-85410354D01*
X64074354Y-85535853D01*
X63926784Y-85634456D01*
X63762812Y-85702376D01*
X63613512Y-85732073D01*
X63588742Y-85737000D01*
X63411258Y-85737000D01*
X63386488Y-85732073D01*
X63237188Y-85702376D01*
X63073216Y-85634456D01*
X62925646Y-85535853D01*
X62800147Y-85410354D01*
X62701544Y-85262784D01*
X62633624Y-85098812D01*
X62599000Y-84924741D01*
X62599000Y-84747259D01*
X62633624Y-84573188D01*
X62701544Y-84409216D01*
X62800147Y-84261646D01*
X62925646Y-84136147D01*
X63073216Y-84037544D01*
X63237188Y-83969624D01*
X63386488Y-83939927D01*
X63411258Y-83935000D01*
X63588742Y-83935000D01*
X63613512Y-83939927D01*
G37*
M02*
