G04 #@! TF.GenerationSoftware,KiCad,Pcbnew,5.1.5+dfsg1-2build2*
G04 #@! TF.CreationDate,2020-10-21T13:18:50+02:00*
G04 #@! TF.ProjectId,test_board,74657374-5f62-46f6-9172-642e6b696361,rev?*
G04 #@! TF.SameCoordinates,Original*
G04 #@! TF.FileFunction,Copper,L4,Bot*
G04 #@! TF.FilePolarity,Positive*
%FSLAX46Y46*%
G04 Gerber Fmt 4.6, Leading zero omitted, Abs format (unit mm)*
G04 Created by KiCad (PCBNEW 5.1.5+dfsg1-2build2) date 2020-10-21 13:18:50*
%MOMM*%
%LPD*%
G04 APERTURE LIST*
%ADD10O,1.700000X1.700000*%
%ADD11R,1.700000X1.700000*%
%ADD12C,0.900000*%
%ADD13C,8.600000*%
%ADD14R,2.600000X2.600000*%
%ADD15C,2.600000*%
%ADD16O,2.000000X1.450000*%
%ADD17O,1.800000X1.150000*%
%ADD18C,0.800000*%
%ADD19C,0.500000*%
%ADD20C,0.300000*%
G04 APERTURE END LIST*
D10*
X47244000Y-134620000D03*
X49784000Y-134620000D03*
X52324000Y-134620000D03*
D11*
X54864000Y-134620000D03*
D10*
X85344000Y-112776000D03*
X85344000Y-110236000D03*
X85344000Y-107696000D03*
D11*
X85344000Y-105156000D03*
D12*
X84576419Y-85603581D03*
X82296000Y-84659000D03*
X80015581Y-85603581D03*
X79071000Y-87884000D03*
X80015581Y-90164419D03*
X82296000Y-91109000D03*
X84576419Y-90164419D03*
X85521000Y-87884000D03*
D13*
X82296000Y-87884000D03*
X82296000Y-131064000D03*
D12*
X85521000Y-131064000D03*
X84576419Y-133344419D03*
X82296000Y-134289000D03*
X80015581Y-133344419D03*
X79071000Y-131064000D03*
X80015581Y-128783581D03*
X82296000Y-127839000D03*
X84576419Y-128783581D03*
X29392581Y-90164419D03*
X31673000Y-91109000D03*
X33953419Y-90164419D03*
X34898000Y-87884000D03*
X33953419Y-85603581D03*
X31673000Y-84659000D03*
X29392581Y-85603581D03*
X28448000Y-87884000D03*
D13*
X31673000Y-87884000D03*
X31673000Y-131064000D03*
D12*
X34898000Y-131064000D03*
X33953419Y-133344419D03*
X31673000Y-134289000D03*
X29392581Y-133344419D03*
X28448000Y-131064000D03*
X29392581Y-128783581D03*
X31673000Y-127839000D03*
X33953419Y-128783581D03*
D14*
X81788000Y-122936000D03*
D15*
X81788000Y-117936000D03*
D16*
X80446000Y-101921400D03*
X80446000Y-94471400D03*
D17*
X84246000Y-102071400D03*
X84246000Y-94321400D03*
D10*
X51308000Y-84836000D03*
X53848000Y-84836000D03*
X56388000Y-84836000D03*
D11*
X58928000Y-84836000D03*
X27940000Y-112776000D03*
D10*
X27940000Y-115316000D03*
X27940000Y-117856000D03*
X27940000Y-120396000D03*
D11*
X73660000Y-84836000D03*
D10*
X73660000Y-87376000D03*
X71120000Y-84836000D03*
X71120000Y-87376000D03*
X68580000Y-84836000D03*
X68580000Y-87376000D03*
X66040000Y-84836000D03*
X66040000Y-87376000D03*
X63500000Y-84836000D03*
X63500000Y-87376000D03*
D11*
X38608000Y-84836000D03*
D10*
X41148000Y-84836000D03*
X43688000Y-84836000D03*
X46228000Y-84836000D03*
D18*
X83820000Y-105664000D03*
X66802000Y-119380000D03*
X46500000Y-100000000D03*
X53600000Y-100000000D03*
X43434000Y-95504000D03*
X31200000Y-98800000D03*
X38354000Y-114300000D03*
X39116000Y-113538000D03*
X47244000Y-120142000D03*
X55372000Y-116840000D03*
X42926000Y-105664000D03*
X45212000Y-103378000D03*
X56388000Y-106680000D03*
X65278000Y-119380000D03*
X65278000Y-116332000D03*
X66802000Y-116332000D03*
X62484000Y-121412000D03*
X60198000Y-121412000D03*
X60198000Y-123952000D03*
X62484000Y-123444000D03*
X66294000Y-135128000D03*
X67310000Y-134112000D03*
X61468000Y-119634000D03*
X37084000Y-113792000D03*
X40386000Y-113284000D03*
X41148000Y-112522000D03*
X38100000Y-105664000D03*
X31242000Y-103378000D03*
X39624000Y-87884000D03*
X41656000Y-96266000D03*
X39624000Y-88646000D03*
X78486000Y-97028000D03*
X72644000Y-96266000D03*
X75438000Y-119888000D03*
X75438000Y-120650000D03*
X77216000Y-120650000D03*
X77216000Y-119888000D03*
X67310000Y-126746000D03*
X67310000Y-128270000D03*
X66294000Y-128270000D03*
X61976000Y-132080000D03*
X61976000Y-132842000D03*
X58674000Y-104394000D03*
X59690000Y-105410000D03*
X46482000Y-107442000D03*
X41402000Y-105664000D03*
X46228000Y-120142000D03*
X57404000Y-120650000D03*
X57404000Y-121920000D03*
X57404000Y-123444000D03*
X57404000Y-124460000D03*
X54864000Y-120396000D03*
X57150000Y-119888000D03*
X56388000Y-119888000D03*
X57912000Y-119126000D03*
X76708000Y-124460000D03*
X76708000Y-125476000D03*
X80010000Y-117094000D03*
X80010000Y-118872000D03*
X71120000Y-114300000D03*
X71120000Y-110236000D03*
X50292000Y-108204000D03*
X54356000Y-98552000D03*
D19*
X71120000Y-114300000D02*
X71120000Y-110236000D01*
D20*
X50292000Y-108204000D02*
X54356000Y-104140000D01*
X54356000Y-104140000D02*
X54356000Y-98552000D01*
M02*
