G04 #@! TF.GenerationSoftware,KiCad,Pcbnew,5.1.5+dfsg1-2build2*
G04 #@! TF.CreationDate,2020-10-21T13:18:50+02:00*
G04 #@! TF.ProjectId,test_board,74657374-5f62-46f6-9172-642e6b696361,rev?*
G04 #@! TF.SameCoordinates,Original*
G04 #@! TF.FileFunction,Legend,Top*
G04 #@! TF.FilePolarity,Positive*
%FSLAX46Y46*%
G04 Gerber Fmt 4.6, Leading zero omitted, Abs format (unit mm)*
G04 Created by KiCad (PCBNEW 5.1.5+dfsg1-2build2) date 2020-10-21 13:18:50*
%MOMM*%
%LPD*%
G04 APERTURE LIST*
%ADD10C,0.100000*%
%ADD11C,0.300000*%
%ADD12C,0.250000*%
%ADD13C,0.120000*%
%ADD14C,0.150000*%
%ADD15C,0.200000*%
%ADD16C,0.127000*%
%ADD17C,0.015000*%
G04 APERTURE END LIST*
D10*
X47170476Y-113856190D02*
X47170476Y-114213333D01*
X47146666Y-114284761D01*
X47099047Y-114332380D01*
X47027619Y-114356190D01*
X46980000Y-114356190D01*
X47646666Y-114356190D02*
X47408571Y-114356190D01*
X47408571Y-113856190D01*
X48099047Y-114308571D02*
X48075238Y-114332380D01*
X48003809Y-114356190D01*
X47956190Y-114356190D01*
X47884761Y-114332380D01*
X47837142Y-114284761D01*
X47813333Y-114237142D01*
X47789523Y-114141904D01*
X47789523Y-114070476D01*
X47813333Y-113975238D01*
X47837142Y-113927619D01*
X47884761Y-113880000D01*
X47956190Y-113856190D01*
X48003809Y-113856190D01*
X48075238Y-113880000D01*
X48099047Y-113903809D01*
X48456190Y-113856190D02*
X48456190Y-114213333D01*
X48432380Y-114284761D01*
X48384761Y-114332380D01*
X48313333Y-114356190D01*
X48265714Y-114356190D01*
X48932380Y-114356190D02*
X48694285Y-114356190D01*
X48694285Y-113856190D01*
X49384761Y-114308571D02*
X49360952Y-114332380D01*
X49289523Y-114356190D01*
X49241904Y-114356190D01*
X49170476Y-114332380D01*
X49122857Y-114284761D01*
X49099047Y-114237142D01*
X49075238Y-114141904D01*
X49075238Y-114070476D01*
X49099047Y-113975238D01*
X49122857Y-113927619D01*
X49170476Y-113880000D01*
X49241904Y-113856190D01*
X49289523Y-113856190D01*
X49360952Y-113880000D01*
X49384761Y-113903809D01*
X49741904Y-113856190D02*
X49741904Y-114213333D01*
X49718095Y-114284761D01*
X49670476Y-114332380D01*
X49599047Y-114356190D01*
X49551428Y-114356190D01*
X50218095Y-114356190D02*
X49980000Y-114356190D01*
X49980000Y-113856190D01*
X50670476Y-114308571D02*
X50646666Y-114332380D01*
X50575238Y-114356190D01*
X50527619Y-114356190D01*
X50456190Y-114332380D01*
X50408571Y-114284761D01*
X50384761Y-114237142D01*
X50360952Y-114141904D01*
X50360952Y-114070476D01*
X50384761Y-113975238D01*
X50408571Y-113927619D01*
X50456190Y-113880000D01*
X50527619Y-113856190D01*
X50575238Y-113856190D01*
X50646666Y-113880000D01*
X50670476Y-113903809D01*
X51027619Y-113856190D02*
X51027619Y-114213333D01*
X51003809Y-114284761D01*
X50956190Y-114332380D01*
X50884761Y-114356190D01*
X50837142Y-114356190D01*
X51503809Y-114356190D02*
X51265714Y-114356190D01*
X51265714Y-113856190D01*
X51956190Y-114308571D02*
X51932380Y-114332380D01*
X51860952Y-114356190D01*
X51813333Y-114356190D01*
X51741904Y-114332380D01*
X51694285Y-114284761D01*
X51670476Y-114237142D01*
X51646666Y-114141904D01*
X51646666Y-114070476D01*
X51670476Y-113975238D01*
X51694285Y-113927619D01*
X51741904Y-113880000D01*
X51813333Y-113856190D01*
X51860952Y-113856190D01*
X51932380Y-113880000D01*
X51956190Y-113903809D01*
D11*
X85818571Y-126977142D02*
X86961428Y-126977142D01*
X86390000Y-127548571D02*
X86390000Y-126405714D01*
D12*
X75850000Y-84870000D02*
G75*
G03X75850000Y-84870000I-120000J0D01*
G01*
X78850000Y-99550000D02*
G75*
G03X78850000Y-99550000I-120000J0D01*
G01*
D10*
X56449523Y-114565714D02*
X56830476Y-114565714D01*
X56640000Y-114756190D02*
X56640000Y-114375238D01*
X61299523Y-118965714D02*
X61680476Y-118965714D01*
X61490000Y-119156190D02*
X61490000Y-118775238D01*
D12*
X44070000Y-107220000D02*
G75*
G03X44070000Y-107220000I-120000J0D01*
G01*
X36350000Y-107240000D02*
G75*
G03X36350000Y-107240000I-120000J0D01*
G01*
X40210000Y-95240000D02*
G75*
G03X40210000Y-95240000I-120000J0D01*
G01*
X74920000Y-99480000D02*
G75*
G03X74920000Y-99480000I-120000J0D01*
G01*
X66630000Y-123380000D02*
G75*
G03X66630000Y-123380000I-120000J0D01*
G01*
X71270000Y-123440000D02*
G75*
G03X71270000Y-123440000I-120000J0D01*
G01*
X77160000Y-122930000D02*
G75*
G03X77160000Y-122930000I-120000J0D01*
G01*
X73210000Y-127950000D02*
G75*
G03X73210000Y-127950000I-120000J0D01*
G01*
X70260000Y-128800000D02*
G75*
G03X70260000Y-128800000I-120000J0D01*
G01*
X69260000Y-132270000D02*
G75*
G03X69260000Y-132270000I-120000J0D01*
G01*
X65780000Y-135110000D02*
G75*
G03X65780000Y-135110000I-120000J0D01*
G01*
X63090000Y-135120000D02*
G75*
G03X63090000Y-135120000I-120000J0D01*
G01*
X61080000Y-130050000D02*
G75*
G03X61080000Y-130050000I-120000J0D01*
G01*
D10*
X59832952Y-116058190D02*
X60142476Y-116058190D01*
X59975809Y-116248666D01*
X60047238Y-116248666D01*
X60094857Y-116272476D01*
X60118666Y-116296285D01*
X60142476Y-116343904D01*
X60142476Y-116462952D01*
X60118666Y-116510571D01*
X60094857Y-116534380D01*
X60047238Y-116558190D01*
X59904380Y-116558190D01*
X59856761Y-116534380D01*
X59832952Y-116510571D01*
X60285333Y-116058190D02*
X60452000Y-116558190D01*
X60618666Y-116058190D01*
X60737714Y-116058190D02*
X61047238Y-116058190D01*
X60880571Y-116248666D01*
X60952000Y-116248666D01*
X60999619Y-116272476D01*
X61023428Y-116296285D01*
X61047238Y-116343904D01*
X61047238Y-116462952D01*
X61023428Y-116510571D01*
X60999619Y-116534380D01*
X60952000Y-116558190D01*
X60809142Y-116558190D01*
X60761523Y-116534380D01*
X60737714Y-116510571D01*
X56927904Y-114502380D02*
X56999333Y-114526190D01*
X57118380Y-114526190D01*
X57166000Y-114502380D01*
X57189809Y-114478571D01*
X57213619Y-114430952D01*
X57213619Y-114383333D01*
X57189809Y-114335714D01*
X57166000Y-114311904D01*
X57118380Y-114288095D01*
X57023142Y-114264285D01*
X56975523Y-114240476D01*
X56951714Y-114216666D01*
X56927904Y-114169047D01*
X56927904Y-114121428D01*
X56951714Y-114073809D01*
X56975523Y-114050000D01*
X57023142Y-114026190D01*
X57142190Y-114026190D01*
X57213619Y-114050000D01*
X57356476Y-114026190D02*
X57642190Y-114026190D01*
X57499333Y-114526190D02*
X57499333Y-114026190D01*
X57785047Y-114383333D02*
X58023142Y-114383333D01*
X57737428Y-114526190D02*
X57904095Y-114026190D01*
X58070761Y-114526190D01*
X58166000Y-114026190D02*
X58451714Y-114026190D01*
X58308857Y-114526190D02*
X58308857Y-114026190D01*
X58618380Y-114026190D02*
X58618380Y-114430952D01*
X58642190Y-114478571D01*
X58666000Y-114502380D01*
X58713619Y-114526190D01*
X58808857Y-114526190D01*
X58856476Y-114502380D01*
X58880285Y-114478571D01*
X58904095Y-114430952D01*
X58904095Y-114026190D01*
X59118380Y-114502380D02*
X59189809Y-114526190D01*
X59308857Y-114526190D01*
X59356476Y-114502380D01*
X59380285Y-114478571D01*
X59404095Y-114430952D01*
X59404095Y-114383333D01*
X59380285Y-114335714D01*
X59356476Y-114311904D01*
X59308857Y-114288095D01*
X59213619Y-114264285D01*
X59166000Y-114240476D01*
X59142190Y-114216666D01*
X59118380Y-114169047D01*
X59118380Y-114121428D01*
X59142190Y-114073809D01*
X59166000Y-114050000D01*
X59213619Y-114026190D01*
X59332666Y-114026190D01*
X59404095Y-114050000D01*
X32031809Y-103262952D02*
X32269904Y-103096285D01*
X32031809Y-102977238D02*
X32531809Y-102977238D01*
X32531809Y-103167714D01*
X32508000Y-103215333D01*
X32484190Y-103239142D01*
X32436571Y-103262952D01*
X32365142Y-103262952D01*
X32317523Y-103239142D01*
X32293714Y-103215333D01*
X32269904Y-103167714D01*
X32269904Y-102977238D01*
X32531809Y-103477238D02*
X32127047Y-103477238D01*
X32079428Y-103501047D01*
X32055619Y-103524857D01*
X32031809Y-103572476D01*
X32031809Y-103667714D01*
X32055619Y-103715333D01*
X32079428Y-103739142D01*
X32127047Y-103762952D01*
X32531809Y-103762952D01*
X32031809Y-104001047D02*
X32531809Y-104001047D01*
X32031809Y-104286761D01*
X32531809Y-104286761D01*
X32293714Y-98127428D02*
X32269904Y-98198857D01*
X32246095Y-98222666D01*
X32198476Y-98246476D01*
X32127047Y-98246476D01*
X32079428Y-98222666D01*
X32055619Y-98198857D01*
X32031809Y-98151238D01*
X32031809Y-97960761D01*
X32531809Y-97960761D01*
X32531809Y-98127428D01*
X32508000Y-98175047D01*
X32484190Y-98198857D01*
X32436571Y-98222666D01*
X32388952Y-98222666D01*
X32341333Y-98198857D01*
X32317523Y-98175047D01*
X32293714Y-98127428D01*
X32293714Y-97960761D01*
X32531809Y-98556000D02*
X32531809Y-98651238D01*
X32508000Y-98698857D01*
X32460380Y-98746476D01*
X32365142Y-98770285D01*
X32198476Y-98770285D01*
X32103238Y-98746476D01*
X32055619Y-98698857D01*
X32031809Y-98651238D01*
X32031809Y-98556000D01*
X32055619Y-98508380D01*
X32103238Y-98460761D01*
X32198476Y-98436952D01*
X32365142Y-98436952D01*
X32460380Y-98460761D01*
X32508000Y-98508380D01*
X32531809Y-98556000D01*
X32531809Y-99079809D02*
X32531809Y-99175047D01*
X32508000Y-99222666D01*
X32460380Y-99270285D01*
X32365142Y-99294095D01*
X32198476Y-99294095D01*
X32103238Y-99270285D01*
X32055619Y-99222666D01*
X32031809Y-99175047D01*
X32031809Y-99079809D01*
X32055619Y-99032190D01*
X32103238Y-98984571D01*
X32198476Y-98960761D01*
X32365142Y-98960761D01*
X32460380Y-98984571D01*
X32508000Y-99032190D01*
X32531809Y-99079809D01*
X32531809Y-99436952D02*
X32531809Y-99722666D01*
X32031809Y-99579809D02*
X32531809Y-99579809D01*
X78212190Y-95118952D02*
X78616952Y-95118952D01*
X78664571Y-95095142D01*
X78688380Y-95071333D01*
X78712190Y-95023714D01*
X78712190Y-94928476D01*
X78688380Y-94880857D01*
X78664571Y-94857047D01*
X78616952Y-94833238D01*
X78212190Y-94833238D01*
X78688380Y-94618952D02*
X78712190Y-94547523D01*
X78712190Y-94428476D01*
X78688380Y-94380857D01*
X78664571Y-94357047D01*
X78616952Y-94333238D01*
X78569333Y-94333238D01*
X78521714Y-94357047D01*
X78497904Y-94380857D01*
X78474095Y-94428476D01*
X78450285Y-94523714D01*
X78426476Y-94571333D01*
X78402666Y-94595142D01*
X78355047Y-94618952D01*
X78307428Y-94618952D01*
X78259809Y-94595142D01*
X78236000Y-94571333D01*
X78212190Y-94523714D01*
X78212190Y-94404666D01*
X78236000Y-94333238D01*
X78450285Y-93952285D02*
X78474095Y-93880857D01*
X78497904Y-93857047D01*
X78545523Y-93833238D01*
X78616952Y-93833238D01*
X78664571Y-93857047D01*
X78688380Y-93880857D01*
X78712190Y-93928476D01*
X78712190Y-94118952D01*
X78212190Y-94118952D01*
X78212190Y-93952285D01*
X78236000Y-93904666D01*
X78259809Y-93880857D01*
X78307428Y-93857047D01*
X78355047Y-93857047D01*
X78402666Y-93880857D01*
X78426476Y-93904666D01*
X78450285Y-93952285D01*
X78450285Y-94118952D01*
X66718571Y-89459619D02*
X66647142Y-89435809D01*
X66528095Y-89435809D01*
X66480476Y-89459619D01*
X66456666Y-89483428D01*
X66432857Y-89531047D01*
X66432857Y-89578666D01*
X66456666Y-89626285D01*
X66480476Y-89650095D01*
X66528095Y-89673904D01*
X66623333Y-89697714D01*
X66670952Y-89721523D01*
X66694761Y-89745333D01*
X66718571Y-89792952D01*
X66718571Y-89840571D01*
X66694761Y-89888190D01*
X66670952Y-89912000D01*
X66623333Y-89935809D01*
X66504285Y-89935809D01*
X66432857Y-89912000D01*
X66266190Y-89935809D02*
X66147142Y-89435809D01*
X66051904Y-89792952D01*
X65956666Y-89435809D01*
X65837619Y-89935809D01*
X65647142Y-89435809D02*
X65647142Y-89935809D01*
X65528095Y-89935809D01*
X65456666Y-89912000D01*
X65409047Y-89864380D01*
X65385238Y-89816761D01*
X65361428Y-89721523D01*
X65361428Y-89650095D01*
X65385238Y-89554857D01*
X65409047Y-89507238D01*
X65456666Y-89459619D01*
X65528095Y-89435809D01*
X65647142Y-89435809D01*
X47295523Y-87197428D02*
X47319333Y-87173619D01*
X47390761Y-87149809D01*
X47438380Y-87149809D01*
X47509809Y-87173619D01*
X47557428Y-87221238D01*
X47581238Y-87268857D01*
X47605047Y-87364095D01*
X47605047Y-87435523D01*
X47581238Y-87530761D01*
X47557428Y-87578380D01*
X47509809Y-87626000D01*
X47438380Y-87649809D01*
X47390761Y-87649809D01*
X47319333Y-87626000D01*
X47295523Y-87602190D01*
X47105047Y-87292666D02*
X46866952Y-87292666D01*
X47152666Y-87149809D02*
X46986000Y-87649809D01*
X46819333Y-87149809D01*
X46652666Y-87149809D02*
X46652666Y-87649809D01*
X46366952Y-87149809D01*
X46366952Y-87649809D01*
X45866952Y-87149809D02*
X46152666Y-87149809D01*
X46009809Y-87149809D02*
X46009809Y-87649809D01*
X46057428Y-87578380D01*
X46105047Y-87530761D01*
X46152666Y-87506952D01*
X52542190Y-87149809D02*
X52542190Y-87649809D01*
X52327904Y-87602190D02*
X52304095Y-87626000D01*
X52256476Y-87649809D01*
X52137428Y-87649809D01*
X52089809Y-87626000D01*
X52066000Y-87602190D01*
X52042190Y-87554571D01*
X52042190Y-87506952D01*
X52066000Y-87435523D01*
X52351714Y-87149809D01*
X52042190Y-87149809D01*
X51542190Y-87197428D02*
X51566000Y-87173619D01*
X51637428Y-87149809D01*
X51685047Y-87149809D01*
X51756476Y-87173619D01*
X51804095Y-87221238D01*
X51827904Y-87268857D01*
X51851714Y-87364095D01*
X51851714Y-87435523D01*
X51827904Y-87530761D01*
X51804095Y-87578380D01*
X51756476Y-87626000D01*
X51685047Y-87649809D01*
X51637428Y-87649809D01*
X51566000Y-87626000D01*
X51542190Y-87602190D01*
X51066000Y-87149809D02*
X51351714Y-87149809D01*
X51208857Y-87149809D02*
X51208857Y-87649809D01*
X51256476Y-87578380D01*
X51304095Y-87530761D01*
X51351714Y-87506952D01*
X30499809Y-118344285D02*
X30095047Y-118344285D01*
X30047428Y-118368095D01*
X30023619Y-118391904D01*
X29999809Y-118439523D01*
X29999809Y-118534761D01*
X30023619Y-118582380D01*
X30047428Y-118606190D01*
X30095047Y-118630000D01*
X30499809Y-118630000D01*
X30142666Y-118844285D02*
X30142666Y-119082380D01*
X29999809Y-118796666D02*
X30499809Y-118963333D01*
X29999809Y-119130000D01*
X29999809Y-119582380D02*
X30237904Y-119415714D01*
X29999809Y-119296666D02*
X30499809Y-119296666D01*
X30499809Y-119487142D01*
X30476000Y-119534761D01*
X30452190Y-119558571D01*
X30404571Y-119582380D01*
X30333142Y-119582380D01*
X30285523Y-119558571D01*
X30261714Y-119534761D01*
X30237904Y-119487142D01*
X30237904Y-119296666D01*
X30499809Y-119725238D02*
X30499809Y-120010952D01*
X29999809Y-119868095D02*
X30499809Y-119868095D01*
X30452190Y-120153809D02*
X30476000Y-120177619D01*
X30499809Y-120225238D01*
X30499809Y-120344285D01*
X30476000Y-120391904D01*
X30452190Y-120415714D01*
X30404571Y-120439523D01*
X30356952Y-120439523D01*
X30285523Y-120415714D01*
X29999809Y-120130000D01*
X29999809Y-120439523D01*
X46970285Y-132060190D02*
X46970285Y-132464952D01*
X46994095Y-132512571D01*
X47017904Y-132536380D01*
X47065523Y-132560190D01*
X47160761Y-132560190D01*
X47208380Y-132536380D01*
X47232190Y-132512571D01*
X47256000Y-132464952D01*
X47256000Y-132060190D01*
X47470285Y-132417333D02*
X47708380Y-132417333D01*
X47422666Y-132560190D02*
X47589333Y-132060190D01*
X47756000Y-132560190D01*
X48208380Y-132560190D02*
X48041714Y-132322095D01*
X47922666Y-132560190D02*
X47922666Y-132060190D01*
X48113142Y-132060190D01*
X48160761Y-132084000D01*
X48184571Y-132107809D01*
X48208380Y-132155428D01*
X48208380Y-132226857D01*
X48184571Y-132274476D01*
X48160761Y-132298285D01*
X48113142Y-132322095D01*
X47922666Y-132322095D01*
X48351238Y-132060190D02*
X48636952Y-132060190D01*
X48494095Y-132560190D02*
X48494095Y-132060190D01*
X48756000Y-132060190D02*
X49065523Y-132060190D01*
X48898857Y-132250666D01*
X48970285Y-132250666D01*
X49017904Y-132274476D01*
X49041714Y-132298285D01*
X49065523Y-132345904D01*
X49065523Y-132464952D01*
X49041714Y-132512571D01*
X49017904Y-132536380D01*
X48970285Y-132560190D01*
X48827428Y-132560190D01*
X48779809Y-132536380D01*
X48756000Y-132512571D01*
X82530190Y-108985714D02*
X82934952Y-108985714D01*
X82982571Y-108961904D01*
X83006380Y-108938095D01*
X83030190Y-108890476D01*
X83030190Y-108795238D01*
X83006380Y-108747619D01*
X82982571Y-108723809D01*
X82934952Y-108700000D01*
X82530190Y-108700000D01*
X82887333Y-108485714D02*
X82887333Y-108247619D01*
X83030190Y-108533333D02*
X82530190Y-108366666D01*
X83030190Y-108200000D01*
X83030190Y-107747619D02*
X82792095Y-107914285D01*
X83030190Y-108033333D02*
X82530190Y-108033333D01*
X82530190Y-107842857D01*
X82554000Y-107795238D01*
X82577809Y-107771428D01*
X82625428Y-107747619D01*
X82696857Y-107747619D01*
X82744476Y-107771428D01*
X82768285Y-107795238D01*
X82792095Y-107842857D01*
X82792095Y-108033333D01*
X82530190Y-107604761D02*
X82530190Y-107319047D01*
X83030190Y-107461904D02*
X82530190Y-107461904D01*
X82530190Y-106938095D02*
X82530190Y-107033333D01*
X82554000Y-107080952D01*
X82577809Y-107104761D01*
X82649238Y-107152380D01*
X82744476Y-107176190D01*
X82934952Y-107176190D01*
X82982571Y-107152380D01*
X83006380Y-107128571D01*
X83030190Y-107080952D01*
X83030190Y-106985714D01*
X83006380Y-106938095D01*
X82982571Y-106914285D01*
X82934952Y-106890476D01*
X82815904Y-106890476D01*
X82768285Y-106914285D01*
X82744476Y-106938095D01*
X82720666Y-106985714D01*
X82720666Y-107080952D01*
X82744476Y-107128571D01*
X82768285Y-107152380D01*
X82815904Y-107176190D01*
D11*
X74255428Y-117264571D02*
X73398285Y-117264571D01*
X73826857Y-117264571D02*
X73826857Y-115764571D01*
X73684000Y-115978857D01*
X73541142Y-116121714D01*
X73398285Y-116193142D01*
X74826857Y-115907428D02*
X74898285Y-115836000D01*
X75041142Y-115764571D01*
X75398285Y-115764571D01*
X75541142Y-115836000D01*
X75612571Y-115907428D01*
X75684000Y-116050285D01*
X75684000Y-116193142D01*
X75612571Y-116407428D01*
X74755428Y-117264571D01*
X75684000Y-117264571D01*
X76112571Y-115764571D02*
X76612571Y-117264571D01*
X77112571Y-115764571D01*
D13*
X56194000Y-133290000D02*
X56194000Y-134620000D01*
X54864000Y-133290000D02*
X56194000Y-133290000D01*
X53594000Y-133290000D02*
X53594000Y-135950000D01*
X53594000Y-135950000D02*
X45914000Y-135950000D01*
X53594000Y-133290000D02*
X45914000Y-133290000D01*
X45914000Y-133290000D02*
X45914000Y-135950000D01*
X84014000Y-103826000D02*
X85344000Y-103826000D01*
X84014000Y-105156000D02*
X84014000Y-103826000D01*
X84014000Y-106426000D02*
X86674000Y-106426000D01*
X86674000Y-106426000D02*
X86674000Y-114106000D01*
X84014000Y-106426000D02*
X84014000Y-114106000D01*
X84014000Y-114106000D02*
X86674000Y-114106000D01*
X42326779Y-107190000D02*
X42001221Y-107190000D01*
X42326779Y-106170000D02*
X42001221Y-106170000D01*
X53964721Y-119890000D02*
X54290279Y-119890000D01*
X53964721Y-118870000D02*
X54290279Y-118870000D01*
X58164000Y-106334779D02*
X58164000Y-106009221D01*
X59184000Y-106334779D02*
X59184000Y-106009221D01*
X71214064Y-128418000D02*
X70009936Y-128418000D01*
X71214064Y-126598000D02*
X70009936Y-126598000D01*
X61870000Y-128110064D02*
X61870000Y-126905936D01*
X60050000Y-128110064D02*
X60050000Y-126905936D01*
X60546064Y-120502000D02*
X59341936Y-120502000D01*
X60546064Y-122322000D02*
X59341936Y-122322000D01*
X60546064Y-124862000D02*
X59341936Y-124862000D01*
X60546064Y-123042000D02*
X59341936Y-123042000D01*
X59397000Y-114835000D02*
X57112000Y-114835000D01*
X59397000Y-116305000D02*
X59397000Y-114835000D01*
X57112000Y-116305000D02*
X59397000Y-116305000D01*
X70120000Y-123154000D02*
X72120000Y-123154000D01*
X72120000Y-123154000D02*
X72120000Y-119254000D01*
X70120000Y-123154000D02*
X70120000Y-119254000D01*
X72426000Y-119396000D02*
X76326000Y-119396000D01*
X72426000Y-121396000D02*
X76326000Y-121396000D01*
X72426000Y-119396000D02*
X72426000Y-121396000D01*
X61187000Y-119164000D02*
X61187000Y-116879000D01*
X61187000Y-116879000D02*
X59717000Y-116879000D01*
X59717000Y-116879000D02*
X59717000Y-119164000D01*
X75154064Y-123846000D02*
X73949936Y-123846000D01*
X75154064Y-122026000D02*
X73949936Y-122026000D01*
X69845422Y-124258000D02*
X70362578Y-124258000D01*
X69845422Y-125678000D02*
X70362578Y-125678000D01*
X83968000Y-122936000D02*
G75*
G03X83968000Y-122936000I-2180000J0D01*
G01*
X83968000Y-117936000D02*
G75*
G03X83968000Y-117936000I-2180000J0D01*
G01*
X86388000Y-125496000D02*
X86388000Y-115376000D01*
X85288000Y-125496000D02*
X85288000Y-115376000D01*
X77728000Y-125496000D02*
X77728000Y-115376000D01*
X86848000Y-125496000D02*
X86848000Y-115376000D01*
X77728000Y-125496000D02*
X86848000Y-125496000D01*
X77728000Y-115376000D02*
X86848000Y-115376000D01*
X80400000Y-121282000D02*
X80507000Y-121389000D01*
X83335000Y-124218000D02*
X83442000Y-124324000D01*
X80134000Y-121548000D02*
X80241000Y-121655000D01*
X83069000Y-124484000D02*
X83176000Y-124590000D01*
X80400000Y-116282000D02*
X80796000Y-116677000D01*
X83062000Y-118943000D02*
X83442000Y-119323000D01*
X80134000Y-116548000D02*
X80514000Y-116928000D01*
X82780000Y-119194000D02*
X83176000Y-119589000D01*
X86448000Y-125736000D02*
X87088000Y-125736000D01*
X87088000Y-125736000D02*
X87088000Y-125336000D01*
D14*
X81646000Y-102346400D02*
X83046000Y-102346400D01*
X85446000Y-102346400D02*
X85596000Y-102346400D01*
X85596000Y-102346400D02*
X85596000Y-102046400D01*
X85596000Y-102046400D02*
X86046000Y-102046400D01*
X86046000Y-94346400D02*
X85596000Y-94346400D01*
X85596000Y-94346400D02*
X85596000Y-94046400D01*
X85596000Y-94046400D02*
X85446000Y-94046400D01*
X83046000Y-94046400D02*
X81646000Y-94046400D01*
X79471000Y-99271400D02*
X79471000Y-99996400D01*
X79471000Y-99996400D02*
X79896000Y-99996400D01*
X79896000Y-99996400D02*
X79896000Y-100996400D01*
X79896000Y-96396400D02*
X79896000Y-95396400D01*
D13*
X60258000Y-83506000D02*
X60258000Y-84836000D01*
X58928000Y-83506000D02*
X60258000Y-83506000D01*
X57658000Y-83506000D02*
X57658000Y-86166000D01*
X57658000Y-86166000D02*
X49978000Y-86166000D01*
X57658000Y-83506000D02*
X49978000Y-83506000D01*
X49978000Y-83506000D02*
X49978000Y-86166000D01*
X26610000Y-121726000D02*
X29270000Y-121726000D01*
X26610000Y-114046000D02*
X26610000Y-121726000D01*
X29270000Y-114046000D02*
X29270000Y-121726000D01*
X26610000Y-114046000D02*
X29270000Y-114046000D01*
X26610000Y-112776000D02*
X26610000Y-111446000D01*
X26610000Y-111446000D02*
X27940000Y-111446000D01*
X62170000Y-83506000D02*
X62170000Y-88706000D01*
X72390000Y-83506000D02*
X62170000Y-83506000D01*
X74990000Y-88706000D02*
X62170000Y-88706000D01*
X72390000Y-83506000D02*
X72390000Y-86106000D01*
X72390000Y-86106000D02*
X74990000Y-86106000D01*
X74990000Y-86106000D02*
X74990000Y-88706000D01*
X73660000Y-83506000D02*
X74990000Y-83506000D01*
X74990000Y-83506000D02*
X74990000Y-84836000D01*
X47558000Y-86166000D02*
X47558000Y-83506000D01*
X39878000Y-86166000D02*
X47558000Y-86166000D01*
X39878000Y-83506000D02*
X47558000Y-83506000D01*
X39878000Y-86166000D02*
X39878000Y-83506000D01*
X38608000Y-86166000D02*
X37278000Y-86166000D01*
X37278000Y-86166000D02*
X37278000Y-84836000D01*
X63340000Y-122688000D02*
X63340000Y-117088000D01*
X68740000Y-122688000D02*
X68740000Y-117088000D01*
X63340000Y-122688000D02*
X64490000Y-122688000D01*
X68740000Y-122688000D02*
X67590000Y-122688000D01*
X63340000Y-117088000D02*
X64490000Y-117088000D01*
X68740000Y-117088000D02*
X67590000Y-117088000D01*
X73096000Y-126744000D02*
X74026000Y-126744000D01*
X76256000Y-126744000D02*
X75326000Y-126744000D01*
X76256000Y-126744000D02*
X76256000Y-124584000D01*
X73096000Y-126744000D02*
X73096000Y-125284000D01*
X56386000Y-117972721D02*
X56386000Y-118298279D01*
X57406000Y-117972721D02*
X57406000Y-118298279D01*
X70102000Y-130393221D02*
X70102000Y-130718779D01*
X71122000Y-130393221D02*
X71122000Y-130718779D01*
X68578000Y-130718779D02*
X68578000Y-130393221D01*
X69598000Y-130718779D02*
X69598000Y-130393221D01*
X51978779Y-100586000D02*
X51653221Y-100586000D01*
X51978779Y-99566000D02*
X51653221Y-99566000D01*
X48097221Y-100586000D02*
X48422779Y-100586000D01*
X48097221Y-99566000D02*
X48422779Y-99566000D01*
X65657000Y-133512779D02*
X65657000Y-133187221D01*
X66677000Y-133512779D02*
X66677000Y-133187221D01*
X65026000Y-133187221D02*
X65026000Y-133512779D01*
X64006000Y-133187221D02*
X64006000Y-133512779D01*
X63502000Y-133512779D02*
X63502000Y-133187221D01*
X62482000Y-133512779D02*
X62482000Y-133187221D01*
X58418000Y-118201221D02*
X58418000Y-118526779D01*
X59438000Y-118201221D02*
X59438000Y-118526779D01*
X29568000Y-102492000D02*
X29568000Y-102692000D01*
X25428000Y-99692000D02*
X25218000Y-99892000D01*
X25428000Y-100992000D02*
X25218000Y-100792000D01*
X26718000Y-99692000D02*
X25428000Y-99692000D01*
X25218000Y-99892000D02*
X25218000Y-100792000D01*
X25428000Y-100992000D02*
X26718000Y-100992000D01*
X26718000Y-98242000D02*
X26718000Y-103942000D01*
X29568000Y-99492000D02*
X29568000Y-101192000D01*
X28518000Y-97642000D02*
X27728000Y-97642000D01*
X27728000Y-104542000D02*
X28518000Y-104542000D01*
X53690000Y-116870000D02*
X54640000Y-116870000D01*
X54640000Y-116870000D02*
X54640000Y-115920000D01*
X45370000Y-116870000D02*
X44420000Y-116870000D01*
X44420000Y-116870000D02*
X44420000Y-115920000D01*
X53690000Y-106650000D02*
X54640000Y-106650000D01*
X54640000Y-106650000D02*
X54640000Y-107600000D01*
X45370000Y-106650000D02*
X44420000Y-106650000D01*
X44420000Y-106650000D02*
X44420000Y-107600000D01*
X44420000Y-107600000D02*
X43080000Y-107600000D01*
D15*
X63473000Y-131458000D02*
G75*
G03X63473000Y-131458000I-100000J0D01*
G01*
D16*
X67797000Y-129498000D02*
X67797000Y-125518000D01*
X62759000Y-125518000D02*
X62759000Y-129498000D01*
D13*
X73544000Y-96942000D02*
X71744000Y-96942000D01*
X71744000Y-100162000D02*
X74194000Y-100162000D01*
X44978000Y-91186000D02*
X44978000Y-89236000D01*
X44978000Y-91186000D02*
X44978000Y-93136000D01*
X39858000Y-91186000D02*
X39858000Y-89236000D01*
X39858000Y-91186000D02*
X39858000Y-94636000D01*
X39242000Y-107728000D02*
X35942000Y-107728000D01*
X35942000Y-107728000D02*
X35942000Y-111728000D01*
D14*
X74218666Y-124684571D02*
X73885333Y-124684571D01*
X73885333Y-125208380D02*
X73885333Y-124208380D01*
X74361523Y-124208380D01*
X75266285Y-125208380D02*
X74694857Y-125208380D01*
X74980571Y-125208380D02*
X74980571Y-124208380D01*
X74885333Y-124351238D01*
X74790095Y-124446476D01*
X74694857Y-124494095D01*
X81534095Y-83036380D02*
X81534095Y-82036380D01*
X81534095Y-82512571D02*
X82105523Y-82512571D01*
X82105523Y-83036380D02*
X82105523Y-82036380D01*
X83105523Y-83036380D02*
X82534095Y-83036380D01*
X82819809Y-83036380D02*
X82819809Y-82036380D01*
X82724571Y-82179238D01*
X82629333Y-82274476D01*
X82534095Y-82322095D01*
X76180380Y-120769333D02*
X76894666Y-120769333D01*
X77037523Y-120816952D01*
X77132761Y-120912190D01*
X77180380Y-121055047D01*
X77180380Y-121150285D01*
X77180380Y-119769333D02*
X77180380Y-120340761D01*
X77180380Y-120055047D02*
X76180380Y-120055047D01*
X76323238Y-120150285D01*
X76418476Y-120245523D01*
X76466095Y-120340761D01*
D17*
X61095380Y-128344904D02*
X61904904Y-128344904D01*
X62000142Y-128297285D01*
X62047761Y-128249666D01*
X62095380Y-128154428D01*
X62095380Y-127963952D01*
X62047761Y-127868714D01*
X62000142Y-127821095D01*
X61904904Y-127773476D01*
X61095380Y-127773476D01*
X61190619Y-127344904D02*
X61143000Y-127297285D01*
X61095380Y-127202047D01*
X61095380Y-126963952D01*
X61143000Y-126868714D01*
X61190619Y-126821095D01*
X61285857Y-126773476D01*
X61381095Y-126773476D01*
X61523952Y-126821095D01*
X62095380Y-127392523D01*
X62095380Y-126773476D01*
M02*
