G04 #@! TF.GenerationSoftware,KiCad,Pcbnew,5.1.5+dfsg1-2build2*
G04 #@! TF.CreationDate,2020-10-21T13:18:50+02:00*
G04 #@! TF.ProjectId,test_board,74657374-5f62-46f6-9172-642e6b696361,rev?*
G04 #@! TF.SameCoordinates,Original*
G04 #@! TF.FileFunction,Copper,L2,Inr*
G04 #@! TF.FilePolarity,Positive*
%FSLAX46Y46*%
G04 Gerber Fmt 4.6, Leading zero omitted, Abs format (unit mm)*
G04 Created by KiCad (PCBNEW 5.1.5+dfsg1-2build2) date 2020-10-21 13:18:50*
%MOMM*%
%LPD*%
G04 APERTURE LIST*
%ADD10O,1.700000X1.700000*%
%ADD11R,1.700000X1.700000*%
%ADD12C,0.900000*%
%ADD13C,8.600000*%
%ADD14R,2.600000X2.600000*%
%ADD15C,2.600000*%
%ADD16O,2.000000X1.450000*%
%ADD17O,1.800000X1.150000*%
%ADD18C,0.800000*%
%ADD19C,1.000000*%
%ADD20C,0.254000*%
G04 APERTURE END LIST*
D10*
X47244000Y-134620000D03*
X49784000Y-134620000D03*
X52324000Y-134620000D03*
D11*
X54864000Y-134620000D03*
D10*
X85344000Y-112776000D03*
X85344000Y-110236000D03*
X85344000Y-107696000D03*
D11*
X85344000Y-105156000D03*
D12*
X84576419Y-85603581D03*
X82296000Y-84659000D03*
X80015581Y-85603581D03*
X79071000Y-87884000D03*
X80015581Y-90164419D03*
X82296000Y-91109000D03*
X84576419Y-90164419D03*
X85521000Y-87884000D03*
D13*
X82296000Y-87884000D03*
X82296000Y-131064000D03*
D12*
X85521000Y-131064000D03*
X84576419Y-133344419D03*
X82296000Y-134289000D03*
X80015581Y-133344419D03*
X79071000Y-131064000D03*
X80015581Y-128783581D03*
X82296000Y-127839000D03*
X84576419Y-128783581D03*
X29392581Y-90164419D03*
X31673000Y-91109000D03*
X33953419Y-90164419D03*
X34898000Y-87884000D03*
X33953419Y-85603581D03*
X31673000Y-84659000D03*
X29392581Y-85603581D03*
X28448000Y-87884000D03*
D13*
X31673000Y-87884000D03*
X31673000Y-131064000D03*
D12*
X34898000Y-131064000D03*
X33953419Y-133344419D03*
X31673000Y-134289000D03*
X29392581Y-133344419D03*
X28448000Y-131064000D03*
X29392581Y-128783581D03*
X31673000Y-127839000D03*
X33953419Y-128783581D03*
D14*
X81788000Y-122936000D03*
D15*
X81788000Y-117936000D03*
D16*
X80446000Y-101921400D03*
X80446000Y-94471400D03*
D17*
X84246000Y-102071400D03*
X84246000Y-94321400D03*
D10*
X51308000Y-84836000D03*
X53848000Y-84836000D03*
X56388000Y-84836000D03*
D11*
X58928000Y-84836000D03*
X27940000Y-112776000D03*
D10*
X27940000Y-115316000D03*
X27940000Y-117856000D03*
X27940000Y-120396000D03*
D11*
X73660000Y-84836000D03*
D10*
X73660000Y-87376000D03*
X71120000Y-84836000D03*
X71120000Y-87376000D03*
X68580000Y-84836000D03*
X68580000Y-87376000D03*
X66040000Y-84836000D03*
X66040000Y-87376000D03*
X63500000Y-84836000D03*
X63500000Y-87376000D03*
D11*
X38608000Y-84836000D03*
D10*
X41148000Y-84836000D03*
X43688000Y-84836000D03*
X46228000Y-84836000D03*
D18*
X83820000Y-105664000D03*
X66802000Y-119380000D03*
X46500000Y-100000000D03*
X53600000Y-100000000D03*
X43434000Y-95504000D03*
X31200000Y-98800000D03*
X38354000Y-114300000D03*
X39116000Y-113538000D03*
X47244000Y-120142000D03*
X55372000Y-116840000D03*
X42926000Y-105664000D03*
X45212000Y-103378000D03*
X56388000Y-106680000D03*
X65278000Y-119380000D03*
X65278000Y-116332000D03*
X66802000Y-116332000D03*
X62484000Y-121412000D03*
X60198000Y-121412000D03*
X60198000Y-123952000D03*
X62484000Y-123444000D03*
X66294000Y-135128000D03*
X67310000Y-134112000D03*
X61468000Y-119634000D03*
X37084000Y-113792000D03*
X40386000Y-113284000D03*
X41148000Y-112522000D03*
X38100000Y-105664000D03*
X31242000Y-103378000D03*
X39624000Y-87884000D03*
X41656000Y-96266000D03*
X39624000Y-88646000D03*
X78486000Y-97028000D03*
X72644000Y-96266000D03*
X75438000Y-119888000D03*
X75438000Y-120650000D03*
X77216000Y-120650000D03*
X77216000Y-119888000D03*
X67310000Y-126746000D03*
X67310000Y-128270000D03*
X66294000Y-128270000D03*
X61976000Y-132080000D03*
X61976000Y-132842000D03*
X58674000Y-104394000D03*
X59690000Y-105410000D03*
X46482000Y-107442000D03*
X41402000Y-105664000D03*
X46228000Y-120142000D03*
X57404000Y-120650000D03*
X57404000Y-121920000D03*
X57404000Y-123444000D03*
X57404000Y-124460000D03*
X54864000Y-120396000D03*
X57150000Y-119888000D03*
X56388000Y-119888000D03*
X57912000Y-119126000D03*
X76708000Y-124460000D03*
X76708000Y-125476000D03*
X80010000Y-117094000D03*
X80010000Y-118872000D03*
X71120000Y-114300000D03*
X71120000Y-110236000D03*
X50292000Y-108204000D03*
X54356000Y-98552000D03*
D19*
X85344000Y-112776000D02*
X86360000Y-112776000D01*
X46482000Y-84836000D02*
X49276000Y-84836000D01*
X49276000Y-84836000D02*
X51308000Y-84836000D01*
D20*
G36*
X81395079Y-83007649D02*
G01*
X80461062Y-83277107D01*
X79597560Y-83723606D01*
X79484946Y-83798851D01*
X78992787Y-84401182D01*
X82296000Y-87704395D01*
X82310143Y-87690253D01*
X82489748Y-87869858D01*
X82475605Y-87884000D01*
X85778818Y-91187213D01*
X86381149Y-90695054D01*
X86851063Y-89844067D01*
X87145929Y-88917757D01*
X87224000Y-88222550D01*
X87224001Y-130772736D01*
X87172351Y-130163079D01*
X86902893Y-129229062D01*
X86456394Y-128365560D01*
X86381149Y-128252946D01*
X85778818Y-127760787D01*
X82475605Y-131064000D01*
X82489748Y-131078143D01*
X82310143Y-131257748D01*
X82296000Y-131243605D01*
X78992787Y-134546818D01*
X79484946Y-135149149D01*
X80335933Y-135619063D01*
X81262243Y-135913929D01*
X81957450Y-135992000D01*
X66863883Y-135992000D01*
X66953774Y-135931937D01*
X67097937Y-135787774D01*
X67211205Y-135618256D01*
X67289226Y-135429898D01*
X67329000Y-135229939D01*
X67329000Y-135147000D01*
X67411939Y-135147000D01*
X67611898Y-135107226D01*
X67800256Y-135029205D01*
X67969774Y-134915937D01*
X68113937Y-134771774D01*
X68227205Y-134602256D01*
X68305226Y-134413898D01*
X68345000Y-134213939D01*
X68345000Y-134010061D01*
X68305226Y-133810102D01*
X68227205Y-133621744D01*
X68113937Y-133452226D01*
X67969774Y-133308063D01*
X67800256Y-133194795D01*
X67611898Y-133116774D01*
X67411939Y-133077000D01*
X67208061Y-133077000D01*
X67008102Y-133116774D01*
X66819744Y-133194795D01*
X66650226Y-133308063D01*
X66506063Y-133452226D01*
X66392795Y-133621744D01*
X66314774Y-133810102D01*
X66275000Y-134010061D01*
X66275000Y-134093000D01*
X66192061Y-134093000D01*
X65992102Y-134132774D01*
X65803744Y-134210795D01*
X65634226Y-134324063D01*
X65490063Y-134468226D01*
X65376795Y-134637744D01*
X65298774Y-134826102D01*
X65259000Y-135026061D01*
X65259000Y-135229939D01*
X65298774Y-135429898D01*
X65376795Y-135618256D01*
X65490063Y-135787774D01*
X65634226Y-135931937D01*
X65724117Y-135992000D01*
X56078896Y-135992000D01*
X56165185Y-135921185D01*
X56244537Y-135824494D01*
X56303502Y-135714180D01*
X56339812Y-135594482D01*
X56352072Y-135470000D01*
X56352072Y-133770000D01*
X56339812Y-133645518D01*
X56303502Y-133525820D01*
X56244537Y-133415506D01*
X56165185Y-133318815D01*
X56068494Y-133239463D01*
X55958180Y-133180498D01*
X55838482Y-133144188D01*
X55714000Y-133131928D01*
X54014000Y-133131928D01*
X53889518Y-133144188D01*
X53769820Y-133180498D01*
X53659506Y-133239463D01*
X53562815Y-133318815D01*
X53483463Y-133415506D01*
X53424498Y-133525820D01*
X53402487Y-133598380D01*
X53270632Y-133466525D01*
X53027411Y-133304010D01*
X52757158Y-133192068D01*
X52470260Y-133135000D01*
X52177740Y-133135000D01*
X51890842Y-133192068D01*
X51620589Y-133304010D01*
X51377368Y-133466525D01*
X51170525Y-133673368D01*
X51054000Y-133847760D01*
X50937475Y-133673368D01*
X50730632Y-133466525D01*
X50487411Y-133304010D01*
X50217158Y-133192068D01*
X49930260Y-133135000D01*
X49637740Y-133135000D01*
X49350842Y-133192068D01*
X49080589Y-133304010D01*
X48837368Y-133466525D01*
X48630525Y-133673368D01*
X48508805Y-133855534D01*
X48439178Y-133738645D01*
X48244269Y-133522412D01*
X48010920Y-133348359D01*
X47748099Y-133223175D01*
X47600890Y-133178524D01*
X47371000Y-133299845D01*
X47371000Y-134493000D01*
X47391000Y-134493000D01*
X47391000Y-134747000D01*
X47371000Y-134747000D01*
X47371000Y-134767000D01*
X47117000Y-134767000D01*
X47117000Y-134747000D01*
X45923186Y-134747000D01*
X45802519Y-134976891D01*
X45899843Y-135251252D01*
X46048822Y-135501355D01*
X46243731Y-135717588D01*
X46477080Y-135891641D01*
X46687781Y-135992000D01*
X31964276Y-135992000D01*
X32573921Y-135940351D01*
X33507938Y-135670893D01*
X34371440Y-135224394D01*
X34484054Y-135149149D01*
X34976213Y-134546818D01*
X31673000Y-131243605D01*
X28369787Y-134546818D01*
X28861946Y-135149149D01*
X29712933Y-135619063D01*
X30610549Y-135904795D01*
X29859897Y-135709964D01*
X29100496Y-135367878D01*
X28409580Y-134902728D01*
X27806921Y-134327819D01*
X27309745Y-133659589D01*
X26932265Y-132917142D01*
X26685275Y-132121705D01*
X26573178Y-131275951D01*
X26568000Y-131056218D01*
X26568000Y-130996281D01*
X26714586Y-130996281D01*
X26796649Y-131964921D01*
X27066107Y-132898938D01*
X27512606Y-133762440D01*
X27587851Y-133875054D01*
X28190182Y-134367213D01*
X31493395Y-131064000D01*
X31852605Y-131064000D01*
X35155818Y-134367213D01*
X35283226Y-134263109D01*
X45802519Y-134263109D01*
X45923186Y-134493000D01*
X47117000Y-134493000D01*
X47117000Y-133299845D01*
X46887110Y-133178524D01*
X46739901Y-133223175D01*
X46477080Y-133348359D01*
X46243731Y-133522412D01*
X46048822Y-133738645D01*
X45899843Y-133988748D01*
X45802519Y-134263109D01*
X35283226Y-134263109D01*
X35758149Y-133875054D01*
X36228063Y-133024067D01*
X36522929Y-132097757D01*
X36631414Y-131131719D01*
X36584409Y-130576890D01*
X36670048Y-130576890D01*
X36670048Y-130823110D01*
X36718083Y-131064598D01*
X36812307Y-131292074D01*
X36949099Y-131496798D01*
X37123202Y-131670901D01*
X37327926Y-131807693D01*
X37555402Y-131901917D01*
X37796890Y-131949952D01*
X38043110Y-131949952D01*
X38284598Y-131901917D01*
X38512074Y-131807693D01*
X38716798Y-131670901D01*
X38890901Y-131496798D01*
X39027693Y-131292074D01*
X39121917Y-131064598D01*
X39169952Y-130823110D01*
X39169952Y-130576890D01*
X39167963Y-130566890D01*
X75410048Y-130566890D01*
X75410048Y-130813110D01*
X75458083Y-131054598D01*
X75552307Y-131282074D01*
X75689099Y-131486798D01*
X75863202Y-131660901D01*
X76067926Y-131797693D01*
X76295402Y-131891917D01*
X76536890Y-131939952D01*
X76783110Y-131939952D01*
X77024598Y-131891917D01*
X77252074Y-131797693D01*
X77397263Y-131700681D01*
X77419649Y-131964921D01*
X77689107Y-132898938D01*
X78135606Y-133762440D01*
X78210851Y-133875054D01*
X78813182Y-134367213D01*
X82116395Y-131064000D01*
X78813182Y-127760787D01*
X78210851Y-128252946D01*
X77740937Y-129103933D01*
X77523790Y-129786091D01*
X77456798Y-129719099D01*
X77252074Y-129582307D01*
X77024598Y-129488083D01*
X76783110Y-129440048D01*
X76536890Y-129440048D01*
X76295402Y-129488083D01*
X76067926Y-129582307D01*
X75863202Y-129719099D01*
X75689099Y-129893202D01*
X75552307Y-130097926D01*
X75458083Y-130325402D01*
X75410048Y-130566890D01*
X39167963Y-130566890D01*
X39121917Y-130335402D01*
X39027693Y-130107926D01*
X38890901Y-129903202D01*
X38716798Y-129729099D01*
X38512074Y-129592307D01*
X38284598Y-129498083D01*
X38043110Y-129450048D01*
X37796890Y-129450048D01*
X37555402Y-129498083D01*
X37327926Y-129592307D01*
X37123202Y-129729099D01*
X36949099Y-129903202D01*
X36812307Y-130107926D01*
X36718083Y-130335402D01*
X36670048Y-130576890D01*
X36584409Y-130576890D01*
X36549351Y-130163079D01*
X36279893Y-129229062D01*
X35833394Y-128365560D01*
X35758149Y-128252946D01*
X35155818Y-127760787D01*
X31852605Y-131064000D01*
X31493395Y-131064000D01*
X28190182Y-127760787D01*
X27587851Y-128252946D01*
X27117937Y-129103933D01*
X26823071Y-130030243D01*
X26714586Y-130996281D01*
X26568000Y-130996281D01*
X26568000Y-127581182D01*
X28369787Y-127581182D01*
X31673000Y-130884395D01*
X34976213Y-127581182D01*
X78992787Y-127581182D01*
X82296000Y-130884395D01*
X85599213Y-127581182D01*
X85107054Y-126978851D01*
X84256067Y-126508937D01*
X83329757Y-126214071D01*
X82363719Y-126105586D01*
X81395079Y-126187649D01*
X80461062Y-126457107D01*
X79597560Y-126903606D01*
X79484946Y-126978851D01*
X78992787Y-127581182D01*
X34976213Y-127581182D01*
X34484054Y-126978851D01*
X33633067Y-126508937D01*
X32706757Y-126214071D01*
X31740719Y-126105586D01*
X30772079Y-126187649D01*
X29838062Y-126457107D01*
X28974560Y-126903606D01*
X28861946Y-126978851D01*
X28369787Y-127581182D01*
X26568000Y-127581182D01*
X26568000Y-123850061D01*
X59163000Y-123850061D01*
X59163000Y-124053939D01*
X59202774Y-124253898D01*
X59280795Y-124442256D01*
X59394063Y-124611774D01*
X59538226Y-124755937D01*
X59707744Y-124869205D01*
X59896102Y-124947226D01*
X60096061Y-124987000D01*
X60299939Y-124987000D01*
X60499898Y-124947226D01*
X60688256Y-124869205D01*
X60857774Y-124755937D01*
X61001937Y-124611774D01*
X61115205Y-124442256D01*
X61193226Y-124253898D01*
X61233000Y-124053939D01*
X61233000Y-123850061D01*
X61193226Y-123650102D01*
X61115205Y-123461744D01*
X61001937Y-123292226D01*
X60857774Y-123148063D01*
X60688256Y-123034795D01*
X60499898Y-122956774D01*
X60299939Y-122917000D01*
X60096061Y-122917000D01*
X59896102Y-122956774D01*
X59707744Y-123034795D01*
X59538226Y-123148063D01*
X59394063Y-123292226D01*
X59280795Y-123461744D01*
X59202774Y-123650102D01*
X59163000Y-123850061D01*
X26568000Y-123850061D01*
X26568000Y-120952219D01*
X26668359Y-121162920D01*
X26842412Y-121396269D01*
X27058645Y-121591178D01*
X27308748Y-121740157D01*
X27583109Y-121837481D01*
X27813000Y-121716814D01*
X27813000Y-120523000D01*
X28067000Y-120523000D01*
X28067000Y-121716814D01*
X28296891Y-121837481D01*
X28571252Y-121740157D01*
X28821355Y-121591178D01*
X29037588Y-121396269D01*
X29101889Y-121310061D01*
X59163000Y-121310061D01*
X59163000Y-121513939D01*
X59202774Y-121713898D01*
X59280795Y-121902256D01*
X59394063Y-122071774D01*
X59538226Y-122215937D01*
X59707744Y-122329205D01*
X59896102Y-122407226D01*
X60096061Y-122447000D01*
X60299939Y-122447000D01*
X60499898Y-122407226D01*
X60688256Y-122329205D01*
X60857774Y-122215937D01*
X61001937Y-122071774D01*
X61115205Y-121902256D01*
X61193226Y-121713898D01*
X61233000Y-121513939D01*
X61233000Y-121310061D01*
X61193226Y-121110102D01*
X61115205Y-120921744D01*
X61001937Y-120752226D01*
X60857774Y-120608063D01*
X60688256Y-120494795D01*
X60499898Y-120416774D01*
X60299939Y-120377000D01*
X60096061Y-120377000D01*
X59896102Y-120416774D01*
X59707744Y-120494795D01*
X59538226Y-120608063D01*
X59394063Y-120752226D01*
X59280795Y-120921744D01*
X59202774Y-121110102D01*
X59163000Y-121310061D01*
X29101889Y-121310061D01*
X29211641Y-121162920D01*
X29336825Y-120900099D01*
X29381476Y-120752890D01*
X29260155Y-120523000D01*
X28067000Y-120523000D01*
X27813000Y-120523000D01*
X27793000Y-120523000D01*
X27793000Y-120269000D01*
X27813000Y-120269000D01*
X27813000Y-120249000D01*
X28067000Y-120249000D01*
X28067000Y-120269000D01*
X29260155Y-120269000D01*
X29380974Y-120040061D01*
X46209000Y-120040061D01*
X46209000Y-120243939D01*
X46248774Y-120443898D01*
X46326795Y-120632256D01*
X46440063Y-120801774D01*
X46584226Y-120945937D01*
X46753744Y-121059205D01*
X46942102Y-121137226D01*
X47142061Y-121177000D01*
X47345939Y-121177000D01*
X47545898Y-121137226D01*
X47734256Y-121059205D01*
X47903774Y-120945937D01*
X48047937Y-120801774D01*
X48161205Y-120632256D01*
X48239226Y-120443898D01*
X48279000Y-120243939D01*
X48279000Y-120040061D01*
X48239226Y-119840102D01*
X48161205Y-119651744D01*
X48081236Y-119532061D01*
X60433000Y-119532061D01*
X60433000Y-119735939D01*
X60472774Y-119935898D01*
X60550795Y-120124256D01*
X60664063Y-120293774D01*
X60808226Y-120437937D01*
X60977744Y-120551205D01*
X61166102Y-120629226D01*
X61366061Y-120669000D01*
X61569939Y-120669000D01*
X61769898Y-120629226D01*
X61829505Y-120604536D01*
X61824226Y-120608063D01*
X61680063Y-120752226D01*
X61566795Y-120921744D01*
X61488774Y-121110102D01*
X61449000Y-121310061D01*
X61449000Y-121513939D01*
X61488774Y-121713898D01*
X61566795Y-121902256D01*
X61680063Y-122071774D01*
X61824226Y-122215937D01*
X61993744Y-122329205D01*
X62182102Y-122407226D01*
X62286541Y-122428000D01*
X62182102Y-122448774D01*
X61993744Y-122526795D01*
X61824226Y-122640063D01*
X61680063Y-122784226D01*
X61566795Y-122953744D01*
X61488774Y-123142102D01*
X61449000Y-123342061D01*
X61449000Y-123545939D01*
X61488774Y-123745898D01*
X61566795Y-123934256D01*
X61680063Y-124103774D01*
X61824226Y-124247937D01*
X61993744Y-124361205D01*
X62182102Y-124439226D01*
X62382061Y-124479000D01*
X62585939Y-124479000D01*
X62785898Y-124439226D01*
X62974256Y-124361205D01*
X63143774Y-124247937D01*
X63287937Y-124103774D01*
X63401205Y-123934256D01*
X63479226Y-123745898D01*
X63519000Y-123545939D01*
X63519000Y-123342061D01*
X63479226Y-123142102D01*
X63401205Y-122953744D01*
X63287937Y-122784226D01*
X63143774Y-122640063D01*
X62974256Y-122526795D01*
X62785898Y-122448774D01*
X62681459Y-122428000D01*
X62785898Y-122407226D01*
X62974256Y-122329205D01*
X63143774Y-122215937D01*
X63287937Y-122071774D01*
X63401205Y-121902256D01*
X63479226Y-121713898D01*
X63494720Y-121636000D01*
X79849928Y-121636000D01*
X79849928Y-124236000D01*
X79862188Y-124360482D01*
X79898498Y-124480180D01*
X79957463Y-124590494D01*
X80036815Y-124687185D01*
X80133506Y-124766537D01*
X80243820Y-124825502D01*
X80363518Y-124861812D01*
X80488000Y-124874072D01*
X83088000Y-124874072D01*
X83212482Y-124861812D01*
X83332180Y-124825502D01*
X83442494Y-124766537D01*
X83539185Y-124687185D01*
X83618537Y-124590494D01*
X83677502Y-124480180D01*
X83713812Y-124360482D01*
X83726072Y-124236000D01*
X83726072Y-121636000D01*
X83713812Y-121511518D01*
X83677502Y-121391820D01*
X83618537Y-121281506D01*
X83539185Y-121184815D01*
X83442494Y-121105463D01*
X83332180Y-121046498D01*
X83212482Y-121010188D01*
X83088000Y-120997928D01*
X80488000Y-120997928D01*
X80363518Y-121010188D01*
X80243820Y-121046498D01*
X80133506Y-121105463D01*
X80036815Y-121184815D01*
X79957463Y-121281506D01*
X79898498Y-121391820D01*
X79862188Y-121511518D01*
X79849928Y-121636000D01*
X63494720Y-121636000D01*
X63519000Y-121513939D01*
X63519000Y-121310061D01*
X63479226Y-121110102D01*
X63401205Y-120921744D01*
X63287937Y-120752226D01*
X63143774Y-120608063D01*
X62974256Y-120494795D01*
X62785898Y-120416774D01*
X62585939Y-120377000D01*
X62382061Y-120377000D01*
X62182102Y-120416774D01*
X62122495Y-120441464D01*
X62127774Y-120437937D01*
X62271937Y-120293774D01*
X62385205Y-120124256D01*
X62463226Y-119935898D01*
X62503000Y-119735939D01*
X62503000Y-119532061D01*
X62463226Y-119332102D01*
X62440842Y-119278061D01*
X64243000Y-119278061D01*
X64243000Y-119481939D01*
X64282774Y-119681898D01*
X64360795Y-119870256D01*
X64474063Y-120039774D01*
X64618226Y-120183937D01*
X64787744Y-120297205D01*
X64976102Y-120375226D01*
X65176061Y-120415000D01*
X65379939Y-120415000D01*
X65579898Y-120375226D01*
X65768256Y-120297205D01*
X65937774Y-120183937D01*
X66040000Y-120081711D01*
X66142226Y-120183937D01*
X66311744Y-120297205D01*
X66500102Y-120375226D01*
X66700061Y-120415000D01*
X66903939Y-120415000D01*
X67103898Y-120375226D01*
X67292256Y-120297205D01*
X67461774Y-120183937D01*
X67605937Y-120039774D01*
X67719205Y-119870256D01*
X67797226Y-119681898D01*
X67837000Y-119481939D01*
X67837000Y-119285224D01*
X80618381Y-119285224D01*
X80750317Y-119580312D01*
X81091045Y-119751159D01*
X81458557Y-119852250D01*
X81838729Y-119879701D01*
X82216951Y-119832457D01*
X82578690Y-119712333D01*
X82825683Y-119580312D01*
X82957619Y-119285224D01*
X81788000Y-118115605D01*
X80618381Y-119285224D01*
X67837000Y-119285224D01*
X67837000Y-119278061D01*
X67797226Y-119078102D01*
X67719205Y-118889744D01*
X67605937Y-118720226D01*
X67461774Y-118576063D01*
X67292256Y-118462795D01*
X67103898Y-118384774D01*
X66903939Y-118345000D01*
X66700061Y-118345000D01*
X66500102Y-118384774D01*
X66311744Y-118462795D01*
X66142226Y-118576063D01*
X66040000Y-118678289D01*
X65937774Y-118576063D01*
X65768256Y-118462795D01*
X65579898Y-118384774D01*
X65379939Y-118345000D01*
X65176061Y-118345000D01*
X64976102Y-118384774D01*
X64787744Y-118462795D01*
X64618226Y-118576063D01*
X64474063Y-118720226D01*
X64360795Y-118889744D01*
X64282774Y-119078102D01*
X64243000Y-119278061D01*
X62440842Y-119278061D01*
X62385205Y-119143744D01*
X62271937Y-118974226D01*
X62127774Y-118830063D01*
X61958256Y-118716795D01*
X61769898Y-118638774D01*
X61569939Y-118599000D01*
X61366061Y-118599000D01*
X61166102Y-118638774D01*
X60977744Y-118716795D01*
X60808226Y-118830063D01*
X60664063Y-118974226D01*
X60550795Y-119143744D01*
X60472774Y-119332102D01*
X60433000Y-119532061D01*
X48081236Y-119532061D01*
X48047937Y-119482226D01*
X47903774Y-119338063D01*
X47734256Y-119224795D01*
X47545898Y-119146774D01*
X47345939Y-119107000D01*
X47142061Y-119107000D01*
X46942102Y-119146774D01*
X46753744Y-119224795D01*
X46584226Y-119338063D01*
X46440063Y-119482226D01*
X46326795Y-119651744D01*
X46248774Y-119840102D01*
X46209000Y-120040061D01*
X29380974Y-120040061D01*
X29381476Y-120039110D01*
X29336825Y-119891901D01*
X29211641Y-119629080D01*
X29037588Y-119395731D01*
X28821355Y-119200822D01*
X28704466Y-119131195D01*
X28886632Y-119009475D01*
X29093475Y-118802632D01*
X29255990Y-118559411D01*
X29367932Y-118289158D01*
X29425000Y-118002260D01*
X29425000Y-117986729D01*
X79844299Y-117986729D01*
X79891543Y-118364951D01*
X80011667Y-118726690D01*
X80143688Y-118973683D01*
X80438776Y-119105619D01*
X81608395Y-117936000D01*
X81967605Y-117936000D01*
X83137224Y-119105619D01*
X83432312Y-118973683D01*
X83603159Y-118632955D01*
X83704250Y-118265443D01*
X83731701Y-117885271D01*
X83684457Y-117507049D01*
X83564333Y-117145310D01*
X83432312Y-116898317D01*
X83137224Y-116766381D01*
X81967605Y-117936000D01*
X81608395Y-117936000D01*
X80438776Y-116766381D01*
X80143688Y-116898317D01*
X79972841Y-117239045D01*
X79871750Y-117606557D01*
X79844299Y-117986729D01*
X29425000Y-117986729D01*
X29425000Y-117709740D01*
X29367932Y-117422842D01*
X29255990Y-117152589D01*
X29093475Y-116909368D01*
X28922168Y-116738061D01*
X54337000Y-116738061D01*
X54337000Y-116941939D01*
X54376774Y-117141898D01*
X54454795Y-117330256D01*
X54568063Y-117499774D01*
X54712226Y-117643937D01*
X54881744Y-117757205D01*
X55070102Y-117835226D01*
X55270061Y-117875000D01*
X55473939Y-117875000D01*
X55673898Y-117835226D01*
X55862256Y-117757205D01*
X56031774Y-117643937D01*
X56175937Y-117499774D01*
X56289205Y-117330256D01*
X56367226Y-117141898D01*
X56407000Y-116941939D01*
X56407000Y-116738061D01*
X56367226Y-116538102D01*
X56289205Y-116349744D01*
X56209236Y-116230061D01*
X64243000Y-116230061D01*
X64243000Y-116433939D01*
X64282774Y-116633898D01*
X64360795Y-116822256D01*
X64474063Y-116991774D01*
X64618226Y-117135937D01*
X64787744Y-117249205D01*
X64976102Y-117327226D01*
X65176061Y-117367000D01*
X65379939Y-117367000D01*
X65579898Y-117327226D01*
X65768256Y-117249205D01*
X65937774Y-117135937D01*
X66040000Y-117033711D01*
X66142226Y-117135937D01*
X66311744Y-117249205D01*
X66500102Y-117327226D01*
X66700061Y-117367000D01*
X66903939Y-117367000D01*
X67103898Y-117327226D01*
X67292256Y-117249205D01*
X67461774Y-117135937D01*
X67605937Y-116991774D01*
X67719205Y-116822256D01*
X67797226Y-116633898D01*
X67806599Y-116586776D01*
X80618381Y-116586776D01*
X81788000Y-117756395D01*
X82957619Y-116586776D01*
X82825683Y-116291688D01*
X82484955Y-116120841D01*
X82117443Y-116019750D01*
X81737271Y-115992299D01*
X81359049Y-116039543D01*
X80997310Y-116159667D01*
X80750317Y-116291688D01*
X80618381Y-116586776D01*
X67806599Y-116586776D01*
X67837000Y-116433939D01*
X67837000Y-116230061D01*
X67797226Y-116030102D01*
X67719205Y-115841744D01*
X67605937Y-115672226D01*
X67461774Y-115528063D01*
X67292256Y-115414795D01*
X67103898Y-115336774D01*
X66903939Y-115297000D01*
X66700061Y-115297000D01*
X66500102Y-115336774D01*
X66311744Y-115414795D01*
X66142226Y-115528063D01*
X66040000Y-115630289D01*
X65937774Y-115528063D01*
X65768256Y-115414795D01*
X65579898Y-115336774D01*
X65379939Y-115297000D01*
X65176061Y-115297000D01*
X64976102Y-115336774D01*
X64787744Y-115414795D01*
X64618226Y-115528063D01*
X64474063Y-115672226D01*
X64360795Y-115841744D01*
X64282774Y-116030102D01*
X64243000Y-116230061D01*
X56209236Y-116230061D01*
X56175937Y-116180226D01*
X56031774Y-116036063D01*
X55862256Y-115922795D01*
X55673898Y-115844774D01*
X55473939Y-115805000D01*
X55270061Y-115805000D01*
X55070102Y-115844774D01*
X54881744Y-115922795D01*
X54712226Y-116036063D01*
X54568063Y-116180226D01*
X54454795Y-116349744D01*
X54376774Y-116538102D01*
X54337000Y-116738061D01*
X28922168Y-116738061D01*
X28886632Y-116702525D01*
X28712240Y-116586000D01*
X28886632Y-116469475D01*
X29093475Y-116262632D01*
X29255990Y-116019411D01*
X29367932Y-115749158D01*
X29425000Y-115462260D01*
X29425000Y-115169740D01*
X29367932Y-114882842D01*
X29255990Y-114612589D01*
X29093475Y-114369368D01*
X28961620Y-114237513D01*
X29034180Y-114215502D01*
X29066809Y-114198061D01*
X37319000Y-114198061D01*
X37319000Y-114401939D01*
X37358774Y-114601898D01*
X37436795Y-114790256D01*
X37550063Y-114959774D01*
X37694226Y-115103937D01*
X37863744Y-115217205D01*
X38052102Y-115295226D01*
X38252061Y-115335000D01*
X38455939Y-115335000D01*
X38655898Y-115295226D01*
X38844256Y-115217205D01*
X39013774Y-115103937D01*
X39157937Y-114959774D01*
X39271205Y-114790256D01*
X39349226Y-114601898D01*
X39360619Y-114544619D01*
X39417898Y-114533226D01*
X39606256Y-114455205D01*
X39775774Y-114341937D01*
X39919650Y-114198061D01*
X70085000Y-114198061D01*
X70085000Y-114401939D01*
X70124774Y-114601898D01*
X70202795Y-114790256D01*
X70316063Y-114959774D01*
X70460226Y-115103937D01*
X70629744Y-115217205D01*
X70818102Y-115295226D01*
X71018061Y-115335000D01*
X71221939Y-115335000D01*
X71421898Y-115295226D01*
X71610256Y-115217205D01*
X71779774Y-115103937D01*
X71923937Y-114959774D01*
X72037205Y-114790256D01*
X72115226Y-114601898D01*
X72155000Y-114401939D01*
X72155000Y-114198061D01*
X72115226Y-113998102D01*
X72037205Y-113809744D01*
X71923937Y-113640226D01*
X71779774Y-113496063D01*
X71610256Y-113382795D01*
X71421898Y-113304774D01*
X71221939Y-113265000D01*
X71018061Y-113265000D01*
X70818102Y-113304774D01*
X70629744Y-113382795D01*
X70460226Y-113496063D01*
X70316063Y-113640226D01*
X70202795Y-113809744D01*
X70124774Y-113998102D01*
X70085000Y-114198061D01*
X39919650Y-114198061D01*
X39919937Y-114197774D01*
X40033205Y-114028256D01*
X40111226Y-113839898D01*
X40151000Y-113639939D01*
X40151000Y-113436061D01*
X40111226Y-113236102D01*
X40068474Y-113132890D01*
X83902524Y-113132890D01*
X83947175Y-113280099D01*
X84072359Y-113542920D01*
X84246412Y-113776269D01*
X84462645Y-113971178D01*
X84712748Y-114120157D01*
X84987109Y-114217481D01*
X85217000Y-114096814D01*
X85217000Y-112903000D01*
X85471000Y-112903000D01*
X85471000Y-114096814D01*
X85700891Y-114217481D01*
X85975252Y-114120157D01*
X86225355Y-113971178D01*
X86441588Y-113776269D01*
X86615641Y-113542920D01*
X86740825Y-113280099D01*
X86785476Y-113132890D01*
X86664155Y-112903000D01*
X85471000Y-112903000D01*
X85217000Y-112903000D01*
X84023845Y-112903000D01*
X83902524Y-113132890D01*
X40068474Y-113132890D01*
X40033205Y-113047744D01*
X39919937Y-112878226D01*
X39775774Y-112734063D01*
X39606256Y-112620795D01*
X39417898Y-112542774D01*
X39217939Y-112503000D01*
X39014061Y-112503000D01*
X38814102Y-112542774D01*
X38625744Y-112620795D01*
X38456226Y-112734063D01*
X38312063Y-112878226D01*
X38198795Y-113047744D01*
X38120774Y-113236102D01*
X38109381Y-113293381D01*
X38052102Y-113304774D01*
X37863744Y-113382795D01*
X37694226Y-113496063D01*
X37550063Y-113640226D01*
X37436795Y-113809744D01*
X37358774Y-113998102D01*
X37319000Y-114198061D01*
X29066809Y-114198061D01*
X29144494Y-114156537D01*
X29241185Y-114077185D01*
X29320537Y-113980494D01*
X29379502Y-113870180D01*
X29415812Y-113750482D01*
X29428072Y-113626000D01*
X29428072Y-111926000D01*
X29415812Y-111801518D01*
X29379502Y-111681820D01*
X29320537Y-111571506D01*
X29241185Y-111474815D01*
X29144494Y-111395463D01*
X29034180Y-111336498D01*
X28914482Y-111300188D01*
X28790000Y-111287928D01*
X27090000Y-111287928D01*
X26965518Y-111300188D01*
X26845820Y-111336498D01*
X26735506Y-111395463D01*
X26638815Y-111474815D01*
X26568000Y-111561104D01*
X26568000Y-110134061D01*
X70085000Y-110134061D01*
X70085000Y-110337939D01*
X70124774Y-110537898D01*
X70202795Y-110726256D01*
X70316063Y-110895774D01*
X70460226Y-111039937D01*
X70629744Y-111153205D01*
X70818102Y-111231226D01*
X71018061Y-111271000D01*
X71221939Y-111271000D01*
X71421898Y-111231226D01*
X71610256Y-111153205D01*
X71779774Y-111039937D01*
X71923937Y-110895774D01*
X72037205Y-110726256D01*
X72115226Y-110537898D01*
X72155000Y-110337939D01*
X72155000Y-110134061D01*
X72115226Y-109934102D01*
X72037205Y-109745744D01*
X71923937Y-109576226D01*
X71779774Y-109432063D01*
X71610256Y-109318795D01*
X71421898Y-109240774D01*
X71221939Y-109201000D01*
X71018061Y-109201000D01*
X70818102Y-109240774D01*
X70629744Y-109318795D01*
X70460226Y-109432063D01*
X70316063Y-109576226D01*
X70202795Y-109745744D01*
X70124774Y-109934102D01*
X70085000Y-110134061D01*
X26568000Y-110134061D01*
X26568000Y-108102061D01*
X49257000Y-108102061D01*
X49257000Y-108305939D01*
X49296774Y-108505898D01*
X49374795Y-108694256D01*
X49488063Y-108863774D01*
X49632226Y-109007937D01*
X49801744Y-109121205D01*
X49990102Y-109199226D01*
X50190061Y-109239000D01*
X50393939Y-109239000D01*
X50593898Y-109199226D01*
X50782256Y-109121205D01*
X50951774Y-109007937D01*
X51095937Y-108863774D01*
X51209205Y-108694256D01*
X51287226Y-108505898D01*
X51327000Y-108305939D01*
X51327000Y-108102061D01*
X51287226Y-107902102D01*
X51209205Y-107713744D01*
X51095937Y-107544226D01*
X50951774Y-107400063D01*
X50782256Y-107286795D01*
X50593898Y-107208774D01*
X50393939Y-107169000D01*
X50190061Y-107169000D01*
X49990102Y-107208774D01*
X49801744Y-107286795D01*
X49632226Y-107400063D01*
X49488063Y-107544226D01*
X49374795Y-107713744D01*
X49296774Y-107902102D01*
X49257000Y-108102061D01*
X26568000Y-108102061D01*
X26568000Y-105562061D01*
X41891000Y-105562061D01*
X41891000Y-105765939D01*
X41930774Y-105965898D01*
X42008795Y-106154256D01*
X42122063Y-106323774D01*
X42266226Y-106467937D01*
X42435744Y-106581205D01*
X42624102Y-106659226D01*
X42824061Y-106699000D01*
X43027939Y-106699000D01*
X43227898Y-106659226D01*
X43416256Y-106581205D01*
X43420961Y-106578061D01*
X55353000Y-106578061D01*
X55353000Y-106781939D01*
X55392774Y-106981898D01*
X55470795Y-107170256D01*
X55584063Y-107339774D01*
X55728226Y-107483937D01*
X55897744Y-107597205D01*
X56086102Y-107675226D01*
X56286061Y-107715000D01*
X56489939Y-107715000D01*
X56689898Y-107675226D01*
X56878256Y-107597205D01*
X57047774Y-107483937D01*
X57191937Y-107339774D01*
X57305205Y-107170256D01*
X57383226Y-106981898D01*
X57423000Y-106781939D01*
X57423000Y-106578061D01*
X57383226Y-106378102D01*
X57305205Y-106189744D01*
X57191937Y-106020226D01*
X57047774Y-105876063D01*
X56878256Y-105762795D01*
X56689898Y-105684774D01*
X56489939Y-105645000D01*
X56286061Y-105645000D01*
X56086102Y-105684774D01*
X55897744Y-105762795D01*
X55728226Y-105876063D01*
X55584063Y-106020226D01*
X55470795Y-106189744D01*
X55392774Y-106378102D01*
X55353000Y-106578061D01*
X43420961Y-106578061D01*
X43585774Y-106467937D01*
X43729937Y-106323774D01*
X43843205Y-106154256D01*
X43921226Y-105965898D01*
X43961000Y-105765939D01*
X43961000Y-105562061D01*
X82785000Y-105562061D01*
X82785000Y-105765939D01*
X82824774Y-105965898D01*
X82902795Y-106154256D01*
X83016063Y-106323774D01*
X83160226Y-106467937D01*
X83329744Y-106581205D01*
X83518102Y-106659226D01*
X83718061Y-106699000D01*
X83921939Y-106699000D01*
X84121898Y-106659226D01*
X84264783Y-106600041D01*
X84322380Y-106617513D01*
X84190525Y-106749368D01*
X84028010Y-106992589D01*
X83916068Y-107262842D01*
X83859000Y-107549740D01*
X83859000Y-107842260D01*
X83916068Y-108129158D01*
X84028010Y-108399411D01*
X84190525Y-108642632D01*
X84397368Y-108849475D01*
X84571760Y-108966000D01*
X84397368Y-109082525D01*
X84190525Y-109289368D01*
X84028010Y-109532589D01*
X83916068Y-109802842D01*
X83859000Y-110089740D01*
X83859000Y-110382260D01*
X83916068Y-110669158D01*
X84028010Y-110939411D01*
X84190525Y-111182632D01*
X84397368Y-111389475D01*
X84579534Y-111511195D01*
X84462645Y-111580822D01*
X84246412Y-111775731D01*
X84072359Y-112009080D01*
X83947175Y-112271901D01*
X83902524Y-112419110D01*
X84023845Y-112649000D01*
X85217000Y-112649000D01*
X85217000Y-112629000D01*
X85471000Y-112629000D01*
X85471000Y-112649000D01*
X86664155Y-112649000D01*
X86785476Y-112419110D01*
X86740825Y-112271901D01*
X86615641Y-112009080D01*
X86441588Y-111775731D01*
X86225355Y-111580822D01*
X86108466Y-111511195D01*
X86290632Y-111389475D01*
X86497475Y-111182632D01*
X86659990Y-110939411D01*
X86771932Y-110669158D01*
X86829000Y-110382260D01*
X86829000Y-110089740D01*
X86771932Y-109802842D01*
X86659990Y-109532589D01*
X86497475Y-109289368D01*
X86290632Y-109082525D01*
X86116240Y-108966000D01*
X86290632Y-108849475D01*
X86497475Y-108642632D01*
X86659990Y-108399411D01*
X86771932Y-108129158D01*
X86829000Y-107842260D01*
X86829000Y-107549740D01*
X86771932Y-107262842D01*
X86659990Y-106992589D01*
X86497475Y-106749368D01*
X86365620Y-106617513D01*
X86438180Y-106595502D01*
X86548494Y-106536537D01*
X86645185Y-106457185D01*
X86724537Y-106360494D01*
X86783502Y-106250180D01*
X86819812Y-106130482D01*
X86832072Y-106006000D01*
X86832072Y-104306000D01*
X86819812Y-104181518D01*
X86783502Y-104061820D01*
X86724537Y-103951506D01*
X86645185Y-103854815D01*
X86548494Y-103775463D01*
X86438180Y-103716498D01*
X86318482Y-103680188D01*
X86194000Y-103667928D01*
X84494000Y-103667928D01*
X84369518Y-103680188D01*
X84249820Y-103716498D01*
X84139506Y-103775463D01*
X84042815Y-103854815D01*
X83963463Y-103951506D01*
X83904498Y-104061820D01*
X83868188Y-104181518D01*
X83855928Y-104306000D01*
X83855928Y-104629000D01*
X83718061Y-104629000D01*
X83518102Y-104668774D01*
X83329744Y-104746795D01*
X83160226Y-104860063D01*
X83016063Y-105004226D01*
X82902795Y-105173744D01*
X82824774Y-105362102D01*
X82785000Y-105562061D01*
X43961000Y-105562061D01*
X43921226Y-105362102D01*
X43843205Y-105173744D01*
X43729937Y-105004226D01*
X43585774Y-104860063D01*
X43416256Y-104746795D01*
X43227898Y-104668774D01*
X43027939Y-104629000D01*
X42824061Y-104629000D01*
X42624102Y-104668774D01*
X42435744Y-104746795D01*
X42266226Y-104860063D01*
X42122063Y-105004226D01*
X42008795Y-105173744D01*
X41930774Y-105362102D01*
X41891000Y-105562061D01*
X26568000Y-105562061D01*
X26568000Y-102485137D01*
X27033000Y-102485137D01*
X27033000Y-102698863D01*
X27074696Y-102908483D01*
X27156485Y-103105940D01*
X27275225Y-103283647D01*
X27426353Y-103434775D01*
X27604060Y-103553515D01*
X27801517Y-103635304D01*
X28011137Y-103677000D01*
X28224863Y-103677000D01*
X28434483Y-103635304D01*
X28631940Y-103553515D01*
X28809647Y-103434775D01*
X28960775Y-103283647D01*
X28965843Y-103276061D01*
X44177000Y-103276061D01*
X44177000Y-103479939D01*
X44216774Y-103679898D01*
X44294795Y-103868256D01*
X44408063Y-104037774D01*
X44552226Y-104181937D01*
X44721744Y-104295205D01*
X44910102Y-104373226D01*
X45110061Y-104413000D01*
X45313939Y-104413000D01*
X45513898Y-104373226D01*
X45702256Y-104295205D01*
X45871774Y-104181937D01*
X46015937Y-104037774D01*
X46129205Y-103868256D01*
X46207226Y-103679898D01*
X46247000Y-103479939D01*
X46247000Y-103276061D01*
X46207226Y-103076102D01*
X46129205Y-102887744D01*
X46015937Y-102718226D01*
X45871774Y-102574063D01*
X45702256Y-102460795D01*
X45513898Y-102382774D01*
X45313939Y-102343000D01*
X45110061Y-102343000D01*
X44910102Y-102382774D01*
X44721744Y-102460795D01*
X44552226Y-102574063D01*
X44408063Y-102718226D01*
X44294795Y-102887744D01*
X44216774Y-103076102D01*
X44177000Y-103276061D01*
X28965843Y-103276061D01*
X29079515Y-103105940D01*
X29161304Y-102908483D01*
X29203000Y-102698863D01*
X29203000Y-102485137D01*
X29161304Y-102275517D01*
X29079515Y-102078060D01*
X28974839Y-101921400D01*
X78804420Y-101921400D01*
X78830678Y-102188007D01*
X78908445Y-102444368D01*
X79034730Y-102680631D01*
X79204682Y-102887718D01*
X79411769Y-103057670D01*
X79648032Y-103183955D01*
X79904393Y-103261722D01*
X80104191Y-103281400D01*
X80787809Y-103281400D01*
X80987607Y-103261722D01*
X81243968Y-103183955D01*
X81480231Y-103057670D01*
X81687318Y-102887718D01*
X81857270Y-102680631D01*
X81983555Y-102444368D01*
X82061322Y-102188007D01*
X82072806Y-102071400D01*
X82705146Y-102071400D01*
X82728508Y-102308601D01*
X82797697Y-102536687D01*
X82910054Y-102746892D01*
X83061261Y-102931139D01*
X83245508Y-103082346D01*
X83455713Y-103194703D01*
X83683799Y-103263892D01*
X83861563Y-103281400D01*
X84630437Y-103281400D01*
X84808201Y-103263892D01*
X85036287Y-103194703D01*
X85246492Y-103082346D01*
X85430739Y-102931139D01*
X85581946Y-102746892D01*
X85694303Y-102536687D01*
X85763492Y-102308601D01*
X85786854Y-102071400D01*
X85763492Y-101834199D01*
X85694303Y-101606113D01*
X85581946Y-101395908D01*
X85430739Y-101211661D01*
X85246492Y-101060454D01*
X85036287Y-100948097D01*
X84808201Y-100878908D01*
X84630437Y-100861400D01*
X83861563Y-100861400D01*
X83683799Y-100878908D01*
X83455713Y-100948097D01*
X83245508Y-101060454D01*
X83061261Y-101211661D01*
X82910054Y-101395908D01*
X82797697Y-101606113D01*
X82728508Y-101834199D01*
X82705146Y-102071400D01*
X82072806Y-102071400D01*
X82087580Y-101921400D01*
X82061322Y-101654793D01*
X82038282Y-101578842D01*
X82155774Y-101500337D01*
X82299937Y-101356174D01*
X82413205Y-101186656D01*
X82491226Y-100998298D01*
X82531000Y-100798339D01*
X82531000Y-100594461D01*
X82491226Y-100394502D01*
X82413205Y-100206144D01*
X82299937Y-100036626D01*
X82155774Y-99892463D01*
X81986256Y-99779195D01*
X81797898Y-99701174D01*
X81597939Y-99661400D01*
X81394061Y-99661400D01*
X81194102Y-99701174D01*
X81005744Y-99779195D01*
X80836226Y-99892463D01*
X80692063Y-100036626D01*
X80578795Y-100206144D01*
X80500774Y-100394502D01*
X80467576Y-100561400D01*
X80104191Y-100561400D01*
X79904393Y-100581078D01*
X79648032Y-100658845D01*
X79411769Y-100785130D01*
X79204682Y-100955082D01*
X79034730Y-101162169D01*
X78908445Y-101398432D01*
X78830678Y-101654793D01*
X78804420Y-101921400D01*
X28974839Y-101921400D01*
X28960775Y-101900353D01*
X28809647Y-101749225D01*
X28631940Y-101630485D01*
X28434483Y-101548696D01*
X28224863Y-101507000D01*
X28011137Y-101507000D01*
X27801517Y-101548696D01*
X27604060Y-101630485D01*
X27426353Y-101749225D01*
X27275225Y-101900353D01*
X27156485Y-102078060D01*
X27074696Y-102275517D01*
X27033000Y-102485137D01*
X26568000Y-102485137D01*
X26568000Y-99485137D01*
X27033000Y-99485137D01*
X27033000Y-99698863D01*
X27074696Y-99908483D01*
X27156485Y-100105940D01*
X27275225Y-100283647D01*
X27426353Y-100434775D01*
X27604060Y-100553515D01*
X27801517Y-100635304D01*
X28011137Y-100677000D01*
X28224863Y-100677000D01*
X28434483Y-100635304D01*
X28631940Y-100553515D01*
X28809647Y-100434775D01*
X28960775Y-100283647D01*
X29079515Y-100105940D01*
X29161304Y-99908483D01*
X29163377Y-99898061D01*
X45465000Y-99898061D01*
X45465000Y-100101939D01*
X45504774Y-100301898D01*
X45582795Y-100490256D01*
X45696063Y-100659774D01*
X45840226Y-100803937D01*
X46009744Y-100917205D01*
X46198102Y-100995226D01*
X46398061Y-101035000D01*
X46601939Y-101035000D01*
X46801898Y-100995226D01*
X46990256Y-100917205D01*
X47159774Y-100803937D01*
X47303937Y-100659774D01*
X47417205Y-100490256D01*
X47495226Y-100301898D01*
X47535000Y-100101939D01*
X47535000Y-99898061D01*
X52565000Y-99898061D01*
X52565000Y-100101939D01*
X52604774Y-100301898D01*
X52682795Y-100490256D01*
X52796063Y-100659774D01*
X52940226Y-100803937D01*
X53109744Y-100917205D01*
X53298102Y-100995226D01*
X53498061Y-101035000D01*
X53701939Y-101035000D01*
X53901898Y-100995226D01*
X54090256Y-100917205D01*
X54259774Y-100803937D01*
X54403937Y-100659774D01*
X54517205Y-100490256D01*
X54595226Y-100301898D01*
X54635000Y-100101939D01*
X54635000Y-99898061D01*
X54595226Y-99698102D01*
X54542258Y-99570228D01*
X54657898Y-99547226D01*
X54846256Y-99469205D01*
X55015774Y-99355937D01*
X55159937Y-99211774D01*
X55273205Y-99042256D01*
X55351226Y-98853898D01*
X55391000Y-98653939D01*
X55391000Y-98450061D01*
X55351226Y-98250102D01*
X55273205Y-98061744D01*
X55159937Y-97892226D01*
X55015774Y-97748063D01*
X54846256Y-97634795D01*
X54657898Y-97556774D01*
X54457939Y-97517000D01*
X54254061Y-97517000D01*
X54054102Y-97556774D01*
X53865744Y-97634795D01*
X53696226Y-97748063D01*
X53552063Y-97892226D01*
X53438795Y-98061744D01*
X53360774Y-98250102D01*
X53321000Y-98450061D01*
X53321000Y-98653939D01*
X53360774Y-98853898D01*
X53413742Y-98981772D01*
X53298102Y-99004774D01*
X53109744Y-99082795D01*
X52940226Y-99196063D01*
X52796063Y-99340226D01*
X52682795Y-99509744D01*
X52604774Y-99698102D01*
X52565000Y-99898061D01*
X47535000Y-99898061D01*
X47495226Y-99698102D01*
X47417205Y-99509744D01*
X47303937Y-99340226D01*
X47159774Y-99196063D01*
X46990256Y-99082795D01*
X46801898Y-99004774D01*
X46601939Y-98965000D01*
X46398061Y-98965000D01*
X46198102Y-99004774D01*
X46009744Y-99082795D01*
X45840226Y-99196063D01*
X45696063Y-99340226D01*
X45582795Y-99509744D01*
X45504774Y-99698102D01*
X45465000Y-99898061D01*
X29163377Y-99898061D01*
X29203000Y-99698863D01*
X29203000Y-99485137D01*
X29161304Y-99275517D01*
X29079515Y-99078060D01*
X28960775Y-98900353D01*
X28809647Y-98749225D01*
X28733075Y-98698061D01*
X30165000Y-98698061D01*
X30165000Y-98901939D01*
X30204774Y-99101898D01*
X30282795Y-99290256D01*
X30396063Y-99459774D01*
X30540226Y-99603937D01*
X30709744Y-99717205D01*
X30898102Y-99795226D01*
X31098061Y-99835000D01*
X31301939Y-99835000D01*
X31501898Y-99795226D01*
X31690256Y-99717205D01*
X31859774Y-99603937D01*
X32003937Y-99459774D01*
X32117205Y-99290256D01*
X32195226Y-99101898D01*
X32235000Y-98901939D01*
X32235000Y-98698061D01*
X32195226Y-98498102D01*
X32117205Y-98309744D01*
X32003937Y-98140226D01*
X31859774Y-97996063D01*
X31690256Y-97882795D01*
X31501898Y-97804774D01*
X31301939Y-97765000D01*
X31098061Y-97765000D01*
X30898102Y-97804774D01*
X30709744Y-97882795D01*
X30540226Y-97996063D01*
X30396063Y-98140226D01*
X30282795Y-98309744D01*
X30204774Y-98498102D01*
X30165000Y-98698061D01*
X28733075Y-98698061D01*
X28631940Y-98630485D01*
X28434483Y-98548696D01*
X28224863Y-98507000D01*
X28011137Y-98507000D01*
X27801517Y-98548696D01*
X27604060Y-98630485D01*
X27426353Y-98749225D01*
X27275225Y-98900353D01*
X27156485Y-99078060D01*
X27074696Y-99275517D01*
X27033000Y-99485137D01*
X26568000Y-99485137D01*
X26568000Y-95402061D01*
X42399000Y-95402061D01*
X42399000Y-95605939D01*
X42438774Y-95805898D01*
X42516795Y-95994256D01*
X42630063Y-96163774D01*
X42774226Y-96307937D01*
X42943744Y-96421205D01*
X43132102Y-96499226D01*
X43332061Y-96539000D01*
X43535939Y-96539000D01*
X43735898Y-96499226D01*
X43924256Y-96421205D01*
X44093774Y-96307937D01*
X44237937Y-96163774D01*
X44351205Y-95994256D01*
X44429226Y-95805898D01*
X44469000Y-95605939D01*
X44469000Y-95402061D01*
X44429226Y-95202102D01*
X44351205Y-95013744D01*
X44237937Y-94844226D01*
X44093774Y-94700063D01*
X43924256Y-94586795D01*
X43735898Y-94508774D01*
X43548005Y-94471400D01*
X78804420Y-94471400D01*
X78830678Y-94738007D01*
X78908445Y-94994368D01*
X79034730Y-95230631D01*
X79204682Y-95437718D01*
X79411769Y-95607670D01*
X79648032Y-95733955D01*
X79904393Y-95811722D01*
X80104191Y-95831400D01*
X80467576Y-95831400D01*
X80500774Y-95998298D01*
X80578795Y-96186656D01*
X80692063Y-96356174D01*
X80836226Y-96500337D01*
X81005744Y-96613605D01*
X81194102Y-96691626D01*
X81394061Y-96731400D01*
X81597939Y-96731400D01*
X81797898Y-96691626D01*
X81986256Y-96613605D01*
X82155774Y-96500337D01*
X82299937Y-96356174D01*
X82413205Y-96186656D01*
X82491226Y-95998298D01*
X82531000Y-95798339D01*
X82531000Y-95594461D01*
X82491226Y-95394502D01*
X82413205Y-95206144D01*
X82299937Y-95036626D01*
X82155774Y-94892463D01*
X82038282Y-94813958D01*
X82061322Y-94738007D01*
X82087580Y-94471400D01*
X82072807Y-94321400D01*
X82705146Y-94321400D01*
X82728508Y-94558601D01*
X82797697Y-94786687D01*
X82910054Y-94996892D01*
X83061261Y-95181139D01*
X83245508Y-95332346D01*
X83455713Y-95444703D01*
X83683799Y-95513892D01*
X83861563Y-95531400D01*
X84630437Y-95531400D01*
X84808201Y-95513892D01*
X85036287Y-95444703D01*
X85246492Y-95332346D01*
X85430739Y-95181139D01*
X85581946Y-94996892D01*
X85694303Y-94786687D01*
X85763492Y-94558601D01*
X85786854Y-94321400D01*
X85763492Y-94084199D01*
X85694303Y-93856113D01*
X85581946Y-93645908D01*
X85430739Y-93461661D01*
X85246492Y-93310454D01*
X85036287Y-93198097D01*
X84808201Y-93128908D01*
X84630437Y-93111400D01*
X83861563Y-93111400D01*
X83683799Y-93128908D01*
X83455713Y-93198097D01*
X83245508Y-93310454D01*
X83061261Y-93461661D01*
X82910054Y-93645908D01*
X82797697Y-93856113D01*
X82728508Y-94084199D01*
X82705146Y-94321400D01*
X82072807Y-94321400D01*
X82061322Y-94204793D01*
X81983555Y-93948432D01*
X81857270Y-93712169D01*
X81687318Y-93505082D01*
X81480231Y-93335130D01*
X81243968Y-93208845D01*
X80987607Y-93131078D01*
X80787809Y-93111400D01*
X80104191Y-93111400D01*
X79904393Y-93131078D01*
X79648032Y-93208845D01*
X79411769Y-93335130D01*
X79204682Y-93505082D01*
X79034730Y-93712169D01*
X78908445Y-93948432D01*
X78830678Y-94204793D01*
X78804420Y-94471400D01*
X43548005Y-94471400D01*
X43535939Y-94469000D01*
X43332061Y-94469000D01*
X43132102Y-94508774D01*
X42943744Y-94586795D01*
X42774226Y-94700063D01*
X42630063Y-94844226D01*
X42516795Y-95013744D01*
X42438774Y-95202102D01*
X42399000Y-95402061D01*
X26568000Y-95402061D01*
X26568000Y-91366818D01*
X28369787Y-91366818D01*
X28861946Y-91969149D01*
X29712933Y-92439063D01*
X30639243Y-92733929D01*
X31605281Y-92842414D01*
X32573921Y-92760351D01*
X33507938Y-92490893D01*
X34371440Y-92044394D01*
X34484054Y-91969149D01*
X34976213Y-91366818D01*
X78992787Y-91366818D01*
X79484946Y-91969149D01*
X80335933Y-92439063D01*
X81262243Y-92733929D01*
X82228281Y-92842414D01*
X83196921Y-92760351D01*
X84130938Y-92490893D01*
X84994440Y-92044394D01*
X85107054Y-91969149D01*
X85599213Y-91366818D01*
X82296000Y-88063605D01*
X78992787Y-91366818D01*
X34976213Y-91366818D01*
X31673000Y-88063605D01*
X28369787Y-91366818D01*
X26568000Y-91366818D01*
X26568000Y-87911952D01*
X26576117Y-87816281D01*
X26714586Y-87816281D01*
X26796649Y-88784921D01*
X27066107Y-89718938D01*
X27512606Y-90582440D01*
X27587851Y-90695054D01*
X28190182Y-91187213D01*
X31493395Y-87884000D01*
X31852605Y-87884000D01*
X35155818Y-91187213D01*
X35758149Y-90695054D01*
X36171284Y-89946890D01*
X36660048Y-89946890D01*
X36660048Y-90193110D01*
X36708083Y-90434598D01*
X36802307Y-90662074D01*
X36939099Y-90866798D01*
X37113202Y-91040901D01*
X37317926Y-91177693D01*
X37545402Y-91271917D01*
X37786890Y-91319952D01*
X38033110Y-91319952D01*
X38274598Y-91271917D01*
X38502074Y-91177693D01*
X38706798Y-91040901D01*
X38880901Y-90866798D01*
X39017693Y-90662074D01*
X39111917Y-90434598D01*
X39159952Y-90193110D01*
X39159952Y-89946890D01*
X39111917Y-89705402D01*
X39017693Y-89477926D01*
X38880901Y-89273202D01*
X38706798Y-89099099D01*
X38502074Y-88962307D01*
X38274598Y-88868083D01*
X38033110Y-88820048D01*
X37786890Y-88820048D01*
X37545402Y-88868083D01*
X37317926Y-88962307D01*
X37113202Y-89099099D01*
X36939099Y-89273202D01*
X36802307Y-89477926D01*
X36708083Y-89705402D01*
X36660048Y-89946890D01*
X36171284Y-89946890D01*
X36228063Y-89844067D01*
X36522929Y-88917757D01*
X36631414Y-87951719D01*
X36570249Y-87229740D01*
X62015000Y-87229740D01*
X62015000Y-87522260D01*
X62072068Y-87809158D01*
X62184010Y-88079411D01*
X62346525Y-88322632D01*
X62553368Y-88529475D01*
X62796589Y-88691990D01*
X63066842Y-88803932D01*
X63353740Y-88861000D01*
X63646260Y-88861000D01*
X63933158Y-88803932D01*
X64203411Y-88691990D01*
X64446632Y-88529475D01*
X64653475Y-88322632D01*
X64770000Y-88148240D01*
X64886525Y-88322632D01*
X65093368Y-88529475D01*
X65336589Y-88691990D01*
X65606842Y-88803932D01*
X65893740Y-88861000D01*
X66186260Y-88861000D01*
X66473158Y-88803932D01*
X66743411Y-88691990D01*
X66986632Y-88529475D01*
X67193475Y-88322632D01*
X67310000Y-88148240D01*
X67426525Y-88322632D01*
X67633368Y-88529475D01*
X67876589Y-88691990D01*
X68146842Y-88803932D01*
X68433740Y-88861000D01*
X68726260Y-88861000D01*
X69013158Y-88803932D01*
X69283411Y-88691990D01*
X69526632Y-88529475D01*
X69733475Y-88322632D01*
X69850000Y-88148240D01*
X69966525Y-88322632D01*
X70173368Y-88529475D01*
X70416589Y-88691990D01*
X70686842Y-88803932D01*
X70973740Y-88861000D01*
X71266260Y-88861000D01*
X71553158Y-88803932D01*
X71823411Y-88691990D01*
X72066632Y-88529475D01*
X72273475Y-88322632D01*
X72390000Y-88148240D01*
X72506525Y-88322632D01*
X72713368Y-88529475D01*
X72956589Y-88691990D01*
X73226842Y-88803932D01*
X73513740Y-88861000D01*
X73806260Y-88861000D01*
X74093158Y-88803932D01*
X74363411Y-88691990D01*
X74606632Y-88529475D01*
X74813475Y-88322632D01*
X74975990Y-88079411D01*
X75084981Y-87816281D01*
X77337586Y-87816281D01*
X77419649Y-88784921D01*
X77689107Y-89718938D01*
X78135606Y-90582440D01*
X78210851Y-90695054D01*
X78813182Y-91187213D01*
X82116395Y-87884000D01*
X78813182Y-84580787D01*
X78210851Y-85072946D01*
X77740937Y-85923933D01*
X77446071Y-86850243D01*
X77337586Y-87816281D01*
X75084981Y-87816281D01*
X75087932Y-87809158D01*
X75145000Y-87522260D01*
X75145000Y-87229740D01*
X75087932Y-86942842D01*
X74975990Y-86672589D01*
X74813475Y-86429368D01*
X74681620Y-86297513D01*
X74754180Y-86275502D01*
X74864494Y-86216537D01*
X74961185Y-86137185D01*
X75040537Y-86040494D01*
X75099502Y-85930180D01*
X75135812Y-85810482D01*
X75148072Y-85686000D01*
X75148072Y-83986000D01*
X75135812Y-83861518D01*
X75099502Y-83741820D01*
X75040537Y-83631506D01*
X74961185Y-83534815D01*
X74864494Y-83455463D01*
X74754180Y-83396498D01*
X74634482Y-83360188D01*
X74510000Y-83347928D01*
X72810000Y-83347928D01*
X72685518Y-83360188D01*
X72565820Y-83396498D01*
X72455506Y-83455463D01*
X72358815Y-83534815D01*
X72279463Y-83631506D01*
X72220498Y-83741820D01*
X72196034Y-83822466D01*
X72120269Y-83738412D01*
X71886920Y-83564359D01*
X71624099Y-83439175D01*
X71476890Y-83394524D01*
X71247000Y-83515845D01*
X71247000Y-84709000D01*
X71267000Y-84709000D01*
X71267000Y-84963000D01*
X71247000Y-84963000D01*
X71247000Y-84983000D01*
X70993000Y-84983000D01*
X70993000Y-84963000D01*
X68707000Y-84963000D01*
X68707000Y-84983000D01*
X68453000Y-84983000D01*
X68453000Y-84963000D01*
X68433000Y-84963000D01*
X68433000Y-84709000D01*
X68453000Y-84709000D01*
X68453000Y-83515845D01*
X68707000Y-83515845D01*
X68707000Y-84709000D01*
X70993000Y-84709000D01*
X70993000Y-83515845D01*
X70763110Y-83394524D01*
X70615901Y-83439175D01*
X70353080Y-83564359D01*
X70119731Y-83738412D01*
X69924822Y-83954645D01*
X69850000Y-84080255D01*
X69775178Y-83954645D01*
X69580269Y-83738412D01*
X69346920Y-83564359D01*
X69084099Y-83439175D01*
X68936890Y-83394524D01*
X68707000Y-83515845D01*
X68453000Y-83515845D01*
X68223110Y-83394524D01*
X68075901Y-83439175D01*
X67813080Y-83564359D01*
X67579731Y-83738412D01*
X67384822Y-83954645D01*
X67315195Y-84071534D01*
X67193475Y-83889368D01*
X66986632Y-83682525D01*
X66743411Y-83520010D01*
X66473158Y-83408068D01*
X66186260Y-83351000D01*
X65893740Y-83351000D01*
X65606842Y-83408068D01*
X65336589Y-83520010D01*
X65093368Y-83682525D01*
X64886525Y-83889368D01*
X64764805Y-84071534D01*
X64695178Y-83954645D01*
X64500269Y-83738412D01*
X64266920Y-83564359D01*
X64004099Y-83439175D01*
X63856890Y-83394524D01*
X63627000Y-83515845D01*
X63627000Y-84709000D01*
X63647000Y-84709000D01*
X63647000Y-84963000D01*
X63627000Y-84963000D01*
X63627000Y-84983000D01*
X63373000Y-84983000D01*
X63373000Y-84963000D01*
X62179186Y-84963000D01*
X62058519Y-85192891D01*
X62155843Y-85467252D01*
X62304822Y-85717355D01*
X62499731Y-85933588D01*
X62729406Y-86104900D01*
X62553368Y-86222525D01*
X62346525Y-86429368D01*
X62184010Y-86672589D01*
X62072068Y-86942842D01*
X62015000Y-87229740D01*
X36570249Y-87229740D01*
X36549351Y-86983079D01*
X36279893Y-86049062D01*
X35833394Y-85185560D01*
X35758149Y-85072946D01*
X35155818Y-84580787D01*
X31852605Y-87884000D01*
X31493395Y-87884000D01*
X28190182Y-84580787D01*
X27587851Y-85072946D01*
X27117937Y-85923933D01*
X26823071Y-86850243D01*
X26714586Y-87816281D01*
X26576117Y-87816281D01*
X26640791Y-87054084D01*
X26850036Y-86247897D01*
X27192124Y-85488491D01*
X27657270Y-84797583D01*
X28232181Y-84194921D01*
X28900414Y-83697744D01*
X29642860Y-83320264D01*
X30438295Y-83073275D01*
X30634950Y-83047210D01*
X29838062Y-83277107D01*
X28974560Y-83723606D01*
X28861946Y-83798851D01*
X28369787Y-84401182D01*
X31673000Y-87704395D01*
X34976213Y-84401182D01*
X34636972Y-83986000D01*
X37119928Y-83986000D01*
X37119928Y-85686000D01*
X37132188Y-85810482D01*
X37168498Y-85930180D01*
X37227463Y-86040494D01*
X37306815Y-86137185D01*
X37403506Y-86216537D01*
X37513820Y-86275502D01*
X37633518Y-86311812D01*
X37758000Y-86324072D01*
X39458000Y-86324072D01*
X39582482Y-86311812D01*
X39702180Y-86275502D01*
X39812494Y-86216537D01*
X39909185Y-86137185D01*
X39988537Y-86040494D01*
X40047502Y-85930180D01*
X40069513Y-85857620D01*
X40201368Y-85989475D01*
X40444589Y-86151990D01*
X40714842Y-86263932D01*
X41001740Y-86321000D01*
X41294260Y-86321000D01*
X41581158Y-86263932D01*
X41851411Y-86151990D01*
X42094632Y-85989475D01*
X42301475Y-85782632D01*
X42418000Y-85608240D01*
X42534525Y-85782632D01*
X42741368Y-85989475D01*
X42984589Y-86151990D01*
X43254842Y-86263932D01*
X43541740Y-86321000D01*
X43834260Y-86321000D01*
X44121158Y-86263932D01*
X44391411Y-86151990D01*
X44634632Y-85989475D01*
X44841475Y-85782632D01*
X44963195Y-85600466D01*
X45032822Y-85717355D01*
X45227731Y-85933588D01*
X45461080Y-86107641D01*
X45723901Y-86232825D01*
X45871110Y-86277476D01*
X46101000Y-86156155D01*
X46101000Y-84963000D01*
X46355000Y-84963000D01*
X46355000Y-86156155D01*
X46584890Y-86277476D01*
X46732099Y-86232825D01*
X46994920Y-86107641D01*
X47228269Y-85933588D01*
X47423178Y-85717355D01*
X47572157Y-85467252D01*
X47669481Y-85192891D01*
X49866519Y-85192891D01*
X49963843Y-85467252D01*
X50112822Y-85717355D01*
X50307731Y-85933588D01*
X50541080Y-86107641D01*
X50803901Y-86232825D01*
X50951110Y-86277476D01*
X51181000Y-86156155D01*
X51181000Y-84963000D01*
X49987186Y-84963000D01*
X49866519Y-85192891D01*
X47669481Y-85192891D01*
X47548814Y-84963000D01*
X46355000Y-84963000D01*
X46101000Y-84963000D01*
X46081000Y-84963000D01*
X46081000Y-84709000D01*
X46101000Y-84709000D01*
X46101000Y-83515845D01*
X46355000Y-83515845D01*
X46355000Y-84709000D01*
X47548814Y-84709000D01*
X47669481Y-84479109D01*
X49866519Y-84479109D01*
X49987186Y-84709000D01*
X51181000Y-84709000D01*
X51181000Y-83515845D01*
X51435000Y-83515845D01*
X51435000Y-84709000D01*
X51455000Y-84709000D01*
X51455000Y-84963000D01*
X51435000Y-84963000D01*
X51435000Y-86156155D01*
X51664890Y-86277476D01*
X51812099Y-86232825D01*
X52074920Y-86107641D01*
X52308269Y-85933588D01*
X52503178Y-85717355D01*
X52572805Y-85600466D01*
X52694525Y-85782632D01*
X52901368Y-85989475D01*
X53144589Y-86151990D01*
X53414842Y-86263932D01*
X53701740Y-86321000D01*
X53994260Y-86321000D01*
X54281158Y-86263932D01*
X54551411Y-86151990D01*
X54794632Y-85989475D01*
X55001475Y-85782632D01*
X55118000Y-85608240D01*
X55234525Y-85782632D01*
X55441368Y-85989475D01*
X55684589Y-86151990D01*
X55954842Y-86263932D01*
X56241740Y-86321000D01*
X56534260Y-86321000D01*
X56821158Y-86263932D01*
X57091411Y-86151990D01*
X57334632Y-85989475D01*
X57466487Y-85857620D01*
X57488498Y-85930180D01*
X57547463Y-86040494D01*
X57626815Y-86137185D01*
X57723506Y-86216537D01*
X57833820Y-86275502D01*
X57953518Y-86311812D01*
X58078000Y-86324072D01*
X59778000Y-86324072D01*
X59902482Y-86311812D01*
X60022180Y-86275502D01*
X60132494Y-86216537D01*
X60229185Y-86137185D01*
X60308537Y-86040494D01*
X60367502Y-85930180D01*
X60403812Y-85810482D01*
X60416072Y-85686000D01*
X60416072Y-84479109D01*
X62058519Y-84479109D01*
X62179186Y-84709000D01*
X63373000Y-84709000D01*
X63373000Y-83515845D01*
X63143110Y-83394524D01*
X62995901Y-83439175D01*
X62733080Y-83564359D01*
X62499731Y-83738412D01*
X62304822Y-83954645D01*
X62155843Y-84204748D01*
X62058519Y-84479109D01*
X60416072Y-84479109D01*
X60416072Y-83986000D01*
X60403812Y-83861518D01*
X60367502Y-83741820D01*
X60308537Y-83631506D01*
X60229185Y-83534815D01*
X60132494Y-83455463D01*
X60022180Y-83396498D01*
X59902482Y-83360188D01*
X59778000Y-83347928D01*
X58078000Y-83347928D01*
X57953518Y-83360188D01*
X57833820Y-83396498D01*
X57723506Y-83455463D01*
X57626815Y-83534815D01*
X57547463Y-83631506D01*
X57488498Y-83741820D01*
X57466487Y-83814380D01*
X57334632Y-83682525D01*
X57091411Y-83520010D01*
X56821158Y-83408068D01*
X56534260Y-83351000D01*
X56241740Y-83351000D01*
X55954842Y-83408068D01*
X55684589Y-83520010D01*
X55441368Y-83682525D01*
X55234525Y-83889368D01*
X55118000Y-84063760D01*
X55001475Y-83889368D01*
X54794632Y-83682525D01*
X54551411Y-83520010D01*
X54281158Y-83408068D01*
X53994260Y-83351000D01*
X53701740Y-83351000D01*
X53414842Y-83408068D01*
X53144589Y-83520010D01*
X52901368Y-83682525D01*
X52694525Y-83889368D01*
X52572805Y-84071534D01*
X52503178Y-83954645D01*
X52308269Y-83738412D01*
X52074920Y-83564359D01*
X51812099Y-83439175D01*
X51664890Y-83394524D01*
X51435000Y-83515845D01*
X51181000Y-83515845D01*
X50951110Y-83394524D01*
X50803901Y-83439175D01*
X50541080Y-83564359D01*
X50307731Y-83738412D01*
X50112822Y-83954645D01*
X49963843Y-84204748D01*
X49866519Y-84479109D01*
X47669481Y-84479109D01*
X47572157Y-84204748D01*
X47423178Y-83954645D01*
X47228269Y-83738412D01*
X46994920Y-83564359D01*
X46732099Y-83439175D01*
X46584890Y-83394524D01*
X46355000Y-83515845D01*
X46101000Y-83515845D01*
X45871110Y-83394524D01*
X45723901Y-83439175D01*
X45461080Y-83564359D01*
X45227731Y-83738412D01*
X45032822Y-83954645D01*
X44963195Y-84071534D01*
X44841475Y-83889368D01*
X44634632Y-83682525D01*
X44391411Y-83520010D01*
X44121158Y-83408068D01*
X43834260Y-83351000D01*
X43541740Y-83351000D01*
X43254842Y-83408068D01*
X42984589Y-83520010D01*
X42741368Y-83682525D01*
X42534525Y-83889368D01*
X42418000Y-84063760D01*
X42301475Y-83889368D01*
X42094632Y-83682525D01*
X41851411Y-83520010D01*
X41581158Y-83408068D01*
X41294260Y-83351000D01*
X41001740Y-83351000D01*
X40714842Y-83408068D01*
X40444589Y-83520010D01*
X40201368Y-83682525D01*
X40069513Y-83814380D01*
X40047502Y-83741820D01*
X39988537Y-83631506D01*
X39909185Y-83534815D01*
X39812494Y-83455463D01*
X39702180Y-83396498D01*
X39582482Y-83360188D01*
X39458000Y-83347928D01*
X37758000Y-83347928D01*
X37633518Y-83360188D01*
X37513820Y-83396498D01*
X37403506Y-83455463D01*
X37306815Y-83534815D01*
X37227463Y-83631506D01*
X37168498Y-83741820D01*
X37132188Y-83861518D01*
X37119928Y-83986000D01*
X34636972Y-83986000D01*
X34484054Y-83798851D01*
X33633067Y-83328937D01*
X32706757Y-83034071D01*
X32011550Y-82956000D01*
X82004724Y-82956000D01*
X81395079Y-83007649D01*
G37*
X81395079Y-83007649D02*
X80461062Y-83277107D01*
X79597560Y-83723606D01*
X79484946Y-83798851D01*
X78992787Y-84401182D01*
X82296000Y-87704395D01*
X82310143Y-87690253D01*
X82489748Y-87869858D01*
X82475605Y-87884000D01*
X85778818Y-91187213D01*
X86381149Y-90695054D01*
X86851063Y-89844067D01*
X87145929Y-88917757D01*
X87224000Y-88222550D01*
X87224001Y-130772736D01*
X87172351Y-130163079D01*
X86902893Y-129229062D01*
X86456394Y-128365560D01*
X86381149Y-128252946D01*
X85778818Y-127760787D01*
X82475605Y-131064000D01*
X82489748Y-131078143D01*
X82310143Y-131257748D01*
X82296000Y-131243605D01*
X78992787Y-134546818D01*
X79484946Y-135149149D01*
X80335933Y-135619063D01*
X81262243Y-135913929D01*
X81957450Y-135992000D01*
X66863883Y-135992000D01*
X66953774Y-135931937D01*
X67097937Y-135787774D01*
X67211205Y-135618256D01*
X67289226Y-135429898D01*
X67329000Y-135229939D01*
X67329000Y-135147000D01*
X67411939Y-135147000D01*
X67611898Y-135107226D01*
X67800256Y-135029205D01*
X67969774Y-134915937D01*
X68113937Y-134771774D01*
X68227205Y-134602256D01*
X68305226Y-134413898D01*
X68345000Y-134213939D01*
X68345000Y-134010061D01*
X68305226Y-133810102D01*
X68227205Y-133621744D01*
X68113937Y-133452226D01*
X67969774Y-133308063D01*
X67800256Y-133194795D01*
X67611898Y-133116774D01*
X67411939Y-133077000D01*
X67208061Y-133077000D01*
X67008102Y-133116774D01*
X66819744Y-133194795D01*
X66650226Y-133308063D01*
X66506063Y-133452226D01*
X66392795Y-133621744D01*
X66314774Y-133810102D01*
X66275000Y-134010061D01*
X66275000Y-134093000D01*
X66192061Y-134093000D01*
X65992102Y-134132774D01*
X65803744Y-134210795D01*
X65634226Y-134324063D01*
X65490063Y-134468226D01*
X65376795Y-134637744D01*
X65298774Y-134826102D01*
X65259000Y-135026061D01*
X65259000Y-135229939D01*
X65298774Y-135429898D01*
X65376795Y-135618256D01*
X65490063Y-135787774D01*
X65634226Y-135931937D01*
X65724117Y-135992000D01*
X56078896Y-135992000D01*
X56165185Y-135921185D01*
X56244537Y-135824494D01*
X56303502Y-135714180D01*
X56339812Y-135594482D01*
X56352072Y-135470000D01*
X56352072Y-133770000D01*
X56339812Y-133645518D01*
X56303502Y-133525820D01*
X56244537Y-133415506D01*
X56165185Y-133318815D01*
X56068494Y-133239463D01*
X55958180Y-133180498D01*
X55838482Y-133144188D01*
X55714000Y-133131928D01*
X54014000Y-133131928D01*
X53889518Y-133144188D01*
X53769820Y-133180498D01*
X53659506Y-133239463D01*
X53562815Y-133318815D01*
X53483463Y-133415506D01*
X53424498Y-133525820D01*
X53402487Y-133598380D01*
X53270632Y-133466525D01*
X53027411Y-133304010D01*
X52757158Y-133192068D01*
X52470260Y-133135000D01*
X52177740Y-133135000D01*
X51890842Y-133192068D01*
X51620589Y-133304010D01*
X51377368Y-133466525D01*
X51170525Y-133673368D01*
X51054000Y-133847760D01*
X50937475Y-133673368D01*
X50730632Y-133466525D01*
X50487411Y-133304010D01*
X50217158Y-133192068D01*
X49930260Y-133135000D01*
X49637740Y-133135000D01*
X49350842Y-133192068D01*
X49080589Y-133304010D01*
X48837368Y-133466525D01*
X48630525Y-133673368D01*
X48508805Y-133855534D01*
X48439178Y-133738645D01*
X48244269Y-133522412D01*
X48010920Y-133348359D01*
X47748099Y-133223175D01*
X47600890Y-133178524D01*
X47371000Y-133299845D01*
X47371000Y-134493000D01*
X47391000Y-134493000D01*
X47391000Y-134747000D01*
X47371000Y-134747000D01*
X47371000Y-134767000D01*
X47117000Y-134767000D01*
X47117000Y-134747000D01*
X45923186Y-134747000D01*
X45802519Y-134976891D01*
X45899843Y-135251252D01*
X46048822Y-135501355D01*
X46243731Y-135717588D01*
X46477080Y-135891641D01*
X46687781Y-135992000D01*
X31964276Y-135992000D01*
X32573921Y-135940351D01*
X33507938Y-135670893D01*
X34371440Y-135224394D01*
X34484054Y-135149149D01*
X34976213Y-134546818D01*
X31673000Y-131243605D01*
X28369787Y-134546818D01*
X28861946Y-135149149D01*
X29712933Y-135619063D01*
X30610549Y-135904795D01*
X29859897Y-135709964D01*
X29100496Y-135367878D01*
X28409580Y-134902728D01*
X27806921Y-134327819D01*
X27309745Y-133659589D01*
X26932265Y-132917142D01*
X26685275Y-132121705D01*
X26573178Y-131275951D01*
X26568000Y-131056218D01*
X26568000Y-130996281D01*
X26714586Y-130996281D01*
X26796649Y-131964921D01*
X27066107Y-132898938D01*
X27512606Y-133762440D01*
X27587851Y-133875054D01*
X28190182Y-134367213D01*
X31493395Y-131064000D01*
X31852605Y-131064000D01*
X35155818Y-134367213D01*
X35283226Y-134263109D01*
X45802519Y-134263109D01*
X45923186Y-134493000D01*
X47117000Y-134493000D01*
X47117000Y-133299845D01*
X46887110Y-133178524D01*
X46739901Y-133223175D01*
X46477080Y-133348359D01*
X46243731Y-133522412D01*
X46048822Y-133738645D01*
X45899843Y-133988748D01*
X45802519Y-134263109D01*
X35283226Y-134263109D01*
X35758149Y-133875054D01*
X36228063Y-133024067D01*
X36522929Y-132097757D01*
X36631414Y-131131719D01*
X36584409Y-130576890D01*
X36670048Y-130576890D01*
X36670048Y-130823110D01*
X36718083Y-131064598D01*
X36812307Y-131292074D01*
X36949099Y-131496798D01*
X37123202Y-131670901D01*
X37327926Y-131807693D01*
X37555402Y-131901917D01*
X37796890Y-131949952D01*
X38043110Y-131949952D01*
X38284598Y-131901917D01*
X38512074Y-131807693D01*
X38716798Y-131670901D01*
X38890901Y-131496798D01*
X39027693Y-131292074D01*
X39121917Y-131064598D01*
X39169952Y-130823110D01*
X39169952Y-130576890D01*
X39167963Y-130566890D01*
X75410048Y-130566890D01*
X75410048Y-130813110D01*
X75458083Y-131054598D01*
X75552307Y-131282074D01*
X75689099Y-131486798D01*
X75863202Y-131660901D01*
X76067926Y-131797693D01*
X76295402Y-131891917D01*
X76536890Y-131939952D01*
X76783110Y-131939952D01*
X77024598Y-131891917D01*
X77252074Y-131797693D01*
X77397263Y-131700681D01*
X77419649Y-131964921D01*
X77689107Y-132898938D01*
X78135606Y-133762440D01*
X78210851Y-133875054D01*
X78813182Y-134367213D01*
X82116395Y-131064000D01*
X78813182Y-127760787D01*
X78210851Y-128252946D01*
X77740937Y-129103933D01*
X77523790Y-129786091D01*
X77456798Y-129719099D01*
X77252074Y-129582307D01*
X77024598Y-129488083D01*
X76783110Y-129440048D01*
X76536890Y-129440048D01*
X76295402Y-129488083D01*
X76067926Y-129582307D01*
X75863202Y-129719099D01*
X75689099Y-129893202D01*
X75552307Y-130097926D01*
X75458083Y-130325402D01*
X75410048Y-130566890D01*
X39167963Y-130566890D01*
X39121917Y-130335402D01*
X39027693Y-130107926D01*
X38890901Y-129903202D01*
X38716798Y-129729099D01*
X38512074Y-129592307D01*
X38284598Y-129498083D01*
X38043110Y-129450048D01*
X37796890Y-129450048D01*
X37555402Y-129498083D01*
X37327926Y-129592307D01*
X37123202Y-129729099D01*
X36949099Y-129903202D01*
X36812307Y-130107926D01*
X36718083Y-130335402D01*
X36670048Y-130576890D01*
X36584409Y-130576890D01*
X36549351Y-130163079D01*
X36279893Y-129229062D01*
X35833394Y-128365560D01*
X35758149Y-128252946D01*
X35155818Y-127760787D01*
X31852605Y-131064000D01*
X31493395Y-131064000D01*
X28190182Y-127760787D01*
X27587851Y-128252946D01*
X27117937Y-129103933D01*
X26823071Y-130030243D01*
X26714586Y-130996281D01*
X26568000Y-130996281D01*
X26568000Y-127581182D01*
X28369787Y-127581182D01*
X31673000Y-130884395D01*
X34976213Y-127581182D01*
X78992787Y-127581182D01*
X82296000Y-130884395D01*
X85599213Y-127581182D01*
X85107054Y-126978851D01*
X84256067Y-126508937D01*
X83329757Y-126214071D01*
X82363719Y-126105586D01*
X81395079Y-126187649D01*
X80461062Y-126457107D01*
X79597560Y-126903606D01*
X79484946Y-126978851D01*
X78992787Y-127581182D01*
X34976213Y-127581182D01*
X34484054Y-126978851D01*
X33633067Y-126508937D01*
X32706757Y-126214071D01*
X31740719Y-126105586D01*
X30772079Y-126187649D01*
X29838062Y-126457107D01*
X28974560Y-126903606D01*
X28861946Y-126978851D01*
X28369787Y-127581182D01*
X26568000Y-127581182D01*
X26568000Y-123850061D01*
X59163000Y-123850061D01*
X59163000Y-124053939D01*
X59202774Y-124253898D01*
X59280795Y-124442256D01*
X59394063Y-124611774D01*
X59538226Y-124755937D01*
X59707744Y-124869205D01*
X59896102Y-124947226D01*
X60096061Y-124987000D01*
X60299939Y-124987000D01*
X60499898Y-124947226D01*
X60688256Y-124869205D01*
X60857774Y-124755937D01*
X61001937Y-124611774D01*
X61115205Y-124442256D01*
X61193226Y-124253898D01*
X61233000Y-124053939D01*
X61233000Y-123850061D01*
X61193226Y-123650102D01*
X61115205Y-123461744D01*
X61001937Y-123292226D01*
X60857774Y-123148063D01*
X60688256Y-123034795D01*
X60499898Y-122956774D01*
X60299939Y-122917000D01*
X60096061Y-122917000D01*
X59896102Y-122956774D01*
X59707744Y-123034795D01*
X59538226Y-123148063D01*
X59394063Y-123292226D01*
X59280795Y-123461744D01*
X59202774Y-123650102D01*
X59163000Y-123850061D01*
X26568000Y-123850061D01*
X26568000Y-120952219D01*
X26668359Y-121162920D01*
X26842412Y-121396269D01*
X27058645Y-121591178D01*
X27308748Y-121740157D01*
X27583109Y-121837481D01*
X27813000Y-121716814D01*
X27813000Y-120523000D01*
X28067000Y-120523000D01*
X28067000Y-121716814D01*
X28296891Y-121837481D01*
X28571252Y-121740157D01*
X28821355Y-121591178D01*
X29037588Y-121396269D01*
X29101889Y-121310061D01*
X59163000Y-121310061D01*
X59163000Y-121513939D01*
X59202774Y-121713898D01*
X59280795Y-121902256D01*
X59394063Y-122071774D01*
X59538226Y-122215937D01*
X59707744Y-122329205D01*
X59896102Y-122407226D01*
X60096061Y-122447000D01*
X60299939Y-122447000D01*
X60499898Y-122407226D01*
X60688256Y-122329205D01*
X60857774Y-122215937D01*
X61001937Y-122071774D01*
X61115205Y-121902256D01*
X61193226Y-121713898D01*
X61233000Y-121513939D01*
X61233000Y-121310061D01*
X61193226Y-121110102D01*
X61115205Y-120921744D01*
X61001937Y-120752226D01*
X60857774Y-120608063D01*
X60688256Y-120494795D01*
X60499898Y-120416774D01*
X60299939Y-120377000D01*
X60096061Y-120377000D01*
X59896102Y-120416774D01*
X59707744Y-120494795D01*
X59538226Y-120608063D01*
X59394063Y-120752226D01*
X59280795Y-120921744D01*
X59202774Y-121110102D01*
X59163000Y-121310061D01*
X29101889Y-121310061D01*
X29211641Y-121162920D01*
X29336825Y-120900099D01*
X29381476Y-120752890D01*
X29260155Y-120523000D01*
X28067000Y-120523000D01*
X27813000Y-120523000D01*
X27793000Y-120523000D01*
X27793000Y-120269000D01*
X27813000Y-120269000D01*
X27813000Y-120249000D01*
X28067000Y-120249000D01*
X28067000Y-120269000D01*
X29260155Y-120269000D01*
X29380974Y-120040061D01*
X46209000Y-120040061D01*
X46209000Y-120243939D01*
X46248774Y-120443898D01*
X46326795Y-120632256D01*
X46440063Y-120801774D01*
X46584226Y-120945937D01*
X46753744Y-121059205D01*
X46942102Y-121137226D01*
X47142061Y-121177000D01*
X47345939Y-121177000D01*
X47545898Y-121137226D01*
X47734256Y-121059205D01*
X47903774Y-120945937D01*
X48047937Y-120801774D01*
X48161205Y-120632256D01*
X48239226Y-120443898D01*
X48279000Y-120243939D01*
X48279000Y-120040061D01*
X48239226Y-119840102D01*
X48161205Y-119651744D01*
X48081236Y-119532061D01*
X60433000Y-119532061D01*
X60433000Y-119735939D01*
X60472774Y-119935898D01*
X60550795Y-120124256D01*
X60664063Y-120293774D01*
X60808226Y-120437937D01*
X60977744Y-120551205D01*
X61166102Y-120629226D01*
X61366061Y-120669000D01*
X61569939Y-120669000D01*
X61769898Y-120629226D01*
X61829505Y-120604536D01*
X61824226Y-120608063D01*
X61680063Y-120752226D01*
X61566795Y-120921744D01*
X61488774Y-121110102D01*
X61449000Y-121310061D01*
X61449000Y-121513939D01*
X61488774Y-121713898D01*
X61566795Y-121902256D01*
X61680063Y-122071774D01*
X61824226Y-122215937D01*
X61993744Y-122329205D01*
X62182102Y-122407226D01*
X62286541Y-122428000D01*
X62182102Y-122448774D01*
X61993744Y-122526795D01*
X61824226Y-122640063D01*
X61680063Y-122784226D01*
X61566795Y-122953744D01*
X61488774Y-123142102D01*
X61449000Y-123342061D01*
X61449000Y-123545939D01*
X61488774Y-123745898D01*
X61566795Y-123934256D01*
X61680063Y-124103774D01*
X61824226Y-124247937D01*
X61993744Y-124361205D01*
X62182102Y-124439226D01*
X62382061Y-124479000D01*
X62585939Y-124479000D01*
X62785898Y-124439226D01*
X62974256Y-124361205D01*
X63143774Y-124247937D01*
X63287937Y-124103774D01*
X63401205Y-123934256D01*
X63479226Y-123745898D01*
X63519000Y-123545939D01*
X63519000Y-123342061D01*
X63479226Y-123142102D01*
X63401205Y-122953744D01*
X63287937Y-122784226D01*
X63143774Y-122640063D01*
X62974256Y-122526795D01*
X62785898Y-122448774D01*
X62681459Y-122428000D01*
X62785898Y-122407226D01*
X62974256Y-122329205D01*
X63143774Y-122215937D01*
X63287937Y-122071774D01*
X63401205Y-121902256D01*
X63479226Y-121713898D01*
X63494720Y-121636000D01*
X79849928Y-121636000D01*
X79849928Y-124236000D01*
X79862188Y-124360482D01*
X79898498Y-124480180D01*
X79957463Y-124590494D01*
X80036815Y-124687185D01*
X80133506Y-124766537D01*
X80243820Y-124825502D01*
X80363518Y-124861812D01*
X80488000Y-124874072D01*
X83088000Y-124874072D01*
X83212482Y-124861812D01*
X83332180Y-124825502D01*
X83442494Y-124766537D01*
X83539185Y-124687185D01*
X83618537Y-124590494D01*
X83677502Y-124480180D01*
X83713812Y-124360482D01*
X83726072Y-124236000D01*
X83726072Y-121636000D01*
X83713812Y-121511518D01*
X83677502Y-121391820D01*
X83618537Y-121281506D01*
X83539185Y-121184815D01*
X83442494Y-121105463D01*
X83332180Y-121046498D01*
X83212482Y-121010188D01*
X83088000Y-120997928D01*
X80488000Y-120997928D01*
X80363518Y-121010188D01*
X80243820Y-121046498D01*
X80133506Y-121105463D01*
X80036815Y-121184815D01*
X79957463Y-121281506D01*
X79898498Y-121391820D01*
X79862188Y-121511518D01*
X79849928Y-121636000D01*
X63494720Y-121636000D01*
X63519000Y-121513939D01*
X63519000Y-121310061D01*
X63479226Y-121110102D01*
X63401205Y-120921744D01*
X63287937Y-120752226D01*
X63143774Y-120608063D01*
X62974256Y-120494795D01*
X62785898Y-120416774D01*
X62585939Y-120377000D01*
X62382061Y-120377000D01*
X62182102Y-120416774D01*
X62122495Y-120441464D01*
X62127774Y-120437937D01*
X62271937Y-120293774D01*
X62385205Y-120124256D01*
X62463226Y-119935898D01*
X62503000Y-119735939D01*
X62503000Y-119532061D01*
X62463226Y-119332102D01*
X62440842Y-119278061D01*
X64243000Y-119278061D01*
X64243000Y-119481939D01*
X64282774Y-119681898D01*
X64360795Y-119870256D01*
X64474063Y-120039774D01*
X64618226Y-120183937D01*
X64787744Y-120297205D01*
X64976102Y-120375226D01*
X65176061Y-120415000D01*
X65379939Y-120415000D01*
X65579898Y-120375226D01*
X65768256Y-120297205D01*
X65937774Y-120183937D01*
X66040000Y-120081711D01*
X66142226Y-120183937D01*
X66311744Y-120297205D01*
X66500102Y-120375226D01*
X66700061Y-120415000D01*
X66903939Y-120415000D01*
X67103898Y-120375226D01*
X67292256Y-120297205D01*
X67461774Y-120183937D01*
X67605937Y-120039774D01*
X67719205Y-119870256D01*
X67797226Y-119681898D01*
X67837000Y-119481939D01*
X67837000Y-119285224D01*
X80618381Y-119285224D01*
X80750317Y-119580312D01*
X81091045Y-119751159D01*
X81458557Y-119852250D01*
X81838729Y-119879701D01*
X82216951Y-119832457D01*
X82578690Y-119712333D01*
X82825683Y-119580312D01*
X82957619Y-119285224D01*
X81788000Y-118115605D01*
X80618381Y-119285224D01*
X67837000Y-119285224D01*
X67837000Y-119278061D01*
X67797226Y-119078102D01*
X67719205Y-118889744D01*
X67605937Y-118720226D01*
X67461774Y-118576063D01*
X67292256Y-118462795D01*
X67103898Y-118384774D01*
X66903939Y-118345000D01*
X66700061Y-118345000D01*
X66500102Y-118384774D01*
X66311744Y-118462795D01*
X66142226Y-118576063D01*
X66040000Y-118678289D01*
X65937774Y-118576063D01*
X65768256Y-118462795D01*
X65579898Y-118384774D01*
X65379939Y-118345000D01*
X65176061Y-118345000D01*
X64976102Y-118384774D01*
X64787744Y-118462795D01*
X64618226Y-118576063D01*
X64474063Y-118720226D01*
X64360795Y-118889744D01*
X64282774Y-119078102D01*
X64243000Y-119278061D01*
X62440842Y-119278061D01*
X62385205Y-119143744D01*
X62271937Y-118974226D01*
X62127774Y-118830063D01*
X61958256Y-118716795D01*
X61769898Y-118638774D01*
X61569939Y-118599000D01*
X61366061Y-118599000D01*
X61166102Y-118638774D01*
X60977744Y-118716795D01*
X60808226Y-118830063D01*
X60664063Y-118974226D01*
X60550795Y-119143744D01*
X60472774Y-119332102D01*
X60433000Y-119532061D01*
X48081236Y-119532061D01*
X48047937Y-119482226D01*
X47903774Y-119338063D01*
X47734256Y-119224795D01*
X47545898Y-119146774D01*
X47345939Y-119107000D01*
X47142061Y-119107000D01*
X46942102Y-119146774D01*
X46753744Y-119224795D01*
X46584226Y-119338063D01*
X46440063Y-119482226D01*
X46326795Y-119651744D01*
X46248774Y-119840102D01*
X46209000Y-120040061D01*
X29380974Y-120040061D01*
X29381476Y-120039110D01*
X29336825Y-119891901D01*
X29211641Y-119629080D01*
X29037588Y-119395731D01*
X28821355Y-119200822D01*
X28704466Y-119131195D01*
X28886632Y-119009475D01*
X29093475Y-118802632D01*
X29255990Y-118559411D01*
X29367932Y-118289158D01*
X29425000Y-118002260D01*
X29425000Y-117986729D01*
X79844299Y-117986729D01*
X79891543Y-118364951D01*
X80011667Y-118726690D01*
X80143688Y-118973683D01*
X80438776Y-119105619D01*
X81608395Y-117936000D01*
X81967605Y-117936000D01*
X83137224Y-119105619D01*
X83432312Y-118973683D01*
X83603159Y-118632955D01*
X83704250Y-118265443D01*
X83731701Y-117885271D01*
X83684457Y-117507049D01*
X83564333Y-117145310D01*
X83432312Y-116898317D01*
X83137224Y-116766381D01*
X81967605Y-117936000D01*
X81608395Y-117936000D01*
X80438776Y-116766381D01*
X80143688Y-116898317D01*
X79972841Y-117239045D01*
X79871750Y-117606557D01*
X79844299Y-117986729D01*
X29425000Y-117986729D01*
X29425000Y-117709740D01*
X29367932Y-117422842D01*
X29255990Y-117152589D01*
X29093475Y-116909368D01*
X28922168Y-116738061D01*
X54337000Y-116738061D01*
X54337000Y-116941939D01*
X54376774Y-117141898D01*
X54454795Y-117330256D01*
X54568063Y-117499774D01*
X54712226Y-117643937D01*
X54881744Y-117757205D01*
X55070102Y-117835226D01*
X55270061Y-117875000D01*
X55473939Y-117875000D01*
X55673898Y-117835226D01*
X55862256Y-117757205D01*
X56031774Y-117643937D01*
X56175937Y-117499774D01*
X56289205Y-117330256D01*
X56367226Y-117141898D01*
X56407000Y-116941939D01*
X56407000Y-116738061D01*
X56367226Y-116538102D01*
X56289205Y-116349744D01*
X56209236Y-116230061D01*
X64243000Y-116230061D01*
X64243000Y-116433939D01*
X64282774Y-116633898D01*
X64360795Y-116822256D01*
X64474063Y-116991774D01*
X64618226Y-117135937D01*
X64787744Y-117249205D01*
X64976102Y-117327226D01*
X65176061Y-117367000D01*
X65379939Y-117367000D01*
X65579898Y-117327226D01*
X65768256Y-117249205D01*
X65937774Y-117135937D01*
X66040000Y-117033711D01*
X66142226Y-117135937D01*
X66311744Y-117249205D01*
X66500102Y-117327226D01*
X66700061Y-117367000D01*
X66903939Y-117367000D01*
X67103898Y-117327226D01*
X67292256Y-117249205D01*
X67461774Y-117135937D01*
X67605937Y-116991774D01*
X67719205Y-116822256D01*
X67797226Y-116633898D01*
X67806599Y-116586776D01*
X80618381Y-116586776D01*
X81788000Y-117756395D01*
X82957619Y-116586776D01*
X82825683Y-116291688D01*
X82484955Y-116120841D01*
X82117443Y-116019750D01*
X81737271Y-115992299D01*
X81359049Y-116039543D01*
X80997310Y-116159667D01*
X80750317Y-116291688D01*
X80618381Y-116586776D01*
X67806599Y-116586776D01*
X67837000Y-116433939D01*
X67837000Y-116230061D01*
X67797226Y-116030102D01*
X67719205Y-115841744D01*
X67605937Y-115672226D01*
X67461774Y-115528063D01*
X67292256Y-115414795D01*
X67103898Y-115336774D01*
X66903939Y-115297000D01*
X66700061Y-115297000D01*
X66500102Y-115336774D01*
X66311744Y-115414795D01*
X66142226Y-115528063D01*
X66040000Y-115630289D01*
X65937774Y-115528063D01*
X65768256Y-115414795D01*
X65579898Y-115336774D01*
X65379939Y-115297000D01*
X65176061Y-115297000D01*
X64976102Y-115336774D01*
X64787744Y-115414795D01*
X64618226Y-115528063D01*
X64474063Y-115672226D01*
X64360795Y-115841744D01*
X64282774Y-116030102D01*
X64243000Y-116230061D01*
X56209236Y-116230061D01*
X56175937Y-116180226D01*
X56031774Y-116036063D01*
X55862256Y-115922795D01*
X55673898Y-115844774D01*
X55473939Y-115805000D01*
X55270061Y-115805000D01*
X55070102Y-115844774D01*
X54881744Y-115922795D01*
X54712226Y-116036063D01*
X54568063Y-116180226D01*
X54454795Y-116349744D01*
X54376774Y-116538102D01*
X54337000Y-116738061D01*
X28922168Y-116738061D01*
X28886632Y-116702525D01*
X28712240Y-116586000D01*
X28886632Y-116469475D01*
X29093475Y-116262632D01*
X29255990Y-116019411D01*
X29367932Y-115749158D01*
X29425000Y-115462260D01*
X29425000Y-115169740D01*
X29367932Y-114882842D01*
X29255990Y-114612589D01*
X29093475Y-114369368D01*
X28961620Y-114237513D01*
X29034180Y-114215502D01*
X29066809Y-114198061D01*
X37319000Y-114198061D01*
X37319000Y-114401939D01*
X37358774Y-114601898D01*
X37436795Y-114790256D01*
X37550063Y-114959774D01*
X37694226Y-115103937D01*
X37863744Y-115217205D01*
X38052102Y-115295226D01*
X38252061Y-115335000D01*
X38455939Y-115335000D01*
X38655898Y-115295226D01*
X38844256Y-115217205D01*
X39013774Y-115103937D01*
X39157937Y-114959774D01*
X39271205Y-114790256D01*
X39349226Y-114601898D01*
X39360619Y-114544619D01*
X39417898Y-114533226D01*
X39606256Y-114455205D01*
X39775774Y-114341937D01*
X39919650Y-114198061D01*
X70085000Y-114198061D01*
X70085000Y-114401939D01*
X70124774Y-114601898D01*
X70202795Y-114790256D01*
X70316063Y-114959774D01*
X70460226Y-115103937D01*
X70629744Y-115217205D01*
X70818102Y-115295226D01*
X71018061Y-115335000D01*
X71221939Y-115335000D01*
X71421898Y-115295226D01*
X71610256Y-115217205D01*
X71779774Y-115103937D01*
X71923937Y-114959774D01*
X72037205Y-114790256D01*
X72115226Y-114601898D01*
X72155000Y-114401939D01*
X72155000Y-114198061D01*
X72115226Y-113998102D01*
X72037205Y-113809744D01*
X71923937Y-113640226D01*
X71779774Y-113496063D01*
X71610256Y-113382795D01*
X71421898Y-113304774D01*
X71221939Y-113265000D01*
X71018061Y-113265000D01*
X70818102Y-113304774D01*
X70629744Y-113382795D01*
X70460226Y-113496063D01*
X70316063Y-113640226D01*
X70202795Y-113809744D01*
X70124774Y-113998102D01*
X70085000Y-114198061D01*
X39919650Y-114198061D01*
X39919937Y-114197774D01*
X40033205Y-114028256D01*
X40111226Y-113839898D01*
X40151000Y-113639939D01*
X40151000Y-113436061D01*
X40111226Y-113236102D01*
X40068474Y-113132890D01*
X83902524Y-113132890D01*
X83947175Y-113280099D01*
X84072359Y-113542920D01*
X84246412Y-113776269D01*
X84462645Y-113971178D01*
X84712748Y-114120157D01*
X84987109Y-114217481D01*
X85217000Y-114096814D01*
X85217000Y-112903000D01*
X85471000Y-112903000D01*
X85471000Y-114096814D01*
X85700891Y-114217481D01*
X85975252Y-114120157D01*
X86225355Y-113971178D01*
X86441588Y-113776269D01*
X86615641Y-113542920D01*
X86740825Y-113280099D01*
X86785476Y-113132890D01*
X86664155Y-112903000D01*
X85471000Y-112903000D01*
X85217000Y-112903000D01*
X84023845Y-112903000D01*
X83902524Y-113132890D01*
X40068474Y-113132890D01*
X40033205Y-113047744D01*
X39919937Y-112878226D01*
X39775774Y-112734063D01*
X39606256Y-112620795D01*
X39417898Y-112542774D01*
X39217939Y-112503000D01*
X39014061Y-112503000D01*
X38814102Y-112542774D01*
X38625744Y-112620795D01*
X38456226Y-112734063D01*
X38312063Y-112878226D01*
X38198795Y-113047744D01*
X38120774Y-113236102D01*
X38109381Y-113293381D01*
X38052102Y-113304774D01*
X37863744Y-113382795D01*
X37694226Y-113496063D01*
X37550063Y-113640226D01*
X37436795Y-113809744D01*
X37358774Y-113998102D01*
X37319000Y-114198061D01*
X29066809Y-114198061D01*
X29144494Y-114156537D01*
X29241185Y-114077185D01*
X29320537Y-113980494D01*
X29379502Y-113870180D01*
X29415812Y-113750482D01*
X29428072Y-113626000D01*
X29428072Y-111926000D01*
X29415812Y-111801518D01*
X29379502Y-111681820D01*
X29320537Y-111571506D01*
X29241185Y-111474815D01*
X29144494Y-111395463D01*
X29034180Y-111336498D01*
X28914482Y-111300188D01*
X28790000Y-111287928D01*
X27090000Y-111287928D01*
X26965518Y-111300188D01*
X26845820Y-111336498D01*
X26735506Y-111395463D01*
X26638815Y-111474815D01*
X26568000Y-111561104D01*
X26568000Y-110134061D01*
X70085000Y-110134061D01*
X70085000Y-110337939D01*
X70124774Y-110537898D01*
X70202795Y-110726256D01*
X70316063Y-110895774D01*
X70460226Y-111039937D01*
X70629744Y-111153205D01*
X70818102Y-111231226D01*
X71018061Y-111271000D01*
X71221939Y-111271000D01*
X71421898Y-111231226D01*
X71610256Y-111153205D01*
X71779774Y-111039937D01*
X71923937Y-110895774D01*
X72037205Y-110726256D01*
X72115226Y-110537898D01*
X72155000Y-110337939D01*
X72155000Y-110134061D01*
X72115226Y-109934102D01*
X72037205Y-109745744D01*
X71923937Y-109576226D01*
X71779774Y-109432063D01*
X71610256Y-109318795D01*
X71421898Y-109240774D01*
X71221939Y-109201000D01*
X71018061Y-109201000D01*
X70818102Y-109240774D01*
X70629744Y-109318795D01*
X70460226Y-109432063D01*
X70316063Y-109576226D01*
X70202795Y-109745744D01*
X70124774Y-109934102D01*
X70085000Y-110134061D01*
X26568000Y-110134061D01*
X26568000Y-108102061D01*
X49257000Y-108102061D01*
X49257000Y-108305939D01*
X49296774Y-108505898D01*
X49374795Y-108694256D01*
X49488063Y-108863774D01*
X49632226Y-109007937D01*
X49801744Y-109121205D01*
X49990102Y-109199226D01*
X50190061Y-109239000D01*
X50393939Y-109239000D01*
X50593898Y-109199226D01*
X50782256Y-109121205D01*
X50951774Y-109007937D01*
X51095937Y-108863774D01*
X51209205Y-108694256D01*
X51287226Y-108505898D01*
X51327000Y-108305939D01*
X51327000Y-108102061D01*
X51287226Y-107902102D01*
X51209205Y-107713744D01*
X51095937Y-107544226D01*
X50951774Y-107400063D01*
X50782256Y-107286795D01*
X50593898Y-107208774D01*
X50393939Y-107169000D01*
X50190061Y-107169000D01*
X49990102Y-107208774D01*
X49801744Y-107286795D01*
X49632226Y-107400063D01*
X49488063Y-107544226D01*
X49374795Y-107713744D01*
X49296774Y-107902102D01*
X49257000Y-108102061D01*
X26568000Y-108102061D01*
X26568000Y-105562061D01*
X41891000Y-105562061D01*
X41891000Y-105765939D01*
X41930774Y-105965898D01*
X42008795Y-106154256D01*
X42122063Y-106323774D01*
X42266226Y-106467937D01*
X42435744Y-106581205D01*
X42624102Y-106659226D01*
X42824061Y-106699000D01*
X43027939Y-106699000D01*
X43227898Y-106659226D01*
X43416256Y-106581205D01*
X43420961Y-106578061D01*
X55353000Y-106578061D01*
X55353000Y-106781939D01*
X55392774Y-106981898D01*
X55470795Y-107170256D01*
X55584063Y-107339774D01*
X55728226Y-107483937D01*
X55897744Y-107597205D01*
X56086102Y-107675226D01*
X56286061Y-107715000D01*
X56489939Y-107715000D01*
X56689898Y-107675226D01*
X56878256Y-107597205D01*
X57047774Y-107483937D01*
X57191937Y-107339774D01*
X57305205Y-107170256D01*
X57383226Y-106981898D01*
X57423000Y-106781939D01*
X57423000Y-106578061D01*
X57383226Y-106378102D01*
X57305205Y-106189744D01*
X57191937Y-106020226D01*
X57047774Y-105876063D01*
X56878256Y-105762795D01*
X56689898Y-105684774D01*
X56489939Y-105645000D01*
X56286061Y-105645000D01*
X56086102Y-105684774D01*
X55897744Y-105762795D01*
X55728226Y-105876063D01*
X55584063Y-106020226D01*
X55470795Y-106189744D01*
X55392774Y-106378102D01*
X55353000Y-106578061D01*
X43420961Y-106578061D01*
X43585774Y-106467937D01*
X43729937Y-106323774D01*
X43843205Y-106154256D01*
X43921226Y-105965898D01*
X43961000Y-105765939D01*
X43961000Y-105562061D01*
X82785000Y-105562061D01*
X82785000Y-105765939D01*
X82824774Y-105965898D01*
X82902795Y-106154256D01*
X83016063Y-106323774D01*
X83160226Y-106467937D01*
X83329744Y-106581205D01*
X83518102Y-106659226D01*
X83718061Y-106699000D01*
X83921939Y-106699000D01*
X84121898Y-106659226D01*
X84264783Y-106600041D01*
X84322380Y-106617513D01*
X84190525Y-106749368D01*
X84028010Y-106992589D01*
X83916068Y-107262842D01*
X83859000Y-107549740D01*
X83859000Y-107842260D01*
X83916068Y-108129158D01*
X84028010Y-108399411D01*
X84190525Y-108642632D01*
X84397368Y-108849475D01*
X84571760Y-108966000D01*
X84397368Y-109082525D01*
X84190525Y-109289368D01*
X84028010Y-109532589D01*
X83916068Y-109802842D01*
X83859000Y-110089740D01*
X83859000Y-110382260D01*
X83916068Y-110669158D01*
X84028010Y-110939411D01*
X84190525Y-111182632D01*
X84397368Y-111389475D01*
X84579534Y-111511195D01*
X84462645Y-111580822D01*
X84246412Y-111775731D01*
X84072359Y-112009080D01*
X83947175Y-112271901D01*
X83902524Y-112419110D01*
X84023845Y-112649000D01*
X85217000Y-112649000D01*
X85217000Y-112629000D01*
X85471000Y-112629000D01*
X85471000Y-112649000D01*
X86664155Y-112649000D01*
X86785476Y-112419110D01*
X86740825Y-112271901D01*
X86615641Y-112009080D01*
X86441588Y-111775731D01*
X86225355Y-111580822D01*
X86108466Y-111511195D01*
X86290632Y-111389475D01*
X86497475Y-111182632D01*
X86659990Y-110939411D01*
X86771932Y-110669158D01*
X86829000Y-110382260D01*
X86829000Y-110089740D01*
X86771932Y-109802842D01*
X86659990Y-109532589D01*
X86497475Y-109289368D01*
X86290632Y-109082525D01*
X86116240Y-108966000D01*
X86290632Y-108849475D01*
X86497475Y-108642632D01*
X86659990Y-108399411D01*
X86771932Y-108129158D01*
X86829000Y-107842260D01*
X86829000Y-107549740D01*
X86771932Y-107262842D01*
X86659990Y-106992589D01*
X86497475Y-106749368D01*
X86365620Y-106617513D01*
X86438180Y-106595502D01*
X86548494Y-106536537D01*
X86645185Y-106457185D01*
X86724537Y-106360494D01*
X86783502Y-106250180D01*
X86819812Y-106130482D01*
X86832072Y-106006000D01*
X86832072Y-104306000D01*
X86819812Y-104181518D01*
X86783502Y-104061820D01*
X86724537Y-103951506D01*
X86645185Y-103854815D01*
X86548494Y-103775463D01*
X86438180Y-103716498D01*
X86318482Y-103680188D01*
X86194000Y-103667928D01*
X84494000Y-103667928D01*
X84369518Y-103680188D01*
X84249820Y-103716498D01*
X84139506Y-103775463D01*
X84042815Y-103854815D01*
X83963463Y-103951506D01*
X83904498Y-104061820D01*
X83868188Y-104181518D01*
X83855928Y-104306000D01*
X83855928Y-104629000D01*
X83718061Y-104629000D01*
X83518102Y-104668774D01*
X83329744Y-104746795D01*
X83160226Y-104860063D01*
X83016063Y-105004226D01*
X82902795Y-105173744D01*
X82824774Y-105362102D01*
X82785000Y-105562061D01*
X43961000Y-105562061D01*
X43921226Y-105362102D01*
X43843205Y-105173744D01*
X43729937Y-105004226D01*
X43585774Y-104860063D01*
X43416256Y-104746795D01*
X43227898Y-104668774D01*
X43027939Y-104629000D01*
X42824061Y-104629000D01*
X42624102Y-104668774D01*
X42435744Y-104746795D01*
X42266226Y-104860063D01*
X42122063Y-105004226D01*
X42008795Y-105173744D01*
X41930774Y-105362102D01*
X41891000Y-105562061D01*
X26568000Y-105562061D01*
X26568000Y-102485137D01*
X27033000Y-102485137D01*
X27033000Y-102698863D01*
X27074696Y-102908483D01*
X27156485Y-103105940D01*
X27275225Y-103283647D01*
X27426353Y-103434775D01*
X27604060Y-103553515D01*
X27801517Y-103635304D01*
X28011137Y-103677000D01*
X28224863Y-103677000D01*
X28434483Y-103635304D01*
X28631940Y-103553515D01*
X28809647Y-103434775D01*
X28960775Y-103283647D01*
X28965843Y-103276061D01*
X44177000Y-103276061D01*
X44177000Y-103479939D01*
X44216774Y-103679898D01*
X44294795Y-103868256D01*
X44408063Y-104037774D01*
X44552226Y-104181937D01*
X44721744Y-104295205D01*
X44910102Y-104373226D01*
X45110061Y-104413000D01*
X45313939Y-104413000D01*
X45513898Y-104373226D01*
X45702256Y-104295205D01*
X45871774Y-104181937D01*
X46015937Y-104037774D01*
X46129205Y-103868256D01*
X46207226Y-103679898D01*
X46247000Y-103479939D01*
X46247000Y-103276061D01*
X46207226Y-103076102D01*
X46129205Y-102887744D01*
X46015937Y-102718226D01*
X45871774Y-102574063D01*
X45702256Y-102460795D01*
X45513898Y-102382774D01*
X45313939Y-102343000D01*
X45110061Y-102343000D01*
X44910102Y-102382774D01*
X44721744Y-102460795D01*
X44552226Y-102574063D01*
X44408063Y-102718226D01*
X44294795Y-102887744D01*
X44216774Y-103076102D01*
X44177000Y-103276061D01*
X28965843Y-103276061D01*
X29079515Y-103105940D01*
X29161304Y-102908483D01*
X29203000Y-102698863D01*
X29203000Y-102485137D01*
X29161304Y-102275517D01*
X29079515Y-102078060D01*
X28974839Y-101921400D01*
X78804420Y-101921400D01*
X78830678Y-102188007D01*
X78908445Y-102444368D01*
X79034730Y-102680631D01*
X79204682Y-102887718D01*
X79411769Y-103057670D01*
X79648032Y-103183955D01*
X79904393Y-103261722D01*
X80104191Y-103281400D01*
X80787809Y-103281400D01*
X80987607Y-103261722D01*
X81243968Y-103183955D01*
X81480231Y-103057670D01*
X81687318Y-102887718D01*
X81857270Y-102680631D01*
X81983555Y-102444368D01*
X82061322Y-102188007D01*
X82072806Y-102071400D01*
X82705146Y-102071400D01*
X82728508Y-102308601D01*
X82797697Y-102536687D01*
X82910054Y-102746892D01*
X83061261Y-102931139D01*
X83245508Y-103082346D01*
X83455713Y-103194703D01*
X83683799Y-103263892D01*
X83861563Y-103281400D01*
X84630437Y-103281400D01*
X84808201Y-103263892D01*
X85036287Y-103194703D01*
X85246492Y-103082346D01*
X85430739Y-102931139D01*
X85581946Y-102746892D01*
X85694303Y-102536687D01*
X85763492Y-102308601D01*
X85786854Y-102071400D01*
X85763492Y-101834199D01*
X85694303Y-101606113D01*
X85581946Y-101395908D01*
X85430739Y-101211661D01*
X85246492Y-101060454D01*
X85036287Y-100948097D01*
X84808201Y-100878908D01*
X84630437Y-100861400D01*
X83861563Y-100861400D01*
X83683799Y-100878908D01*
X83455713Y-100948097D01*
X83245508Y-101060454D01*
X83061261Y-101211661D01*
X82910054Y-101395908D01*
X82797697Y-101606113D01*
X82728508Y-101834199D01*
X82705146Y-102071400D01*
X82072806Y-102071400D01*
X82087580Y-101921400D01*
X82061322Y-101654793D01*
X82038282Y-101578842D01*
X82155774Y-101500337D01*
X82299937Y-101356174D01*
X82413205Y-101186656D01*
X82491226Y-100998298D01*
X82531000Y-100798339D01*
X82531000Y-100594461D01*
X82491226Y-100394502D01*
X82413205Y-100206144D01*
X82299937Y-100036626D01*
X82155774Y-99892463D01*
X81986256Y-99779195D01*
X81797898Y-99701174D01*
X81597939Y-99661400D01*
X81394061Y-99661400D01*
X81194102Y-99701174D01*
X81005744Y-99779195D01*
X80836226Y-99892463D01*
X80692063Y-100036626D01*
X80578795Y-100206144D01*
X80500774Y-100394502D01*
X80467576Y-100561400D01*
X80104191Y-100561400D01*
X79904393Y-100581078D01*
X79648032Y-100658845D01*
X79411769Y-100785130D01*
X79204682Y-100955082D01*
X79034730Y-101162169D01*
X78908445Y-101398432D01*
X78830678Y-101654793D01*
X78804420Y-101921400D01*
X28974839Y-101921400D01*
X28960775Y-101900353D01*
X28809647Y-101749225D01*
X28631940Y-101630485D01*
X28434483Y-101548696D01*
X28224863Y-101507000D01*
X28011137Y-101507000D01*
X27801517Y-101548696D01*
X27604060Y-101630485D01*
X27426353Y-101749225D01*
X27275225Y-101900353D01*
X27156485Y-102078060D01*
X27074696Y-102275517D01*
X27033000Y-102485137D01*
X26568000Y-102485137D01*
X26568000Y-99485137D01*
X27033000Y-99485137D01*
X27033000Y-99698863D01*
X27074696Y-99908483D01*
X27156485Y-100105940D01*
X27275225Y-100283647D01*
X27426353Y-100434775D01*
X27604060Y-100553515D01*
X27801517Y-100635304D01*
X28011137Y-100677000D01*
X28224863Y-100677000D01*
X28434483Y-100635304D01*
X28631940Y-100553515D01*
X28809647Y-100434775D01*
X28960775Y-100283647D01*
X29079515Y-100105940D01*
X29161304Y-99908483D01*
X29163377Y-99898061D01*
X45465000Y-99898061D01*
X45465000Y-100101939D01*
X45504774Y-100301898D01*
X45582795Y-100490256D01*
X45696063Y-100659774D01*
X45840226Y-100803937D01*
X46009744Y-100917205D01*
X46198102Y-100995226D01*
X46398061Y-101035000D01*
X46601939Y-101035000D01*
X46801898Y-100995226D01*
X46990256Y-100917205D01*
X47159774Y-100803937D01*
X47303937Y-100659774D01*
X47417205Y-100490256D01*
X47495226Y-100301898D01*
X47535000Y-100101939D01*
X47535000Y-99898061D01*
X52565000Y-99898061D01*
X52565000Y-100101939D01*
X52604774Y-100301898D01*
X52682795Y-100490256D01*
X52796063Y-100659774D01*
X52940226Y-100803937D01*
X53109744Y-100917205D01*
X53298102Y-100995226D01*
X53498061Y-101035000D01*
X53701939Y-101035000D01*
X53901898Y-100995226D01*
X54090256Y-100917205D01*
X54259774Y-100803937D01*
X54403937Y-100659774D01*
X54517205Y-100490256D01*
X54595226Y-100301898D01*
X54635000Y-100101939D01*
X54635000Y-99898061D01*
X54595226Y-99698102D01*
X54542258Y-99570228D01*
X54657898Y-99547226D01*
X54846256Y-99469205D01*
X55015774Y-99355937D01*
X55159937Y-99211774D01*
X55273205Y-99042256D01*
X55351226Y-98853898D01*
X55391000Y-98653939D01*
X55391000Y-98450061D01*
X55351226Y-98250102D01*
X55273205Y-98061744D01*
X55159937Y-97892226D01*
X55015774Y-97748063D01*
X54846256Y-97634795D01*
X54657898Y-97556774D01*
X54457939Y-97517000D01*
X54254061Y-97517000D01*
X54054102Y-97556774D01*
X53865744Y-97634795D01*
X53696226Y-97748063D01*
X53552063Y-97892226D01*
X53438795Y-98061744D01*
X53360774Y-98250102D01*
X53321000Y-98450061D01*
X53321000Y-98653939D01*
X53360774Y-98853898D01*
X53413742Y-98981772D01*
X53298102Y-99004774D01*
X53109744Y-99082795D01*
X52940226Y-99196063D01*
X52796063Y-99340226D01*
X52682795Y-99509744D01*
X52604774Y-99698102D01*
X52565000Y-99898061D01*
X47535000Y-99898061D01*
X47495226Y-99698102D01*
X47417205Y-99509744D01*
X47303937Y-99340226D01*
X47159774Y-99196063D01*
X46990256Y-99082795D01*
X46801898Y-99004774D01*
X46601939Y-98965000D01*
X46398061Y-98965000D01*
X46198102Y-99004774D01*
X46009744Y-99082795D01*
X45840226Y-99196063D01*
X45696063Y-99340226D01*
X45582795Y-99509744D01*
X45504774Y-99698102D01*
X45465000Y-99898061D01*
X29163377Y-99898061D01*
X29203000Y-99698863D01*
X29203000Y-99485137D01*
X29161304Y-99275517D01*
X29079515Y-99078060D01*
X28960775Y-98900353D01*
X28809647Y-98749225D01*
X28733075Y-98698061D01*
X30165000Y-98698061D01*
X30165000Y-98901939D01*
X30204774Y-99101898D01*
X30282795Y-99290256D01*
X30396063Y-99459774D01*
X30540226Y-99603937D01*
X30709744Y-99717205D01*
X30898102Y-99795226D01*
X31098061Y-99835000D01*
X31301939Y-99835000D01*
X31501898Y-99795226D01*
X31690256Y-99717205D01*
X31859774Y-99603937D01*
X32003937Y-99459774D01*
X32117205Y-99290256D01*
X32195226Y-99101898D01*
X32235000Y-98901939D01*
X32235000Y-98698061D01*
X32195226Y-98498102D01*
X32117205Y-98309744D01*
X32003937Y-98140226D01*
X31859774Y-97996063D01*
X31690256Y-97882795D01*
X31501898Y-97804774D01*
X31301939Y-97765000D01*
X31098061Y-97765000D01*
X30898102Y-97804774D01*
X30709744Y-97882795D01*
X30540226Y-97996063D01*
X30396063Y-98140226D01*
X30282795Y-98309744D01*
X30204774Y-98498102D01*
X30165000Y-98698061D01*
X28733075Y-98698061D01*
X28631940Y-98630485D01*
X28434483Y-98548696D01*
X28224863Y-98507000D01*
X28011137Y-98507000D01*
X27801517Y-98548696D01*
X27604060Y-98630485D01*
X27426353Y-98749225D01*
X27275225Y-98900353D01*
X27156485Y-99078060D01*
X27074696Y-99275517D01*
X27033000Y-99485137D01*
X26568000Y-99485137D01*
X26568000Y-95402061D01*
X42399000Y-95402061D01*
X42399000Y-95605939D01*
X42438774Y-95805898D01*
X42516795Y-95994256D01*
X42630063Y-96163774D01*
X42774226Y-96307937D01*
X42943744Y-96421205D01*
X43132102Y-96499226D01*
X43332061Y-96539000D01*
X43535939Y-96539000D01*
X43735898Y-96499226D01*
X43924256Y-96421205D01*
X44093774Y-96307937D01*
X44237937Y-96163774D01*
X44351205Y-95994256D01*
X44429226Y-95805898D01*
X44469000Y-95605939D01*
X44469000Y-95402061D01*
X44429226Y-95202102D01*
X44351205Y-95013744D01*
X44237937Y-94844226D01*
X44093774Y-94700063D01*
X43924256Y-94586795D01*
X43735898Y-94508774D01*
X43548005Y-94471400D01*
X78804420Y-94471400D01*
X78830678Y-94738007D01*
X78908445Y-94994368D01*
X79034730Y-95230631D01*
X79204682Y-95437718D01*
X79411769Y-95607670D01*
X79648032Y-95733955D01*
X79904393Y-95811722D01*
X80104191Y-95831400D01*
X80467576Y-95831400D01*
X80500774Y-95998298D01*
X80578795Y-96186656D01*
X80692063Y-96356174D01*
X80836226Y-96500337D01*
X81005744Y-96613605D01*
X81194102Y-96691626D01*
X81394061Y-96731400D01*
X81597939Y-96731400D01*
X81797898Y-96691626D01*
X81986256Y-96613605D01*
X82155774Y-96500337D01*
X82299937Y-96356174D01*
X82413205Y-96186656D01*
X82491226Y-95998298D01*
X82531000Y-95798339D01*
X82531000Y-95594461D01*
X82491226Y-95394502D01*
X82413205Y-95206144D01*
X82299937Y-95036626D01*
X82155774Y-94892463D01*
X82038282Y-94813958D01*
X82061322Y-94738007D01*
X82087580Y-94471400D01*
X82072807Y-94321400D01*
X82705146Y-94321400D01*
X82728508Y-94558601D01*
X82797697Y-94786687D01*
X82910054Y-94996892D01*
X83061261Y-95181139D01*
X83245508Y-95332346D01*
X83455713Y-95444703D01*
X83683799Y-95513892D01*
X83861563Y-95531400D01*
X84630437Y-95531400D01*
X84808201Y-95513892D01*
X85036287Y-95444703D01*
X85246492Y-95332346D01*
X85430739Y-95181139D01*
X85581946Y-94996892D01*
X85694303Y-94786687D01*
X85763492Y-94558601D01*
X85786854Y-94321400D01*
X85763492Y-94084199D01*
X85694303Y-93856113D01*
X85581946Y-93645908D01*
X85430739Y-93461661D01*
X85246492Y-93310454D01*
X85036287Y-93198097D01*
X84808201Y-93128908D01*
X84630437Y-93111400D01*
X83861563Y-93111400D01*
X83683799Y-93128908D01*
X83455713Y-93198097D01*
X83245508Y-93310454D01*
X83061261Y-93461661D01*
X82910054Y-93645908D01*
X82797697Y-93856113D01*
X82728508Y-94084199D01*
X82705146Y-94321400D01*
X82072807Y-94321400D01*
X82061322Y-94204793D01*
X81983555Y-93948432D01*
X81857270Y-93712169D01*
X81687318Y-93505082D01*
X81480231Y-93335130D01*
X81243968Y-93208845D01*
X80987607Y-93131078D01*
X80787809Y-93111400D01*
X80104191Y-93111400D01*
X79904393Y-93131078D01*
X79648032Y-93208845D01*
X79411769Y-93335130D01*
X79204682Y-93505082D01*
X79034730Y-93712169D01*
X78908445Y-93948432D01*
X78830678Y-94204793D01*
X78804420Y-94471400D01*
X43548005Y-94471400D01*
X43535939Y-94469000D01*
X43332061Y-94469000D01*
X43132102Y-94508774D01*
X42943744Y-94586795D01*
X42774226Y-94700063D01*
X42630063Y-94844226D01*
X42516795Y-95013744D01*
X42438774Y-95202102D01*
X42399000Y-95402061D01*
X26568000Y-95402061D01*
X26568000Y-91366818D01*
X28369787Y-91366818D01*
X28861946Y-91969149D01*
X29712933Y-92439063D01*
X30639243Y-92733929D01*
X31605281Y-92842414D01*
X32573921Y-92760351D01*
X33507938Y-92490893D01*
X34371440Y-92044394D01*
X34484054Y-91969149D01*
X34976213Y-91366818D01*
X78992787Y-91366818D01*
X79484946Y-91969149D01*
X80335933Y-92439063D01*
X81262243Y-92733929D01*
X82228281Y-92842414D01*
X83196921Y-92760351D01*
X84130938Y-92490893D01*
X84994440Y-92044394D01*
X85107054Y-91969149D01*
X85599213Y-91366818D01*
X82296000Y-88063605D01*
X78992787Y-91366818D01*
X34976213Y-91366818D01*
X31673000Y-88063605D01*
X28369787Y-91366818D01*
X26568000Y-91366818D01*
X26568000Y-87911952D01*
X26576117Y-87816281D01*
X26714586Y-87816281D01*
X26796649Y-88784921D01*
X27066107Y-89718938D01*
X27512606Y-90582440D01*
X27587851Y-90695054D01*
X28190182Y-91187213D01*
X31493395Y-87884000D01*
X31852605Y-87884000D01*
X35155818Y-91187213D01*
X35758149Y-90695054D01*
X36171284Y-89946890D01*
X36660048Y-89946890D01*
X36660048Y-90193110D01*
X36708083Y-90434598D01*
X36802307Y-90662074D01*
X36939099Y-90866798D01*
X37113202Y-91040901D01*
X37317926Y-91177693D01*
X37545402Y-91271917D01*
X37786890Y-91319952D01*
X38033110Y-91319952D01*
X38274598Y-91271917D01*
X38502074Y-91177693D01*
X38706798Y-91040901D01*
X38880901Y-90866798D01*
X39017693Y-90662074D01*
X39111917Y-90434598D01*
X39159952Y-90193110D01*
X39159952Y-89946890D01*
X39111917Y-89705402D01*
X39017693Y-89477926D01*
X38880901Y-89273202D01*
X38706798Y-89099099D01*
X38502074Y-88962307D01*
X38274598Y-88868083D01*
X38033110Y-88820048D01*
X37786890Y-88820048D01*
X37545402Y-88868083D01*
X37317926Y-88962307D01*
X37113202Y-89099099D01*
X36939099Y-89273202D01*
X36802307Y-89477926D01*
X36708083Y-89705402D01*
X36660048Y-89946890D01*
X36171284Y-89946890D01*
X36228063Y-89844067D01*
X36522929Y-88917757D01*
X36631414Y-87951719D01*
X36570249Y-87229740D01*
X62015000Y-87229740D01*
X62015000Y-87522260D01*
X62072068Y-87809158D01*
X62184010Y-88079411D01*
X62346525Y-88322632D01*
X62553368Y-88529475D01*
X62796589Y-88691990D01*
X63066842Y-88803932D01*
X63353740Y-88861000D01*
X63646260Y-88861000D01*
X63933158Y-88803932D01*
X64203411Y-88691990D01*
X64446632Y-88529475D01*
X64653475Y-88322632D01*
X64770000Y-88148240D01*
X64886525Y-88322632D01*
X65093368Y-88529475D01*
X65336589Y-88691990D01*
X65606842Y-88803932D01*
X65893740Y-88861000D01*
X66186260Y-88861000D01*
X66473158Y-88803932D01*
X66743411Y-88691990D01*
X66986632Y-88529475D01*
X67193475Y-88322632D01*
X67310000Y-88148240D01*
X67426525Y-88322632D01*
X67633368Y-88529475D01*
X67876589Y-88691990D01*
X68146842Y-88803932D01*
X68433740Y-88861000D01*
X68726260Y-88861000D01*
X69013158Y-88803932D01*
X69283411Y-88691990D01*
X69526632Y-88529475D01*
X69733475Y-88322632D01*
X69850000Y-88148240D01*
X69966525Y-88322632D01*
X70173368Y-88529475D01*
X70416589Y-88691990D01*
X70686842Y-88803932D01*
X70973740Y-88861000D01*
X71266260Y-88861000D01*
X71553158Y-88803932D01*
X71823411Y-88691990D01*
X72066632Y-88529475D01*
X72273475Y-88322632D01*
X72390000Y-88148240D01*
X72506525Y-88322632D01*
X72713368Y-88529475D01*
X72956589Y-88691990D01*
X73226842Y-88803932D01*
X73513740Y-88861000D01*
X73806260Y-88861000D01*
X74093158Y-88803932D01*
X74363411Y-88691990D01*
X74606632Y-88529475D01*
X74813475Y-88322632D01*
X74975990Y-88079411D01*
X75084981Y-87816281D01*
X77337586Y-87816281D01*
X77419649Y-88784921D01*
X77689107Y-89718938D01*
X78135606Y-90582440D01*
X78210851Y-90695054D01*
X78813182Y-91187213D01*
X82116395Y-87884000D01*
X78813182Y-84580787D01*
X78210851Y-85072946D01*
X77740937Y-85923933D01*
X77446071Y-86850243D01*
X77337586Y-87816281D01*
X75084981Y-87816281D01*
X75087932Y-87809158D01*
X75145000Y-87522260D01*
X75145000Y-87229740D01*
X75087932Y-86942842D01*
X74975990Y-86672589D01*
X74813475Y-86429368D01*
X74681620Y-86297513D01*
X74754180Y-86275502D01*
X74864494Y-86216537D01*
X74961185Y-86137185D01*
X75040537Y-86040494D01*
X75099502Y-85930180D01*
X75135812Y-85810482D01*
X75148072Y-85686000D01*
X75148072Y-83986000D01*
X75135812Y-83861518D01*
X75099502Y-83741820D01*
X75040537Y-83631506D01*
X74961185Y-83534815D01*
X74864494Y-83455463D01*
X74754180Y-83396498D01*
X74634482Y-83360188D01*
X74510000Y-83347928D01*
X72810000Y-83347928D01*
X72685518Y-83360188D01*
X72565820Y-83396498D01*
X72455506Y-83455463D01*
X72358815Y-83534815D01*
X72279463Y-83631506D01*
X72220498Y-83741820D01*
X72196034Y-83822466D01*
X72120269Y-83738412D01*
X71886920Y-83564359D01*
X71624099Y-83439175D01*
X71476890Y-83394524D01*
X71247000Y-83515845D01*
X71247000Y-84709000D01*
X71267000Y-84709000D01*
X71267000Y-84963000D01*
X71247000Y-84963000D01*
X71247000Y-84983000D01*
X70993000Y-84983000D01*
X70993000Y-84963000D01*
X68707000Y-84963000D01*
X68707000Y-84983000D01*
X68453000Y-84983000D01*
X68453000Y-84963000D01*
X68433000Y-84963000D01*
X68433000Y-84709000D01*
X68453000Y-84709000D01*
X68453000Y-83515845D01*
X68707000Y-83515845D01*
X68707000Y-84709000D01*
X70993000Y-84709000D01*
X70993000Y-83515845D01*
X70763110Y-83394524D01*
X70615901Y-83439175D01*
X70353080Y-83564359D01*
X70119731Y-83738412D01*
X69924822Y-83954645D01*
X69850000Y-84080255D01*
X69775178Y-83954645D01*
X69580269Y-83738412D01*
X69346920Y-83564359D01*
X69084099Y-83439175D01*
X68936890Y-83394524D01*
X68707000Y-83515845D01*
X68453000Y-83515845D01*
X68223110Y-83394524D01*
X68075901Y-83439175D01*
X67813080Y-83564359D01*
X67579731Y-83738412D01*
X67384822Y-83954645D01*
X67315195Y-84071534D01*
X67193475Y-83889368D01*
X66986632Y-83682525D01*
X66743411Y-83520010D01*
X66473158Y-83408068D01*
X66186260Y-83351000D01*
X65893740Y-83351000D01*
X65606842Y-83408068D01*
X65336589Y-83520010D01*
X65093368Y-83682525D01*
X64886525Y-83889368D01*
X64764805Y-84071534D01*
X64695178Y-83954645D01*
X64500269Y-83738412D01*
X64266920Y-83564359D01*
X64004099Y-83439175D01*
X63856890Y-83394524D01*
X63627000Y-83515845D01*
X63627000Y-84709000D01*
X63647000Y-84709000D01*
X63647000Y-84963000D01*
X63627000Y-84963000D01*
X63627000Y-84983000D01*
X63373000Y-84983000D01*
X63373000Y-84963000D01*
X62179186Y-84963000D01*
X62058519Y-85192891D01*
X62155843Y-85467252D01*
X62304822Y-85717355D01*
X62499731Y-85933588D01*
X62729406Y-86104900D01*
X62553368Y-86222525D01*
X62346525Y-86429368D01*
X62184010Y-86672589D01*
X62072068Y-86942842D01*
X62015000Y-87229740D01*
X36570249Y-87229740D01*
X36549351Y-86983079D01*
X36279893Y-86049062D01*
X35833394Y-85185560D01*
X35758149Y-85072946D01*
X35155818Y-84580787D01*
X31852605Y-87884000D01*
X31493395Y-87884000D01*
X28190182Y-84580787D01*
X27587851Y-85072946D01*
X27117937Y-85923933D01*
X26823071Y-86850243D01*
X26714586Y-87816281D01*
X26576117Y-87816281D01*
X26640791Y-87054084D01*
X26850036Y-86247897D01*
X27192124Y-85488491D01*
X27657270Y-84797583D01*
X28232181Y-84194921D01*
X28900414Y-83697744D01*
X29642860Y-83320264D01*
X30438295Y-83073275D01*
X30634950Y-83047210D01*
X29838062Y-83277107D01*
X28974560Y-83723606D01*
X28861946Y-83798851D01*
X28369787Y-84401182D01*
X31673000Y-87704395D01*
X34976213Y-84401182D01*
X34636972Y-83986000D01*
X37119928Y-83986000D01*
X37119928Y-85686000D01*
X37132188Y-85810482D01*
X37168498Y-85930180D01*
X37227463Y-86040494D01*
X37306815Y-86137185D01*
X37403506Y-86216537D01*
X37513820Y-86275502D01*
X37633518Y-86311812D01*
X37758000Y-86324072D01*
X39458000Y-86324072D01*
X39582482Y-86311812D01*
X39702180Y-86275502D01*
X39812494Y-86216537D01*
X39909185Y-86137185D01*
X39988537Y-86040494D01*
X40047502Y-85930180D01*
X40069513Y-85857620D01*
X40201368Y-85989475D01*
X40444589Y-86151990D01*
X40714842Y-86263932D01*
X41001740Y-86321000D01*
X41294260Y-86321000D01*
X41581158Y-86263932D01*
X41851411Y-86151990D01*
X42094632Y-85989475D01*
X42301475Y-85782632D01*
X42418000Y-85608240D01*
X42534525Y-85782632D01*
X42741368Y-85989475D01*
X42984589Y-86151990D01*
X43254842Y-86263932D01*
X43541740Y-86321000D01*
X43834260Y-86321000D01*
X44121158Y-86263932D01*
X44391411Y-86151990D01*
X44634632Y-85989475D01*
X44841475Y-85782632D01*
X44963195Y-85600466D01*
X45032822Y-85717355D01*
X45227731Y-85933588D01*
X45461080Y-86107641D01*
X45723901Y-86232825D01*
X45871110Y-86277476D01*
X46101000Y-86156155D01*
X46101000Y-84963000D01*
X46355000Y-84963000D01*
X46355000Y-86156155D01*
X46584890Y-86277476D01*
X46732099Y-86232825D01*
X46994920Y-86107641D01*
X47228269Y-85933588D01*
X47423178Y-85717355D01*
X47572157Y-85467252D01*
X47669481Y-85192891D01*
X49866519Y-85192891D01*
X49963843Y-85467252D01*
X50112822Y-85717355D01*
X50307731Y-85933588D01*
X50541080Y-86107641D01*
X50803901Y-86232825D01*
X50951110Y-86277476D01*
X51181000Y-86156155D01*
X51181000Y-84963000D01*
X49987186Y-84963000D01*
X49866519Y-85192891D01*
X47669481Y-85192891D01*
X47548814Y-84963000D01*
X46355000Y-84963000D01*
X46101000Y-84963000D01*
X46081000Y-84963000D01*
X46081000Y-84709000D01*
X46101000Y-84709000D01*
X46101000Y-83515845D01*
X46355000Y-83515845D01*
X46355000Y-84709000D01*
X47548814Y-84709000D01*
X47669481Y-84479109D01*
X49866519Y-84479109D01*
X49987186Y-84709000D01*
X51181000Y-84709000D01*
X51181000Y-83515845D01*
X51435000Y-83515845D01*
X51435000Y-84709000D01*
X51455000Y-84709000D01*
X51455000Y-84963000D01*
X51435000Y-84963000D01*
X51435000Y-86156155D01*
X51664890Y-86277476D01*
X51812099Y-86232825D01*
X52074920Y-86107641D01*
X52308269Y-85933588D01*
X52503178Y-85717355D01*
X52572805Y-85600466D01*
X52694525Y-85782632D01*
X52901368Y-85989475D01*
X53144589Y-86151990D01*
X53414842Y-86263932D01*
X53701740Y-86321000D01*
X53994260Y-86321000D01*
X54281158Y-86263932D01*
X54551411Y-86151990D01*
X54794632Y-85989475D01*
X55001475Y-85782632D01*
X55118000Y-85608240D01*
X55234525Y-85782632D01*
X55441368Y-85989475D01*
X55684589Y-86151990D01*
X55954842Y-86263932D01*
X56241740Y-86321000D01*
X56534260Y-86321000D01*
X56821158Y-86263932D01*
X57091411Y-86151990D01*
X57334632Y-85989475D01*
X57466487Y-85857620D01*
X57488498Y-85930180D01*
X57547463Y-86040494D01*
X57626815Y-86137185D01*
X57723506Y-86216537D01*
X57833820Y-86275502D01*
X57953518Y-86311812D01*
X58078000Y-86324072D01*
X59778000Y-86324072D01*
X59902482Y-86311812D01*
X60022180Y-86275502D01*
X60132494Y-86216537D01*
X60229185Y-86137185D01*
X60308537Y-86040494D01*
X60367502Y-85930180D01*
X60403812Y-85810482D01*
X60416072Y-85686000D01*
X60416072Y-84479109D01*
X62058519Y-84479109D01*
X62179186Y-84709000D01*
X63373000Y-84709000D01*
X63373000Y-83515845D01*
X63143110Y-83394524D01*
X62995901Y-83439175D01*
X62733080Y-83564359D01*
X62499731Y-83738412D01*
X62304822Y-83954645D01*
X62155843Y-84204748D01*
X62058519Y-84479109D01*
X60416072Y-84479109D01*
X60416072Y-83986000D01*
X60403812Y-83861518D01*
X60367502Y-83741820D01*
X60308537Y-83631506D01*
X60229185Y-83534815D01*
X60132494Y-83455463D01*
X60022180Y-83396498D01*
X59902482Y-83360188D01*
X59778000Y-83347928D01*
X58078000Y-83347928D01*
X57953518Y-83360188D01*
X57833820Y-83396498D01*
X57723506Y-83455463D01*
X57626815Y-83534815D01*
X57547463Y-83631506D01*
X57488498Y-83741820D01*
X57466487Y-83814380D01*
X57334632Y-83682525D01*
X57091411Y-83520010D01*
X56821158Y-83408068D01*
X56534260Y-83351000D01*
X56241740Y-83351000D01*
X55954842Y-83408068D01*
X55684589Y-83520010D01*
X55441368Y-83682525D01*
X55234525Y-83889368D01*
X55118000Y-84063760D01*
X55001475Y-83889368D01*
X54794632Y-83682525D01*
X54551411Y-83520010D01*
X54281158Y-83408068D01*
X53994260Y-83351000D01*
X53701740Y-83351000D01*
X53414842Y-83408068D01*
X53144589Y-83520010D01*
X52901368Y-83682525D01*
X52694525Y-83889368D01*
X52572805Y-84071534D01*
X52503178Y-83954645D01*
X52308269Y-83738412D01*
X52074920Y-83564359D01*
X51812099Y-83439175D01*
X51664890Y-83394524D01*
X51435000Y-83515845D01*
X51181000Y-83515845D01*
X50951110Y-83394524D01*
X50803901Y-83439175D01*
X50541080Y-83564359D01*
X50307731Y-83738412D01*
X50112822Y-83954645D01*
X49963843Y-84204748D01*
X49866519Y-84479109D01*
X47669481Y-84479109D01*
X47572157Y-84204748D01*
X47423178Y-83954645D01*
X47228269Y-83738412D01*
X46994920Y-83564359D01*
X46732099Y-83439175D01*
X46584890Y-83394524D01*
X46355000Y-83515845D01*
X46101000Y-83515845D01*
X45871110Y-83394524D01*
X45723901Y-83439175D01*
X45461080Y-83564359D01*
X45227731Y-83738412D01*
X45032822Y-83954645D01*
X44963195Y-84071534D01*
X44841475Y-83889368D01*
X44634632Y-83682525D01*
X44391411Y-83520010D01*
X44121158Y-83408068D01*
X43834260Y-83351000D01*
X43541740Y-83351000D01*
X43254842Y-83408068D01*
X42984589Y-83520010D01*
X42741368Y-83682525D01*
X42534525Y-83889368D01*
X42418000Y-84063760D01*
X42301475Y-83889368D01*
X42094632Y-83682525D01*
X41851411Y-83520010D01*
X41581158Y-83408068D01*
X41294260Y-83351000D01*
X41001740Y-83351000D01*
X40714842Y-83408068D01*
X40444589Y-83520010D01*
X40201368Y-83682525D01*
X40069513Y-83814380D01*
X40047502Y-83741820D01*
X39988537Y-83631506D01*
X39909185Y-83534815D01*
X39812494Y-83455463D01*
X39702180Y-83396498D01*
X39582482Y-83360188D01*
X39458000Y-83347928D01*
X37758000Y-83347928D01*
X37633518Y-83360188D01*
X37513820Y-83396498D01*
X37403506Y-83455463D01*
X37306815Y-83534815D01*
X37227463Y-83631506D01*
X37168498Y-83741820D01*
X37132188Y-83861518D01*
X37119928Y-83986000D01*
X34636972Y-83986000D01*
X34484054Y-83798851D01*
X33633067Y-83328937D01*
X32706757Y-83034071D01*
X32011550Y-82956000D01*
X82004724Y-82956000D01*
X81395079Y-83007649D01*
M02*
